<svg width="284" height="304" viewBox="0 0 284 304" fill="none" xmlns="http://www.w3.org/2000/svg">
<g style="mix-blend-mode:multiply" opacity="0.75">
<path fill-rule="evenodd" clip-rule="evenodd" d="M169.307 45.4016H58.4023C58.4023 45.4016 68.8505 30.1743 77.4403 29.9383C87.6901 29.655 92.3079 40.9165 102.151 40.9165C111.998 40.9165 118.591 13.3671 136.813 13.3671C156.27 13.3671 169.307 45.4016 169.307 45.4016Z" fill="#E5E7E6"/>
<path fill-rule="evenodd" clip-rule="evenodd" d="M165.31 178.194C164.113 174.616 157.558 175.22 157.558 165.243C157.555 150.217 178.266 151.932 179.485 140.611C180.707 129.29 167.399 129.56 166.986 120.011C166.573 110.462 176.694 90.759 192.043 90.759C204.148 90.759 194.122 105.961 203.893 112.76C213.664 119.558 224.821 110.849 230.343 121.538C237.95 136.264 218.499 153.95 220.418 165.236C222.339 176.526 233.742 173.857 234.088 186.261C234.438 198.665 217.876 200.85 219.435 211.485C220.418 218.189 230.901 215.951 231.452 229.173C231.918 240.365 195.902 254.217 168.844 231.439C141.79 208.665 169.877 191.854 165.31 178.194Z" fill="#B5B8B5"/>
<path d="M196.39 149.824H193.87V262.35H196.39V149.824Z" fill="#E5E7E6"/>
<path d="M209.843 209.634L193.913 225.551L195.695 227.332L211.624 211.415L209.843 209.634Z" fill="#E5E7E6"/>
<path d="M203.074 176.322L194.1 185.289L195.882 187.069L204.856 178.102L203.074 176.322Z" fill="#E5E7E6"/>
<path d="M183.09 188.248L181.309 190.028L194.372 203.081L196.154 201.301L183.09 188.248Z" fill="#E5E7E6"/>
<path d="M189.15 159.241L187.368 161.021L194.631 168.279L196.413 166.498L189.15 159.241Z" fill="#E5E7E6"/>
<path fill-rule="evenodd" clip-rule="evenodd" d="M65.055 188.808C65.055 210.437 50.9277 222.504 32.5259 222.504C14.1242 222.504 0 210.437 0 188.808C0 143.264 20.761 90.7622 32.5291 90.7622C44.2971 90.7622 65.055 143.264 65.055 188.808Z" fill="#B5B8B5"/>
<path d="M33.789 155.376H31.2691V257.73H33.789V155.376Z" fill="#E5E7E6"/>
<path d="M44.4328 196.229L31.138 209.514L32.9198 211.294L46.2146 198.01L44.4328 196.229Z" fill="#E5E7E6"/>
<path d="M22.1421 176.407L20.3602 178.187L31.5636 189.382L33.3454 187.601L22.1421 176.407Z" fill="#E5E7E6"/>
<path d="M40.29 163.884L31.3162 172.85L33.098 174.631L42.0718 165.664L40.29 163.884Z" fill="#E5E7E6"/>
<path fill-rule="evenodd" clip-rule="evenodd" d="M172.561 196.981C172.561 221.824 152.424 241.961 127.587 241.961C102.75 241.961 82.6125 221.824 82.6125 196.981C82.6125 172.139 102.747 152.002 127.587 152.002C152.427 152.002 172.561 172.139 172.561 196.981Z" fill="#E5E7E6"/>
<path d="M128.847 275.982H126.327V212.221L117.101 202.993L118.884 201.215L126.327 208.658V183.979H128.847V193.919L132.227 190.539L134.01 192.317L128.857 197.472L128.847 197.463V223.599L136.706 215.737L138.489 217.515L128.847 227.162V275.982Z" fill="#909590"/>
</g>
</svg>
