<svg width="1853" height="304" viewBox="0 0 1853 304" fill="none" xmlns="http://www.w3.org/2000/svg">
<g opacity="0.75">
<g style="mix-blend-mode:multiply" opacity="0.75">
<path fill-rule="evenodd" clip-rule="evenodd" d="M1738.31 45.4016H1627.4C1627.4 45.4016 1637.85 30.1743 1646.44 29.9383C1656.69 29.655 1661.31 40.9165 1671.15 40.9165C1681 40.9165 1687.59 13.3671 1705.81 13.3671C1725.27 13.3671 1738.31 45.4016 1738.31 45.4016Z" fill="#E5E7E6"/>
<path fill-rule="evenodd" clip-rule="evenodd" d="M1734.31 178.194C1733.11 174.616 1726.56 175.22 1726.56 165.243C1726.56 150.217 1747.27 151.932 1748.48 140.611C1749.71 129.29 1736.4 129.56 1735.99 120.011C1735.57 110.462 1745.69 90.759 1761.04 90.759C1773.15 90.759 1763.12 105.961 1772.89 112.76C1782.66 119.558 1793.82 110.849 1799.34 121.538C1806.95 136.264 1787.5 153.95 1789.42 165.236C1791.34 176.526 1802.74 173.857 1803.09 186.261C1803.44 198.665 1786.88 200.85 1788.43 211.485C1789.42 218.189 1799.9 215.951 1800.45 229.173C1800.92 240.365 1764.9 254.217 1737.84 231.439C1710.79 208.665 1738.88 191.854 1734.31 178.194Z" fill="#B5B8B5"/>
<path d="M1765.39 149.824H1762.87V262.35H1765.39V149.824Z" fill="#E5E7E6"/>
<path d="M1778.84 209.634L1762.91 225.551L1764.69 227.332L1780.62 211.415L1778.84 209.634Z" fill="#E5E7E6"/>
<path d="M1772.07 176.322L1763.1 185.289L1764.88 187.069L1773.86 178.102L1772.07 176.322Z" fill="#E5E7E6"/>
<path d="M1752.09 188.248L1750.31 190.028L1763.37 203.081L1765.15 201.301L1752.09 188.248Z" fill="#E5E7E6"/>
<path d="M1758.15 159.241L1756.37 161.021L1763.63 168.279L1765.41 166.498L1758.15 159.241Z" fill="#E5E7E6"/>
<path fill-rule="evenodd" clip-rule="evenodd" d="M1634.06 188.808C1634.06 210.437 1619.93 222.504 1601.53 222.504C1583.12 222.504 1569 210.437 1569 188.808C1569 143.264 1589.76 90.7622 1601.53 90.7622C1613.3 90.7622 1634.06 143.264 1634.06 188.808Z" fill="#B5B8B5"/>
<path d="M1602.79 155.376H1600.27V257.73H1602.79V155.376Z" fill="#E5E7E6"/>
<path d="M1613.43 196.229L1600.14 209.514L1601.92 211.294L1615.21 198.01L1613.43 196.229Z" fill="#E5E7E6"/>
<path d="M1591.14 176.407L1589.36 178.187L1600.56 189.382L1602.35 187.601L1591.14 176.407Z" fill="#E5E7E6"/>
<path d="M1609.29 163.884L1600.32 172.85L1602.1 174.631L1611.07 165.664L1609.29 163.884Z" fill="#E5E7E6"/>
<path fill-rule="evenodd" clip-rule="evenodd" d="M1741.56 196.981C1741.56 221.824 1721.42 241.961 1696.59 241.961C1671.75 241.961 1651.61 221.824 1651.61 196.981C1651.61 172.139 1671.75 152.002 1696.59 152.002C1721.43 152.002 1741.56 172.139 1741.56 196.981Z" fill="#E5E7E6"/>
<path d="M1697.85 275.982H1695.33V212.221L1686.1 202.993L1687.88 201.215L1695.33 208.658V183.979H1697.85V193.919L1701.23 190.539L1703.01 192.317L1697.86 197.472L1697.85 197.463V223.599L1705.71 215.737L1707.49 217.515L1697.85 227.162V275.982Z" fill="#909590"/>
</g>
<g style="mix-blend-mode:multiply" opacity="0.75">
<g clip-path="url(#clip0)">
<path fill-rule="evenodd" clip-rule="evenodd" d="M114.121 45.4016H225.026C225.026 45.4016 214.578 30.1743 205.988 29.9383C195.738 29.655 191.121 40.9165 181.277 40.9165C171.431 40.9165 164.838 13.3671 146.616 13.3671C127.159 13.3671 114.121 45.4016 114.121 45.4016Z" fill="#E5E7E6"/>
<path fill-rule="evenodd" clip-rule="evenodd" d="M118.118 178.194C119.315 174.616 125.87 175.22 125.87 165.243C125.874 150.217 105.163 151.932 103.944 140.611C102.722 129.29 116.03 129.56 116.443 120.011C116.855 110.462 106.735 90.759 91.3852 90.759C79.2801 90.759 89.3063 105.961 79.5353 112.76C69.7642 119.558 58.6073 110.849 53.0855 121.538C45.4784 136.264 64.9291 153.95 63.0108 165.236C61.0894 176.526 49.6867 173.857 49.3402 186.261C48.9906 198.665 65.5528 200.85 63.9936 211.485C63.0108 218.189 52.5279 215.951 51.9767 229.173C51.5105 240.365 87.5266 254.217 114.584 231.439C141.639 208.665 113.551 191.854 118.118 178.194Z" fill="#B5B8B5"/>
<path d="M87.0382 149.824H89.5581V262.35H87.0382V149.824Z" fill="#E5E7E6"/>
<path d="M73.586 209.634L89.5156 225.551L87.7338 227.332L71.8042 211.415L73.586 209.634Z" fill="#E5E7E6"/>
<path d="M80.3544 176.322L89.3281 185.289L87.5463 187.069L78.5725 178.102L80.3544 176.322Z" fill="#E5E7E6"/>
<path d="M100.338 188.248L102.12 190.028L89.0569 203.081L87.2751 201.301L100.338 188.248Z" fill="#E5E7E6"/>
<path d="M94.279 159.241L96.0608 161.021L88.7976 168.279L87.0157 166.498L94.279 159.241Z" fill="#E5E7E6"/>
<path fill-rule="evenodd" clip-rule="evenodd" d="M218.374 188.808C218.374 210.437 232.501 222.504 250.903 222.504C269.304 222.504 283.429 210.437 283.429 188.808C283.429 143.264 262.668 90.7622 250.9 90.7622C239.131 90.7622 218.374 143.264 218.374 188.808Z" fill="#B5B8B5"/>
<path d="M249.64 155.376H252.16V257.73H249.64V155.376Z" fill="#E5E7E6"/>
<path d="M238.996 196.229L252.291 209.514L250.509 211.294L237.214 198.01L238.996 196.229Z" fill="#E5E7E6"/>
<path d="M261.287 176.407L263.068 178.187L251.865 189.382L250.083 187.601L261.287 176.407Z" fill="#E5E7E6"/>
<path d="M243.139 163.884L252.112 172.85L250.331 174.631L241.357 165.664L243.139 163.884Z" fill="#E5E7E6"/>
<path fill-rule="evenodd" clip-rule="evenodd" d="M110.867 196.981C110.867 221.824 131.005 241.961 155.842 241.961C180.679 241.961 200.816 221.824 200.816 196.981C200.816 172.139 180.682 152.002 155.842 152.002C131.001 152.002 110.867 172.139 110.867 196.981Z" fill="#E5E7E6"/>
<path d="M154.582 275.982H157.101V212.221L166.328 202.993L164.545 201.215L157.101 208.658V183.979H154.582V193.919L151.202 190.539L149.419 192.317L154.572 197.472L154.582 197.463V223.599L146.722 215.737L144.94 217.515L154.582 227.162V275.982Z" fill="#909590"/>
</g>
</g>
</g>
<defs>
<clipPath id="clip0">
<rect width="283.429" height="304" fill="white" transform="matrix(-1 0 0 1 283.429 0)"/>
</clipPath>
</defs>
</svg>
