<svg width="110" height="57" viewBox="0 0 110 57" fill="none" xmlns="http://www.w3.org/2000/svg">
<g clip-path="url(#clip0)">
<path d="M10.6929 14.1345C10.4876 14.5559 10.5796 14.3536 10.6352 14.2625C10.7359 14.1011 10.521 14.4283 10.5317 14.422C10.5801 14.3864 10.6837 14.2433 10.7019 14.1877C10.624 14.4206 10.5419 14.3747 10.6567 14.2519C10.6861 14.2207 10.7155 14.1875 10.7448 14.1542C10.7822 14.1127 10.8223 14.0731 10.8624 14.0315C11.0493 13.8256 10.7069 14.163 10.8838 14.0106C11.0821 13.8395 11.2721 13.6623 11.4786 13.4951C11.5778 13.4157 11.6797 13.3362 11.7844 13.2567C11.8434 13.2127 11.9025 13.1667 11.9642 13.1227C11.8193 13.2295 12.034 13.0725 12.0636 13.0515C13.2911 12.1983 14.6397 11.4477 16.0298 10.754C19.4944 9.02596 23.2544 7.61944 27.1162 6.47996C29.1106 5.89183 31.1441 5.37896 33.2174 4.97826C35.4612 4.5442 37.7589 4.26925 40.046 4.00677C44.8452 3.45581 49.6882 3.10923 54.5388 3.0906C64.0312 3.05242 73.4091 4.41026 82.1355 7.18873C86.6309 8.62106 91.0384 10.3295 94.9005 12.5937C98.1819 14.5182 101.043 16.8345 103.247 19.5013C105.244 21.917 106.691 24.5953 107.494 27.3839C107.984 29.0844 107.833 30.7906 107.284 32.4783C107.022 33.284 106.599 34.2254 106.227 34.9262C105.794 35.7448 105.26 36.6367 104.83 37.2911C104.586 37.6598 104.342 38.0285 104.078 38.3893C103.975 38.5324 103.868 38.6714 103.759 38.8104C103.549 39.0822 103.863 38.6858 103.727 38.8499C103.644 38.9475 103.564 39.0451 103.482 39.1427C103.252 39.4107 103.009 39.6728 102.761 39.9288C102.694 39.9975 102.627 40.0661 102.558 40.1328C102.678 40.0121 102.501 40.187 102.475 40.2141C102.317 40.3641 102.159 40.5121 101.998 40.6601C100.745 41.7946 99.333 42.8168 97.8189 43.7523C94.3444 45.8988 90.4124 47.597 86.3068 48.9453C77.1232 51.9601 66.9956 53.0598 57.074 53.2583C47.9938 53.4399 38.8895 52.5802 30.2602 50.4707C22.2195 48.5061 14.1025 45.6363 8.44976 40.7667C6.02362 38.6774 4.07001 36.2447 2.97331 33.5754C2.4743 32.3609 2.17809 31.0942 2.09351 29.8201C2.00967 28.5953 2.1647 27.3688 2.49283 26.2791C2.53933 26.1246 2.5913 25.9721 2.64055 25.8196C2.73915 25.5208 2.58309 25.9681 2.65087 25.7846C2.67957 25.7083 2.70827 25.632 2.73968 25.5557C2.86257 25.2483 2.99914 24.9468 3.14655 24.6452C2.99651 24.953 3.23639 24.4839 3.27597 24.4095C3.36053 24.2585 3.44513 24.1096 3.53515 23.9606C3.57224 23.9006 3.60933 23.8406 3.64374 23.7826C3.82116 23.4908 3.52127 23.9403 3.65434 23.7661C3.77409 23.6084 3.87466 23.4387 3.98895 23.2791C4.18294 23.0055 4.35195 22.6953 4.43688 22.3906C4.47031 22.2691 4.57331 21.9026 4.43835 21.7754C4.08028 21.4364 3.49756 22.2081 3.38065 22.3739C1.46965 25.0481 0.393878 28.0212 0.448331 31.057C0.497969 33.7772 1.53795 36.4658 3.22478 38.8493C5.13632 41.5492 7.87033 43.8901 10.9891 45.8273C14.4751 47.9947 18.4601 49.5927 22.5985 50.9321C30.9546 53.6362 39.9299 55.1191 49.0264 55.4643C54.0621 55.6561 59.12 55.5194 64.1413 55.1168C69.3551 54.699 74.5437 54.0519 79.5554 52.8456C84.1452 51.7402 88.5877 50.233 92.679 48.2986C96.312 46.5823 99.7384 44.4858 102.376 41.9174C103.724 40.6051 104.791 39.1925 105.746 37.7037C106.976 35.7862 108.037 33.8057 108.73 31.7386C109.356 29.8755 109.667 27.8716 109.199 25.9739C108.837 24.5052 108.258 23.0521 107.553 21.6583C104.41 15.475 98.0471 10.6614 90.4549 7.49241C81.7535 3.86059 72.0985 1.59659 62.1512 0.999928C57.3339 0.710491 52.4786 0.784556 47.6626 1.12047C45.0729 1.30146 42.4952 1.55607 39.9266 1.86796C37.6505 2.14463 35.3857 2.44778 33.1616 2.9205C28.9243 3.8217 24.8181 5.13304 20.9386 6.71157C17.6904 8.03648 14.407 9.54236 11.821 11.5646C10.756 12.3989 9.92898 13.3465 9.39721 14.4331C9.29717 14.6377 8.98394 15.4585 9.5534 15.4191C10.112 15.3798 10.5481 14.4258 10.6929 14.1345Z" fill="#00E58D" stroke="#00E58D"/>
</g>
<defs>
<clipPath id="clip0">
<rect width="109.016" height="54.713" fill="white" transform="translate(0 1.66278) rotate(-0.873949)"/>
</clipPath>
</defs>
</svg>
