<svg width="149" height="6" viewBox="0 0 149 6" fill="none" xmlns="http://www.w3.org/2000/svg">
<g clip-path="url(#clip0)">
<path d="M3.09281 4.71801C4.85597 4.86575 6.67627 4.85549 8.45184 4.88387C12.3299 4.94718 16.2142 4.97968 20.0921 4.9968C24.9058 5.02218 29.7131 5.02833 34.5267 5.03061C40.1992 5.02987 45.8781 5.01756 51.5506 5.00142C57.723 4.97967 63.8953 4.95022 70.0677 4.90923C76.2913 4.86805 82.5148 4.81918 88.7448 4.75874C94.603 4.69961 100.461 4.63278 106.319 4.54671C111.389 4.47496 116.459 4.38782 121.528 4.28143C125.38 4.19858 129.226 4.1042 133.071 3.95979C135.763 3.86179 138.493 3.77519 141.152 3.50025C141.908 3.42061 142.664 3.32943 143.407 3.2075C144.675 2.99519 146.11 2.66684 147.172 2.17815C147.671 1.94931 148.605 1.46492 148.392 0.992266C148.179 0.515767 146.999 0.377519 146.345 0.345184C144.973 0.273042 143.564 0.393473 142.238 0.613678C141.328 0.766987 143.737 0.431351 143.359 0.471171C143.205 0.487108 143.045 0.506916 142.891 0.522853C142.5 0.562719 142.109 0.591038 141.712 0.619379C141.603 0.627461 141.488 0.635565 141.379 0.643646C140.86 0.680114 143.237 0.529331 142.295 0.586534C142.026 0.602877 141.751 0.619244 141.481 0.631739C140.847 0.664764 140.206 0.693964 139.572 0.723142C136.06 0.874073 132.535 0.967319 129.016 1.05285C124.197 1.1699 119.383 1.25614 114.564 1.33085C108.872 1.42019 103.181 1.49028 97.489 1.55267C91.3681 1.62042 85.2471 1.67278 79.126 1.71744C72.9345 1.76235 66.7365 1.79959 60.5385 1.82528C54.7122 1.84966 48.8859 1.86634 43.0596 1.87147C38.0409 1.86607 33.0157 1.86453 27.9905 1.8476C24.1383 1.83423 20.286 1.81317 16.4337 1.76516C16.0619 1.75877 15.6901 1.75623 15.3183 1.74985C14.6966 1.74049 16.7349 1.7718 16.1837 1.76219C16.1068 1.76246 16.0298 1.75889 15.9529 1.75916C15.7798 1.75592 15.6004 1.7527 15.4273 1.74946C14.8055 1.74011 14.1837 1.7269 13.5684 1.71368C12.6838 1.6937 11.7992 1.67372 10.9145 1.63066C10.6581 1.62001 10.4016 1.60552 10.1452 1.58333C8.84364 1.4763 7.28029 1.64731 6.03754 1.85183C4.8076 2.05245 3.2833 2.38882 2.27231 2.88118C1.71563 3.15256 0.826153 3.56751 1.05225 4.06706C1.2655 4.55895 2.43883 4.66258 3.09281 4.71801Z" fill="#00E58D"/>
</g>
<defs>
<clipPath id="clip0">
<rect width="147.414" height="4.34526" fill="white" transform="translate(0.998047 0.830872) rotate(-0.201895)"/>
</clipPath>
</defs>
</svg>
