<svg width="75" height="36" viewBox="0 0 75 36" fill="none" xmlns="http://www.w3.org/2000/svg">
<path d="M67.3288 27.2194C67.5642 26.7943 67.4845 26.9532 67.4252 27.0424C67.3492 27.1548 67.5772 26.8485 67.5642 26.8511C67.5383 26.8563 67.4641 26.9726 67.4456 26.9972C67.718 26.6392 67.5753 26.8524 67.4864 26.939C67.4604 26.9648 67.4326 26.9894 67.4048 27.0153C67.2436 27.1742 67.618 26.8421 67.4623 26.9648C67.3251 27.0721 67.1935 27.1807 67.0508 27.2841C66.9822 27.3332 66.9118 27.3823 66.8395 27.4314C66.8006 27.4585 66.7598 27.4908 66.7154 27.5141C66.9582 27.3913 66.7747 27.4766 66.7154 27.5128C65.8684 28.0388 64.9417 28.4988 63.9835 28.9227C61.6186 29.9708 59.0739 30.8082 56.4328 31.4867C55.0651 31.8382 53.6713 32.1419 52.2516 32.3745C50.7152 32.6265 49.1435 32.7777 47.5793 32.9212C44.2969 33.2223 40.9868 33.3942 37.6748 33.3593C31.214 33.2934 24.8384 32.3409 18.9298 30.5123C15.8755 29.5663 12.8841 28.4471 10.2709 26.9829C8.06349 25.7462 6.14895 24.2678 4.68108 22.5761C3.35406 21.046 2.38104 19.313 1.88248 17.6148C1.80834 17.3603 1.74904 17.1057 1.71753 16.8472C1.68047 16.5332 1.67861 16.3199 1.70085 16.0628C1.72309 15.7978 1.77499 15.5368 1.82688 15.2731C1.85838 15.1116 1.76201 15.4864 1.84171 15.2202C1.86209 15.1504 1.88063 15.0806 1.90287 15.0108C1.94921 14.857 2.0011 14.7032 2.05855 14.5507C2.09006 14.4667 2.11786 14.3814 2.15492 14.3C2.13825 14.3362 2.06226 14.5133 2.14936 14.3194C2.21238 14.1798 2.27355 14.0416 2.34212 13.9033C2.40884 13.765 2.47927 13.6267 2.5534 13.4897C2.56082 13.4768 2.70538 13.2041 2.60715 13.3876C2.51448 13.5608 2.69612 13.2351 2.71465 13.2041C2.86662 12.947 3.02786 12.6924 3.19652 12.4391C3.28363 12.3073 3.37445 12.1754 3.46527 12.0449C3.50974 11.9803 3.63948 11.7903 3.4597 12.0501C3.51345 11.9725 3.57091 11.8963 3.62836 11.82C3.79887 11.59 3.96938 11.36 4.15286 11.1351C4.22515 11.0459 4.29928 10.9594 4.37527 10.8728C4.53652 10.6854 4.20476 11.0498 4.32708 10.9283C4.38639 10.8689 4.44014 10.8069 4.49759 10.7461C4.65698 10.5794 4.82564 10.4179 4.998 10.2576C5.04248 10.2163 5.08512 10.1659 5.13886 10.131C4.90904 10.2822 5.06288 10.1969 5.12403 10.1439C5.23339 10.0521 5.34273 9.95909 5.45394 9.86734C5.89689 9.50807 6.37136 9.17077 6.86064 8.84252C6.88659 8.82443 7.01448 8.74301 6.87177 8.83477C6.9459 8.78695 7.02003 8.74042 7.09416 8.6939C7.20722 8.62282 7.32213 8.55304 7.43704 8.48454C7.70949 8.32042 7.9875 8.16017 8.27106 8.00509C10.6471 6.69596 13.3271 5.66985 16.122 4.86602C22.4234 3.05418 29.3495 2.45842 36.1254 2.4287C42.3083 2.40156 48.4985 3.0348 54.3515 4.44214C59.7986 5.75257 65.3105 7.63032 69.1044 10.7422C70.739 12.0824 72.0475 13.6345 72.7685 15.3274C72.9353 15.7203 73.0391 16.0317 73.1429 16.475C73.2337 16.8653 73.2911 17.2595 73.3134 17.6549C73.3189 17.7531 73.3226 17.8513 73.3226 17.9496C73.3226 17.9987 73.3208 18.0478 73.3226 18.0969C73.3263 18.2171 73.3338 17.9134 73.3208 18.1059C73.3078 18.3218 73.2911 18.5376 73.2615 18.7521C73.2355 18.9382 73.1911 19.123 73.1577 19.3078C73.1336 19.4409 73.2226 19.0739 73.1651 19.2729C73.154 19.3117 73.1447 19.3504 73.1336 19.3892C73.1002 19.5055 73.065 19.6218 73.0242 19.7369C72.9909 19.8338 72.9538 19.9294 72.9186 20.025C72.8408 20.2331 73.0131 19.8183 72.9483 19.9566C72.926 20.0044 72.9075 20.0522 72.8852 20.1C72.7981 20.2926 72.6943 20.4799 72.598 20.6699C72.7944 20.2835 72.6165 20.6311 72.5609 20.7203C72.5016 20.8147 72.4423 20.9077 72.3793 21.0008C72.3533 21.0382 72.3274 21.0757 72.3033 21.1119C72.1624 21.3174 72.4719 20.8922 72.3626 21.0292C72.2829 21.13 72.2088 21.2321 72.1291 21.3329C71.9252 21.5888 71.7491 21.8808 71.6565 22.1677C71.612 22.3086 71.5212 22.6045 71.6453 22.7493C71.9548 23.1111 72.648 22.3125 72.737 22.1987C74.1659 20.3998 75.0055 18.3928 74.9999 16.329C74.9944 14.5998 74.3049 12.8746 73.1688 11.3432C71.8844 9.61275 70.0255 8.10331 67.9034 6.84329C65.5459 5.4437 62.8418 4.39821 60.0302 3.51425C54.3534 1.72954 48.2409 0.708604 42.034 0.403615C38.5793 0.234322 35.1079 0.269211 31.6588 0.475986C28.0948 0.68922 24.5455 1.04719 21.1112 1.75926C17.9438 2.41706 14.8746 3.33462 12.0408 4.52226C9.51653 5.57939 7.13124 6.88593 5.28343 8.49617C4.29743 9.35557 3.50234 10.2809 2.7962 11.263C1.87136 12.5502 1.0707 13.8774 0.538782 15.2719C0.0754411 16.4841 -0.172911 17.7996 0.138452 19.0467C0.375688 19.9914 0.757486 20.931 1.23565 21.8304C3.32255 25.7669 7.63535 28.8749 12.7989 30.9504C18.7019 33.3231 25.2702 34.8429 32.0554 35.3146C35.36 35.5446 38.6923 35.5459 42.0025 35.3792C43.7724 35.29 45.535 35.1543 47.292 34.9825C48.8488 34.83 50.3983 34.6607 51.9217 34.3841C54.8241 33.8568 57.6412 33.0698 60.3064 32.1122C62.5916 31.2903 64.8842 30.3533 66.7135 29.0739C67.5827 28.4665 68.2203 27.757 68.6614 26.9571C68.7467 26.8033 69.1007 25.94 68.5168 26.0227C68.2648 26.0589 68.0313 26.2877 67.9052 26.4182C67.6569 26.6676 67.4845 26.9377 67.3288 27.2194Z" fill="#00E58D"/>
</svg>
