<svg width="152" height="160" viewBox="0 0 152 160" fill="none" xmlns="http://www.w3.org/2000/svg">
<g clip-path="url(#clip0)">
<path d="M10.6929 117.134C10.4876 117.556 10.5796 117.354 10.6352 117.262C10.7359 117.101 10.521 117.428 10.5317 117.422C10.5801 117.386 10.6837 117.243 10.7019 117.188C10.624 117.421 10.5419 117.375 10.6567 117.252C10.6861 117.221 10.7155 117.187 10.7448 117.154C10.7822 117.113 10.8223 117.073 10.8624 117.031C11.0493 116.826 10.7069 117.163 10.8838 117.011C11.0821 116.839 11.2721 116.662 11.4786 116.495C11.5778 116.416 11.6797 116.336 11.7844 116.257C11.8434 116.213 11.9025 116.167 11.9642 116.123C11.8193 116.229 12.034 116.072 12.0636 116.051C13.2911 115.198 14.6397 114.448 16.0298 113.754C19.4944 112.026 23.2544 110.619 27.1162 109.48C29.1106 108.892 31.1441 108.379 33.2174 107.978C35.4612 107.544 37.7589 107.269 40.046 107.007C44.8452 106.456 49.6882 106.109 54.5388 106.091C64.0312 106.052 73.4091 107.41 82.1355 110.189C86.6309 111.621 91.0384 113.329 94.9005 115.594C98.1819 117.518 101.043 119.835 103.247 122.501C105.244 124.917 106.691 127.595 107.494 130.384C107.984 132.084 107.833 133.791 107.284 135.478C107.022 136.284 106.599 137.225 106.227 137.926C105.794 138.745 105.26 139.637 104.83 140.291C104.586 140.66 104.342 141.029 104.078 141.389C103.975 141.532 103.868 141.671 103.759 141.81C103.549 142.082 103.863 141.686 103.727 141.85C103.644 141.947 103.564 142.045 103.482 142.143C103.252 142.411 103.009 142.673 102.761 142.929C102.694 142.997 102.627 143.066 102.558 143.133C102.678 143.012 102.501 143.187 102.475 143.214C102.317 143.364 102.159 143.512 101.998 143.66C100.745 144.795 99.333 145.817 97.8189 146.752C94.3444 148.899 90.4124 150.597 86.3068 151.945C77.1232 154.96 66.9956 156.06 57.074 156.258C47.9938 156.44 38.8895 155.58 30.2602 153.471C22.2195 151.506 14.1025 148.636 8.44976 143.767C6.02362 141.677 4.07001 139.245 2.97331 136.575C2.4743 135.361 2.17809 134.094 2.09351 132.82C2.00967 131.595 2.1647 130.369 2.49283 129.279C2.53933 129.125 2.5913 128.972 2.64055 128.82C2.73915 128.521 2.58309 128.968 2.65087 128.785C2.67957 128.708 2.70827 128.632 2.73968 128.556C2.86257 128.248 2.99914 127.947 3.14655 127.645C2.99651 127.953 3.23639 127.484 3.27597 127.409C3.36053 127.259 3.44513 127.11 3.53515 126.961C3.57224 126.901 3.60933 126.841 3.64374 126.783C3.82116 126.491 3.52127 126.94 3.65434 126.766C3.77409 126.608 3.87466 126.439 3.98895 126.279C4.18294 126.005 4.35195 125.695 4.43688 125.391C4.47031 125.269 4.57331 124.903 4.43835 124.775C4.08028 124.436 3.49756 125.208 3.38065 125.374C1.46965 128.048 0.393878 131.021 0.448331 134.057C0.497969 136.777 1.53795 139.466 3.22478 141.849C5.13632 144.549 7.87033 146.89 10.9891 148.827C14.4751 150.995 18.4601 152.593 22.5985 153.932C30.9546 156.636 39.9299 158.119 49.0264 158.464C54.0621 158.656 59.12 158.519 64.1413 158.117C69.3551 157.699 74.5437 157.052 79.5554 155.846C84.1452 154.74 88.5877 153.233 92.679 151.299C96.312 149.582 99.7384 147.486 102.376 144.917C103.724 143.605 104.791 142.192 105.746 140.704C106.976 138.786 108.037 136.806 108.73 134.739C109.356 132.875 109.667 130.872 109.199 128.974C108.837 127.505 108.258 126.052 107.553 124.658C104.41 118.475 98.0471 113.661 90.4549 110.492C81.7535 106.861 72.0985 104.597 62.1512 104C57.3339 103.71 52.4786 103.785 47.6626 104.12C45.0729 104.301 42.4952 104.556 39.9266 104.868C37.6505 105.145 35.3857 105.448 33.1616 105.92C28.9243 106.822 24.8181 108.133 20.9386 109.712C17.6904 111.036 14.407 112.542 11.821 114.565C10.756 115.399 9.92898 116.346 9.39721 117.433C9.29717 117.638 8.98394 118.458 9.5534 118.419C10.112 118.38 10.5481 117.426 10.6929 117.134Z" fill="#00E58D" stroke="#00E58D"/>
</g>
<g clip-path="url(#clip1)">
<path d="M6.09281 4.71798C7.85597 4.86572 9.67627 4.85546 11.4518 4.88384C15.3299 4.94715 19.2142 4.97965 23.0921 4.99677C27.9058 5.02215 32.7131 5.0283 37.5267 5.03058C43.1992 5.02984 48.8781 5.01753 54.5506 5.00139C60.723 4.97964 66.8953 4.95019 73.0677 4.90919C79.2913 4.86802 85.5148 4.81915 91.7448 4.75871C97.603 4.69958 103.461 4.63275 109.319 4.54668C114.389 4.47493 119.459 4.38779 124.528 4.2814C128.38 4.19855 132.226 4.10417 136.071 3.95976C138.763 3.86176 141.493 3.77516 144.152 3.50022C144.908 3.42058 145.664 3.3294 146.407 3.20747C147.675 2.99516 149.11 2.66681 150.172 2.17812C150.671 1.94928 151.605 1.46489 151.392 0.992236C151.179 0.515736 149.999 0.377488 149.345 0.345153C147.973 0.273011 146.564 0.393443 145.238 0.613648C144.328 0.766956 146.737 0.43132 146.359 0.47114C146.205 0.487077 146.045 0.506886 145.891 0.522823C145.5 0.562688 145.109 0.591007 144.712 0.619349C144.603 0.62743 144.488 0.635534 144.379 0.643616C143.86 0.680084 146.237 0.529301 145.295 0.586503C145.026 0.602847 144.751 0.619213 144.481 0.631708C143.847 0.664734 143.206 0.693934 142.572 0.723111C139.06 0.874043 135.535 0.967289 132.016 1.05281C127.197 1.16987 122.383 1.25611 117.564 1.33082C111.872 1.42016 106.181 1.49024 100.489 1.55264C94.3681 1.62039 88.2471 1.67275 82.126 1.71741C75.9345 1.76232 69.7365 1.79956 63.5385 1.82525C57.7122 1.84963 51.8859 1.86631 46.0596 1.87144C41.0409 1.86604 36.0157 1.8645 30.9905 1.84757C27.1383 1.8342 23.286 1.81314 19.4337 1.76513C19.0619 1.75874 18.6901 1.7562 18.3183 1.74982C17.6966 1.74046 19.7349 1.77177 19.1837 1.76216C19.1068 1.76243 19.0298 1.75885 18.9529 1.75913C18.7798 1.75589 18.6004 1.75267 18.4273 1.74943C17.8055 1.74008 17.1837 1.72687 16.5684 1.71365C15.6838 1.69367 14.7992 1.67369 13.9145 1.63063C13.6581 1.61998 13.4016 1.60549 13.1452 1.5833C11.8436 1.47627 10.2803 1.64728 9.03754 1.8518C7.8076 2.05242 6.2833 2.38879 5.27231 2.88115C4.71563 3.15252 3.82615 3.56748 4.05225 4.06703C4.2655 4.55892 5.43883 4.66255 6.09281 4.71798Z" fill="#00E58D"/>
</g>
<defs>
<clipPath id="clip0">
<rect width="109.016" height="54.713" fill="white" transform="translate(0 104.663) rotate(-0.873949)"/>
</clipPath>
<clipPath id="clip1">
<rect width="147.414" height="4.34526" fill="white" transform="translate(3.99805 0.830841) rotate(-0.201895)"/>
</clipPath>
</defs>
</svg>
