<svg width="47" height="4" viewBox="0 0 47 4" fill="none" xmlns="http://www.w3.org/2000/svg">
<g clip-path="url(#clip0)">
<path d="M0.667287 3.47894C1.22526 3.5765 1.80112 3.57199 2.36288 3.5924C3.58983 3.63784 4.81873 3.66337 6.04557 3.67896C7.56848 3.70096 9.08932 3.71053 10.6122 3.71761C12.4068 3.72373 14.2033 3.72237 15.9979 3.71854C17.9506 3.71166 19.9032 3.6998 21.8559 3.68048C23.8248 3.6611 25.7936 3.63674 27.7645 3.60491C29.6177 3.5735 31.4709 3.53711 33.3241 3.48828C34.9279 3.44779 36.5317 3.39735 38.1354 3.33447C39.3539 3.28538 40.5704 3.22884 41.7867 3.13995C42.6381 3.07972 43.5018 3.02691 44.3427 2.85225C44.5818 2.80164 44.8208 2.74357 45.0558 2.6656C45.4568 2.52982 45.9103 2.3192 46.2458 2.00449C46.4034 1.85712 46.6984 1.54504 46.6304 1.23921C46.5624 0.930901 46.1889 0.840148 45.982 0.818482C45.5479 0.770245 45.1021 0.846466 44.6829 0.98729C44.3953 1.08535 45.1569 0.871156 45.0374 0.896461C44.9888 0.906586 44.9381 0.919206 44.8895 0.929331C44.7659 0.954649 44.6422 0.972503 44.5166 0.990365C44.4821 0.995463 44.4457 1.00057 44.4112 1.00567C44.247 1.02864 44.999 0.933921 44.701 0.969808C44.6159 0.980061 44.5288 0.990322 44.4436 0.998087C44.2429 1.0187 44.0402 1.03683 43.8396 1.05496C42.7287 1.14845 41.6136 1.20464 40.5006 1.25584C38.9759 1.32591 37.4533 1.37606 35.9286 1.41876C34.1281 1.46989 32.3276 1.50859 30.5271 1.5423C28.5907 1.57899 26.6543 1.60572 24.7179 1.62747C22.7592 1.6493 20.7984 1.66617 18.8376 1.67556C16.9944 1.68455 15.1512 1.68855 13.308 1.68509C11.7202 1.67576 10.1305 1.66892 8.54066 1.65213C7.32194 1.639 6.1032 1.6209 4.88441 1.58538C4.76678 1.58082 4.64916 1.57875 4.53154 1.57419C4.33482 1.56741 4.97973 1.59002 4.80532 1.58317C4.78098 1.58326 4.75664 1.58086 4.73231 1.58094C4.67755 1.57865 4.62077 1.57636 4.56601 1.57406C4.36929 1.56729 4.17257 1.55803 3.97787 1.54876C3.698 1.53482 3.41812 1.52088 3.13819 1.492C3.05705 1.48482 2.97591 1.47516 2.89475 1.46051C2.48287 1.3898 1.98848 1.49854 1.59556 1.62932C1.20668 1.7576 0.724842 1.97329 0.405576 2.29043C0.229778 2.46524 -0.0511369 2.73248 0.0209731 3.05571C0.0890101 3.37398 0.460328 3.44234 0.667287 3.47894Z" fill="#00E58D"/>
</g>
<defs>
<clipPath id="clip0">
<rect width="46.6358" height="2.80931" fill="white" transform="translate(0 0.964325) rotate(-0.201895)"/>
</clipPath>
</defs>
</svg>
