<svg width="82" height="20" viewBox="0 0 82 20" fill="none" xmlns="http://www.w3.org/2000/svg">
<path d="M68.8715 12.1049C69.2472 11.5115 69.6882 10.956 70.1272 10.408C70.7693 9.60668 71.4397 8.82471 72.1369 8.06802C72.5425 7.62656 72.959 7.19461 73.3906 6.77502C73.3434 6.82026 73.2977 6.86596 73.2509 6.90972C73.6962 6.47657 74.155 6.05531 74.6476 5.6709C75.0221 5.37806 75.4155 5.09551 75.8589 4.90228C76.0541 4.81709 76.1622 4.44234 76.2036 4.27437C76.2847 3.94434 76.3003 3.54596 76.2472 3.20413C76.1983 2.89059 76.0212 1.98255 75.5038 2.20848C74.9688 2.44367 74.4977 2.80404 74.0557 3.16809C73.4293 3.68412 72.8466 4.24947 72.2811 4.82614C71.2007 5.92729 70.1902 7.09327 69.2434 8.30318C68.8935 8.7496 68.5435 9.2024 68.2401 9.68143C67.9098 10.2052 67.8775 10.9746 68.0555 11.5771C68.1164 11.7827 68.2026 12.1198 68.4186 12.2269C68.595 12.3194 68.7652 12.2716 68.8715 12.1049Z" fill="#00E58D"/>
<path d="M72.0139 15.4656C73.7919 14.1031 76.0335 13.246 78.2535 12.7281C78.1908 12.7434 78.1285 12.7572 78.0642 12.772C78.1269 12.7567 78.1908 12.7434 78.2531 12.7296C78.5077 12.6728 78.629 12.5694 78.7507 12.3387C78.8967 12.0609 78.9558 11.6751 78.9451 11.3631C78.9332 11.0364 78.895 10.6702 78.7227 10.3734C78.634 10.2219 78.4365 9.90038 78.2138 9.95052C75.8584 10.4737 73.481 11.3313 71.5961 12.7743C71.1078 13.1488 71.0181 13.8824 71.1234 14.4687C71.1747 14.7479 71.2464 15.0952 71.4622 15.3105C71.5941 15.4379 71.8306 15.6067 72.0139 15.4656Z" fill="#00E58D"/>
<path d="M66.3851 9.46709C66.2472 9.04374 66.1472 8.6148 66.0728 8.18469C66.0671 8.15078 66.0373 7.97043 66.061 8.11378C66.0831 8.25711 66.0562 8.07373 66.0505 8.03982C66.0335 7.91194 66.0166 7.7856 66.0028 7.65777C65.9768 7.41598 65.9573 7.17427 65.9459 6.93269C65.9207 6.43103 65.9233 5.93286 65.9569 5.43822C65.9732 5.20012 65.9977 4.96368 66.0288 4.72887C66.0321 4.70277 66.0368 4.67517 66.0401 4.64907C66.0536 4.54778 66.0217 4.76259 66.0238 4.7534C66.0335 4.70126 66.0417 4.6491 66.0499 4.59694C66.0708 4.4773 66.0952 4.35926 66.1227 4.24126C66.1773 4.00065 66.2433 3.76174 66.3264 3.53077C66.3623 3.42827 66.4033 3.32892 66.4444 3.22958C66.458 3.19595 66.4963 3.11347 66.4292 3.26318C66.3556 3.42663 66.4156 3.29681 66.4335 3.25863C66.4593 3.20673 66.487 3.15639 66.5147 3.10605C66.6242 2.90776 66.7047 2.65523 66.6206 2.41104C66.5462 2.19467 66.3364 2.00092 66.1053 1.93755C65.5318 1.78152 64.8749 2.06711 64.6228 2.52318C64.123 3.43076 63.9034 4.4624 63.804 5.51733C63.7097 6.52159 63.7459 7.55391 63.9036 8.58186C63.9915 9.15055 64.0984 9.71645 64.2816 10.2758C64.46 10.8212 65.1952 10.8781 65.6099 10.7043C66.0671 10.5096 66.5691 10.0326 66.3851 9.46709Z" fill="#00E58D"/>
<path d="M12.4816 13.1049C12.1059 12.5115 11.665 11.956 11.226 11.408C10.5839 10.6067 9.91345 9.82471 9.21624 9.06802C8.81064 8.62656 8.39417 8.19461 7.96256 7.77502C8.00978 7.82026 8.05544 7.86596 8.10226 7.90972C7.65699 7.47657 7.19814 7.05531 6.70554 6.6709C6.33111 6.37806 5.93765 6.09551 5.49425 5.90228C5.29905 5.81709 5.19094 5.44234 5.14959 5.27437C5.06846 4.94434 5.05289 4.54596 5.10597 4.20413C5.15486 3.89059 5.33197 2.98255 5.8494 3.20848C6.38437 3.44367 6.8555 3.80404 7.29745 4.16809C7.92391 4.68412 8.50654 5.24947 9.07208 5.82614C10.1524 6.92729 11.1629 8.09327 12.1097 9.30318C12.4597 9.7496 12.8097 10.2024 13.1131 10.6814C13.4434 11.2052 13.4756 11.9746 13.2976 12.5771C13.2367 12.7827 13.1506 13.1198 12.9345 13.2269C12.7581 13.3194 12.5879 13.2716 12.4816 13.1049Z" fill="#00E58D"/>
<path d="M9.33929 16.4656C7.56124 15.1031 5.31967 14.246 3.09971 13.7281C3.16241 13.7434 3.22471 13.7572 3.28896 13.772C3.22627 13.7567 3.16241 13.7434 3.10011 13.7296C2.84545 13.6728 2.72413 13.5694 2.60243 13.3387C2.45647 13.0609 2.39736 12.6751 2.40811 12.3631C2.41999 12.0364 2.45822 11.6702 2.63051 11.3734C2.71918 11.2219 2.91669 10.9004 3.13942 10.9505C5.49481 11.4737 7.87219 12.3313 9.75709 13.7743C10.2454 14.1488 10.3351 14.8824 10.2298 15.4687C10.1785 15.7479 10.1067 16.0952 9.89101 16.3105C9.75908 16.4379 9.52259 16.6067 9.33929 16.4656Z" fill="#00E58D"/>
<path d="M14.9681 10.4671C15.106 10.0437 15.206 9.6148 15.2804 9.18469C15.2861 9.15078 15.3159 8.97043 15.2921 9.11378C15.27 9.25711 15.297 9.07373 15.3027 9.03982C15.3197 8.91194 15.3366 8.7856 15.3504 8.65777C15.3763 8.41598 15.3959 8.17427 15.4073 7.93269C15.4325 7.43103 15.4299 6.93286 15.3963 6.43822C15.38 6.20012 15.3555 5.96368 15.3243 5.72887C15.321 5.70277 15.3163 5.67517 15.3131 5.64907C15.2996 5.54778 15.3315 5.76259 15.3294 5.7534C15.3196 5.70126 15.3114 5.6491 15.3033 5.59694C15.2823 5.4773 15.258 5.35926 15.2304 5.24126C15.1759 5.00065 15.1098 4.76174 15.0268 4.53077C14.9909 4.42827 14.9498 4.32892 14.9087 4.22958C14.8951 4.19595 14.8568 4.11347 14.924 4.26318C14.9975 4.42663 14.9376 4.29681 14.9197 4.25863C14.8938 4.20673 14.8661 4.15639 14.8384 4.10605C14.7289 3.90776 14.6485 3.65523 14.7326 3.41104C14.8069 3.19467 15.0168 3.00092 15.2479 2.93755C15.8214 2.78152 16.4783 3.06711 16.7303 3.52318C17.2302 4.43076 17.4498 5.4624 17.5492 6.51733C17.6434 7.52159 17.6073 8.55391 17.4495 9.58186C17.3616 10.1506 17.2548 10.7165 17.0715 11.2758C16.8932 11.8212 16.158 11.8781 15.7433 11.7043C15.286 11.5096 14.7841 11.0326 14.9681 10.4671Z" fill="#00E58D"/>
</svg>
