<svg width="94" height="61" viewBox="0 0 94 61" fill="none" xmlns="http://www.w3.org/2000/svg">
<path d="M27.1498 22.2801H19.2298V29.9601H10.5898V22.2801H2.66983V14.1201H10.5898V6.44008H19.2298V14.1201H27.1498V22.2801Z" fill="white"/>
<path d="M45.9047 1.40008V35.0001H34.5767V9.94408H28.8167V1.40008H45.9047Z" fill="white"/>
<path d="M55.9352 35.4801C54.1112 35.4801 52.5912 34.9041 51.3752 33.7521C50.1912 32.5681 49.5992 31.0641 49.5992 29.2401C49.5992 27.4161 50.1912 25.9441 51.3752 24.8241C52.5912 23.6721 54.1112 23.0961 55.9352 23.0961C57.7592 23.0961 59.2632 23.6721 60.4472 24.8241C61.6632 25.9441 62.2712 27.4161 62.2712 29.2401C62.2712 31.0641 61.6632 32.5681 60.4472 33.7521C59.2632 34.9041 57.7592 35.4801 55.9352 35.4801Z" fill="white"/>
<path d="M91.9581 26.2161V35.0001H65.0301V28.0401L77.1741 16.8081C78.2301 15.8161 78.9341 14.9681 79.2861 14.2641C79.6381 13.5601 79.8141 12.8721 79.8141 12.2001C79.8141 11.3681 79.5261 10.7281 78.9501 10.2801C78.4061 9.80008 77.6061 9.56008 76.5501 9.56008C75.5261 9.56008 74.5661 9.83208 73.6701 10.3761C72.7741 10.9201 72.0861 11.6881 71.6061 12.6801L63.0621 8.40808C64.3421 6.00808 66.2141 4.12008 68.6781 2.74408C71.1421 1.33608 74.1181 0.63208 77.6061 0.63208C80.2621 0.63208 82.6141 1.06408 84.6621 1.92808C86.7101 2.79208 88.3101 4.02408 89.4621 5.62408C90.6141 7.22408 91.1901 9.06408 91.1901 11.1441C91.1901 13.0001 90.7901 14.7441 89.9901 16.3761C89.2221 17.9761 87.7021 19.8001 85.4301 21.8481L80.6301 26.2161H91.9581Z" fill="white"/>
<path d="M16.028 48.2983C17.48 48.2983 18.6386 48.7457 19.504 49.6403C20.384 50.535 20.824 51.8843 20.824 53.6883V60.5523H15.852V54.5463C15.852 53.1677 15.4046 52.4783 14.51 52.4783C14.0406 52.4783 13.6593 52.6543 13.366 53.0063C13.0873 53.3583 12.948 53.9157 12.948 54.6783V60.5523H7.97598V54.5463C7.97598 53.1677 7.52864 52.4783 6.63398 52.4783C6.16464 52.4783 5.78331 52.6543 5.48998 53.0063C5.21131 53.3583 5.07198 53.9157 5.07198 54.6783V60.5523H0.0999756V48.5183H4.82998V49.6403C5.72464 48.7457 6.86131 48.2983 8.23998 48.2983C9.04664 48.2983 9.77264 48.4523 10.418 48.7603C11.0633 49.0537 11.5913 49.5083 12.002 50.1243C12.486 49.5377 13.0726 49.0903 13.762 48.7823C14.4513 48.4597 15.2066 48.2983 16.028 48.2983Z" fill="white"/>
<path d="M22.9808 48.5183H27.9528V60.5523H22.9808V48.5183ZM25.4668 47.5503C24.5722 47.5503 23.8462 47.3157 23.2888 46.8463C22.7462 46.3623 22.4748 45.7537 22.4748 45.0203C22.4748 44.287 22.7462 43.6857 23.2888 43.2163C23.8462 42.7323 24.5722 42.4903 25.4668 42.4903C26.3762 42.4903 27.1022 42.7177 27.6448 43.1723C28.1875 43.627 28.4588 44.2137 28.4588 44.9323C28.4588 45.695 28.1875 46.3257 27.6448 46.8243C27.1022 47.3083 26.3762 47.5503 25.4668 47.5503Z" fill="white"/>
<path d="M30.1566 44.2283H35.1286V60.5523H30.1566V44.2283Z" fill="white"/>
<path d="M45.6924 48.2983C47.1737 48.2983 48.3617 48.7457 49.2564 49.6403C50.1657 50.535 50.6204 51.8843 50.6204 53.6883V60.5523H45.6484V54.5463C45.6484 53.1677 45.1571 52.4783 44.1744 52.4783C43.6171 52.4783 43.1624 52.6763 42.8104 53.0723C42.4731 53.4537 42.3044 54.0623 42.3044 54.8983V60.5523H37.3324V44.2283H42.3044V49.4863C43.2284 48.6943 44.3577 48.2983 45.6924 48.2983Z" fill="white"/>
<path d="M59.3525 60.7723C58.0178 60.7723 56.8152 60.5083 55.7445 59.9803C54.6885 59.4377 53.8598 58.697 53.2585 57.7583C52.6572 56.805 52.3565 55.727 52.3565 54.5243C52.3565 53.3217 52.6572 52.251 53.2585 51.3123C53.8598 50.359 54.6885 49.6183 55.7445 49.0903C56.8152 48.5623 58.0178 48.2983 59.3525 48.2983C60.7018 48.2983 61.9045 48.5623 62.9605 49.0903C64.0312 49.6183 64.8598 50.359 65.4465 51.3123C66.0478 52.251 66.3485 53.3217 66.3485 54.5243C66.3485 55.727 66.0478 56.805 65.4465 57.7583C64.8598 58.697 64.0312 59.4377 62.9605 59.9803C61.9045 60.5083 60.7018 60.7723 59.3525 60.7723ZM59.3525 56.9003C59.9245 56.9003 60.3938 56.695 60.7605 56.2843C61.1272 55.859 61.3105 55.2723 61.3105 54.5243C61.3105 53.7763 61.1272 53.197 60.7605 52.7863C60.3938 52.3757 59.9245 52.1703 59.3525 52.1703C58.7805 52.1703 58.3112 52.3757 57.9445 52.7863C57.5778 53.197 57.3945 53.7763 57.3945 54.5243C57.3945 55.2723 57.5778 55.859 57.9445 56.2843C58.3112 56.695 58.7805 56.9003 59.3525 56.9003ZM61.0685 47.4183C60.6432 47.4183 60.2618 47.345 59.9245 47.1983C59.5872 47.0517 59.2352 46.8537 58.8685 46.6043C58.6192 46.443 58.4138 46.3257 58.2525 46.2523C58.1058 46.1643 57.9592 46.1203 57.8125 46.1203C57.5338 46.1203 57.3065 46.2157 57.1305 46.4063C56.9545 46.597 56.8518 46.861 56.8225 47.1983H54.4685C54.4978 46.025 54.7765 45.101 55.3045 44.4263C55.8472 43.737 56.5805 43.3923 57.5045 43.3923C57.9298 43.3923 58.3112 43.4657 58.6485 43.6123C58.9858 43.759 59.3378 43.957 59.7045 44.2063C59.9538 44.3823 60.1518 44.507 60.2985 44.5803C60.4598 44.6537 60.6138 44.6903 60.7605 44.6903C61.0392 44.6903 61.2665 44.6023 61.4425 44.4263C61.6185 44.2357 61.7212 43.9863 61.7505 43.6783H64.1045C64.0752 44.8077 63.7892 45.717 63.2465 46.4063C62.7185 47.081 61.9925 47.4183 61.0685 47.4183Z" fill="white"/>
<path d="M80.7087 54.5243C80.7087 54.5977 80.6867 54.9863 80.6427 55.6903H72.2827C72.4587 56.145 72.752 56.497 73.1627 56.7463C73.5733 56.981 74.0867 57.0983 74.7027 57.0983C75.2307 57.0983 75.6707 57.0323 76.0227 56.9003C76.3893 56.7683 76.7853 56.541 77.2107 56.2183L79.8067 58.8363C78.6333 60.127 76.8807 60.7723 74.5487 60.7723C73.0967 60.7723 71.8207 60.5083 70.7207 59.9803C69.6207 59.4377 68.77 58.6897 68.1687 57.7363C67.5673 56.783 67.2667 55.7123 67.2667 54.5243C67.2667 53.3217 67.56 52.251 68.1467 51.3123C68.748 50.359 69.562 49.6183 70.5887 49.0903C71.63 48.5623 72.796 48.2983 74.0867 48.2983C75.304 48.2983 76.4113 48.5403 77.4087 49.0243C78.4207 49.5083 79.22 50.2197 79.8067 51.1583C80.408 52.097 80.7087 53.219 80.7087 54.5243ZM74.1307 51.6863C73.6173 51.6863 73.192 51.8257 72.8547 52.1043C72.5173 52.383 72.2973 52.779 72.1947 53.2923H76.0667C75.964 52.7937 75.744 52.405 75.4067 52.1263C75.0693 51.833 74.644 51.6863 74.1307 51.6863Z" fill="white"/>
<path d="M86.9857 60.7723C85.959 60.7723 84.947 60.6623 83.9497 60.4423C82.9524 60.2223 82.1457 59.9363 81.5297 59.5843L82.8937 56.3063C83.451 56.6437 84.111 56.9077 84.8737 57.0983C85.6364 57.289 86.377 57.3843 87.0957 57.3843C87.6677 57.3843 88.0637 57.3403 88.2837 57.2523C88.5184 57.1497 88.6357 57.003 88.6357 56.8123C88.6357 56.6217 88.489 56.4897 88.1957 56.4163C87.917 56.343 87.455 56.2697 86.8097 56.1963C85.827 56.079 84.991 55.9323 84.3017 55.7563C83.6124 55.5657 83.0037 55.2063 82.4757 54.6783C81.9624 54.1503 81.7057 53.395 81.7057 52.4123C81.7057 51.635 81.9404 50.9383 82.4097 50.3223C82.879 49.7063 83.5757 49.215 84.4997 48.8483C85.4384 48.4817 86.5604 48.2983 87.8657 48.2983C88.775 48.2983 89.6624 48.3863 90.5277 48.5623C91.4077 48.7237 92.1557 48.9657 92.7717 49.2883L91.4077 52.5663C90.3517 51.9797 89.193 51.6863 87.9317 51.6863C86.8464 51.6863 86.3037 51.877 86.3037 52.2583C86.3037 52.449 86.4504 52.5883 86.7437 52.6763C87.037 52.7497 87.499 52.823 88.1297 52.8963C89.1124 53.0137 89.941 53.1677 90.6157 53.3583C91.305 53.549 91.9064 53.9083 92.4197 54.4363C92.9477 54.9643 93.2117 55.7197 93.2117 56.7023C93.2117 57.4503 92.977 58.1323 92.5077 58.7483C92.0384 59.3643 91.3344 59.8557 90.3957 60.2223C89.457 60.589 88.3204 60.7723 86.9857 60.7723Z" fill="white"/>
</svg>
