<svg width="94" height="57" viewBox="0 0 94 57" fill="none" xmlns="http://www.w3.org/2000/svg">
<path d="M6.14002 24.5993H4.86001V28.1193H0.140015V14.1193H6.88001C8.17335 14.1193 9.30002 14.3326 10.26 14.7593C11.22 15.186 11.96 15.7993 12.48 16.5993C13 17.3993 13.26 18.3326 13.26 19.3993C13.26 20.3993 13.0333 21.2726 12.58 22.0193C12.1267 22.766 11.4733 23.3593 10.62 23.7993L13.56 28.1193H8.52001L6.14002 24.5993ZM8.50002 19.3993C8.50002 18.8793 8.34002 18.4793 8.02002 18.1993C7.70001 17.906 7.22001 17.7593 6.58001 17.7593H4.86001V21.0393H6.58001C7.22001 21.0393 7.70001 20.8993 8.02002 20.6193C8.34002 20.326 8.50002 19.9193 8.50002 19.3993Z" fill="white"/>
<path d="M26.7824 23.7193C26.7824 24.8393 26.3757 25.8193 25.5624 26.6593C24.7624 27.486 23.6157 28.0326 22.1224 28.2993V30.5193H19.3024V28.3993C18.3024 28.346 17.3424 28.1926 16.4224 27.9393C15.5157 27.686 14.7624 27.3726 14.1624 26.9993L15.6824 23.5593C16.349 23.946 17.0957 24.2593 17.9224 24.4993C18.749 24.726 19.5424 24.8393 20.3024 24.8393C20.9557 24.8393 21.4224 24.7793 21.7024 24.6593C21.9824 24.526 22.1224 24.3326 22.1224 24.0793C22.1224 23.786 21.9357 23.566 21.5624 23.4193C21.2024 23.2726 20.6024 23.1126 19.7624 22.9393C18.6824 22.7126 17.7824 22.4726 17.0624 22.2193C16.3424 21.9526 15.7157 21.526 15.1824 20.9393C14.649 20.3393 14.3824 19.5326 14.3824 18.5193C14.3824 17.346 14.8024 16.3393 15.6424 15.4993C16.4957 14.6593 17.7157 14.126 19.3024 13.8993V11.7193H22.1224V13.8593C23.7224 14.006 25.0757 14.3926 26.1824 15.0193L24.7624 18.4393C23.389 17.746 22.089 17.3993 20.8624 17.3993C19.649 17.3993 19.0424 17.6926 19.0424 18.2793C19.0424 18.5593 19.2224 18.7726 19.5824 18.9193C19.9424 19.0526 20.5357 19.1993 21.3624 19.3593C22.429 19.5593 23.329 19.7926 24.0624 20.0593C24.7957 20.3126 25.429 20.7326 25.9624 21.3193C26.509 21.906 26.7824 22.706 26.7824 23.7193Z" fill="white"/>
<path d="M56.014 20.9823V28.1193H34.135V22.4643L44.002 13.3383C44.86 12.5323 45.432 11.8433 45.718 11.2713C46.004 10.6993 46.147 10.1403 46.147 9.59431C46.147 8.91831 45.913 8.39831 45.445 8.03431C45.003 7.64431 44.353 7.44931 43.495 7.44931C42.663 7.44931 41.883 7.67031 41.155 8.11231C40.427 8.55431 39.868 9.17831 39.478 9.98431L32.536 6.51331C33.576 4.56331 35.097 3.02931 37.099 1.91131C39.101 0.767312 41.519 0.195312 44.353 0.195312C46.511 0.195312 48.422 0.546313 50.086 1.24831C51.75 1.95031 53.05 2.95131 53.986 4.25131C54.922 5.55131 55.39 7.04631 55.39 8.73631C55.39 10.2443 55.065 11.6613 54.415 12.9873C53.791 14.2873 52.556 15.7693 50.71 17.4333L46.81 20.9823H56.014Z" fill="white"/>
<path d="M63.0794 28.5093C61.5974 28.5093 60.3624 28.0413 59.3744 27.1053C58.4124 26.1433 57.9314 24.9213 57.9314 23.4393C57.9314 21.9573 58.4124 20.7613 59.3744 19.8513C60.3624 18.9153 61.5974 18.4473 63.0794 18.4473C64.5614 18.4473 65.7834 18.9153 66.7454 19.8513C67.7334 20.7613 68.2274 21.9573 68.2274 23.4393C68.2274 24.9213 67.7334 26.1433 66.7454 27.1053C65.7834 28.0413 64.5614 28.5093 63.0794 28.5093Z" fill="white"/>
<path d="M92.348 20.9823V28.1193H70.469V22.4643L80.336 13.3383C81.194 12.5323 81.766 11.8433 82.052 11.2713C82.338 10.6993 82.481 10.1403 82.481 9.59431C82.481 8.91831 82.247 8.39831 81.779 8.03431C81.337 7.64431 80.687 7.44931 79.829 7.44931C78.997 7.44931 78.217 7.67031 77.489 8.11231C76.761 8.55431 76.202 9.17831 75.812 9.98431L68.87 6.51331C69.91 4.56331 71.431 3.02931 73.433 1.91131C75.435 0.767312 77.853 0.195312 80.687 0.195312C82.845 0.195312 84.756 0.546313 86.42 1.24831C88.084 1.95031 89.384 2.95131 90.32 4.25131C91.256 5.55131 91.724 7.04631 91.724 8.73631C91.724 10.2443 91.399 11.6613 90.749 12.9873C90.125 14.2873 88.89 15.7693 87.044 17.4333L83.144 20.9823H92.348Z" fill="white"/>
<path d="M8.96007 43.2737C10.1121 43.2737 11.1681 43.5537 12.1281 44.1137C13.1041 44.6577 13.8721 45.4497 14.4321 46.4897C15.0081 47.5137 15.2961 48.7057 15.2961 50.0657C15.2961 51.4257 15.0081 52.6257 14.4321 53.6657C13.8721 54.7057 13.1041 55.5057 12.1281 56.0657C11.1681 56.6097 10.1121 56.8817 8.96007 56.8817C7.34407 56.8817 6.14407 56.4417 5.36007 55.5617V56.6417H0.200073V38.8337H5.62407V44.4017C6.39207 43.6497 7.50407 43.2737 8.96007 43.2737ZM7.66407 52.6577C8.28807 52.6577 8.80007 52.4337 9.20007 51.9857C9.60007 51.5217 9.80007 50.8817 9.80007 50.0657C9.80007 49.2497 9.60007 48.6177 9.20007 48.1697C8.80007 47.7217 8.28807 47.4977 7.66407 47.4977C7.04007 47.4977 6.52807 47.7217 6.12807 48.1697C5.72807 48.6177 5.52807 49.2497 5.52807 50.0657C5.52807 50.8817 5.72807 51.5217 6.12807 51.9857C6.52807 52.4337 7.04007 52.6577 7.66407 52.6577Z" fill="white"/>
<path d="M17.0048 43.5137H22.4288V56.6417H17.0048V43.5137ZM19.7168 42.4577C18.7408 42.4577 17.9488 42.2017 17.3408 41.6897C16.7488 41.1617 16.4528 40.4977 16.4528 39.6977C16.4528 38.8977 16.7488 38.2417 17.3408 37.7297C17.9488 37.2017 18.7408 36.9377 19.7168 36.9377C20.7088 36.9377 21.5008 37.1857 22.0928 37.6817C22.6848 38.1777 22.9808 38.8177 22.9808 39.6017C22.9808 40.4337 22.6848 41.1217 22.0928 41.6657C21.5008 42.1937 20.7088 42.4577 19.7168 42.4577Z" fill="white"/>
<path d="M24.8329 38.8337H30.2569V56.6417H24.8329V38.8337Z" fill="white"/>
<path d="M41.781 43.2737C43.397 43.2737 44.693 43.7617 45.669 44.7377C46.661 45.7137 47.157 47.1857 47.157 49.1537V56.6417H41.733V50.0897C41.733 48.5857 41.197 47.8337 40.125 47.8337C39.517 47.8337 39.021 48.0497 38.637 48.4817C38.269 48.8977 38.085 49.5617 38.085 50.4737V56.6417H32.661V38.8337H38.085V44.5697C39.093 43.7057 40.325 43.2737 41.781 43.2737Z" fill="white"/>
<path d="M56.6829 56.8817C55.2269 56.8817 53.9149 56.5937 52.7469 56.0177C51.5949 55.4257 50.6909 54.6177 50.0349 53.5937C49.3789 52.5537 49.0509 51.3777 49.0509 50.0657C49.0509 48.7537 49.3789 47.5857 50.0349 46.5617C50.6909 45.5217 51.5949 44.7137 52.7469 44.1377C53.9149 43.5617 55.2269 43.2737 56.6829 43.2737C58.1549 43.2737 59.4669 43.5617 60.6189 44.1377C61.787 44.7137 62.6909 45.5217 63.3309 46.5617C63.9869 47.5857 64.3149 48.7537 64.3149 50.0657C64.3149 51.3777 63.9869 52.5537 63.3309 53.5937C62.6909 54.6177 61.787 55.4257 60.6189 56.0177C59.4669 56.5937 58.1549 56.8817 56.6829 56.8817ZM56.6829 52.6577C57.3069 52.6577 57.8189 52.4337 58.2189 51.9857C58.6189 51.5217 58.819 50.8817 58.819 50.0657C58.819 49.2497 58.6189 48.6177 58.2189 48.1697C57.8189 47.7217 57.3069 47.4977 56.6829 47.4977C56.0589 47.4977 55.5469 47.7217 55.1469 48.1697C54.7469 48.6177 54.5469 49.2497 54.5469 50.0657C54.5469 50.8817 54.7469 51.5217 55.1469 51.9857C55.5469 52.4337 56.0589 52.6577 56.6829 52.6577ZM58.555 42.3137C58.091 42.3137 57.6749 42.2337 57.3069 42.0737C56.9389 41.9137 56.5549 41.6977 56.1549 41.4257C55.8829 41.2497 55.6589 41.1217 55.4829 41.0417C55.3229 40.9457 55.1629 40.8977 55.0029 40.8977C54.6989 40.8977 54.4509 41.0017 54.2589 41.2097C54.0669 41.4177 53.9549 41.7057 53.9229 42.0737H51.3549C51.3869 40.7937 51.6909 39.7857 52.2669 39.0497C52.8589 38.2977 53.6589 37.9217 54.667 37.9217C55.1309 37.9217 55.5469 38.0017 55.9149 38.1617C56.2829 38.3217 56.6669 38.5377 57.0669 38.8097C57.3389 39.0017 57.555 39.1377 57.715 39.2177C57.891 39.2977 58.0589 39.3377 58.2189 39.3377C58.5229 39.3377 58.7709 39.2417 58.9629 39.0497C59.1549 38.8417 59.267 38.5697 59.299 38.2337H61.8669C61.8349 39.4657 61.523 40.4577 60.931 41.2097C60.3549 41.9457 59.563 42.3137 58.555 42.3137Z" fill="white"/>
<path d="M79.9806 50.0657C79.9806 50.1457 79.9566 50.5697 79.9086 51.3377H70.7886C70.9806 51.8337 71.3006 52.2177 71.7486 52.4897C72.1966 52.7457 72.7566 52.8737 73.4286 52.8737C74.0046 52.8737 74.4846 52.8017 74.8686 52.6577C75.2686 52.5137 75.7006 52.2657 76.1646 51.9137L78.9966 54.7697C77.7166 56.1777 75.8046 56.8817 73.2606 56.8817C71.6766 56.8817 70.2846 56.5937 69.0846 56.0177C67.8846 55.4257 66.9566 54.6097 66.3006 53.5697C65.6446 52.5297 65.3166 51.3617 65.3166 50.0657C65.3166 48.7537 65.6366 47.5857 66.2766 46.5617C66.9326 45.5217 67.8206 44.7137 68.9406 44.1377C70.0766 43.5617 71.3486 43.2737 72.7566 43.2737C74.0846 43.2737 75.2926 43.5377 76.3806 44.0657C77.4846 44.5937 78.3566 45.3697 78.9966 46.3937C79.6526 47.4177 79.9806 48.6417 79.9806 50.0657ZM72.8046 46.9697C72.2446 46.9697 71.7806 47.1217 71.4126 47.4257C71.0446 47.7297 70.8046 48.1617 70.6926 48.7217H74.9166C74.8046 48.1777 74.5646 47.7537 74.1966 47.4497C73.8286 47.1297 73.3646 46.9697 72.8046 46.9697Z" fill="white"/>
<path d="M86.8283 56.8817C85.7083 56.8817 84.6043 56.7617 83.5163 56.5217C82.4283 56.2817 81.5483 55.9697 80.8763 55.5857L82.3643 52.0097C82.9723 52.3777 83.6923 52.6657 84.5243 52.8737C85.3563 53.0817 86.1643 53.1857 86.9483 53.1857C87.5723 53.1857 88.0043 53.1377 88.2443 53.0417C88.5003 52.9297 88.6283 52.7697 88.6283 52.5617C88.6283 52.3537 88.4683 52.2097 88.1483 52.1297C87.8443 52.0497 87.3403 51.9697 86.6363 51.8897C85.5643 51.7617 84.6523 51.6017 83.9003 51.4097C83.1483 51.2017 82.4843 50.8097 81.9083 50.2337C81.3483 49.6577 81.0683 48.8337 81.0683 47.7617C81.0683 46.9137 81.3243 46.1537 81.8363 45.4817C82.3483 44.8097 83.1083 44.2737 84.1163 43.8737C85.1403 43.4737 86.3643 43.2737 87.7883 43.2737C88.7803 43.2737 89.7483 43.3697 90.6923 43.5617C91.6523 43.7377 92.4683 44.0017 93.1403 44.3537L91.6523 47.9297C90.5003 47.2897 89.2363 46.9697 87.8603 46.9697C86.6763 46.9697 86.0843 47.1777 86.0843 47.5937C86.0843 47.8017 86.2443 47.9537 86.5643 48.0497C86.8843 48.1297 87.3883 48.2097 88.0763 48.2897C89.1483 48.4177 90.0523 48.5857 90.7883 48.7937C91.5403 49.0017 92.1963 49.3937 92.7563 49.9697C93.3323 50.5457 93.6203 51.3697 93.6203 52.4417C93.6203 53.2577 93.3643 54.0017 92.8523 54.6737C92.3403 55.3457 91.5723 55.8817 90.5483 56.2817C89.5243 56.6817 88.2843 56.8817 86.8283 56.8817Z" fill="white"/>
</svg>
