<svg width="94" height="35" viewBox="0 0 94 35" fill="none" xmlns="http://www.w3.org/2000/svg">
<path d="M28.683 26.399V35H2.31604V28.185L14.207 17.187C15.241 16.2156 15.9304 15.3853 16.275 14.696C16.6197 14.0066 16.792 13.333 16.792 12.675C16.792 11.8603 16.51 11.2336 15.946 10.795C15.4134 10.325 14.63 10.09 13.596 10.09C12.5934 10.09 11.6534 10.3563 10.776 10.889C9.8987 11.4216 9.22504 12.1736 8.75504 13.145L0.389038 8.96198C1.64237 6.61198 3.47537 4.76331 5.88804 3.41598C8.3007 2.03731 11.2147 1.34798 14.63 1.34798C17.2307 1.34798 19.5337 1.77098 21.539 2.61698C23.5444 3.46298 25.111 4.66931 26.239 6.23598C27.367 7.80264 27.931 9.60431 27.931 11.641C27.931 13.4583 27.5394 15.166 26.756 16.764C26.004 18.3306 24.5157 20.1166 22.291 22.122L17.591 26.399H28.683Z" fill="white"/>
<path d="M62.8708 29.36H58.4998V35H47.7368V29.36H30.6758V22.31L44.6348 2.09998H56.0088L43.6008 20.759H48.0658V15.73H58.4998V20.759H62.8708V29.36Z" fill="white"/>
<path d="M83.2647 8.82098C86.4294 8.82098 88.9674 9.77664 90.8787 11.688C92.8214 13.5993 93.7927 16.482 93.7927 20.336V35H83.1707V22.169C83.1707 19.2236 82.1211 17.751 80.0217 17.751C78.8311 17.751 77.8597 18.174 77.1077 19.02C76.3871 19.8346 76.0267 21.135 76.0267 22.921V35H65.4047V0.125977H76.0267V11.359C78.0007 9.66698 80.4134 8.82098 83.2647 8.82098Z" fill="white"/>
</svg>
