<svg width="754" height="293" viewBox="0 0 754 293" fill="none" xmlns="http://www.w3.org/2000/svg">
<g style="mix-blend-mode:multiply" opacity="0.45">
<path fill-rule="evenodd" clip-rule="evenodd" d="M388.757 196.004H598.012V245.585H388.757V196.004Z" fill="#939393"/>
<path fill-rule="evenodd" clip-rule="evenodd" d="M432.382 189.968L437.074 136.929C437.745 129.087 444.345 123.102 452.183 123.102H603.066C611.987 123.102 618.948 130.738 618.175 139.612L613.431 192.65C612.709 200.493 606.16 206.478 598.322 206.478H447.491C438.57 206.478 431.557 198.842 432.382 189.968Z" fill="#939393"/>
<path fill-rule="evenodd" clip-rule="evenodd" d="M308.52 256.162L303.673 199.77C302.951 191.103 309.758 183.673 318.421 183.673H377.155C384.838 183.673 391.232 189.555 391.903 197.242L396.75 253.634C397.472 262.302 390.665 269.731 382.002 269.731H323.268C315.585 269.68 309.191 263.798 308.52 256.162Z" fill="#939393"/>
<path fill-rule="evenodd" clip-rule="evenodd" d="M386.952 189.968L391.645 136.929C392.367 129.087 398.916 123.102 406.754 123.102H574.344C583.265 123.102 590.226 130.738 589.452 139.612L584.76 192.65C584.09 200.493 577.489 206.478 569.651 206.478H402.061C393.192 206.478 386.179 198.842 386.952 189.968Z" fill="#D1D1D1"/>
<path fill-rule="evenodd" clip-rule="evenodd" d="M329.508 243.728H585.43V269.68H329.508V243.728Z" fill="#B7B7B7"/>
<path fill-rule="evenodd" clip-rule="evenodd" d="M348.226 227.528C348.226 218.602 355.497 211.327 364.418 211.327H544.487C553.408 211.327 560.679 218.602 560.679 227.528C560.679 236.453 553.408 243.728 544.487 243.728H364.418C355.497 243.728 348.226 236.453 348.226 227.528Z" fill="#D1D1D1"/>
<path fill-rule="evenodd" clip-rule="evenodd" d="M626.271 269.68H637.615L640.194 290.73H634.057L626.271 269.68Z" fill="#939393"/>
<path fill-rule="evenodd" clip-rule="evenodd" d="M573.519 269.68H584.863L587.441 290.73H581.305L573.519 269.68Z" fill="#939393"/>
<path fill-rule="evenodd" clip-rule="evenodd" d="M338.222 269.68H326.878L324.3 290.73H330.436L338.222 269.68Z" fill="#939393"/>
<path fill-rule="evenodd" clip-rule="evenodd" d="M391.026 269.68H379.681L377.103 290.73H383.24L391.026 269.68Z" fill="#939393"/>
<path fill-rule="evenodd" clip-rule="evenodd" d="M308.52 256.162L303.673 199.77C302.951 191.103 309.758 183.673 318.421 183.673H327.239C334.922 183.673 341.316 189.555 341.987 197.242L346.834 253.634C347.556 262.302 340.749 269.731 332.086 269.731H323.268C315.585 269.68 309.191 263.798 308.52 256.162Z" fill="#B7B7B7"/>
<path fill-rule="evenodd" clip-rule="evenodd" d="M562.071 253.582L566.918 197.191C567.589 189.503 573.983 183.622 581.666 183.622H647.826C656.489 183.622 663.347 191.051 662.573 199.719L657.726 256.11C657.056 263.798 650.662 269.68 642.978 269.68H576.819C568.156 269.68 561.349 262.25 562.071 253.582Z" fill="#939393"/>
<path fill-rule="evenodd" clip-rule="evenodd" d="M562.071 253.582L566.918 197.191C567.589 189.503 573.983 183.622 581.666 183.622H590.484C599.147 183.622 606.005 191.051 605.232 199.719L600.385 256.11C599.714 263.798 593.32 269.68 585.637 269.68H576.819C568.156 269.68 561.349 262.25 562.071 253.582Z" fill="#B7B7B7"/>
<path fill-rule="evenodd" clip-rule="evenodd" d="M594.609 72.0247H630.809L635.707 23.1655H599.508L594.609 72.0247Z" fill="#D1D1D1"/>
<path d="M594.609 72.0247H630.809L635.707 23.1655H599.508L594.609 72.0247Z" stroke="#D1D1D1" stroke-width="5"/>
<path fill-rule="evenodd" clip-rule="evenodd" d="M592.65 72.0247H629.519L634.418 23.1655H597.548L592.65 72.0247Z" fill="white"/>
<path d="M592.65 72.0247H629.519L634.418 23.1655H597.548L592.65 72.0247Z" stroke="#D1D1D1" stroke-width="5"/>
<path fill-rule="evenodd" clip-rule="evenodd" d="M599.714 65.5755H623.744L627.354 29.6147H603.324L599.714 65.5755Z" fill="#D1D1D1"/>
<path fill-rule="evenodd" clip-rule="evenodd" d="M690.161 37.7148L686.758 71.5602H642.308L645.711 37.7148H690.161Z" fill="#D1D1D1"/>
<path d="M690.161 37.7148L686.758 71.5602H642.308L645.711 37.7148H690.161Z" stroke="#D1D1D1" stroke-width="5"/>
<path fill-rule="evenodd" clip-rule="evenodd" d="M689.181 37.7148L685.778 71.5602H640.451L643.855 37.7148H689.181Z" fill="white"/>
<path d="M689.181 37.7148L685.778 71.5602H640.451L643.855 37.7148H689.181Z" stroke="#D1D1D1" stroke-width="5"/>
<path fill-rule="evenodd" clip-rule="evenodd" d="M679.642 44.3705L677.579 64.9563H650.043L652.105 44.3705H679.642Z" fill="#B7B7B7"/>
<path fill-rule="evenodd" clip-rule="evenodd" d="M539.846 58.9199C539.846 61.4995 541.96 63.6149 544.538 63.6149H586.719V54.2249H544.538C541.909 54.2249 539.846 56.3402 539.846 58.9199Z" fill="#B7B7B7"/>
<path fill-rule="evenodd" clip-rule="evenodd" d="M568.207 58.9199C568.207 60.4161 569.445 61.6543 570.94 61.6543H586.616C586.668 61.6543 586.72 61.6027 586.72 61.5512V56.3402C586.72 56.2886 586.668 56.237 586.616 56.237H570.94C569.445 56.1854 568.207 57.4237 568.207 58.9199Z" fill="#D1D1D1"/>
<path fill-rule="evenodd" clip-rule="evenodd" d="M533.916 63.6149V73.0049H579.964C582.543 73.0049 584.657 70.8896 584.657 68.3099C584.657 65.7302 582.543 63.6149 579.964 63.6149H533.916Z" fill="#B7B7B7"/>
<path fill-rule="evenodd" clip-rule="evenodd" d="M533.916 65.6271V70.9928H552.841C554.336 70.9928 555.522 69.8062 555.522 68.3099C555.522 66.8137 554.336 65.6271 552.841 65.6271H533.916Z" fill="#D1D1D1"/>
<path fill-rule="evenodd" clip-rule="evenodd" d="M519.013 79.1961H677.734V72.5405H519.013V79.1961Z" fill="#D1D1D1"/>
<path fill-rule="evenodd" clip-rule="evenodd" d="M677.734 79.1961H703.826V72.5405H677.734V79.1961Z" fill="#B7B7B7"/>
<path fill-rule="evenodd" clip-rule="evenodd" d="M557.688 79.1962L570.064 98.6469V79.1962H557.688Z" fill="#939393"/>
<path fill-rule="evenodd" clip-rule="evenodd" d="M550.829 79.1962L563.205 98.6469H570.064L557.688 79.1962H550.829Z" fill="#B7B7B7"/>
<path fill-rule="evenodd" clip-rule="evenodd" d="M648.599 79.1962L660.975 98.6469V79.1962H648.599Z" fill="#939393"/>
<path fill-rule="evenodd" clip-rule="evenodd" d="M641.741 79.1962L654.116 98.6469H660.975L648.599 79.1962H641.741Z" fill="#B7B7B7"/>
<path fill-rule="evenodd" clip-rule="evenodd" d="M729.97 145.7C729.97 157.257 722.957 166.647 714.294 166.647C705.631 166.647 698.618 157.257 698.618 145.7C698.618 134.143 705.631 124.753 714.294 124.753C722.957 124.753 729.97 134.143 729.97 145.7Z" fill="#B7B7B7"/>
<path d="M714.397 255.595V146.732" stroke="#D1D1D1" stroke-width="5"/>
<path fill-rule="evenodd" clip-rule="evenodd" d="M697.535 176.45C704.961 183.879 706.456 194.353 700.887 199.925C695.318 205.497 684.85 204.001 677.424 196.571C669.999 189.142 668.503 178.668 674.072 173.096C679.642 167.524 690.11 169.02 697.535 176.45Z" fill="#B7B7B7"/>
<path fill-rule="evenodd" clip-rule="evenodd" d="M750.39 191.67C756.372 197.655 754.722 208.954 746.781 216.899C738.84 224.845 727.547 226.496 721.565 220.511" fill="#B7B7B7"/>
<path d="M742.346 202.195L714.861 229.798" stroke="#D1D1D1" stroke-width="5"/>
<path d="M734.405 175.831L714.346 195.694" stroke="#D1D1D1" stroke-width="5"/>
<path d="M693.513 219.427L714.5 240.684" stroke="#D1D1D1" stroke-width="5"/>
<path d="M686.242 185.427L714.294 213.855" stroke="#D1D1D1" stroke-width="5"/>
<path fill-rule="evenodd" clip-rule="evenodd" d="M722.802 293H705.992C693.1 293 682.529 282.423 682.529 269.473V247.34H746.265V269.473C746.265 282.423 735.746 293 722.802 293Z" fill="#E6E6E6"/>
<path d="M746.265 259.671H682.529" stroke="#D1D1D1" stroke-width="9"/>
<path d="M746.265 272.001H682.529" stroke="#D1D1D1" stroke-width="9"/>
<path fill-rule="evenodd" clip-rule="evenodd" d="M172.747 26.8803C172.747 41.7392 160.732 53.7605 145.881 53.7605C131.03 53.7605 119.015 41.7392 119.015 26.8803C118.963 12.0213 130.978 0 145.829 0C160.68 0 172.747 12.0213 172.747 26.8803Z" fill="#B7B7B7"/>
<path fill-rule="evenodd" clip-rule="evenodd" d="M167.435 26.8803C167.435 41.7392 155.42 53.7605 140.569 53.7605C125.718 53.7605 113.703 41.7392 113.703 26.8803C113.703 12.0213 125.718 0 140.569 0C155.42 0 167.435 12.0213 167.435 26.8803Z" fill="#D1D1D1"/>
<path fill-rule="evenodd" clip-rule="evenodd" d="M160.938 26.8802C160.938 37.3537 152.997 46.0214 142.838 47.1565C142.116 47.2597 141.343 47.2597 140.569 47.2597C129.328 47.2597 120.201 38.1276 120.201 26.8802C120.201 15.6328 129.328 6.50073 140.569 6.50073C141.343 6.50073 142.065 6.55233 142.838 6.60392C152.997 7.73898 160.938 16.4067 160.938 26.8802Z" fill="#B7B7B7"/>
<path fill-rule="evenodd" clip-rule="evenodd" d="M160.938 26.8803C160.938 37.3538 152.997 46.0215 142.838 47.1566C132.628 46.0215 124.738 37.4054 124.738 26.8803C124.738 16.4068 132.68 7.73906 142.838 6.604C152.997 7.73906 160.938 16.4068 160.938 26.8803Z" fill="#E6E6E6"/>
<path d="M141.446 15.5813L147.5 26.5" stroke="#B7B7B7" stroke-width="5"/>
<path d="M148.665 23.9395L134.227 39.6755" stroke="#B7B7B7" stroke-width="5"/>
<path fill-rule="evenodd" clip-rule="evenodd" d="M0 243.212H9.9007V280.566H0V243.212Z" fill="#D1D1D1"/>
<path fill-rule="evenodd" clip-rule="evenodd" d="M82.2995 243.212H92.2002V280.566H82.2995V243.212Z" fill="#D1D1D1"/>
<path fill-rule="evenodd" clip-rule="evenodd" d="M34.8586 243.212H44.7593V280.566H34.8586V243.212Z" fill="#939393"/>
<path fill-rule="evenodd" clip-rule="evenodd" d="M117.158 243.212H127.059V280.566H117.158V243.212Z" fill="#939393"/>
<path fill-rule="evenodd" clip-rule="evenodd" d="M35.0134 174.851H127.214V249.868H35.0134V174.851Z" fill="#939393"/>
<path fill-rule="evenodd" clip-rule="evenodd" d="M0 174.851H92.2003V249.868H0V174.851Z" fill="#D1D1D1"/>
<path fill-rule="evenodd" clip-rule="evenodd" d="M8.55994 184.55H83.6402V240.117H8.55994V184.55Z" fill="#E6E6E6"/>
<path fill-rule="evenodd" clip-rule="evenodd" d="M33.157 184.55C33.157 188.523 35.89 191.722 39.2933 191.722H52.8552C56.2586 191.722 58.9916 188.523 58.9916 184.55H33.157Z" fill="#B7B7B7"/>
<path fill-rule="evenodd" clip-rule="evenodd" d="M87.1467 142.966H106.329V174.954H87.1467V142.966Z" fill="#B7B7B7"/>
<path fill-rule="evenodd" clip-rule="evenodd" d="M111.383 126.714H80.7526L69.2018 174.954H99.8321L111.383 126.714Z" fill="#D1D1D1"/>
<path fill-rule="evenodd" clip-rule="evenodd" d="M105.04 126.714H74.4099L62.8591 174.954H93.4894L105.04 126.714Z" fill="#E6E6E6"/>
<path fill-rule="evenodd" clip-rule="evenodd" d="M97.6146 134.143H78.2774L70.2846 167.524H89.6219L97.6146 134.143Z" fill="#B7B7B7"/>
<path fill-rule="evenodd" clip-rule="evenodd" d="M44.5532 152.356H58.115V175.005H44.5532V152.356Z" fill="#B7B7B7"/>
<path fill-rule="evenodd" clip-rule="evenodd" d="M60.5902 140.85H38.9324L30.785 175.005H52.4428L60.5902 140.85Z" fill="#D1D1D1"/>
<path fill-rule="evenodd" clip-rule="evenodd" d="M56.1039 140.85H34.4462L26.2987 175.005H47.9565L56.1039 140.85Z" fill="#E6E6E6"/>
<path fill-rule="evenodd" clip-rule="evenodd" d="M49.4519 147.816H37.7464L32.8992 167.989H44.6047L49.4519 147.816Z" fill="#D1D1D1"/>
</g>
</svg>
