<svg width="67" height="76" viewBox="0 0 67 76" fill="none" xmlns="http://www.w3.org/2000/svg">
<g clip-path="url(#clip0)">
<path d="M59.0897 8.64143C55.5676 17.8475 51.1285 26.6261 45.244 34.3366C38.9895 42.5201 31.1912 49.3354 22.1711 54.4596C16.2725 57.8085 9.92923 60.4187 3.3384 62.475C2.72926 62.665 1.68008 62.1914 1.11916 61.8565C0.757178 61.6371 0.090637 61.1579 0.716155 60.962C11.8018 57.5062 22.1435 52.2961 30.8074 44.9908C38.3337 38.6543 44.4329 30.84 49.2002 22.1596C51.7841 17.4647 53.9751 12.5331 55.9148 7.48014C56.1947 6.7245 59.3264 8.03001 59.0897 8.64143Z" fill="white"/>
<path d="M59.2228 8.36308C59.6335 10.0652 60.0065 11.7847 60.6021 13.4581C61.238 15.2585 62.0637 17.0243 62.8159 18.7959C63.0536 19.3614 61.7714 19.0665 61.551 19.003C61.1395 18.8816 60.7232 18.7256 60.3384 18.5062C60.115 18.3791 59.7855 18.1886 59.6821 17.9347C58.9414 16.1631 58.1107 14.403 57.4683 12.5969C56.8727 10.9234 56.5046 9.19822 56.089 7.50182C55.9477 6.93058 57.0616 7.20809 57.3539 7.29478C57.7654 7.41615 58.1816 7.57214 58.5665 7.79157C58.7605 7.91283 59.1683 8.13228 59.2228 8.36308Z" fill="white"/>
<path d="M56.2184 7.6875C56.2119 7.68173 56.2103 7.67019 56.1989 7.67018C56.3765 7.7972 56.5492 7.92998 56.7269 8.057C58.5889 8.49067 59.1946 8.69291 58.5374 8.65795C58.7533 8.64653 58.8105 8.64655 58.7255 8.65228C58.7107 8.66958 58.6012 8.66375 58.5733 8.66951C58.4621 8.69253 58.3557 8.70978 58.2509 8.73857C57.9628 8.80765 57.6059 8.91709 57.3864 8.9862C56.4825 9.27997 55.5963 9.6199 54.7167 9.96561C52.7723 10.7261 50.8506 11.5271 48.9451 12.3627C48.3733 12.6162 47.4837 12.2638 46.9029 11.9924C46.7496 11.9173 45.4416 11.1839 45.938 10.9649C48.1565 9.99105 50.3961 9.04604 52.6712 8.19336C53.5966 7.84768 54.527 7.49623 55.4945 7.24865C55.8039 7.16804 56.1165 7.11051 56.45 7.12222C56.8636 7.13398 57.3094 7.25536 57.7126 7.3998C58.1109 7.55001 58.7997 7.81576 59.0808 8.19669C59.5147 8.77385 58.7316 8.73882 58.3395 8.67515C57.753 8.571 56.6393 8.25311 56.2184 7.6875Z" fill="white"/>
</g>
<defs>
<clipPath id="clip0">
<rect width="78.7452" height="20.0256" fill="white" transform="matrix(0.649626 -0.759576 -0.74877 -0.663592 15.3436 74.5328)"/>
</clipPath>
</defs>
</svg>
