<svg width="139" height="133" viewBox="0 0 139 133" fill="none" xmlns="http://www.w3.org/2000/svg">
<g clip-path="url(#clip0)">
<path d="M59.0897 65.6414C55.5676 74.8475 51.1285 83.6261 45.244 91.3366C38.9895 99.5201 31.1912 106.335 22.1711 111.46C16.2725 114.809 9.92923 117.419 3.3384 119.475C2.72926 119.665 1.68008 119.191 1.11916 118.856C0.757178 118.637 0.090637 118.158 0.716155 117.962C11.8018 114.506 22.1435 109.296 30.8074 101.991C38.3337 95.6543 44.4329 87.84 49.2002 79.1596C51.7841 74.4647 53.9751 69.5331 55.9148 64.4801C56.1947 63.7245 59.3264 65.03 59.0897 65.6414Z" fill="white"/>
<path d="M59.2228 65.3631C59.6335 67.0652 60.0065 68.7847 60.6021 70.4581C61.238 72.2585 62.0637 74.0243 62.8159 75.7959C63.0536 76.3614 61.7714 76.0665 61.551 76.003C61.1395 75.8816 60.7232 75.7256 60.3384 75.5062C60.115 75.3791 59.7855 75.1886 59.6821 74.9347C58.9414 73.1631 58.1107 71.403 57.4683 69.5969C56.8727 67.9234 56.5046 66.1982 56.089 64.5018C55.9477 63.9306 57.0616 64.2081 57.3539 64.2948C57.7654 64.4161 58.1816 64.5721 58.5665 64.7916C58.7605 64.9128 59.1683 65.1323 59.2228 65.3631Z" fill="white"/>
<path d="M56.2184 64.6875C56.2119 64.6817 56.2103 64.6702 56.1989 64.6702C56.3765 64.7972 56.5492 64.93 56.7269 65.057C58.5889 65.4907 59.1946 65.6929 58.5374 65.658C58.7533 65.6465 58.8105 65.6466 58.7255 65.6523C58.7107 65.6696 58.6012 65.6638 58.5733 65.6695C58.4621 65.6925 58.3557 65.7098 58.2509 65.7386C57.9628 65.8077 57.6059 65.9171 57.3864 65.9862C56.4825 66.28 55.5963 66.6199 54.7167 66.9656C52.7723 67.7261 50.8506 68.5271 48.9451 69.3627C48.3733 69.6162 47.4837 69.2638 46.9029 68.9924C46.7496 68.9173 45.4416 68.1839 45.938 67.9649C48.1565 66.991 50.3961 66.046 52.6712 65.1934C53.5966 64.8477 54.527 64.4962 55.4945 64.2487C55.8039 64.168 56.1165 64.1105 56.45 64.1222C56.8636 64.134 57.3094 64.2554 57.7126 64.3998C58.1109 64.55 58.7997 64.8158 59.0808 65.1967C59.5147 65.7738 58.7316 65.7388 58.3395 65.6752C57.753 65.571 56.6393 65.2531 56.2184 64.6875Z" fill="white"/>
</g>
<g clip-path="url(#clip1)">
<path d="M36.5782 14.2318C36.4297 15.2907 36.3661 16.4979 36.3025 17.5568C36.2812 18.0862 36.26 18.6369 36.2176 19.1663C36.2176 19.717 36.1964 20.2676 36.2176 20.7971C36.2388 21.1147 36.2388 21.3053 36.3025 21.3053C36.3661 21.3053 36.4509 21.1995 36.5994 20.9877C36.9812 20.3947 37.4054 19.5264 37.7235 18.891L37.7447 18.8487C37.9356 18.4251 38.1477 18.0015 38.3174 17.578C39.0385 15.9049 39.6536 14.2318 40.3959 12.5587C41.0959 10.8645 41.4988 9.21255 42.1139 7.47593C42.2412 7.1159 43.1108 4.19329 43.132 4.17211C43.1956 4.06622 43.2593 4.04504 43.3229 4.04504C43.6622 4.04504 44.044 5.10396 44.0864 5.31574C44.2561 6.0358 44.2773 6.50172 44.5318 7.26414C44.7015 7.7936 44.7651 8.04774 44.7439 8.36541C44.7439 8.5772 44.6803 8.83134 44.6167 9.23372C44.1925 11.521 43.4714 13.5753 42.7078 15.7778C42.3684 16.8579 41.8382 18.171 41.3928 19.2299C40.9686 20.2676 40.3959 21.6018 39.9081 22.5972C39.5475 23.3385 39.2082 23.9738 38.6992 24.6303C38.4022 24.9692 38.0629 25.0963 37.7235 25.0963C37.2145 25.0963 36.6842 24.8421 36.2176 24.6303C35.0723 24.1009 33.4816 22.9361 33.227 21.3901C33.0362 20.0982 33.0362 18.0227 32.9937 16.6673C32.9513 15.4813 32.8665 14.1047 33.0149 12.7281C33.3119 10.1444 33.3967 8.81016 33.5452 7.68771C33.63 6.94647 33.8633 6.69233 34.2027 6.69233C34.542 6.69233 35.0087 6.94647 35.5601 7.28532C36.4085 7.77242 37.2357 8.15363 37.1933 9.21255V9.33961C37.1933 9.82672 37.1084 10.3562 36.8327 12.0716C36.7054 12.7917 36.663 13.5329 36.5782 14.2318Z" fill="white"/>
<path d="M51.8492 10.208C51.0432 10.208 49.9615 10.7375 49.5161 10.9705C49.0919 11.2246 48.2223 11.8599 47.48 11.8599C47.2042 11.8599 46.9497 11.7752 46.7376 11.5423C46.6316 11.4364 46.5679 11.2881 46.5679 11.1399C46.5679 10.6951 46.9285 10.1869 47.1194 9.93272C47.5648 9.33973 47.9254 9.06441 48.6041 8.6832C48.6889 8.64084 48.7737 8.57731 48.8586 8.55613L49.0283 8.47142C49.6646 8.1961 50.2796 8.04785 50.8735 8.04785C51.5734 8.04785 52.2946 8.23846 53.1217 8.61967C54.3731 9.21266 56.2184 10.5257 56.6638 11.6693C56.791 12.0717 56.8547 12.4529 56.8547 12.8553C56.8547 13.0883 56.8335 13.3212 56.8122 13.533L56.7698 13.8507C56.685 14.3166 56.6001 14.7402 56.5789 15.2273C56.4729 16.5615 55.9851 17.091 55.7305 18.2558C55.3488 19.823 54.3095 21.7714 53.3126 23.1056C53.0793 23.4233 52.846 23.6986 52.5491 23.9527C51.8704 24.5034 51.128 24.7363 50.3857 24.7363C49.4737 24.7363 48.5404 24.3975 47.5436 23.8045C45.062 22.3008 44.4894 21.0937 44.4894 19.3782C44.4894 18.7429 44.5742 18.044 44.6591 17.218C44.7439 16.5192 44.8712 16.0321 45.0408 15.3755C45.2105 14.5496 45.4862 12.4106 46.8012 12.4106C46.9285 12.4106 47.0558 12.4318 47.183 12.4529C48.2647 12.7706 49.7494 13.5118 49.7494 14.5708C49.7494 14.6767 49.7282 14.8037 49.707 14.9308C49.4737 15.6085 49.3464 16.0744 49.0283 16.7309C48.5617 17.7687 48.5404 18.6793 48.2647 19.7594C48.2011 20.0348 48.1587 20.3101 48.1587 20.5854C48.1587 20.9031 48.2223 21.2419 48.3496 21.5808C48.4344 21.7714 48.5404 21.8349 48.6889 21.8349C49.1979 21.8349 49.9403 20.7336 50.0675 20.5219C50.3857 19.9924 50.6402 19.4206 50.8947 18.87C51.1704 18.277 51.2977 17.8322 51.4886 17.218C51.6795 16.5192 52.0613 16.0956 52.2309 15.312C52.5067 13.9778 52.7612 13.3848 52.7612 12.1141C52.7612 11.9447 52.7612 11.7752 52.74 11.5846C52.7188 11.2246 52.7612 10.6316 52.4642 10.3351C52.3158 10.2504 52.1037 10.208 51.8492 10.208Z" fill="white"/>
<path d="M57.8939 22.2161C57.6182 21.729 57.3 21.3266 57.0243 20.7972C56.7274 20.2465 56.5365 19.7594 56.4941 19.1664C56.3456 17.3875 56.9183 14.9731 57.4273 13.5118C57.6818 12.7706 57.9788 12.0505 58.2757 11.3305C59.1029 9.42442 59.5907 8.64082 60.5876 7.60309C61.4572 6.7136 62.3268 6.20532 62.9206 6.20532C64.0235 6.39593 65.2113 7.6878 66.0173 8.72554C67.2262 10.3139 68.0322 11.2881 67.1626 13.2577C66.9717 13.7236 66.2718 15.5238 65.7203 15.5449C65.2537 15.5661 64.4053 15.079 63.9811 14.8672C63.8963 14.8249 63.8114 14.6555 63.7266 14.5496C63.6418 14.4437 63.5357 14.2954 63.5357 14.1684C63.5357 14.0836 63.5569 13.9989 63.5781 13.9354C63.6842 13.533 63.9811 13.1094 64.1296 12.6647C64.2144 12.4106 64.2568 12.1988 64.2781 11.9235C64.2993 11.6905 64.2993 11.4575 64.2568 11.2246L64.2144 10.8857C64.0447 10.2716 63.3872 10.5892 63.1964 11.0975C62.857 12.2411 63.26 11.6905 62.454 12.7071C61.6056 13.8083 61.2239 15.079 60.9905 16.4344C60.9693 16.5615 60.736 16.8368 60.6512 16.9427C60.0149 18.0652 60.1422 19.4418 59.8664 20.6489C59.7604 21.1148 59.6967 22.0679 60.333 22.1526C62.1571 22.2373 62.9843 21.2843 64.2568 20.1618C64.6598 19.8018 65.4022 19.0605 65.8052 18.8064C66.2718 19.0394 65.8476 20.416 65.6779 20.7972C65.2113 21.7925 64.8507 22.1102 64.5538 23.275C64.2144 24.694 63.8326 24.9905 62.5389 25.5835C61.648 25.9647 61.0966 25.3928 60.3543 24.8846C60.0997 24.694 59.8452 24.5034 59.5907 24.2916C59.2089 23.9315 58.912 23.5927 58.5938 23.1903C58.2969 22.8091 58.1484 22.6397 57.8939 22.2161Z" fill="white"/>
<path d="M67.0141 17.8109C67.0141 17.6839 67.0777 17.5356 67.205 17.345C67.3747 17.1332 67.6716 16.9003 68.117 16.6038C69.0927 15.9049 69.432 15.0578 69.7926 13.9988C70.0047 13.3847 70.4501 12.2199 70.4501 11.4998C70.4501 11.3939 70.4501 11.3092 70.4289 11.2245C70.3865 11.0762 70.344 10.9915 70.2592 10.8856C70.1319 10.7162 69.9835 10.695 69.8562 10.695C69.7502 10.695 69.6653 10.7162 69.5593 10.7162C69.3684 10.7162 69.1775 10.6527 69.0078 10.2926C68.8382 9.93262 68.6048 9.33962 68.6048 8.78899C68.6048 8.40778 68.7109 8.04775 69.0503 7.83597L69.1775 7.75125C69.8986 7.47593 70.8531 7.24297 71.5954 7.05237C73.2922 6.64998 75.0314 6.26877 76.707 5.92992C77.1524 5.82403 77.8099 5.67578 78.4037 5.67578C78.8279 5.67578 79.2097 5.76049 79.4642 6.01463C79.74 6.33231 80.5883 7.53947 80.5883 8.28071C80.5883 8.51367 80.5035 8.70427 80.2702 8.81017C79.8036 9.00077 78.2341 9.04313 77.5978 9.14902C76.41 9.33962 75.2435 9.59376 74.0557 9.80555C73.6316 9.89026 73.2286 9.95379 72.8044 10.0385C71.9984 10.1868 71.659 10.2926 71.659 10.3985C71.659 10.5256 72.1893 10.6527 72.9316 10.7797C73.1649 10.8221 73.3982 10.8645 73.6316 10.9492C74.1406 11.1821 74.3315 11.4786 74.3315 11.8175C74.3315 12.3681 73.8861 13.0035 73.6316 13.6388C73.5255 13.8718 73.3134 14.3589 73.3134 14.6977C73.3134 14.8248 73.3346 14.9307 73.4195 14.973C74.3527 14.9519 75.3283 14.5071 76.3252 14.5071C76.4737 14.5071 76.6433 14.5283 76.7918 14.5495C77.4281 14.6554 77.2584 15.1001 77.8735 15.5025C77.9583 15.5449 78.022 15.5872 78.1068 15.6296C78.3401 15.7566 78.6371 15.8837 78.6371 16.0955C78.6371 16.1802 78.5734 16.2861 78.4037 16.392C78.022 16.625 76.5585 16.9214 76.0495 17.0697C75.6677 17.1756 75.2859 17.2603 74.9041 17.3662C74.2891 17.5356 72.6771 17.9168 72.2105 18.2769C71.8287 18.5734 71.6166 18.9757 71.447 19.3993C71.4045 19.484 71.3621 19.5687 71.3409 19.6534H71.2985C71.1712 19.9076 71.1288 20.0558 71.1076 20.31C71.1076 20.3523 71.0864 20.4159 71.0864 20.4582V20.5429C71.0652 20.7335 70.9803 20.7124 70.9591 20.9453C70.9379 21.1147 70.8743 21.263 70.8531 21.4536C70.8531 21.5383 70.8319 21.7925 70.8319 21.9407V22.0254C70.8743 22.1737 71.0228 22.2372 71.15 22.3007C71.3197 22.3431 71.4894 22.3431 71.6803 22.3431C73.5043 22.3431 75.9646 20.903 77.5129 20.0558C77.7675 19.9288 78.8279 19.3146 79.337 19.3146C79.5067 19.3146 79.5915 19.3781 79.5915 19.5264C79.5915 19.6111 79.5703 19.6958 79.5279 19.8017C79.2521 20.4794 78.8279 20.2676 78.6371 21.2842C78.531 21.7713 78.2341 22.1525 77.9796 22.6396C77.5129 23.4867 75.4132 24.6092 74.5012 24.9268C73.8012 25.181 73.2498 25.2869 72.5923 25.2869C72.4226 25.2869 72.2317 25.2657 72.0408 25.2657C71.7227 25.2022 71.4682 25.1174 71.1924 25.0327C71.0864 24.9904 71.0228 24.948 70.9379 24.9057C70.0683 24.4186 69.3048 23.5714 68.7109 22.809C67.9686 21.856 67.9049 20.7759 67.8837 19.5476C67.8837 18.7004 67.0141 18.3404 67.0141 17.8109ZM70.9803 4.21448V4.12977C71.3197 3.00732 72.3378 1.84251 73.1013 0.953023C73.6103 0.338853 73.9921 0 74.9041 0H74.989C75.1799 0 75.392 0.0211783 75.5829 0.148248C76.007 0.487101 76.4949 1.2707 76.9827 2.35079C77.2372 2.90142 77.3645 3.2191 77.3857 3.45206C77.4069 3.53677 77.4069 3.62149 77.4069 3.68502L77.3857 4.0027C77.3857 4.04505 77.3008 4.15094 77.1948 4.25683C77.0887 4.36273 76.9827 4.46862 76.9827 4.4898C76.9615 4.53215 76.4737 4.82865 76.3888 4.82865L76.3464 4.84983C76.2404 4.84983 76.1131 4.78629 76.0919 4.72276C76.0707 4.70158 76.0707 4.65922 76.0707 4.61687C76.0707 4.59569 76.0495 4.57451 76.0495 4.53215C76.0495 4.51097 76.0707 4.4898 76.0707 4.46862L76.0495 4.34155C75.9858 4.23566 75.9858 4.12977 75.9434 4.04505L75.7737 3.53677C75.6677 3.19792 74.9678 1.82133 74.8193 1.60955C74.7345 1.50366 74.6284 1.4613 74.5436 1.4613C74.2466 1.4613 73.9497 1.92722 73.8437 2.09665C73.4407 2.71082 73.1437 3.26146 72.8468 3.93916C72.7407 4.1933 72.5074 5.08279 72.2105 5.08279C71.7863 5.10397 71.0864 4.59569 70.9803 4.21448Z" fill="white"/>
<path d="M95.9442 23.9315C95.6685 23.9315 95.414 23.7409 94.9898 23.3809C93.4203 22.0255 93.0173 22.1102 93.0173 20.6912C93.0173 20.4371 93.0385 20.1618 93.0597 19.8017V19.6535C93.0597 19.3994 93.0173 19.0605 92.784 19.0605H92.7628C92.6567 19.124 92.6355 19.1452 92.5295 19.2511C91.978 19.9288 91.1932 23.5503 90.9599 24.6304C90.8539 25.1175 90.6206 26.1976 90.0055 26.1976C89.9631 26.1976 89.9207 26.1976 89.8782 26.1764C89.5601 26.0493 89.3268 25.9011 89.0298 25.6893C88.6269 25.414 87.8421 24.6304 87.63 24.2068C87.5876 24.1221 87.5876 24.0374 87.5876 23.9315C87.5876 23.2326 88.2239 21.8772 88.4148 21.4536C89.1359 19.8229 89.6237 18.4252 90.1752 16.7097C90.5994 15.3119 90.9811 13.9565 91.4265 12.5376C91.7023 11.6269 91.9144 10.7163 92.2113 9.82677C92.4022 9.29731 92.6779 7.96308 92.9961 7.60305C93.1233 7.47598 93.2718 7.41245 93.4627 7.41245C94.0353 7.41245 94.8413 7.96308 95.3079 8.17486C95.4988 8.28076 95.6897 8.36547 95.8594 8.49254C96.4108 8.87375 96.7078 9.25496 96.7078 9.80559C96.7078 9.97502 96.6866 10.1868 96.6229 10.3986C96.4108 11.1398 96.4533 12.3046 96.3684 13.0882C96.2836 13.8506 96.2412 14.4013 96.2412 15.1425C96.2412 15.4814 96.2199 15.8202 96.1987 16.1591V16.265C96.1987 16.5191 96.2412 16.7732 96.3896 16.9427C96.4108 16.9639 96.4108 16.9639 96.432 16.9639C96.6441 16.9639 97.0047 16.1379 97.0683 15.9897C97.4077 15.3543 97.7046 14.9731 97.9804 14.2742C98.1288 13.9142 98.2561 13.5753 98.447 13.2153C99.0408 12.0293 99.4862 11.2457 99.9529 9.9962C100.08 9.65734 100.207 9.33967 100.356 9.022C100.716 8.13251 100.886 7.49716 101.141 6.60767C101.395 5.73936 101.544 5.3158 101.989 5.3158C102.244 5.3158 102.604 5.46404 103.113 5.73936L103.41 5.86643C104.449 6.39589 105.679 6.98888 105.679 8.28076C105.679 8.36547 105.679 8.45018 105.658 8.55607C105.467 10.208 104.895 11.2669 104.895 13.067V13.3C104.895 13.4059 104.916 13.4906 104.916 13.5753C104.916 14.3801 104.725 14.8037 104.598 15.6508C104.577 15.8414 104.555 16.032 104.555 16.1803C104.555 16.5826 104.619 16.9215 104.619 17.3027C104.619 17.4721 104.598 17.6204 104.577 17.811C104.471 18.2769 104.449 18.5522 104.449 18.7852C104.449 19.0605 104.492 19.3358 104.555 19.8017C104.619 20.31 104.64 20.6489 104.64 20.9877C104.64 21.3054 104.619 21.6231 104.598 22.1102C104.598 22.3855 104.619 22.6608 104.619 22.9573C104.64 23.2326 104.661 23.5079 104.704 23.7833C104.789 24.3127 104.874 24.7363 104.874 25.0328C104.874 25.3293 104.789 25.4987 104.534 25.4987C104.322 25.4987 103.962 25.3716 103.41 25.054C102.159 24.3763 101.141 24.1645 101.141 22.682V22.5126C101.225 21.3901 101.331 20.4794 101.331 19.3146V19.1029C101.331 18.6793 101.374 18.3616 101.438 17.8957C101.459 17.8322 101.459 17.7686 101.459 17.7051C101.459 17.3239 101.289 17.1756 101.289 16.7309C101.31 16.2014 101.501 15.8838 101.522 15.3755C101.522 15.2908 101.544 15.1849 101.544 15.1002C101.544 14.8672 101.522 14.6131 101.416 14.6131C101.353 14.6131 101.268 14.6978 101.141 14.9307C100.78 15.5237 100.589 15.672 100.356 16.3497C100.123 17.0909 100.038 17.0909 99.5499 17.6627C99.2105 18.0651 99.2317 18.3828 99.0621 18.8064C98.8287 19.4205 98.5954 19.6323 98.2773 20.1618C98.15 20.3947 98.044 20.6065 97.9591 20.8607C97.8955 21.0301 97.8531 21.1783 97.7683 21.3478C97.6198 21.6866 97.4925 21.8772 97.3229 22.1949C97.0047 22.7879 97.2592 23.1267 96.6229 23.6138C96.3684 23.8256 96.1563 23.9315 95.9442 23.9315Z" fill="white"/>
<path d="M107.843 18.4674C108.013 18.2768 108.013 17.9803 108.161 17.7261C108.394 17.3661 108.755 17.2602 108.755 16.7731V16.6884C108.755 16.4978 108.84 16.6672 108.967 16.4131C109.158 16.0319 109.264 15.7566 109.306 15.2906C109.37 14.7188 109.731 15.0577 109.815 14.4012C109.858 14.0199 109.921 13.8929 110.049 13.5752C110.261 13.1093 110.537 12.6857 110.749 12.1986C110.876 11.8809 111.109 11.5633 111.3 11.2668C111.406 11.055 111.555 10.8432 111.661 10.6314C112.17 9.63604 112.742 9.02187 113.485 8.25945C114.588 7.07346 115.288 6.56519 115.881 6.56519C116.051 6.56519 116.178 6.60754 116.327 6.67108C116.984 6.9464 117.578 7.41232 118.151 7.9206C118.278 8.02649 118.405 8.1112 118.554 8.23827C119.19 8.68301 119.254 9.29718 119.339 9.93253L119.36 9.97489C119.423 10.5255 119.445 11.0762 119.445 11.6056C119.445 12.1139 119.445 12.6645 119.423 13.1728C119.423 13.6599 119.381 13.7658 119.317 13.7658C119.275 13.7658 119.233 13.7023 119.211 13.7023L119.19 13.7234V13.7446C119.19 13.8082 119.254 13.9988 119.254 14.1047C119.233 14.5494 119.169 14.7824 119.169 15.1C119.169 15.2695 119.19 15.4389 119.254 15.693C119.254 15.7142 119.148 15.8201 119.105 16.0107C118.83 17.1331 118.914 18.3827 118.639 19.5898C118.554 19.9287 118.554 20.2252 118.554 20.5429V21.2206C118.554 21.4535 118.554 21.6865 118.511 21.9194C118.49 22.1524 118.469 22.3218 118.448 22.5548C118.427 22.8725 118.405 22.9995 118.299 23.2537C118.257 23.3807 118.214 23.529 118.214 23.7196C118.214 23.9737 118.257 24.2702 118.257 24.5455C118.257 24.6514 118.236 24.7785 118.236 24.8844C118.13 25.5621 118.193 25.901 117.769 25.901C117.621 25.901 117.43 25.8586 117.133 25.7739C116.284 25.4986 114.651 24.2914 114.651 23.1266C114.651 22.8513 114.694 22.576 114.715 22.3218C114.736 22.0042 114.8 21.6865 114.8 21.3688C114.8 20.8605 114.651 20.4158 113.994 20.204C113.739 20.1616 113.527 20.1193 113.294 20.1193C112.53 20.1193 111.788 20.4158 111.449 21.157C111.13 21.8771 111.194 21.6018 110.77 22.1524C110.409 22.7454 110.494 23.4866 110.261 24.1855C109.985 24.9903 110.07 25.7315 109.858 26.3033C109.773 26.5151 109.667 26.5787 109.54 26.5787C109.349 26.5787 109.115 26.4092 108.819 26.261C107.97 25.7951 106.782 24.8632 106.782 23.7408C106.782 23.6137 106.804 23.4655 106.825 23.3384C106.952 22.8725 107.016 22.5971 107.016 22.3854C107.016 21.8983 106.613 22.0465 105.807 21.1994C105.404 20.7758 105.276 20.5005 105.192 19.9499C105.192 19.6322 105.722 19.5051 105.976 19.378C106.21 19.2722 106.443 19.1451 106.676 19.0604C107.016 18.9121 107.588 18.7215 107.843 18.4674ZM115.457 15.6507C115.627 15.2695 115.712 14.6553 115.733 14.1894V13.9141C115.712 13.787 115.712 13.6599 115.712 13.554C115.712 13.4058 115.712 13.2575 115.733 13.0881C115.754 12.6434 115.754 12.2621 115.775 11.8386C115.797 11.7962 115.797 11.6056 115.797 11.4574C115.797 11.3091 115.775 11.1821 115.712 11.1609H115.69C115.372 11.1609 114.821 12.1563 114.672 12.4104C114.609 12.5163 114.545 12.601 114.482 12.7281C114.291 13.0669 114.057 13.3846 113.866 13.7234C113.718 14.0199 113.506 14.2317 113.294 14.5282C113.124 14.7612 112.7 15.5871 112.7 16.0319C112.7 16.1166 112.7 16.1589 112.721 16.2225C112.848 16.5402 113.167 16.6037 113.463 16.6037C113.57 16.6037 113.697 16.5825 113.782 16.5825C114.163 16.5825 114.694 16.5402 114.969 16.3496L114.991 16.3284C115.097 16.2225 115.415 15.7566 115.457 15.6507Z" fill="white"/>
<path d="M119.551 24.482C119.508 24.4185 119.466 24.3126 119.466 24.2067V24.1432C119.466 23.5502 119.848 22.5336 119.848 22.5336C120.145 22.0677 120.526 20.7123 120.59 20.2252C120.675 19.6746 120.696 19.2087 120.844 18.658C120.908 18.4886 120.951 18.298 121.014 18.1286C121.141 17.7897 121.396 17.5991 121.481 17.2814C121.672 16.5825 121.82 14.6977 122.266 13.9353C122.308 13.2999 122.647 12.2198 122.796 11.288C122.965 10.1655 122.838 9.74196 123.326 9.55136C123.814 9.36075 125.15 8.83129 126.02 8.7254C126.147 8.70422 126.274 8.70422 126.38 8.70422C126.995 8.70422 127.25 8.97954 127.292 9.65725V9.76314C127.292 10.1232 127.25 10.5891 127.123 11.1397C126.656 11.1821 126.635 11.8386 126.635 12.4104C126.635 12.8975 126.317 13.5964 125.977 14.02C125.85 14.1682 125.383 15.7142 125.341 15.8837C125.299 16.0531 125.235 16.0743 125.235 16.1802V16.2225C125.235 16.2649 125.256 16.3284 125.256 16.3919L125.341 16.7308C125.341 16.8367 125.299 16.9638 125.171 17.1332C124.302 18.4886 124.683 19.2722 124.217 20.6276C124.238 20.6488 124.238 20.6488 124.238 20.6911V20.7123C124.238 21.3053 123.199 24.7785 122.987 24.7785C122.541 24.8209 121.863 24.9056 121.205 24.9056C120.505 24.9268 119.869 24.8209 119.551 24.482Z" fill="white"/>
<path d="M135.458 16.9003C135.797 17.345 135.861 17.5356 136.031 18.0227L136.073 18.1498C136.243 18.6581 136.306 19.1452 136.306 19.5899C136.306 21.7289 134.673 23.1267 132.807 24.1009C132.149 24.4397 131.364 24.7998 130.686 24.9904C129.88 25.2233 129.18 25.3928 128.586 25.3928C127.674 25.3928 127.016 24.9904 126.677 23.7409C126.635 23.4867 126.571 23.0843 126.571 22.6819C126.571 22.0889 126.698 21.5383 127.123 21.5383C127.25 21.5383 127.441 21.6018 127.653 21.7289C127.907 21.8983 128.183 21.9619 128.459 21.9619C128.65 21.9619 128.862 21.9407 129.095 21.8983C130.177 21.7289 131.449 21.3265 132.467 20.5641C132.743 20.3523 132.87 20.1617 132.87 19.9711C132.87 19.4417 131.874 19.1028 131.555 19.0816C129.413 18.891 127.271 18.2557 126.698 15.8837C126.656 15.6931 126.635 15.5025 126.635 15.3119C126.635 13.1305 129.222 10.6315 130.686 9.29726C132.383 7.96303 134.058 6.96765 135.543 6.96765C136.752 6.96765 137.855 7.62418 138.788 9.29726C138.958 9.61494 139.042 9.8479 139.042 10.0385C139.042 10.5044 138.533 10.5891 137.94 10.5891C137.6 10.6103 137.261 10.5891 136.964 10.5891C136.858 10.5891 136.752 10.5891 136.646 10.6103C134.885 10.7797 133.316 11.881 131.916 13.067C131.471 13.4482 130.622 14.1259 130.622 14.8036C130.622 14.9095 130.643 14.9942 130.686 15.1001L130.855 15.2272C132.149 15.8625 134.207 15.3119 135.458 16.9003Z" fill="white"/>
<path d="M37.7871 35.2406C38.487 35.1559 39.5051 35.0077 40.0778 34.9018C41.4352 34.69 42.8775 34.69 44.2773 34.5206C44.4258 34.4994 45.3166 34.4147 46.0801 34.4147C46.7164 34.4147 47.2467 34.4782 47.2467 34.69V34.7323C47.1406 34.9865 46.6952 35.2406 46.4831 35.4524C46.1862 35.7489 46.0801 35.9395 45.8256 36.2572C45.4438 36.7019 45.1681 36.4478 44.7015 37.2102C44.5106 37.5279 44.3833 37.4432 44.044 37.5279C43.6834 37.6126 43.6198 37.6338 43.238 37.6973C42.8138 37.7397 42.4745 37.8032 42.0715 37.9091C41.7109 37.9938 41.3291 38.0362 41.011 38.1421C40.7777 38.2056 40.5232 38.3115 40.3747 38.5233C40.2474 38.6927 40.1414 38.9045 40.0566 39.0951C40.0141 39.201 39.9929 39.2857 39.9505 39.3704C39.5899 40.7046 39.2506 42.0812 38.8476 43.3943C38.6143 44.2202 38.1053 45.8086 37.8932 46.6345C37.7023 47.397 37.4478 48.117 37.2781 48.9006C37.0448 49.8113 36.7903 50.7219 36.5782 51.6326C36.5357 51.802 36.4085 52.3527 36.1964 52.3527C36.1115 52.3315 35.8782 52.2468 35.7298 52.2256L35.6025 52.2044C35.0086 52.0985 35.0299 51.8868 34.6481 51.442C34.2663 51.0396 33.6936 50.3407 33.6936 49.7689C33.6936 49.2395 34.0542 48.8159 34.1603 48.2864C34.4148 46.9522 34.6905 45.7027 35.0086 44.3473C35.2632 43.3519 35.5389 42.3565 35.8146 41.3823C35.8995 41.0858 36.1964 40.2387 36.1964 39.6881C36.1964 39.4551 36.154 39.2857 36.0267 39.2221C35.8358 39.0951 35.4328 39.0527 35.0299 39.0527C34.3511 39.0527 33.5452 39.1586 33.1846 39.2221C32.7392 39.3069 32.2302 39.4127 31.8272 39.4551C31.7211 39.4763 31.6363 39.4763 31.5515 39.4763C31.1273 39.4763 31 39.328 31 39.0951C31 38.8621 31.1273 38.5656 31.2757 38.2903C31.5302 37.8456 31.5939 37.6126 31.5939 37.1255V36.9984C31.5939 36.469 31.9544 36.4478 32.3998 36.236C32.8877 36.003 33.227 35.9607 33.7573 35.876L33.8421 35.8548C34.0754 35.8124 34.3087 35.7701 34.5208 35.7489C35.348 35.5795 36.154 35.4736 36.9599 35.3465C37.2569 35.3042 37.5114 35.2618 37.7871 35.2406Z" fill="white"/>
<path d="M45.253 41.2129C45.3166 41.0223 45.6984 39.8999 45.6984 39.6669V39.6246C44.8712 38.8621 43.7895 38.4174 43.7895 37.7185C43.7895 37.3797 44.044 36.9561 44.7651 36.4055C45.5287 35.7913 46.4831 35.0501 47.3951 34.6688C48.5617 34.1817 49.7282 33.8005 51.022 33.8005C51.1917 33.8005 51.3402 33.8005 51.5098 33.8217C53.8005 34.3935 55.6245 35.7278 56.4729 38.0997C56.6214 38.5233 56.7062 38.8833 56.7062 39.2222C56.7062 39.7728 56.5153 40.2387 56.2396 40.8529C56.1548 41.0012 56.0911 41.1282 56.0063 41.2977C55.7518 41.7 55.4761 42.0813 55.2003 42.4413C54.8398 42.9284 54.4368 43.3519 54.0126 43.7967C52.9733 44.8768 52.1461 45.4274 51.0644 46.3593C50.5766 46.804 50.3857 47.164 50.3857 47.4605C50.3857 48.2865 51.9128 48.583 52.9733 48.8795C53.5672 49.0277 55.4548 49.2819 55.6245 49.3666C55.7306 49.4301 55.773 49.5148 55.773 49.6207C55.773 50.129 54.6489 50.9338 54.3519 51.1667C53.8217 51.5479 53.3127 51.6962 52.8248 51.6962C52.1037 51.6962 51.4038 51.3785 50.5978 51.0397L50.3009 50.9126C49.6222 50.5949 47.6709 49.5572 47.0346 49.5572H46.9922C46.3135 49.896 46.1862 53.0728 45.7196 53.2634C45.6772 53.2846 45.6347 53.2846 45.5711 53.2846C44.8288 53.2846 43.1956 51.6115 42.9623 51.082C42.8775 50.8914 42.8351 50.6796 42.8351 50.489C42.8351 49.769 43.3229 49.0701 43.4289 48.2653C43.5138 47.6511 43.7895 47.0581 43.9167 46.3804C44.0228 45.8933 44.1288 45.4062 44.2561 44.9191L44.7439 43.1613C44.9348 42.526 45.0833 41.8483 45.253 41.2129ZM48.286 37.8032C48.1163 37.9091 47.9678 37.9515 47.7133 38.1421C47.6072 38.248 47.2255 38.7139 47.2255 38.9892C47.2255 39.0528 47.2467 39.0951 47.2679 39.1375C47.3739 39.2434 47.5436 39.4551 47.7345 39.561C48.1799 39.8787 48.8586 40.387 48.8798 40.98V41.0647C48.8798 41.2765 48.795 41.5518 48.7526 41.7636C48.6677 42.1024 48.5829 42.3989 48.4981 42.7378C48.4132 43.0766 48.3284 43.3731 48.2435 43.712C48.1799 43.9449 48.1587 44.1144 48.1587 44.2203C48.1587 44.3473 48.2011 44.4109 48.2647 44.4109C48.4556 44.4109 48.8798 44.0085 49.304 43.6696L49.3889 43.5849H49.4101C51.1493 42.2083 53.1642 40.1328 53.7793 37.8879C53.8217 37.7185 53.8641 37.5703 53.8641 37.4432C53.8641 37.3161 53.8429 37.1679 53.7793 36.9985C53.6944 36.8079 53.3763 36.5114 53.1642 36.4478C52.9521 36.3843 52.7188 36.3631 52.4643 36.3631C51.7219 36.3631 50.8735 36.5749 50.3009 36.7655C50.0464 36.8502 49.8131 36.9349 49.5798 37.0196C49.0283 37.1891 48.7526 37.4432 48.286 37.8032Z" fill="white"/>
<path d="M57.3637 45.9992C57.5334 45.8086 57.5334 45.5121 57.6819 45.2579C57.9152 44.8979 58.2757 44.792 58.2757 44.3049V44.199C58.2757 44.0084 58.3606 44.1778 58.4878 43.9237C58.6787 43.5425 58.7848 43.2672 58.8272 42.8013C58.8908 42.2294 59.2514 42.5683 59.3362 41.9118C59.3786 41.5306 59.4423 41.4035 59.5695 41.0858C59.7816 40.6199 60.0573 40.1963 60.2694 39.7092C60.3967 39.3916 60.63 39.0739 60.8209 38.7774C60.9269 38.5656 61.0754 38.3538 61.1815 38.142C61.6905 37.1467 62.2632 36.5325 63.0055 35.7701C64.1084 34.5841 64.8083 34.0758 65.4022 34.0758C65.5719 34.0758 65.6991 34.1182 65.8476 34.1817C66.5051 34.457 67.099 34.9229 67.6716 35.4312C67.7989 35.5371 67.9262 35.6218 68.0746 35.7489C68.7109 36.1936 68.7746 36.8078 68.8594 37.4432L68.8806 37.4855C68.9442 38.0361 68.9654 38.5868 68.9654 39.1162C68.9654 39.6245 68.9654 40.1751 68.9442 40.6834C68.9442 41.1705 68.9018 41.2764 68.8382 41.2764C68.7958 41.2764 68.7533 41.2129 68.7321 41.2129L68.7109 41.2341V41.2552C68.7109 41.3188 68.7745 41.5094 68.7745 41.6153C68.7533 42.06 68.6897 42.293 68.6897 42.6107C68.6897 42.7801 68.7109 42.9495 68.7745 43.2036C68.7745 43.2248 68.6685 43.3307 68.6261 43.5213C68.3504 44.6438 68.4352 45.8933 68.1595 47.1004C68.0746 47.4393 68.0746 47.7358 68.0746 48.0535V48.7312C68.0746 48.9641 68.0746 49.1971 68.0322 49.4301C68.011 49.663 67.9898 49.8324 67.9686 50.0654C67.9474 50.3831 67.9262 50.5102 67.8201 50.7643C67.7777 50.8914 67.7353 51.0396 67.7353 51.2302C67.7353 51.4844 67.7777 51.7808 67.7777 52.0562C67.7777 52.1621 67.7565 52.2891 67.7565 52.395C67.6504 53.0727 67.7141 53.4116 67.2899 53.4116C67.1414 53.4116 66.9505 53.3692 66.6536 53.2845C65.8052 53.0092 64.172 51.802 64.172 50.6372C64.172 50.3619 64.2145 50.0866 64.2357 49.8324C64.2569 49.5148 64.3205 49.1971 64.3205 48.8794C64.3205 48.3711 64.172 47.9264 63.5145 47.7146C63.2812 47.6723 63.0691 47.6299 62.8358 47.6299C62.0723 47.6299 61.3299 47.9264 60.9906 48.6676C60.6724 49.3877 60.7361 49.1124 60.3119 49.663C59.9513 50.256 60.0361 50.9973 59.8028 51.6961C59.5271 52.5009 59.6119 53.2421 59.3998 53.814C59.315 54.0257 59.209 54.0893 59.0817 54.0893C58.8908 54.0893 58.6575 53.9199 58.3606 53.7716C57.5122 53.3057 56.3244 52.3738 56.3244 51.2514C56.3244 51.1243 56.3456 50.9761 56.3669 50.849C56.4941 50.3831 56.5577 50.1078 56.5577 49.896C56.5577 49.4089 56.1548 49.5571 55.3488 48.71C54.9458 48.2864 54.8185 48.0111 54.7337 47.4605V47.4393C54.7337 47.1216 55.2639 46.9946 55.5185 46.8675C55.7518 46.7616 55.9851 46.6345 56.2184 46.5498C56.5577 46.4439 57.1304 46.2533 57.3637 45.9992ZM64.9992 43.1825C65.1689 42.8013 65.2537 42.1871 65.2749 41.7212V41.4458C65.2537 41.3188 65.2537 41.1917 65.2537 41.0858C65.2537 40.9376 65.2537 40.7893 65.2749 40.6199C65.2962 40.1752 65.2962 39.7939 65.3174 39.3704C65.3386 39.328 65.3386 39.1374 65.3386 38.9892C65.3386 38.8409 65.3174 38.7139 65.2537 38.6927H65.2325C64.9144 38.6927 64.3629 39.6881 64.2145 39.9422C64.1508 40.0481 64.0872 40.1328 64.0236 40.2599C63.8327 40.5987 63.5994 40.9164 63.4085 41.2552C63.2388 41.5729 63.0267 41.7847 62.8146 42.0812C62.6449 42.3142 62.2207 43.1401 62.2207 43.5849C62.2207 43.6696 62.2207 43.7119 62.242 43.7755C62.3692 44.0931 62.6874 44.1567 62.9843 44.1567C63.0903 44.1567 63.2176 44.1355 63.3024 44.1355C63.6842 44.1355 64.2145 44.0931 64.4902 43.9025L64.5114 43.8813C64.6387 43.7543 64.9568 43.2884 64.9992 43.1825Z" fill="white"/>
<path d="M71.8076 53.221C71.3197 53.0304 70.1956 52.2468 69.8775 51.8656C69.6654 51.6115 69.6017 51.3997 69.6017 51.1032C69.623 50.489 70.1956 48.9854 70.3653 48.3712C70.5562 47.5241 70.6834 46.8675 71.0016 46.0839C71.1076 45.7874 71.1501 45.3215 71.2137 44.9827C71.3197 44.5167 71.447 44.072 71.553 43.6061C71.5955 43.4578 71.7015 43.0343 71.7015 42.9072C71.8076 42.1024 72.2954 40.4082 72.5287 39.4975C72.6347 38.968 73.0377 36.6808 73.4831 36.3631C73.674 36.2572 73.9073 36.2149 74.1406 36.2149C74.7557 36.2149 75.4768 36.5325 75.9647 36.7655C77.0676 37.295 77.0252 38.0785 77.0676 39.1163C77.0888 39.8787 77.0888 40.5988 77.1736 41.3824C77.2373 42.0177 77.8099 48.2653 78.7431 48.2653C79.5067 48.2653 80.2915 44.4109 80.6096 43.6061C81.0974 42.3989 81.4156 40.9588 81.6489 39.6669C81.7761 38.8833 81.9246 38.2691 82.0306 37.4008C82.0731 37.0408 82.0731 36.7655 82.1367 36.3843C82.37 35.1348 82.37 34.2029 82.4336 32.9534C82.4548 32.4451 82.5397 32.2545 82.6669 32.2545C82.9003 32.2545 83.2184 33.0381 83.3669 33.3981C83.5365 33.8641 83.7062 34.7959 84.194 35.05C84.6394 35.3254 84.6819 35.5583 84.6819 35.9184L84.6607 36.3631L84.6395 37.422C84.6395 37.9303 84.6607 38.3962 84.7667 39.0739C84.7879 39.2434 84.8091 39.4128 84.8091 39.6034C84.8091 40.747 84.2577 41.9965 84.0456 43.0978C84.0032 43.246 83.9819 43.3731 83.9607 43.5214C83.4729 45.5545 82.7094 48.3288 81.6913 50.1502C81.0762 51.2091 79.4643 51.5691 78.425 51.5691C78.1069 51.5691 77.8311 51.5056 77.4706 51.3997C76.6858 51.0185 76.2192 50.2772 75.901 49.536C75.6253 48.9006 74.6921 46.3804 74.2679 46.0204C74.1618 45.978 74.2255 45.9992 74.1194 45.978C73.9497 45.9992 73.9497 46.3381 73.9073 46.4651C73.5892 47.6935 73.4619 48.9007 73.1438 50.1713C72.9529 50.9549 72.868 51.5056 72.7196 52.2892C72.6347 52.6492 72.4863 53.2846 72.0197 53.2846C71.8924 53.2634 71.956 53.2634 71.8076 53.221Z" fill="white"/>
<path d="M93.0597 54.9153C92.4234 54.7035 91.6811 53.2846 91.4265 52.6916C91.3205 52.4798 91.2569 52.2892 91.172 52.0774C91.0023 52.1198 90.8327 52.1198 90.6418 52.1198C89.7722 52.1198 88.7753 51.7598 87.9481 51.1244C85.9544 49.5784 85.3181 48.2865 85.3181 46.5499C85.3181 45.7451 85.4454 44.8556 85.6363 43.7756C85.7635 43.0131 85.9544 42.4413 86.1665 41.7001C86.421 40.7894 86.9937 38.3327 88.2239 38.3327C88.3299 38.3327 88.4572 38.3539 88.5632 38.3963C89.4964 38.7139 90.7054 39.4764 90.7054 40.5988C90.7054 40.7682 90.6842 40.9377 90.6206 41.1283C90.366 41.8907 90.0691 42.4201 89.7298 43.1614C89.1995 44.3262 89.0935 45.3639 88.7329 46.5711C88.6693 46.7829 88.6481 46.9735 88.6481 47.1853C88.6481 47.6724 88.7965 48.1383 88.9238 48.6466C88.9662 48.8583 89.1147 48.9219 89.3056 48.9219C89.5389 48.9219 89.8146 48.7948 90.0055 48.6042C90.0267 48.583 90.0267 48.5407 90.0267 48.5195C90.0479 48.3924 90.0479 48.1171 90.0479 47.9688C90.0479 47.4394 90.0267 46.9946 90.0267 46.5499C90.0267 46.1475 90.0479 45.8087 90.0691 45.724C90.1115 45.491 90.1752 45.4698 90.5994 45.4698C91.0872 45.491 91.2993 45.6392 91.6598 45.851C92.0628 45.0039 92.1689 44.665 92.487 43.712C92.7415 42.9072 93.1021 42.4413 93.3354 41.573C93.7808 39.8576 94.0565 39.2222 94.1414 37.3585C94.1626 37.1891 94.1838 36.9561 94.1838 36.7232C94.1838 36.4479 94.1414 36.1514 94.0141 35.9608C93.8869 35.8549 93.696 35.7913 93.4839 35.7913C92.7415 35.7913 91.6811 36.4055 91.2569 36.6808C90.8115 36.9773 89.9419 37.7186 89.2631 37.7186C88.8814 37.7186 88.5208 37.4644 88.5208 37.0197C88.5208 36.5326 88.9238 35.8972 89.1359 35.5584C89.7298 34.6901 90.1752 34.3936 91.0023 33.8853C91.6386 33.5464 92.2113 33.3982 92.784 33.3982C93.4202 33.3982 94.0353 33.5888 94.7353 33.9912C95.8169 34.6265 97.3865 36.0667 97.6834 37.3585C97.747 37.6338 97.7682 37.9303 97.7682 38.2057C97.7682 39.3281 97.4501 40.1329 97.2592 41.34C97.0259 42.8225 96.5381 43.4367 96.1987 44.7497C95.7109 46.5287 94.5656 48.7313 93.5263 50.2137C93.399 50.4044 93.2718 50.5738 93.1233 50.7432C93.1657 51.0397 93.2082 51.3574 93.2718 51.6115V51.6327C93.5475 52.861 93.7596 54.1953 93.7596 54.64L93.7384 54.7459C93.696 54.8941 93.6111 54.9789 93.4415 54.9789C93.4203 55 93.2718 54.9789 93.0597 54.9153Z" fill="white"/>
<path d="M102.201 39.8576C102.519 40.2176 102.625 40.5353 102.625 40.8529C102.625 41.3189 102.392 41.7848 102.222 42.3354C102.116 42.6531 102.031 42.9284 101.883 43.2249C101.65 43.712 101.395 44.7497 101.204 45.3427C100.886 46.3169 100.589 47.5029 100.462 48.5406V48.6465C100.462 48.7736 100.504 48.8371 100.568 48.8371C100.674 48.8371 100.801 48.7524 100.907 48.7101C101.013 48.6254 101.141 48.4771 101.247 48.3712C101.48 48.1171 101.713 47.8629 101.925 47.5876C102.774 46.5287 103.898 44.8133 104.598 43.5002C104.895 42.9496 105.234 42.3142 105.361 42.0813C105.68 41.5306 106.528 39.794 106.549 39.6669C106.592 39.4763 106.867 38.9681 106.952 38.7563C107.27 37.9515 107.652 36.3843 108.31 35.9184C108.394 35.876 108.458 35.8125 108.564 35.7913C108.628 35.7701 108.691 35.7701 108.755 35.7701C109.582 35.7701 111.173 36.9985 111.236 37.8668C111.236 37.9303 111.258 37.9939 111.258 38.0362C111.258 38.5021 111.088 38.8833 111.003 39.3069C110.643 40.7259 109.646 43.2673 109.328 44.3262C108.479 47.3547 108.225 49.4301 107.97 52.6704C107.928 53.1999 107.779 53.5599 107.504 53.5599C107.334 53.5599 107.101 53.4117 106.804 53.0728C105.892 52.0351 105.976 50.2349 105.701 48.9854C105.404 48.9854 103.622 51.5691 103.283 51.9292C102.774 52.4586 102.286 52.8398 101.522 52.8398H101.438C100.25 52.6916 99.7832 52.1621 98.8924 51.2726C98.0864 50.4043 97.5562 49.3666 97.3229 48.223C97.2804 48.0324 97.2804 47.8206 97.2804 47.6088C97.2804 46.9311 97.4289 46.1475 97.5562 45.5969L97.5986 45.3639C97.7683 44.7497 97.8743 44.2415 98.0016 43.6061C98.0228 43.4579 98.0652 43.3308 98.1076 43.1614C98.2985 42.4837 98.5106 41.6789 98.7227 41.0224C98.9772 40.3235 99.1045 39.4552 99.5499 38.8834L99.6135 38.7986C99.7832 38.608 99.9529 38.5233 100.165 38.5233C100.313 38.5233 100.462 38.5657 100.632 38.6504C101.247 38.8622 101.756 39.3493 102.201 39.8576Z" fill="white"/>
<path d="M110.155 52.0139C110.112 51.9504 110.07 51.8445 110.07 51.7386V51.6751C110.07 51.0821 110.452 50.0655 110.452 50.0655C110.749 49.5996 111.13 48.2442 111.194 47.7571C111.279 47.2064 111.3 46.7405 111.449 46.1899C111.512 46.0205 111.555 45.8298 111.618 45.6604C111.746 45.3216 112 45.131 112.085 44.8133C112.276 44.1144 112.424 42.2295 112.87 41.4671C112.912 40.8318 113.251 39.7517 113.4 38.8198C113.57 37.6974 113.442 37.2738 113.93 37.0832C114.418 36.8926 115.754 36.3632 116.624 36.2573C116.751 36.2361 116.878 36.2361 116.984 36.2361C117.599 36.2361 117.854 36.5114 117.896 37.1891V37.295C117.896 37.655 117.854 38.121 117.727 38.6716C117.26 38.7139 117.239 39.3705 117.239 39.9423C117.239 40.4294 116.921 41.1283 116.581 41.5518C116.454 41.7001 115.987 43.2461 115.945 43.4155C115.903 43.5849 115.839 43.6061 115.839 43.712V43.7544C115.839 43.7967 115.86 43.8603 115.86 43.9238L115.945 44.2627C115.945 44.3685 115.903 44.4956 115.775 44.665C114.906 46.0205 115.288 46.804 114.821 48.1595C114.842 48.1806 114.842 48.1806 114.842 48.223V48.2442C114.842 48.8372 113.803 52.3104 113.591 52.3104C113.145 52.3528 112.467 52.4375 111.809 52.4375C111.13 52.4587 110.473 52.3528 110.155 52.0139Z" fill="white"/>
<path d="M120.993 46.6981C120.993 46.9099 121.035 47.0582 121.035 47.2064C121.035 47.2911 121.014 47.3335 120.993 47.4182L120.866 47.6935C120.76 47.9477 120.654 48.1806 120.59 48.4559C120.505 48.7948 120.42 49.1125 120.357 49.4513C120.314 49.6843 120.293 49.8961 120.293 50.0443C120.293 50.5102 120.463 50.6585 120.823 50.6585C121.035 50.6585 121.311 50.5949 121.672 50.5314C122.287 50.4043 122.753 50.2137 123.347 50.0655C123.687 49.9596 123.962 49.9172 124.174 49.9172C124.62 49.9172 124.917 50.129 125.362 50.6585L125.765 51.1456C126.083 51.548 126.571 52.0986 126.571 52.4798C126.571 52.7339 126.338 52.9245 125.744 52.9457C124.938 52.9669 124.705 52.9245 123.899 53.1363C123.22 53.3058 123.05 53.3905 122.329 53.4116C121.863 53.4328 121.587 53.4964 121.163 53.6446C120.738 53.7717 120.399 53.8776 119.975 53.9835C119.317 54.1529 119.02 54.4282 118.448 54.6188C118.384 54.64 118.32 54.6612 118.257 54.6612C117.642 54.6612 117.112 53.6658 116.857 53.1999C116.666 52.7975 116.475 52.4586 116.475 52.1621C116.475 51.8656 116.666 51.6327 117.26 51.5056C117.536 51.4421 118.49 51.5268 118.49 51.2091C118.49 51.1456 118.448 51.0609 118.32 50.955C117.43 50.2137 116.963 49.9596 116.963 49.1336C116.963 48.9007 117.005 48.6042 117.09 48.223C117.451 46.8676 117.981 45.618 118.236 44.1991C118.257 44.1567 118.257 44.1144 118.257 44.072C118.914 41.7001 119.19 40.0482 119.869 37.7185C120.081 36.9773 120.145 36.3843 120.335 35.6642C120.378 35.4525 120.441 35.2407 120.526 35.0501C120.717 34.5418 120.929 34.2665 121.269 34.2665C121.46 34.2665 121.672 34.3512 121.926 34.5206C122.732 35.0501 123.39 35.3254 123.835 36.1937C124.026 36.5537 124.09 36.8079 124.09 37.0197C124.09 37.295 124.005 37.5491 123.983 37.9515C123.962 38.9257 123.496 39.434 122.859 40.5141C122.414 41.2553 122.456 41.8695 122.181 42.5684C122.011 43.0343 122.075 43.1614 121.99 43.5849C121.884 44.1144 121.629 44.1567 121.629 44.5803V44.6862C121.65 44.8344 121.672 44.898 121.672 44.9615C121.672 45.025 121.65 45.0886 121.629 45.2368C121.587 45.4698 121.523 45.6816 121.46 45.9145C121.332 46.3169 121.057 46.4228 120.993 46.6981Z" fill="white"/>
<path d="M132.107 37.7398C131.301 37.7398 130.219 38.2692 129.774 38.5022C129.328 38.7563 128.459 39.3917 127.716 39.3917C127.441 39.3917 127.186 39.307 126.974 39.074C126.868 38.9681 126.804 38.8199 126.804 38.6716C126.804 38.2269 127.165 37.7186 127.356 37.4645C127.801 36.8715 128.141 36.6173 128.819 36.2149C128.904 36.1726 128.989 36.1091 129.074 36.0879L129.286 36.0032C129.922 35.7278 130.537 35.5796 131.131 35.5796C131.831 35.5796 132.552 35.7702 133.379 36.1514C134.631 36.7444 136.476 38.0575 136.921 39.2011C137.049 39.6035 137.112 39.9847 137.112 40.3871C137.112 40.62 137.091 40.853 137.07 41.0648L137.028 41.3824C136.943 41.8484 136.858 42.2719 136.837 42.759C136.731 44.0933 136.243 44.6227 135.988 45.7875C135.606 47.3547 134.567 49.3031 133.57 50.6374C133.337 50.955 133.104 51.2303 132.807 51.4845C132.128 52.0351 131.386 52.2681 130.643 52.2681C129.731 52.2681 128.798 51.9292 127.801 51.3362C125.32 49.8326 124.747 48.6254 124.747 46.91C124.747 46.2746 124.832 45.5757 124.917 44.7498C125.002 44.0509 125.129 43.5638 125.299 42.9073C125.468 42.0813 125.744 39.9423 127.059 39.9423C127.186 39.9423 127.313 39.9635 127.441 39.9847C128.522 40.3023 130.007 41.0436 130.007 42.1025C130.007 42.2084 129.986 42.3355 129.965 42.4625C129.753 43.1402 129.625 43.6062 129.328 44.2627C128.841 45.3004 128.841 46.2323 128.565 47.2912C128.48 47.5665 128.459 47.8418 128.459 48.1171C128.459 48.4348 128.522 48.7737 128.65 49.1125C128.735 49.3031 128.841 49.3667 128.989 49.3667C129.498 49.3667 130.24 48.2654 130.368 48.0536C130.686 47.5241 130.94 46.9523 131.195 46.4017C131.471 45.8087 131.598 45.364 131.789 44.7498C131.98 44.0509 132.361 43.6273 132.531 42.8437C132.807 41.5095 133.061 40.9165 133.061 39.6458C133.061 39.4764 133.061 39.307 133.04 39.1164C133.019 38.7563 133.061 38.1633 132.764 37.8668C132.552 37.7821 132.34 37.7398 132.107 37.7398Z" fill="white"/>
</g>
<defs>
<clipPath id="clip0">
<rect width="78.7452" height="20.0256" fill="white" transform="matrix(0.649626 -0.759576 -0.74877 -0.663592 15.3436 131.533)"/>
</clipPath>
<clipPath id="clip1">
<rect width="108" height="55" fill="white" transform="translate(31)"/>
</clipPath>
</defs>
</svg>
