<svg width="108" height="55" viewBox="0 0 108 55" fill="none" xmlns="http://www.w3.org/2000/svg">
<g clip-path="url(#clip0)">
<path d="M5.57818 14.2318C5.42972 15.2907 5.36609 16.4979 5.30246 17.5568C5.28125 18.0862 5.26004 18.6369 5.21762 19.1663C5.21762 19.717 5.19641 20.2676 5.21762 20.7971C5.23883 21.1147 5.23883 21.3053 5.30246 21.3053C5.36609 21.3053 5.45093 21.1995 5.59939 20.9877C5.98117 20.3947 6.40536 19.5264 6.72351 18.891L6.74472 18.8487C6.93561 18.4251 7.14771 18.0015 7.31738 17.578C8.03851 15.9049 8.6536 14.2318 9.39594 12.5587C10.0959 10.8645 10.4988 9.21255 11.1139 7.47593C11.2412 7.1159 12.1108 4.19329 12.132 4.17211C12.1956 4.06622 12.2593 4.04504 12.3229 4.04504C12.6622 4.04504 13.044 5.10396 13.0864 5.31574C13.2561 6.0358 13.2773 6.50172 13.5318 7.26414C13.7015 7.7936 13.7651 8.04774 13.7439 8.36541C13.7439 8.5772 13.6803 8.83134 13.6167 9.23372C13.1925 11.521 12.4714 13.5753 11.7078 15.7778C11.3684 16.8579 10.8382 18.171 10.3928 19.2299C9.9686 20.2676 9.39594 21.6018 8.90811 22.5972C8.54755 23.3385 8.20819 23.9738 7.69916 24.6303C7.40222 24.9692 7.06287 25.0963 6.72351 25.0963C6.21448 25.0963 5.68423 24.8421 5.21762 24.6303C4.07229 24.1009 2.48156 22.9361 2.22705 21.3901C2.03616 20.0982 2.03616 18.0227 1.99374 16.6673C1.95132 15.4813 1.86648 14.1047 2.01495 12.7281C2.31188 10.1444 2.39672 8.81016 2.54519 7.68771C2.63003 6.94647 2.86334 6.69233 3.20269 6.69233C3.54205 6.69233 4.00866 6.94647 4.56012 7.28532C5.40851 7.77242 6.23569 8.15363 6.19327 9.21255V9.33961C6.19327 9.82672 6.10843 10.3562 5.8327 12.0716C5.70544 12.7917 5.66302 13.5329 5.57818 14.2318Z" fill="white"/>
<path d="M20.8492 10.208C20.0432 10.208 18.9615 10.7375 18.5161 10.9705C18.0919 11.2246 17.2223 11.8599 16.48 11.8599C16.2042 11.8599 15.9497 11.7752 15.7376 11.5423C15.6316 11.4364 15.5679 11.2881 15.5679 11.1399C15.5679 10.6951 15.9285 10.1869 16.1194 9.93272C16.5648 9.33973 16.9254 9.06441 17.6041 8.6832C17.6889 8.64084 17.7737 8.57731 17.8586 8.55613L18.0283 8.47142C18.6646 8.1961 19.2796 8.04785 19.8735 8.04785C20.5734 8.04785 21.2946 8.23846 22.1217 8.61967C23.3731 9.21266 25.2184 10.5257 25.6638 11.6693C25.791 12.0717 25.8547 12.4529 25.8547 12.8553C25.8547 13.0883 25.8335 13.3212 25.8122 13.533L25.7698 13.8507C25.685 14.3166 25.6001 14.7402 25.5789 15.2273C25.4729 16.5615 24.9851 17.091 24.7305 18.2558C24.3488 19.823 23.3095 21.7714 22.3126 23.1056C22.0793 23.4233 21.846 23.6986 21.5491 23.9527C20.8704 24.5034 20.128 24.7363 19.3857 24.7363C18.4737 24.7363 17.5404 24.3975 16.5436 23.8045C14.062 22.3008 13.4894 21.0937 13.4894 19.3782C13.4894 18.7429 13.5742 18.044 13.6591 17.218C13.7439 16.5192 13.8712 16.0321 14.0408 15.3755C14.2105 14.5496 14.4862 12.4106 15.8012 12.4106C15.9285 12.4106 16.0558 12.4318 16.183 12.4529C17.2647 12.7706 18.7494 13.5118 18.7494 14.5708C18.7494 14.6767 18.7282 14.8037 18.707 14.9308C18.4737 15.6085 18.3464 16.0744 18.0283 16.7309C17.5617 17.7687 17.5404 18.6793 17.2647 19.7594C17.2011 20.0348 17.1587 20.3101 17.1587 20.5854C17.1587 20.9031 17.2223 21.2419 17.3496 21.5808C17.4344 21.7714 17.5404 21.8349 17.6889 21.8349C18.1979 21.8349 18.9403 20.7336 19.0675 20.5219C19.3857 19.9924 19.6402 19.4206 19.8947 18.87C20.1704 18.277 20.2977 17.8322 20.4886 17.218C20.6795 16.5192 21.0613 16.0956 21.2309 15.312C21.5067 13.9778 21.7612 13.3848 21.7612 12.1141C21.7612 11.9447 21.7612 11.7752 21.74 11.5846C21.7188 11.2246 21.7612 10.6316 21.4642 10.3351C21.3158 10.2504 21.1037 10.208 20.8492 10.208Z" fill="white"/>
<path d="M26.8939 22.2161C26.6182 21.729 26.3 21.3266 26.0243 20.7972C25.7274 20.2465 25.5365 19.7594 25.4941 19.1664C25.3456 17.3875 25.9183 14.9731 26.4273 13.5118C26.6818 12.7706 26.9788 12.0505 27.2757 11.3305C28.1029 9.42442 28.5907 8.64082 29.5876 7.60309C30.4572 6.7136 31.3268 6.20532 31.9206 6.20532C33.0235 6.39593 34.2113 7.6878 35.0173 8.72554C36.2262 10.3139 37.0322 11.2881 36.1626 13.2577C35.9717 13.7236 35.2718 15.5238 34.7203 15.5449C34.2537 15.5661 33.4053 15.079 32.9811 14.8672C32.8963 14.8249 32.8114 14.6555 32.7266 14.5496C32.6418 14.4437 32.5357 14.2954 32.5357 14.1684C32.5357 14.0836 32.5569 13.9989 32.5781 13.9354C32.6842 13.533 32.9811 13.1094 33.1296 12.6647C33.2144 12.4106 33.2568 12.1988 33.2781 11.9235C33.2993 11.6905 33.2993 11.4575 33.2568 11.2246L33.2144 10.8857C33.0447 10.2716 32.3872 10.5892 32.1964 11.0975C31.857 12.2411 32.26 11.6905 31.454 12.7071C30.6056 13.8083 30.2239 15.079 29.9905 16.4344C29.9693 16.5615 29.736 16.8368 29.6512 16.9427C29.0149 18.0652 29.1422 19.4418 28.8664 20.6489C28.7604 21.1148 28.6967 22.0679 29.333 22.1526C31.1571 22.2373 31.9843 21.2843 33.2568 20.1618C33.6598 19.8018 34.4022 19.0605 34.8052 18.8064C35.2718 19.0394 34.8476 20.416 34.6779 20.7972C34.2113 21.7925 33.8507 22.1102 33.5538 23.275C33.2144 24.694 32.8326 24.9905 31.5389 25.5835C30.648 25.9647 30.0966 25.3928 29.3543 24.8846C29.0997 24.694 28.8452 24.5034 28.5907 24.2916C28.2089 23.9315 27.912 23.5927 27.5938 23.1903C27.2969 22.8091 27.1484 22.6397 26.8939 22.2161Z" fill="white"/>
<path d="M36.0141 17.8109C36.0141 17.6839 36.0777 17.5356 36.205 17.345C36.3747 17.1332 36.6716 16.9003 37.117 16.6038C38.0927 15.9049 38.432 15.0578 38.7926 13.9988C39.0047 13.3847 39.4501 12.2199 39.4501 11.4998C39.4501 11.3939 39.4501 11.3092 39.4289 11.2245C39.3865 11.0762 39.344 10.9915 39.2592 10.8856C39.1319 10.7162 38.9835 10.695 38.8562 10.695C38.7502 10.695 38.6653 10.7162 38.5593 10.7162C38.3684 10.7162 38.1775 10.6527 38.0078 10.2926C37.8382 9.93262 37.6048 9.33962 37.6048 8.78899C37.6048 8.40778 37.7109 8.04775 38.0503 7.83597L38.1775 7.75125C38.8986 7.47593 39.8531 7.24297 40.5954 7.05237C42.2922 6.64998 44.0314 6.26877 45.707 5.92992C46.1524 5.82403 46.8099 5.67578 47.4037 5.67578C47.8279 5.67578 48.2097 5.76049 48.4642 6.01463C48.74 6.33231 49.5883 7.53947 49.5883 8.28071C49.5883 8.51367 49.5035 8.70427 49.2702 8.81017C48.8036 9.00077 47.2341 9.04313 46.5978 9.14902C45.41 9.33962 44.2435 9.59376 43.0557 9.80555C42.6316 9.89026 42.2286 9.95379 41.8044 10.0385C40.9984 10.1868 40.659 10.2926 40.659 10.3985C40.659 10.5256 41.1893 10.6527 41.9316 10.7797C42.1649 10.8221 42.3982 10.8645 42.6316 10.9492C43.1406 11.1821 43.3315 11.4786 43.3315 11.8175C43.3315 12.3681 42.8861 13.0035 42.6316 13.6388C42.5255 13.8718 42.3134 14.3589 42.3134 14.6977C42.3134 14.8248 42.3346 14.9307 42.4195 14.973C43.3527 14.9519 44.3283 14.5071 45.3252 14.5071C45.4737 14.5071 45.6433 14.5283 45.7918 14.5495C46.4281 14.6554 46.2584 15.1001 46.8735 15.5025C46.9583 15.5449 47.022 15.5872 47.1068 15.6296C47.3401 15.7566 47.6371 15.8837 47.6371 16.0955C47.6371 16.1802 47.5734 16.2861 47.4037 16.392C47.022 16.625 45.5585 16.9214 45.0495 17.0697C44.6677 17.1756 44.2859 17.2603 43.9041 17.3662C43.2891 17.5356 41.6771 17.9168 41.2105 18.2769C40.8287 18.5734 40.6166 18.9757 40.447 19.3993C40.4045 19.484 40.3621 19.5687 40.3409 19.6534H40.2985C40.1712 19.9076 40.1288 20.0558 40.1076 20.31C40.1076 20.3523 40.0864 20.4159 40.0864 20.4582V20.5429C40.0652 20.7335 39.9803 20.7124 39.9591 20.9453C39.9379 21.1147 39.8743 21.263 39.8531 21.4536C39.8531 21.5383 39.8319 21.7925 39.8319 21.9407V22.0254C39.8743 22.1737 40.0228 22.2372 40.15 22.3007C40.3197 22.3431 40.4894 22.3431 40.6803 22.3431C42.5043 22.3431 44.9646 20.903 46.5129 20.0558C46.7675 19.9288 47.8279 19.3146 48.337 19.3146C48.5067 19.3146 48.5915 19.3781 48.5915 19.5264C48.5915 19.6111 48.5703 19.6958 48.5279 19.8017C48.2521 20.4794 47.8279 20.2676 47.6371 21.2842C47.531 21.7713 47.2341 22.1525 46.9796 22.6396C46.5129 23.4867 44.4132 24.6092 43.5012 24.9268C42.8012 25.181 42.2498 25.2869 41.5923 25.2869C41.4226 25.2869 41.2317 25.2657 41.0408 25.2657C40.7227 25.2022 40.4682 25.1174 40.1924 25.0327C40.0864 24.9904 40.0228 24.948 39.9379 24.9057C39.0683 24.4186 38.3048 23.5714 37.7109 22.809C36.9686 21.856 36.9049 20.7759 36.8837 19.5476C36.8837 18.7004 36.0141 18.3404 36.0141 17.8109ZM39.9803 4.21448V4.12977C40.3197 3.00732 41.3378 1.84251 42.1013 0.953023C42.6103 0.338853 42.9921 0 43.9041 0H43.989C44.1799 0 44.392 0.0211783 44.5829 0.148248C45.007 0.487101 45.4949 1.2707 45.9827 2.35079C46.2372 2.90142 46.3645 3.2191 46.3857 3.45206C46.4069 3.53677 46.4069 3.62149 46.4069 3.68502L46.3857 4.0027C46.3857 4.04505 46.3008 4.15094 46.1948 4.25683C46.0887 4.36273 45.9827 4.46862 45.9827 4.4898C45.9615 4.53215 45.4737 4.82865 45.3888 4.82865L45.3464 4.84983C45.2404 4.84983 45.1131 4.78629 45.0919 4.72276C45.0707 4.70158 45.0707 4.65922 45.0707 4.61687C45.0707 4.59569 45.0495 4.57451 45.0495 4.53215C45.0495 4.51097 45.0707 4.4898 45.0707 4.46862L45.0495 4.34155C44.9858 4.23566 44.9858 4.12977 44.9434 4.04505L44.7737 3.53677C44.6677 3.19792 43.9678 1.82133 43.8193 1.60955C43.7345 1.50366 43.6284 1.4613 43.5436 1.4613C43.2466 1.4613 42.9497 1.92722 42.8437 2.09665C42.4407 2.71082 42.1437 3.26146 41.8468 3.93916C41.7407 4.1933 41.5074 5.08279 41.2105 5.08279C40.7863 5.10397 40.0864 4.59569 39.9803 4.21448Z" fill="white"/>
<path d="M64.9442 23.9315C64.6685 23.9315 64.414 23.7409 63.9898 23.3809C62.4203 22.0255 62.0173 22.1102 62.0173 20.6912C62.0173 20.4371 62.0385 20.1618 62.0597 19.8017V19.6535C62.0597 19.3994 62.0173 19.0605 61.784 19.0605H61.7628C61.6567 19.124 61.6355 19.1452 61.5295 19.2511C60.978 19.9288 60.1932 23.5503 59.9599 24.6304C59.8539 25.1175 59.6206 26.1976 59.0055 26.1976C58.9631 26.1976 58.9207 26.1976 58.8782 26.1764C58.5601 26.0493 58.3268 25.9011 58.0298 25.6893C57.6269 25.414 56.8421 24.6304 56.63 24.2068C56.5876 24.1221 56.5876 24.0374 56.5876 23.9315C56.5876 23.2326 57.2239 21.8772 57.4148 21.4536C58.1359 19.8229 58.6237 18.4252 59.1752 16.7097C59.5994 15.3119 59.9811 13.9565 60.4265 12.5376C60.7023 11.6269 60.9144 10.7163 61.2113 9.82677C61.4022 9.29731 61.6779 7.96308 61.9961 7.60305C62.1233 7.47598 62.2718 7.41245 62.4627 7.41245C63.0353 7.41245 63.8413 7.96308 64.3079 8.17486C64.4988 8.28076 64.6897 8.36547 64.8594 8.49254C65.4108 8.87375 65.7078 9.25496 65.7078 9.80559C65.7078 9.97502 65.6866 10.1868 65.6229 10.3986C65.4108 11.1398 65.4533 12.3046 65.3684 13.0882C65.2836 13.8506 65.2412 14.4013 65.2412 15.1425C65.2412 15.4814 65.2199 15.8202 65.1987 16.1591V16.265C65.1987 16.5191 65.2412 16.7732 65.3896 16.9427C65.4108 16.9639 65.4108 16.9639 65.432 16.9639C65.6441 16.9639 66.0047 16.1379 66.0683 15.9897C66.4077 15.3543 66.7046 14.9731 66.9804 14.2742C67.1288 13.9142 67.2561 13.5753 67.447 13.2153C68.0408 12.0293 68.4862 11.2457 68.9529 9.9962C69.0801 9.65734 69.2074 9.33967 69.3558 9.022C69.7164 8.13251 69.8861 7.49716 70.1406 6.60767C70.3951 5.73936 70.5436 5.3158 70.989 5.3158C71.2435 5.3158 71.6041 5.46404 72.1131 5.73936L72.41 5.86643C73.4493 6.39589 74.6795 6.98888 74.6795 8.28076C74.6795 8.36547 74.6795 8.45018 74.6583 8.55607C74.4674 10.208 73.8947 11.2669 73.8947 13.067V13.3C73.8947 13.4059 73.9159 13.4906 73.9159 13.5753C73.9159 14.3801 73.7251 14.8037 73.5978 15.6508C73.5766 15.8414 73.5554 16.032 73.5554 16.1803C73.5554 16.5826 73.619 16.9215 73.619 17.3027C73.619 17.4721 73.5978 17.6204 73.5766 17.811C73.4705 18.2769 73.4493 18.5522 73.4493 18.7852C73.4493 19.0605 73.4917 19.3358 73.5554 19.8017C73.619 20.31 73.6402 20.6489 73.6402 20.9877C73.6402 21.3054 73.619 21.6231 73.5978 22.1102C73.5978 22.3855 73.619 22.6608 73.619 22.9573C73.6402 23.2326 73.6614 23.5079 73.7038 23.7833C73.7887 24.3127 73.8735 24.7363 73.8735 25.0328C73.8735 25.3293 73.7887 25.4987 73.5342 25.4987C73.3221 25.4987 72.9615 25.3716 72.41 25.054C71.1587 24.3763 70.1406 24.1645 70.1406 22.682V22.5126C70.2254 21.3901 70.3315 20.4794 70.3315 19.3146V19.1029C70.3315 18.6793 70.3739 18.3616 70.4375 17.8957C70.4588 17.8322 70.4588 17.7686 70.4588 17.7051C70.4588 17.3239 70.2891 17.1756 70.2891 16.7309C70.3103 16.2014 70.5012 15.8838 70.5224 15.3755C70.5224 15.2908 70.5436 15.1849 70.5436 15.1002C70.5436 14.8672 70.5224 14.6131 70.4163 14.6131C70.3527 14.6131 70.2679 14.6978 70.1406 14.9307C69.78 15.5237 69.5892 15.672 69.3558 16.3497C69.1225 17.0909 69.0377 17.0909 68.5499 17.6627C68.2105 18.0651 68.2317 18.3828 68.0621 18.8064C67.8287 19.4205 67.5954 19.6323 67.2773 20.1618C67.15 20.3947 67.044 20.6065 66.9591 20.8607C66.8955 21.0301 66.8531 21.1783 66.7683 21.3478C66.6198 21.6866 66.4925 21.8772 66.3229 22.1949C66.0047 22.7879 66.2592 23.1267 65.6229 23.6138C65.3684 23.8256 65.1563 23.9315 64.9442 23.9315Z" fill="white"/>
<path d="M76.8429 18.4674C77.0126 18.2768 77.0126 17.9803 77.161 17.7261C77.3943 17.3661 77.7549 17.2602 77.7549 16.7731V16.6884C77.7549 16.4978 77.8397 16.6672 77.967 16.4131C78.1579 16.0319 78.2639 15.7566 78.3063 15.2906C78.37 14.7188 78.7305 15.0577 78.8154 14.4012C78.8578 14.0199 78.9214 13.8929 79.0487 13.5752C79.2608 13.1093 79.5365 12.6857 79.7486 12.1986C79.8759 11.8809 80.1092 11.5633 80.3001 11.2668C80.4061 11.055 80.5546 10.8432 80.6606 10.6314C81.1697 9.63604 81.7423 9.02187 82.4847 8.25945C83.5876 7.07346 84.2875 6.56519 84.8814 6.56519C85.0511 6.56519 85.1783 6.60754 85.3268 6.67108C85.9843 6.9464 86.5782 7.41232 87.1508 7.9206C87.2781 8.02649 87.4053 8.1112 87.5538 8.23827C88.1901 8.68301 88.2537 9.29718 88.3386 9.93253L88.3598 9.97489C88.4234 10.5255 88.4446 11.0762 88.4446 11.6056C88.4446 12.1139 88.4446 12.6645 88.4234 13.1728C88.4234 13.6599 88.381 13.7658 88.3173 13.7658C88.2749 13.7658 88.2325 13.7023 88.2113 13.7023L88.1901 13.7234V13.7446C88.1901 13.8082 88.2537 13.9988 88.2537 14.1047C88.2325 14.5494 88.1689 14.7824 88.1689 15.1C88.1689 15.2695 88.1901 15.4389 88.2537 15.693C88.2537 15.7142 88.1477 15.8201 88.1053 16.0107C87.8295 17.1331 87.9144 18.3827 87.6386 19.5898C87.5538 19.9287 87.5538 20.2252 87.5538 20.5429V21.2206C87.5538 21.4535 87.5538 21.6865 87.5114 21.9194C87.4902 22.1524 87.469 22.3218 87.4478 22.5548C87.4265 22.8725 87.4053 22.9995 87.2993 23.2537C87.2569 23.3807 87.2144 23.529 87.2144 23.7196C87.2144 23.9737 87.2569 24.2702 87.2569 24.5455C87.2569 24.6514 87.2357 24.7785 87.2357 24.8844C87.1296 25.5621 87.1932 25.901 86.769 25.901C86.6206 25.901 86.4297 25.8586 86.1327 25.7739C85.2844 25.4986 83.6512 24.2914 83.6512 23.1266C83.6512 22.8513 83.6936 22.576 83.7148 22.3218C83.736 22.0042 83.7997 21.6865 83.7997 21.3688C83.7997 20.8605 83.6512 20.4158 82.9937 20.204C82.7392 20.1616 82.5271 20.1193 82.2938 20.1193C81.5302 20.1193 80.7879 20.4158 80.4485 21.157C80.1304 21.8771 80.194 21.6018 79.7698 22.1524C79.4093 22.7454 79.4941 23.4866 79.2608 24.1855C78.9851 24.9903 79.0699 25.7315 78.8578 26.3033C78.773 26.5151 78.6669 26.5787 78.5397 26.5787C78.3488 26.5787 78.1155 26.4092 77.8185 26.261C76.9701 25.7951 75.7824 24.8632 75.7824 23.7408C75.7824 23.6137 75.8036 23.4655 75.8248 23.3384C75.9521 22.8725 76.0157 22.5971 76.0157 22.3854C76.0157 21.8983 75.6127 22.0465 74.8067 21.1994C74.4038 20.7758 74.2765 20.5005 74.1917 19.9499C74.1917 19.6322 74.7219 19.5051 74.9764 19.378C75.2097 19.2722 75.443 19.1451 75.6763 19.0604C76.0157 18.9121 76.5884 18.7215 76.8429 18.4674ZM84.4572 15.6507C84.6269 15.2695 84.7117 14.6553 84.7329 14.1894V13.9141C84.7117 13.787 84.7117 13.6599 84.7117 13.554C84.7117 13.4058 84.7117 13.2575 84.7329 13.0881C84.7541 12.6434 84.7541 12.2621 84.7753 11.8386C84.7965 11.7962 84.7965 11.6056 84.7965 11.4574C84.7965 11.3091 84.7753 11.1821 84.7117 11.1609H84.6905C84.3723 11.1609 83.8209 12.1563 83.6724 12.4104C83.6088 12.5163 83.5452 12.601 83.4815 12.7281C83.2906 13.0669 83.0573 13.3846 82.8664 13.7234C82.718 14.0199 82.5059 14.2317 82.2938 14.5282C82.1241 14.7612 81.6999 15.5871 81.6999 16.0319C81.6999 16.1166 81.6999 16.1589 81.7211 16.2225C81.8484 16.5402 82.1665 16.6037 82.4635 16.6037C82.5695 16.6037 82.6968 16.5825 82.7816 16.5825C83.1634 16.5825 83.6936 16.5402 83.9694 16.3496L83.9906 16.3284C84.0966 16.2225 84.4148 15.7566 84.4572 15.6507Z" fill="white"/>
<path d="M88.5507 24.482C88.5083 24.4185 88.4659 24.3126 88.4659 24.2067V24.1432C88.4659 23.5502 88.8476 22.5336 88.8476 22.5336C89.1446 22.0677 89.5263 20.7123 89.59 20.2252C89.6748 19.6746 89.696 19.2087 89.8445 18.658C89.9081 18.4886 89.9505 18.298 90.0142 18.1286C90.1414 17.7897 90.3959 17.5991 90.4808 17.2814C90.6717 16.5825 90.8201 14.6977 91.2655 13.9353C91.308 13.2999 91.6473 12.2198 91.7958 11.288C91.9655 10.1655 91.8382 9.74196 92.326 9.55136C92.8139 9.36075 94.1501 8.83129 95.0197 8.7254C95.1469 8.70422 95.2742 8.70422 95.3802 8.70422C95.9953 8.70422 96.2498 8.97954 96.2923 9.65725V9.76314C96.2923 10.1232 96.2498 10.5891 96.1226 11.1397C95.656 11.1821 95.6348 11.8386 95.6348 12.4104C95.6348 12.8975 95.3166 13.5964 94.9772 14.02C94.85 14.1682 94.3834 15.7142 94.341 15.8837C94.2985 16.0531 94.2349 16.0743 94.2349 16.1802V16.2225C94.2349 16.2649 94.2561 16.3284 94.2561 16.3919L94.341 16.7308C94.341 16.8367 94.2985 16.9638 94.1713 17.1332C93.3017 18.4886 93.6835 19.2722 93.2168 20.6276C93.2381 20.6488 93.238 20.6488 93.238 20.6911V20.7123C93.238 21.3053 92.1988 24.7785 91.9867 24.7785C91.5413 24.8209 90.8626 24.9056 90.2051 24.9056C89.5051 24.9268 88.8688 24.8209 88.5507 24.482Z" fill="white"/>
<path d="M104.458 16.9003C104.797 17.345 104.861 17.5356 105.031 18.0227L105.073 18.1498C105.243 18.6581 105.306 19.1452 105.306 19.5899C105.306 21.7289 103.673 23.1267 101.807 24.1009C101.149 24.4397 100.364 24.7998 99.6858 24.9904C98.8798 25.2233 98.1799 25.3928 97.586 25.3928C96.674 25.3928 96.0165 24.9904 95.6771 23.7409C95.6347 23.4867 95.5711 23.0843 95.5711 22.6819C95.5711 22.0889 95.6983 21.5383 96.1225 21.5383C96.2498 21.5383 96.4407 21.6018 96.6528 21.7289C96.9073 21.8983 97.183 21.9619 97.4588 21.9619C97.6496 21.9619 97.8617 21.9407 98.095 21.8983C99.1767 21.7289 100.449 21.3265 101.467 20.5641C101.743 20.3523 101.87 20.1617 101.87 19.9711C101.87 19.4417 100.874 19.1028 100.555 19.0816C98.4132 18.891 96.271 18.2557 95.6983 15.8837C95.6559 15.6931 95.6347 15.5025 95.6347 15.3119C95.6347 13.1305 98.2223 10.6315 99.6858 9.29726C101.383 7.96303 103.058 6.96765 104.543 6.96765C105.752 6.96765 106.855 7.62418 107.788 9.29726C107.958 9.61494 108.042 9.8479 108.042 10.0385C108.042 10.5044 107.533 10.5891 106.94 10.5891C106.6 10.6103 106.261 10.5891 105.964 10.5891C105.858 10.5891 105.752 10.5891 105.646 10.6103C103.885 10.7797 102.316 11.881 100.916 13.067C100.471 13.4482 99.6222 14.1259 99.6222 14.8036C99.6222 14.9095 99.6434 14.9942 99.6858 15.1001L99.8555 15.2272C101.149 15.8625 103.207 15.3119 104.458 16.9003Z" fill="white"/>
<path d="M6.78712 35.2406C7.48704 35.1559 8.50511 35.0077 9.07777 34.9018C10.4352 34.69 11.8775 34.69 13.2773 34.5206C13.4258 34.4994 14.3166 34.4147 15.0801 34.4147C15.7164 34.4147 16.2467 34.4782 16.2467 34.69V34.7323C16.1406 34.9865 15.6952 35.2406 15.4831 35.4524C15.1862 35.7489 15.0801 35.9395 14.8256 36.2572C14.4438 36.7019 14.1681 36.4478 13.7015 37.2102C13.5106 37.5279 13.3833 37.4432 13.044 37.5279C12.6834 37.6126 12.6198 37.6338 12.238 37.6973C11.8138 37.7397 11.4745 37.8032 11.0715 37.9091C10.7109 37.9938 10.3291 38.0362 10.011 38.1421C9.77769 38.2056 9.52318 38.3115 9.37471 38.5233C9.24745 38.6927 9.1414 38.9045 9.05656 39.0951C9.01414 39.201 8.99293 39.2857 8.95051 39.3704C8.58995 40.7046 8.25059 42.0812 7.84761 43.3943C7.6143 44.2202 7.10526 45.8086 6.89317 46.6345C6.70228 47.397 6.44776 48.117 6.27808 48.9006C6.04478 49.8113 5.79026 50.7219 5.57816 51.6326C5.53574 51.802 5.40848 52.3527 5.19639 52.3527C5.11155 52.3315 4.87824 52.2468 4.72977 52.2256L4.60251 52.2044C4.00864 52.0985 4.02985 51.8868 3.64808 51.442C3.2663 51.0396 2.69364 50.3407 2.69364 49.7689C2.69364 49.2395 3.0542 48.8159 3.16025 48.2864C3.41477 46.9522 3.6905 45.7027 4.00864 44.3473C4.26316 43.3519 4.53889 42.3565 4.81461 41.3823C4.89945 41.0858 5.19639 40.2387 5.19639 39.6881C5.19639 39.4551 5.15397 39.2857 5.02671 39.2221C4.83582 39.0951 4.43284 39.0527 4.02985 39.0527C3.35114 39.0527 2.54517 39.1586 2.1846 39.2221C1.7392 39.3069 1.23017 39.4127 0.82718 39.4551C0.721131 39.4763 0.636292 39.4763 0.551453 39.4763C0.127258 39.4763 0 39.328 0 39.0951C0 38.8621 0.127258 38.5656 0.275727 38.2903C0.530244 37.8456 0.593873 37.6126 0.593873 37.1255V36.9984C0.593873 36.469 0.954439 36.4478 1.39984 36.236C1.88767 36.003 2.22702 35.9607 2.75727 35.876L2.84211 35.8548C3.07541 35.8124 3.30872 35.7701 3.52082 35.7489C4.348 35.5795 5.15397 35.4736 5.95994 35.3465C6.25687 35.3042 6.51139 35.2618 6.78712 35.2406Z" fill="white"/>
<path d="M14.253 41.2129C14.3166 41.0223 14.6984 39.8999 14.6984 39.6669V39.6246C13.8712 38.8621 12.7895 38.4174 12.7895 37.7185C12.7895 37.3797 13.044 36.9561 13.7651 36.4055C14.5287 35.7913 15.4831 35.0501 16.3951 34.6688C17.5617 34.1817 18.7282 33.8005 20.022 33.8005C20.1917 33.8005 20.3402 33.8005 20.5098 33.8217C22.8005 34.3935 24.6245 35.7278 25.4729 38.0997C25.6214 38.5233 25.7062 38.8833 25.7062 39.2222C25.7062 39.7728 25.5153 40.2387 25.2396 40.8529C25.1548 41.0012 25.0911 41.1282 25.0063 41.2977C24.7518 41.7 24.4761 42.0813 24.2003 42.4413C23.8398 42.9284 23.4368 43.3519 23.0126 43.7967C21.9733 44.8768 21.1461 45.4274 20.0644 46.3593C19.5766 46.804 19.3857 47.164 19.3857 47.4605C19.3857 48.2865 20.9128 48.583 21.9733 48.8795C22.5672 49.0277 24.4548 49.2819 24.6245 49.3666C24.7306 49.4301 24.773 49.5148 24.773 49.6207C24.773 50.129 23.6489 50.9338 23.3519 51.1667C22.8217 51.5479 22.3127 51.6962 21.8248 51.6962C21.1037 51.6962 20.4038 51.3785 19.5978 51.0397L19.3009 50.9126C18.6222 50.5949 16.6709 49.5572 16.0346 49.5572H15.9922C15.3135 49.896 15.1862 53.0728 14.7196 53.2634C14.6772 53.2846 14.6347 53.2846 14.5711 53.2846C13.8288 53.2846 12.1956 51.6115 11.9623 51.082C11.8775 50.8914 11.8351 50.6796 11.8351 50.489C11.8351 49.769 12.3229 49.0701 12.4289 48.2653C12.5138 47.6511 12.7895 47.0581 12.9167 46.3804C13.0228 45.8933 13.1288 45.4062 13.2561 44.9191L13.7439 43.1613C13.9348 42.526 14.0833 41.8483 14.253 41.2129ZM17.286 37.8032C17.1163 37.9091 16.9678 37.9515 16.7133 38.1421C16.6072 38.248 16.2255 38.7139 16.2255 38.9892C16.2255 39.0528 16.2467 39.0951 16.2679 39.1375C16.3739 39.2434 16.5436 39.4551 16.7345 39.561C17.1799 39.8787 17.8586 40.387 17.8798 40.98V41.0647C17.8798 41.2765 17.795 41.5518 17.7526 41.7636C17.6677 42.1024 17.5829 42.3989 17.4981 42.7378C17.4132 43.0766 17.3284 43.3731 17.2435 43.712C17.1799 43.9449 17.1587 44.1144 17.1587 44.2203C17.1587 44.3473 17.2011 44.4109 17.2647 44.4109C17.4556 44.4109 17.8798 44.0085 18.304 43.6696L18.3889 43.5849H18.4101C20.1493 42.2083 22.1642 40.1328 22.7793 37.8879C22.8217 37.7185 22.8641 37.5703 22.8641 37.4432C22.8641 37.3161 22.8429 37.1679 22.7793 36.9985C22.6944 36.8079 22.3763 36.5114 22.1642 36.4478C21.9521 36.3843 21.7188 36.3631 21.4643 36.3631C20.7219 36.3631 19.8735 36.5749 19.3009 36.7655C19.0464 36.8502 18.8131 36.9349 18.5798 37.0196C18.0283 37.1891 17.7526 37.4432 17.286 37.8032Z" fill="white"/>
<path d="M26.3637 45.9992C26.5334 45.8086 26.5334 45.5121 26.6819 45.2579C26.9152 44.8979 27.2757 44.792 27.2757 44.3049V44.199C27.2757 44.0084 27.3606 44.1778 27.4878 43.9237C27.6787 43.5425 27.7848 43.2672 27.8272 42.8013C27.8908 42.2294 28.2514 42.5683 28.3362 41.9118C28.3786 41.5306 28.4423 41.4035 28.5695 41.0858C28.7816 40.6199 29.0573 40.1963 29.2694 39.7092C29.3967 39.3916 29.63 39.0739 29.8209 38.7774C29.9269 38.5656 30.0754 38.3538 30.1815 38.142C30.6905 37.1467 31.2632 36.5325 32.0055 35.7701C33.1084 34.5841 33.8083 34.0758 34.4022 34.0758C34.5719 34.0758 34.6991 34.1182 34.8476 34.1817C35.5051 34.457 36.099 34.9229 36.6716 35.4312C36.7989 35.5371 36.9262 35.6218 37.0746 35.7489C37.7109 36.1936 37.7746 36.8078 37.8594 37.4432L37.8806 37.4855C37.9442 38.0361 37.9654 38.5868 37.9654 39.1162C37.9654 39.6245 37.9654 40.1751 37.9442 40.6834C37.9442 41.1705 37.9018 41.2764 37.8382 41.2764C37.7958 41.2764 37.7533 41.2129 37.7321 41.2129L37.7109 41.2341V41.2552C37.7109 41.3188 37.7745 41.5094 37.7745 41.6153C37.7533 42.06 37.6897 42.293 37.6897 42.6107C37.6897 42.7801 37.7109 42.9495 37.7745 43.2036C37.7745 43.2248 37.6685 43.3307 37.6261 43.5213C37.3504 44.6438 37.4352 45.8933 37.1595 47.1004C37.0746 47.4393 37.0746 47.7358 37.0746 48.0535V48.7312C37.0746 48.9641 37.0746 49.1971 37.0322 49.4301C37.011 49.663 36.9898 49.8324 36.9686 50.0654C36.9474 50.3831 36.9262 50.5102 36.8201 50.7643C36.7777 50.8914 36.7353 51.0396 36.7353 51.2302C36.7353 51.4844 36.7777 51.7808 36.7777 52.0562C36.7777 52.1621 36.7565 52.2891 36.7565 52.395C36.6504 53.0727 36.7141 53.4116 36.2899 53.4116C36.1414 53.4116 35.9505 53.3692 35.6536 53.2845C34.8052 53.0092 33.172 51.802 33.172 50.6372C33.172 50.3619 33.2145 50.0866 33.2357 49.8324C33.2569 49.5148 33.3205 49.1971 33.3205 48.8794C33.3205 48.3711 33.172 47.9264 32.5145 47.7146C32.2812 47.6723 32.0691 47.6299 31.8358 47.6299C31.0723 47.6299 30.3299 47.9264 29.9906 48.6676C29.6724 49.3877 29.7361 49.1124 29.3119 49.663C28.9513 50.256 29.0361 50.9973 28.8028 51.6961C28.5271 52.5009 28.6119 53.2421 28.3998 53.814C28.315 54.0257 28.209 54.0893 28.0817 54.0893C27.8908 54.0893 27.6575 53.9199 27.3606 53.7716C26.5122 53.3057 25.3244 52.3738 25.3244 51.2514C25.3244 51.1243 25.3456 50.9761 25.3669 50.849C25.4941 50.3831 25.5577 50.1078 25.5577 49.896C25.5577 49.4089 25.1548 49.5571 24.3488 48.71C23.9458 48.2864 23.8185 48.0111 23.7337 47.4605V47.4393C23.7337 47.1216 24.2639 46.9946 24.5185 46.8675C24.7518 46.7616 24.9851 46.6345 25.2184 46.5498C25.5577 46.4439 26.1304 46.2533 26.3637 45.9992ZM33.9992 43.1825C34.1689 42.8013 34.2537 42.1871 34.2749 41.7212V41.4458C34.2537 41.3188 34.2537 41.1917 34.2537 41.0858C34.2537 40.9376 34.2537 40.7893 34.2749 40.6199C34.2962 40.1752 34.2962 39.7939 34.3174 39.3704C34.3386 39.328 34.3386 39.1374 34.3386 38.9892C34.3386 38.8409 34.3174 38.7139 34.2537 38.6927H34.2325C33.9144 38.6927 33.3629 39.6881 33.2145 39.9422C33.1508 40.0481 33.0872 40.1328 33.0236 40.2599C32.8327 40.5987 32.5994 40.9164 32.4085 41.2552C32.2388 41.5729 32.0267 41.7847 31.8146 42.0812C31.6449 42.3142 31.2207 43.1401 31.2207 43.5849C31.2207 43.6696 31.2207 43.7119 31.242 43.7755C31.3692 44.0931 31.6874 44.1567 31.9843 44.1567C32.0903 44.1567 32.2176 44.1355 32.3024 44.1355C32.6842 44.1355 33.2145 44.0931 33.4902 43.9025L33.5114 43.8813C33.6387 43.7543 33.9568 43.2884 33.9992 43.1825Z" fill="white"/>
<path d="M40.8076 53.221C40.3197 53.0304 39.1956 52.2468 38.8775 51.8656C38.6654 51.6115 38.6017 51.3997 38.6017 51.1032C38.623 50.489 39.1956 48.9854 39.3653 48.3712C39.5562 47.5241 39.6834 46.8675 40.0016 46.0839C40.1076 45.7874 40.1501 45.3215 40.2137 44.9827C40.3197 44.5167 40.447 44.072 40.553 43.6061C40.5955 43.4578 40.7015 43.0343 40.7015 42.9072C40.8076 42.1024 41.2954 40.4082 41.5287 39.4975C41.6347 38.968 42.0377 36.6808 42.4831 36.3631C42.674 36.2572 42.9073 36.2149 43.1406 36.2149C43.7557 36.2149 44.4768 36.5325 44.9647 36.7655C46.0676 37.295 46.0252 38.0785 46.0676 39.1163C46.0888 39.8787 46.0888 40.5988 46.1736 41.3824C46.2373 42.0177 46.8099 48.2653 47.7431 48.2653C48.5067 48.2653 49.2915 44.4109 49.6096 43.6061C50.0974 42.3989 50.4156 40.9588 50.6489 39.6669C50.7761 38.8833 50.9246 38.2691 51.0306 37.4008C51.0731 37.0408 51.0731 36.7655 51.1367 36.3843C51.37 35.1348 51.37 34.2029 51.4336 32.9534C51.4548 32.4451 51.5397 32.2545 51.6669 32.2545C51.9003 32.2545 52.2184 33.0381 52.3669 33.3981C52.5365 33.8641 52.7062 34.7959 53.194 35.05C53.6394 35.3254 53.6819 35.5583 53.6819 35.9184L53.6607 36.3631L53.6395 37.422C53.6395 37.9303 53.6607 38.3962 53.7667 39.0739C53.7879 39.2434 53.8091 39.4128 53.8091 39.6034C53.8091 40.747 53.2577 41.9965 53.0456 43.0978C53.0032 43.246 52.9819 43.3731 52.9607 43.5214C52.4729 45.5545 51.7094 48.3288 50.6913 50.1502C50.0762 51.2091 48.4643 51.5691 47.425 51.5691C47.1069 51.5691 46.8311 51.5056 46.4706 51.3997C45.6858 51.0185 45.2192 50.2772 44.901 49.536C44.6253 48.9006 43.6921 46.3804 43.2679 46.0204C43.1618 45.978 43.2255 45.9992 43.1194 45.978C42.9497 45.9992 42.9497 46.3381 42.9073 46.4651C42.5892 47.6935 42.4619 48.9007 42.1438 50.1713C41.9529 50.9549 41.868 51.5056 41.7196 52.2892C41.6347 52.6492 41.4863 53.2846 41.0197 53.2846C40.8924 53.2634 40.956 53.2634 40.8076 53.221Z" fill="white"/>
<path d="M62.0597 54.9153C61.4234 54.7035 60.6811 53.2846 60.4265 52.6916C60.3205 52.4798 60.2569 52.2892 60.172 52.0774C60.0023 52.1198 59.8327 52.1198 59.6418 52.1198C58.7722 52.1198 57.7753 51.7598 56.9481 51.1244C54.9544 49.5784 54.3181 48.2865 54.3181 46.5499C54.3181 45.7451 54.4454 44.8556 54.6363 43.7756C54.7635 43.0131 54.9544 42.4413 55.1665 41.7001C55.421 40.7894 55.9937 38.3327 57.2239 38.3327C57.3299 38.3327 57.4572 38.3539 57.5632 38.3963C58.4964 38.7139 59.7054 39.4764 59.7054 40.5988C59.7054 40.7682 59.6842 40.9377 59.6206 41.1283C59.366 41.8907 59.0691 42.4201 58.7298 43.1614C58.1995 44.3262 58.0935 45.3639 57.7329 46.5711C57.6693 46.7829 57.6481 46.9735 57.6481 47.1853C57.6481 47.6724 57.7965 48.1383 57.9238 48.6466C57.9662 48.8583 58.1147 48.9219 58.3056 48.9219C58.5389 48.9219 58.8146 48.7948 59.0055 48.6042C59.0267 48.583 59.0267 48.5407 59.0267 48.5195C59.0479 48.3924 59.0479 48.1171 59.0479 47.9688C59.0479 47.4394 59.0267 46.9946 59.0267 46.5499C59.0267 46.1475 59.0479 45.8087 59.0691 45.724C59.1115 45.491 59.1752 45.4698 59.5994 45.4698C60.0872 45.491 60.2993 45.6392 60.6598 45.851C61.0628 45.0039 61.1689 44.665 61.487 43.712C61.7415 42.9072 62.1021 42.4413 62.3354 41.573C62.7808 39.8576 63.0565 39.2222 63.1414 37.3585C63.1626 37.1891 63.1838 36.9561 63.1838 36.7232C63.1838 36.4479 63.1414 36.1514 63.0141 35.9608C62.8869 35.8549 62.696 35.7913 62.4839 35.7913C61.7415 35.7913 60.6811 36.4055 60.2569 36.6808C59.8115 36.9773 58.9419 37.7186 58.2631 37.7186C57.8814 37.7186 57.5208 37.4644 57.5208 37.0197C57.5208 36.5326 57.9238 35.8972 58.1359 35.5584C58.7298 34.6901 59.1752 34.3936 60.0023 33.8853C60.6386 33.5464 61.2113 33.3982 61.784 33.3982C62.4202 33.3982 63.0353 33.5888 63.7353 33.9912C64.8169 34.6265 66.3865 36.0667 66.6834 37.3585C66.747 37.6338 66.7682 37.9303 66.7682 38.2057C66.7682 39.3281 66.4501 40.1329 66.2592 41.34C66.0259 42.8225 65.5381 43.4367 65.1987 44.7497C64.7109 46.5287 63.5656 48.7313 62.5263 50.2137C62.399 50.4044 62.2718 50.5738 62.1233 50.7432C62.1657 51.0397 62.2082 51.3574 62.2718 51.6115V51.6327C62.5475 52.861 62.7596 54.1953 62.7596 54.64L62.7384 54.7459C62.696 54.8941 62.6111 54.9789 62.4415 54.9789C62.4203 55 62.2718 54.9789 62.0597 54.9153Z" fill="white"/>
<path d="M71.2011 39.8576C71.5192 40.2176 71.6253 40.5353 71.6253 40.8529C71.6253 41.3189 71.392 41.7848 71.2223 42.3354C71.1163 42.6531 71.0314 42.9284 70.883 43.2249C70.6496 43.712 70.3951 44.7497 70.2042 45.3427C69.8861 46.3169 69.5892 47.5029 69.4619 48.5406V48.6465C69.4619 48.7736 69.5043 48.8371 69.5679 48.8371C69.674 48.8371 69.8013 48.7524 69.9073 48.7101C70.0134 48.6254 70.1406 48.4771 70.2467 48.3712C70.48 48.1171 70.7133 47.8629 70.9254 47.5876C71.7738 46.5287 72.8979 44.8133 73.5978 43.5002C73.8947 42.9496 74.2341 42.3142 74.3614 42.0813C74.6795 41.5306 75.5279 39.794 75.5491 39.6669C75.5915 39.4763 75.8672 38.9681 75.9521 38.7563C76.2702 37.9515 76.652 36.3843 77.3095 35.9184C77.3943 35.876 77.458 35.8125 77.564 35.7913C77.6277 35.7701 77.6913 35.7701 77.7549 35.7701C78.5821 35.7701 80.1728 36.9985 80.2365 37.8668C80.2365 37.9303 80.2577 37.9939 80.2577 38.0362C80.2577 38.5021 80.088 38.8833 80.0031 39.3069C79.6426 40.7259 78.6457 43.2673 78.3276 44.3262C77.4792 47.3547 77.2247 49.4301 76.9702 52.6704C76.9277 53.1999 76.7793 53.5599 76.5035 53.5599C76.3339 53.5599 76.1006 53.4117 75.8036 53.0728C74.8916 52.0351 74.9764 50.2349 74.7007 48.9854C74.4038 48.9854 72.6222 51.5691 72.2828 51.9292C71.7738 52.4586 71.2859 52.8398 70.5224 52.8398H70.4375C69.2498 52.6916 68.7832 52.1621 67.8924 51.2726C67.0864 50.4043 66.5562 49.3666 66.3229 48.223C66.2804 48.0324 66.2804 47.8206 66.2804 47.6088C66.2804 46.9311 66.4289 46.1475 66.5562 45.5969L66.5986 45.3639C66.7683 44.7497 66.8743 44.2415 67.0016 43.6061C67.0228 43.4579 67.0652 43.3308 67.1076 43.1614C67.2985 42.4837 67.5106 41.6789 67.7227 41.0224C67.9772 40.3235 68.1045 39.4552 68.5499 38.8834L68.6135 38.7986C68.7832 38.608 68.9529 38.5233 69.165 38.5233C69.3134 38.5233 69.4619 38.5657 69.6316 38.6504C70.2467 38.8622 70.7557 39.3493 71.2011 39.8576Z" fill="white"/>
<path d="M79.1548 52.0139C79.1124 51.9504 79.07 51.8445 79.07 51.7386V51.6751C79.07 51.0821 79.4517 50.0655 79.4517 50.0655C79.7487 49.5996 80.1304 48.2442 80.1941 47.7571C80.2789 47.2064 80.3001 46.7405 80.4486 46.1899C80.5122 46.0205 80.5546 45.8298 80.6183 45.6604C80.7455 45.3216 81 45.131 81.0849 44.8133C81.2758 44.1144 81.4242 42.2295 81.8696 41.4671C81.9121 40.8318 82.2514 39.7517 82.3999 38.8198C82.5696 37.6974 82.4423 37.2738 82.9301 37.0832C83.4179 36.8926 84.7542 36.3632 85.6238 36.2573C85.751 36.2361 85.8783 36.2361 85.9843 36.2361C86.5994 36.2361 86.8539 36.5114 86.8963 37.1891V37.295C86.8963 37.655 86.8539 38.121 86.7267 38.6716C86.2601 38.7139 86.2388 39.3705 86.2388 39.9423C86.2388 40.4294 85.9207 41.1283 85.5813 41.5518C85.4541 41.7001 84.9875 43.2461 84.945 43.4155C84.9026 43.5849 84.839 43.6061 84.839 43.712V43.7544C84.839 43.7967 84.8602 43.8603 84.8602 43.9238L84.945 44.2627C84.945 44.3685 84.9026 44.4956 84.7754 44.665C83.9058 46.0205 84.2875 46.804 83.8209 48.1595C83.8421 48.1806 83.8421 48.1806 83.8421 48.223V48.2442C83.8421 48.8372 82.8029 52.3104 82.5908 52.3104C82.1454 52.3528 81.4667 52.4375 80.8092 52.4375C80.1304 52.4587 79.4729 52.3528 79.1548 52.0139Z" fill="white"/>
<path d="M89.9929 46.6981C89.9929 46.9099 90.0353 47.0582 90.0353 47.2064C90.0353 47.2911 90.0141 47.3335 89.9929 47.4182L89.8657 47.6935C89.7596 47.9477 89.6536 48.1806 89.5899 48.4559C89.5051 48.7948 89.4203 49.1125 89.3566 49.4513C89.3142 49.6843 89.293 49.8961 89.293 50.0443C89.293 50.5102 89.4627 50.6585 89.8232 50.6585C90.0353 50.6585 90.3111 50.5949 90.6716 50.5314C91.2867 50.4043 91.7533 50.2137 92.3472 50.0655C92.6866 49.9596 92.9623 49.9172 93.1744 49.9172C93.6198 49.9172 93.9167 50.129 94.3621 50.6585L94.7651 51.1456C95.0833 51.548 95.5711 52.0986 95.5711 52.4798C95.5711 52.7339 95.3378 52.9245 94.7439 52.9457C93.9379 52.9669 93.7046 52.9245 92.8987 53.1363C92.2199 53.3058 92.0503 53.3905 91.3291 53.4116C90.8625 53.4328 90.5868 53.4964 90.1626 53.6446C89.7384 53.7717 89.3991 53.8776 88.9749 53.9835C88.3174 54.1529 88.0204 54.4282 87.4478 54.6188C87.3841 54.64 87.3205 54.6612 87.2569 54.6612C86.6418 54.6612 86.1115 53.6658 85.857 53.1999C85.6661 52.7975 85.4752 52.4586 85.4752 52.1621C85.4752 51.8656 85.6661 51.6327 86.26 51.5056C86.5357 51.4421 87.4902 51.5268 87.4902 51.2091C87.4902 51.1456 87.4477 51.0609 87.3205 50.955C86.4297 50.2137 85.9631 49.9596 85.9631 49.1336C85.9631 48.9007 86.0055 48.6042 86.0903 48.223C86.4509 46.8676 86.9811 45.618 87.2357 44.1991C87.2569 44.1567 87.2569 44.1144 87.2569 44.072C87.9144 41.7001 88.1901 40.0482 88.8688 37.7185C89.0809 36.9773 89.1445 36.3843 89.3354 35.6642C89.3778 35.4525 89.4415 35.2407 89.5263 35.0501C89.7172 34.5418 89.9293 34.2665 90.2687 34.2665C90.4595 34.2665 90.6716 34.3512 90.9261 34.5206C91.7321 35.0501 92.3896 35.3254 92.835 36.1937C93.0259 36.5537 93.0895 36.8079 93.0895 37.0197C93.0895 37.295 93.0047 37.5491 92.9835 37.9515C92.9623 38.9257 92.4957 39.434 91.8594 40.5141C91.414 41.2553 91.4564 41.8695 91.1807 42.5684C91.011 43.0343 91.0746 43.1614 90.9898 43.5849C90.8837 44.1144 90.6292 44.1567 90.6292 44.5803V44.6862C90.6504 44.8344 90.6716 44.898 90.6716 44.9615C90.6716 45.025 90.6504 45.0886 90.6292 45.2368C90.5868 45.4698 90.5232 45.6816 90.4595 45.9145C90.3323 46.3169 90.0566 46.4228 89.9929 46.6981Z" fill="white"/>
<path d="M101.107 37.7398C100.301 37.7398 99.2192 38.2692 98.7738 38.5022C98.3284 38.7563 97.4588 39.3917 96.7164 39.3917C96.4407 39.3917 96.1862 39.307 95.9741 39.074C95.868 38.9681 95.8044 38.8199 95.8044 38.6716C95.8044 38.2269 96.165 37.7186 96.3559 37.4645C96.8013 36.8715 97.1406 36.6173 97.8193 36.2149C97.9042 36.1726 97.989 36.1091 98.0739 36.0879L98.286 36.0032C98.9222 35.7278 99.5373 35.5796 100.131 35.5796C100.831 35.5796 101.552 35.7702 102.379 36.1514C103.631 36.7444 105.476 38.0575 105.921 39.2011C106.049 39.6035 106.112 39.9847 106.112 40.3871C106.112 40.62 106.091 40.853 106.07 41.0648L106.028 41.3824C105.943 41.8484 105.858 42.2719 105.837 42.759C105.731 44.0933 105.243 44.6227 104.988 45.7875C104.606 47.3547 103.567 49.3031 102.57 50.6374C102.337 50.955 102.104 51.2303 101.807 51.4845C101.128 52.0351 100.386 52.2681 99.6434 52.2681C98.7314 52.2681 97.7981 51.9292 96.8013 51.3362C94.3197 49.8326 93.7471 48.6254 93.7471 46.91C93.7471 46.2746 93.8319 45.5757 93.9167 44.7498C94.0016 44.0509 94.1288 43.5638 94.2985 42.9073C94.4682 42.0813 94.7439 39.9423 96.0589 39.9423C96.1862 39.9423 96.3134 39.9635 96.4407 39.9847C97.5224 40.3023 99.0071 41.0436 99.0071 42.1025C99.0071 42.2084 98.9859 42.3355 98.9647 42.4625C98.7526 43.1402 98.6253 43.6062 98.3284 44.2627C97.8405 45.3004 97.8405 46.2323 97.5648 47.2912C97.48 47.5665 97.4588 47.8418 97.4588 48.1171C97.4588 48.4348 97.5224 48.7737 97.6497 49.1125C97.7345 49.3031 97.8405 49.3667 97.989 49.3667C98.4981 49.3667 99.2404 48.2654 99.3676 48.0536C99.6858 47.5241 99.9403 46.9523 100.195 46.4017C100.471 45.8087 100.598 45.364 100.789 44.7498C100.98 44.0509 101.361 43.6273 101.531 42.8437C101.807 41.5095 102.061 40.9165 102.061 39.6458C102.061 39.4764 102.061 39.307 102.04 39.1164C102.019 38.7563 102.061 38.1633 101.764 37.8668C101.552 37.7821 101.34 37.7398 101.107 37.7398Z" fill="white"/>
</g>
<defs>
<clipPath id="clip0">
<rect width="108" height="55" fill="white"/>
</clipPath>
</defs>
</svg>
