<svg width="137" height="137" viewBox="0 0 137 137" fill="none" xmlns="http://www.w3.org/2000/svg">
<path d="M68.23 136.46C105.912 136.46 136.46 105.912 136.46 68.2299C136.46 30.5476 105.912 0 68.23 0C30.5476 0 0 30.5476 0 68.2299C0 105.912 30.5476 136.46 68.23 136.46Z" fill="#CDFCE8"/>
<path d="M26.6914 98.0324C26.6027 97.5138 26.6368 97.0158 26.7937 96.5382L28.5063 96.6678C28.2402 97.4047 28.2811 98.0119 28.6086 98.4895C29.0589 99.1446 29.6798 99.1991 30.4645 98.6533L33.8555 96.313L32.1771 93.884L33.5007 92.9697L36.2777 96.9885L31.6585 100.175C30.7852 100.775 29.98 101.021 29.25 100.898C28.5199 100.775 27.8718 100.311 27.3123 99.4925C26.9916 99.0422 26.7869 98.5509 26.6914 98.0324Z" fill="#057449"/>
<path d="M32.1771 104.242C32.1907 103.286 32.641 102.359 33.5417 101.465L36.9668 98.0396L38.3451 99.411L34.96<svg width="137" height="137" viewBox="0 0 137 137" fill="none" xmlns="http://www.w3.org/2000/svg">
<path d="M68.23 136.46C105.912 136.46 136.46 105.912 136.46 68.2299C136.46 30.5476 105.912 0 68.23 0C30.5476 0 0 30.5476 0 68.2299C0 105.912 30.5476 136.46 68.23 136.46Z" fill="#CDFCE8"/>
<path d="M26.6914 98.0324C26.6027 97.5138 26.6368 97.0158 26.7937 96.5382L28.5063 96.6678C28.2402 97.4047 28.2811 98.0119 28.6086 98.4895C29.0589 99.1446 29.6798 99.1991 30.4645 98.6533L33.8555 96.313L32.1771 93.884L33.5007 92.9697L36.2777 96.9885L31.6585 100.175C30.7852 100.775 29.98 101.021 29.25 100.898C28.5199 100.775 27.8718 100.311 27.3123 99.4925C26.9916 99.0422 26.7869 98.5509 26.6914 98.0324Z" fill="#057449"/>
<path d="M32.1771 104.242C32.1907 103.286 32.641 102.359 33.5417 101.465L36.9668 98.0396L38.3451 99.411L34.9677 102.782C33.8692 103.88 33.7668 104.863 34.6538 105.75C35.0837 106.179 35.5476 106.377 36.0389 106.336C36.5301 106.295 37.0623 105.995 37.6218 105.429L40.9924 102.058L42.357 103.416L38.9318 106.841C38.0312 107.742 37.1033 108.192 36.1481 108.206C35.1929 108.219 34.2854 107.796 33.4393 106.95C32.5933 106.098 32.1703 105.197 32.1771 104.242Z" fill="#057449"/>
<path d="M49.8282 108.267L45.1953 115.568L43.8444 114.715L43.1075 108.049L40.2964 112.484L38.6658 111.46L43.2986 104.16L44.6632 105.019L45.3932 111.679L48.2043 107.244L49.8282 108.267Z" fill="#057449"/>
<path d="M52.1138 110.908L49.5961 109.946L50.1829 108.424L57.0332 111.037L56.4465 112.559L53.9288 111.597L51.4042 118.133L49.5825 117.437L52.1138 110.908Z" fill="#057449"/>
<path d="M57.586 119.518C56.9583 119.02 56.508 118.406 56.2351 117.669C55.9622 116.932 55.8939 116.148 56.044 115.315C56.1873 114.483 56.5148 113.76 57.0265 113.159C57.5314 112.559 58.166 112.129 58.9233 111.863C59.6807 111.597 60.4926 111.542 61.3523 111.685C62.212 111.829 62.9557 112.156 63.5766 112.654C64.1975 113.152 64.6478 113.766 64.9276 114.503C65.2073 115.24 65.2755 116.025 65.1254 116.857C64.9753 117.69 64.6546 118.406 64.1429 119.006C63.6312 119.607 62.9967 120.037 62.2461 120.303C61.4888 120.569 60.6836 120.623 59.8239 120.48C58.9574 120.344 58.2137 120.016 57.586 119.518ZM61.5024 118.693C61.9391 118.529 62.3075 118.263 62.6009 117.887C62.9011 117.512 63.0922 117.062 63.1877 116.537C63.2832 116.011 63.2491 115.52 63.0922 115.07C62.9421 114.619 62.6828 114.244 62.328 113.944C61.9732 113.644 61.5502 113.453 61.0589 113.371C60.5676 113.289 60.1037 113.33 59.667 113.493C59.2304 113.657 58.8687 113.923 58.5685 114.299C58.2683 114.674 58.0773 115.124 57.9886 115.649C57.893 116.175 57.9272 116.666 58.0841 117.116C58.2342 117.567 58.4935 117.942 58.8483 118.242C59.2031 118.542 59.6261 118.733 60.1174 118.815C60.6018 118.897 61.0657 118.856 61.5024 118.693Z" fill="#057449"/>
<path d="M67.7794 120.944C67.1517 120.78 66.6468 120.562 66.2579 120.275L66.872 118.747C67.2404 119.006 67.6771 119.204 68.182 119.354C68.6869 119.498 69.1849 119.566 69.683 119.545C70.2357 119.525 70.6451 119.429 70.9044 119.245C71.1636 119.068 71.2865 118.836 71.2796 118.563C71.2728 118.358 71.1909 118.188 71.0272 118.058C70.8634 117.928 70.6655 117.826 70.4131 117.751C70.1675 117.676 69.8332 117.601 69.4101 117.519C68.7619 117.389 68.2297 117.246 67.8204 117.11C67.4042 116.966 67.0494 116.727 66.7423 116.393C66.4353 116.059 66.2784 115.602 66.2579 115.029C66.2443 114.53 66.3602 114.067 66.6127 113.65C66.8651 113.234 67.2541 112.9 67.7794 112.641C68.3048 112.381 68.953 112.245 69.724 112.211C70.263 112.19 70.7884 112.238 71.3069 112.354C71.8255 112.47 72.2826 112.64 72.6715 112.872L72.1188 114.408C71.3274 113.985 70.5427 113.787 69.7649 113.814C69.2191 113.835 68.8165 113.937 68.564 114.128C68.3116 114.319 68.1888 114.558 68.1956 114.858C68.2024 115.151 68.3594 115.37 68.6664 115.499C68.9734 115.636 69.4374 115.759 70.0583 115.875C70.7065 116.011 71.2387 116.148 71.6481 116.284C72.0643 116.427 72.4191 116.659 72.7261 116.987C73.0331 117.314 73.19 117.765 73.2105 118.338C73.2242 118.829 73.1082 119.286 72.8489 119.702C72.5896 120.118 72.2007 120.453 71.6685 120.712C71.1363 120.971 70.4881 121.115 69.7171 121.142C69.0553 121.176 68.4071 121.108 67.7794 120.944Z" fill="#057449"/>
<path d="M84.1477 109.257L86.7882 117.458L85.2667 117.949L79.665 114.265L81.2684 119.245L79.433 119.839L76.7925 111.638L78.3277 111.14L83.9225 114.831L82.3191 109.85L84.1477 109.257Z" fill="#057449"/>
<path d="M94.478 111.535L95.2627 112.927L89.5723 116.141L85.3352 108.635L90.8891 105.497L91.6738 106.889L87.812 109.072L88.733 110.703L92.1445 108.772L92.9088 110.123L89.4973 112.054L90.4798 113.787L94.478 111.535Z" fill="#057449"/>
<path d="M97.8619 110.826C97.2615 111.078 96.7225 111.215 96.2448 111.228L95.7945 109.652C96.2449 109.632 96.7157 109.523 97.2069 109.332C97.6982 109.141 98.1348 108.881 98.5169 108.567C98.9468 108.213 99.2061 107.885 99.3016 107.592C99.3971 107.298 99.3562 107.039 99.1788 106.821C99.0491 106.664 98.8785 106.582 98.6738 106.575C98.4691 106.568 98.244 106.616 97.9984 106.712C97.7527 106.807 97.4457 106.95 97.0568 107.141C96.4632 107.435 95.9583 107.646 95.5421 107.79C95.1259 107.933 94.696 107.96 94.2525 107.885C93.809 107.81 93.3997 107.551 93.0312 107.107C92.7106 106.725 92.5263 106.289 92.4649 105.804C92.4103 105.32 92.5127 104.822 92.772 104.296C93.0312 103.771 93.4611 103.266 94.0547 102.775C94.4709 102.434 94.9144 102.147 95.3988 101.915C95.8764 101.69 96.3472 101.547 96.7975 101.492L97.3024 103.041C96.4155 103.191 95.6717 103.518 95.0713 104.01C94.6483 104.358 94.3958 104.685 94.314 104.992C94.2253 105.299 94.2798 105.565 94.4709 105.79C94.6619 106.016 94.9144 106.091 95.2419 106.009C95.5626 105.927 96.0129 105.743 96.5724 105.456C97.166 105.163 97.6709 104.951 98.0871 104.808C98.5033 104.665 98.9331 104.631 99.3698 104.699C99.8133 104.774 100.216 105.026 100.584 105.47C100.898 105.845 101.082 106.282 101.137 106.766C101.192 107.251 101.082 107.755 100.823 108.281C100.564 108.806 100.134 109.318 99.5404 109.809C99.015 110.225 98.4623 110.567 97.8619 110.826Z" fill="#057449"/>
<path d="M104.208 105.047C103.662 105.401 103.157 105.627 102.686 105.729L101.97 104.255C102.413 104.153 102.857 103.969 103.3 103.696C103.744 103.423 104.133 103.095 104.453 102.713C104.815 102.29 105.013 101.922 105.054 101.615C105.095 101.301 105.013 101.062 104.794 100.878C104.637 100.748 104.453 100.694 104.255 100.728C104.057 100.762 103.839 100.844 103.614 100.973C103.396 101.11 103.109 101.301 102.761 101.553C102.222 101.942 101.765 102.242 101.383 102.454C101.001 102.665 100.578 102.775 100.127 102.775C99.6703 102.775 99.2268 102.59 98.7901 102.222C98.408 101.901 98.1488 101.506 98.0055 101.042C97.869 100.578 97.8758 100.066 98.0396 99.5064C98.2033 98.9469 98.5377 98.3737 99.0358 97.7801C99.3837 97.3708 99.7726 97.0092 100.209 96.7021C100.639 96.3951 101.076 96.1767 101.519 96.0403L102.284 97.4731C101.437 97.7733 100.755 98.2236 100.25 98.8172C99.8954 99.2334 99.7044 99.6019 99.6771 99.9157C99.643 100.23 99.7453 100.482 99.9705 100.673C100.196 100.864 100.462 100.891 100.769 100.755C101.076 100.619 101.478 100.359 101.99 99.9772C102.522 99.5883 102.986 99.288 103.368 99.0765C103.75 98.865 104.167 98.7559 104.617 98.749C105.067 98.7422 105.504 98.9264 105.947 99.2949C106.323 99.6155 106.582 100.004 106.718 100.475C106.855 100.946 106.841 101.458 106.671 102.024C106.507 102.59 106.173 103.163 105.675 103.75C105.238 104.262 104.747 104.692 104.208 105.047Z" fill="#057449"/>
<path d="M110.321 93.2635L108.41 96.6749L109.659 98.2238L108.683 99.9705L102.979 92.5061L103.921 90.8276L113.302 91.7283L112.299 93.5159L110.321 93.2635ZM108.697 93.0588L105.156 92.6221L107.387 95.3922L108.697 93.0588Z" fill="#057449"/>
<path d="M22.7754 43.4692L29.4278 50.108L28.6977 51.9229L19.282 52.1481L20.0803 50.1626L26.7941 50.033L22.0385 45.2978L22.7754 43.4692Z" fill="#057449"/>
<path d="M31.6589 44.7247C30.9356 45.0932 30.1715 45.2501 29.3868 45.1955C28.5953 45.1409 27.8516 44.8817 27.1557 44.3972C26.4597 43.9196 25.9412 43.3192 25.6137 42.6028C25.2862 41.8864 25.1634 41.129 25.2521 40.3239C25.3408 39.5188 25.641 38.7478 26.1459 38.0177C26.6508 37.2877 27.2717 36.7418 27.9949 36.3734C28.7182 36.0118 29.4755 35.848 30.267 35.9026C31.0585 35.9504 31.8022 36.2165 32.5049 36.6941C33.2009 37.1717 33.7194 37.7721 34.0469 38.4885C34.3744 39.2049 34.4972 39.9691 34.4085 40.7674C34.3198 41.5725 34.0264 42.3367 33.5215 43.0668C33.003 43.8105 32.3889 44.3563 31.6589 44.7247ZM32.6005 40.7879C32.6414 40.3171 32.5527 39.8736 32.3412 39.4437C32.1297 39.0139 31.8022 38.6523 31.3587 38.3452C30.9152 38.045 30.458 37.8676 29.9804 37.8199C29.5028 37.7721 29.0525 37.854 28.6226 38.0518C28.1928 38.2497 27.838 38.5636 27.5514 38.9798C27.2649 39.396 27.1011 39.8395 27.0602 40.3034C27.0193 40.7674 27.108 41.2177 27.3195 41.6476C27.531 42.0774 27.8585 42.439 28.302 42.7461C28.7455 43.0463 29.2026 43.2237 29.6802 43.2714C30.1578 43.3192 30.6081 43.2373 31.038 43.0395C31.461 42.8348 31.8226 42.5277 32.1092 42.1115C32.3957 41.6953 32.5595 41.2587 32.6005 40.7879Z" fill="#057449"/>
<path d="M37.9496 36.8784C37.165 37.0694 36.394 37.049 35.6367 36.8238C34.8793 36.5918 34.2106 36.162 33.6375 35.5342C33.0643 34.9065 32.6959 34.2038 32.539 33.4328C32.3821 32.6618 32.4366 31.8976 32.7027 31.1402C32.9688 30.3829 33.4328 29.7142 34.0878 29.1206C34.6405 28.6226 35.2272 28.2678 35.855 28.0631C36.4827 27.8584 37.1104 27.797 37.7449 27.8857L37.5948 29.6119C36.7079 29.5027 35.9505 29.7347 35.3091 30.3147C34.9134 30.6695 34.6405 31.072 34.4904 31.5223C34.3402 31.9726 34.3198 32.4298 34.429 32.9006C34.5381 33.3645 34.7769 33.7944 35.1317 34.1901C35.4933 34.5859 35.9027 34.8588 36.3531 35.0089C36.8102 35.159 37.2673 35.1863 37.7381 35.0771C38.2089 34.968 38.6388 34.7428 39.0345 34.3812C39.669 33.808 39.976 33.0711 39.9487 32.1842L41.6955 32.2046C41.7296 32.846 41.6136 33.4669 41.3407 34.0673C41.0677 34.6677 40.6584 35.2136 40.1057 35.7117C39.4439 36.2984 38.7274 36.6873 37.9496 36.8784Z" fill="#057449"/>
<path d="M48.4706 27.9399L49.2893 29.3113L43.5512 32.6819L39.1299 25.2857L44.7315 21.9902L45.5503 23.3616L41.6544 25.6542L42.6164 27.2576L46.0552 25.238L46.8535 26.5685L43.4147 28.5881L44.4382 30.3006L48.4706 27.9399ZM42.5004 22.4951L41.1017 22.2359L40.6582 23.58L39.4505 24.2896L39.9418 21.9493L41.4019 21.0896L43.7081 21.7855L42.5004 22.4951Z" fill="#057449"/>
<path d="M58.207 22.6934L56.1397 23.2461L56.6923 25.2589L55.1572 25.6683L54.6045 23.6555L52.5508 24.2082L52.155 22.7617L54.2088 22.209L53.6561 20.1962L55.1913 19.7869L55.7439 21.7996L57.8113 21.247L58.207 22.6934Z" fill="#057449"/>
<path d="M73.3269 26.5209C73.0403 26.8552 72.6923 27.1077 72.2966 27.2783C71.894 27.4488 71.4574 27.5239 70.9798 27.5171C70.3384 27.5034 69.7653 27.3465 69.2535 27.0599C68.7418 26.7734 68.1619 26.2753 67.5137 25.5589C66.7359 25.4429 66.0468 25.1768 65.4463 24.7606C64.8459 24.3444 64.3819 23.8122 64.0544 23.1708C63.7269 22.5295 63.5768 21.8199 63.5905 21.0557C63.6109 20.2165 63.8293 19.4591 64.2523 18.7973C64.6753 18.1355 65.2484 17.6169 65.9785 17.2485C66.7017 16.88 67.5137 16.7094 68.4075 16.7299C69.3013 16.7504 70.0996 16.9619 70.8092 17.3644C71.512 17.767 72.0646 18.3129 72.4603 18.9952C72.8561 19.6775 73.0403 20.4416 73.0198 21.2877C72.9994 22.2838 72.6923 23.1504 72.1124 23.8941C71.5324 24.6309 70.7751 25.1358 69.8403 25.4088C70.0382 25.6271 70.2361 25.784 70.4271 25.8864C70.6182 25.9819 70.8228 26.0365 71.048 26.0433C71.5802 26.0569 72.051 25.8523 72.4672 25.4429L73.3269 26.5209ZM65.9307 22.5431C66.1559 22.9661 66.4698 23.3005 66.8723 23.5393C67.2749 23.7849 67.732 23.9145 68.2437 23.9214C68.7555 23.935 69.2126 23.8258 69.6288 23.6075C70.045 23.3823 70.3725 23.0685 70.6181 22.6591C70.8638 22.2497 70.9866 21.7789 71.0002 21.2467C71.0139 20.7145 70.9047 20.2369 70.6796 19.8139C70.4544 19.3909 70.1405 19.0565 69.738 18.8109C69.3354 18.5653 68.8783 18.4425 68.3665 18.4288C67.8548 18.4152 67.3977 18.5175 66.9815 18.7427C66.5653 18.9679 66.2378 19.2817 65.9922 19.6911C65.7465 20.1005 65.6237 20.5713 65.6101 21.1035C65.5964 21.6425 65.7056 22.1201 65.9307 22.5431Z" fill="#057449"/>
<path d="M75.2238 25.2519C74.7325 24.4263 74.6438 23.4029 74.9577 22.1816L76.1653 17.5215L78.0963 18.0196L76.9091 22.6046C76.527 24.092 76.95 24.9995 78.1918 25.3134C78.7922 25.4703 79.3039 25.4089 79.7133 25.1291C80.1227 24.8494 80.4297 24.324 80.6276 23.5598L81.8148 18.9748L83.7252 19.466L82.5176 24.1261C82.2037 25.3475 81.6306 26.2003 80.7914 26.6848C79.959 27.1692 78.9423 27.2647 77.7551 26.9577C76.5611 26.6438 75.715 26.0775 75.2238 25.2519Z" fill="#057449"/>
<path d="M86.5978 20.6804L88.4332 21.4651L85.0148 29.3456L83.1794 28.561L86.5978 20.6804Z" fill="#057449"/>
<path d="M91.8923 25.0469L89.5248 23.6414L90.3571 22.2495L96.8049 26.084L95.9657 27.4759L93.5981 26.0704L90.0024 32.0473L88.2898 31.0307L91.8923 25.0469Z" fill="#057449"/>
<path d="M99.1112 37.1443L98.0605 38.3452L93.0251 33.9853L98.7019 27.5171L103.614 31.7746L102.564 32.9755L99.1454 30.0143L97.9104 31.4198L100.926 34.0331L99.9027 35.1998L96.8801 32.5866L95.5633 34.0808L99.1112 37.1443Z" fill="#057449"/>
<path d="M99.0565 39.239C99.077 38.9183 99.2203 38.6385 99.4795 38.4134C99.7456 38.1814 100.032 38.0791 100.353 38.1064C100.667 38.1337 100.94 38.2769 101.158 38.5226C101.383 38.775 101.486 39.0547 101.472 39.3686C101.458 39.6825 101.322 39.9554 101.056 40.1874C100.796 40.4125 100.503 40.5149 100.175 40.4944C99.848 40.4739 99.5751 40.3375 99.3567 40.0918C99.1384 39.8462 99.036 39.5596 99.0565 39.239Z" fill="#057449"/>
<path d="M101.636 42.3231C101.54 41.7977 101.567 41.2996 101.724 40.8152L103.451 40.9789C103.191 41.7158 103.232 42.3367 103.573 42.828C104.03 43.4966 104.658 43.558 105.443 43.0258L108.841 40.7196L107.128 38.2361L108.452 37.3354L111.283 41.4429L106.657 44.5815C105.777 45.1751 104.972 45.4071 104.242 45.2706C103.505 45.1341 102.85 44.6565 102.277 43.8173C101.943 43.3465 101.731 42.8484 101.636 42.3231Z" fill="#057449"/>
<path d="M109.059 51.9571L107.401 48.3409L105.395 48.4091L104.549 46.5601L114.012 46.4919L114.831 48.2727L108.554 55.3004L107.687 53.4104L109.059 51.9571ZM110.185 50.7699L112.634 48.1772L109.052 48.3L110.185 50.7699ZM116.912 46.8535L117.772 48.723L115.227 47.4335L114.606 46.0757L116.912 46.8535Z" fill="#057449"/>
<path fill-rule="evenodd" clip-rule="evenodd" d="M68.2302 33.4329C49.0122 33.4329 33.4329 49.0121 33.4329 68.2301C33.4329 87.4481 49.0122 103.027 68.2302 103.027C87.4482 103.027 103.027 87.4481 103.027 68.2301C103.027 49.0121 87.4482 33.4329 68.2302 33.4329ZM31.386 68.2301C31.386 47.8817 47.8817 31.386 68.2302 31.386C88.5786 31.386 105.074 47.8817 105.074 68.2301C105.074 88.5786 88.5786 105.074 68.2302 105.074C47.8817 105.074 31.386 88.5786 31.386 68.2301Z" fill="#057449"/>
<path fill-rule="evenodd" clip-rule="evenodd" d="M68.23 8.8699C35.4463 8.8699 8.8699 35.4463 8.8699 68.2299C8.8699 101.014 35.4463 127.59 68.23 127.59C101.014 127.59 127.59 101.014 127.59 68.2299C127.59 35.4463 101.014 8.8699 68.23 8.8699ZM6.823 68.2299C6.823 34.3158 34.3158 6.823 68.23 6.823C102.144 6.823 129.637 34.3158 129.637 68.2299C129.637 102.144 102.144 129.637 68.23 129.637C34.3158 129.637 6.823 102.144 6.823 68.2299Z" fill="#057449"/>
<path d="M116.632 70.7407C118.019 70.7407 119.143 69.6166 119.143 68.2299C119.143 66.8431 118.019 65.719 116.632 65.719C115.245 65.719 114.121 66.8431 114.121 68.2299C114.121 69.6166 115.245 70.7407 116.632 70.7407Z" fill="white"/>
<path d="M19.8207 70.741C21.2074 70.741 22.3316 69.6168 22.3316 68.2301C22.3316 66.8434 21.2074 65.7192 19.8207 65.7192C18.434 65.7192 17.3098 66.8434 17.3098 68.2301C17.3098 69.6168 18.434 70.741 19.8207 70.741Z" fill="white"/>
<path d="M93.5089 72.2484L92.3968 72.8898C90.7934 73.8177 88.726 73.2583 87.7981 71.6548L81.132 60.1104C80.2041 58.5069 80.7636 56.4396 82.367 55.5117L83.4791 54.8703C85.0825 53.9424 87.1499 54.5019 88.0778 56.1053L94.7439 67.6498C95.665 69.26 95.1123 71.3273 93.5089 72.2484Z" fill="white"/>
<path d="M43.8379 72.7603L42.7462 72.0848C41.1701 71.1159 40.6788 69.0281 41.6477 67.452L48.6481 56.1054C49.6169 54.5293 51.7048 54.038 53.2809 55.0068L54.3726 55.6823C55.9487 56.6512 56.4399 58.739 55.4711 60.3151L48.4707 71.6618C47.495 73.2379 45.414 73.7291 43.8379 72.7603Z" fill="white"/>
<path d="M68.2298 50.8722C68.8371 50.8722 69.3284 50.3809 69.3284 49.7737V44.1788C69.3284 43.5716 68.8371 43.0803 68.2298 43.0803C67.6226 43.0803 67.1313 43.5716 67.1313 44.1788V49.7737C67.1313 50.3809 67.6226 50.8722 68.2298 50.8722Z" fill="#057449"/>
<path d="M59.9671 52.6734C60.1787 53.0077 60.5334 53.1851 60.8951 53.1851C61.0929 53.1851 61.2976 53.1305 61.4819 53.0146C61.9936 52.6939 62.1505 52.0116 61.823 51.4999L58.8959 46.8534C58.5752 46.3417 57.893 46.1848 57.3812 46.5123C56.8695 46.8329 56.7126 47.5152 57.0401 48.0269L59.9671 52.6734Z" fill="#057449"/>
<path d="M74.9776 53.0216C75.1619 53.1376 75.3597 53.1922 75.5644 53.1922C75.926 53.1922 76.2877 53.0079 76.4924 52.6804L79.4194 48.034C79.7401 47.5222 79.59 46.8399 79.0783 46.5192C78.5665 46.1986 77.8842 46.3487 77.5635 46.8604L74.6365 51.5069C74.309 52.0186 74.4591 52.6941 74.9776 53.0216Z" fill="#057449"/>
<path d="M95.9994 68.9396L94.089 65.569C93.7888 65.0436 93.1202 64.8526 92.5948 65.1528C92.0694 65.453 91.8784 66.1216 92.1786 66.647L94.089 70.0176C94.1845 70.1881 94.1573 70.3519 94.1368 70.4338C94.1163 70.5157 94.0549 70.6589 93.8912 70.7476L90.9504 72.3783C90.6911 72.5216 90.35 72.4329 90.2067 72.1805L89.4562 70.8568C89.4562 70.85 89.4494 70.8431 89.4494 70.8363L81.7257 57.1699C81.6302 56.9993 81.6575 56.8424 81.678 56.7605C81.6985 56.6786 81.7598 56.5353 81.9236 56.4466L84.8711 54.8159C85.1372 54.6727 85.4716 54.7613 85.6149 55.0138L87.3342 58.0569C87.6344 58.5822 88.3031 58.7733 88.8285 58.4731C89.3538 58.1728 89.5449 57.5042 89.2447 56.9788L87.5253 53.9358C86.7884 52.6326 85.1236 52.1686 83.8068 52.8919L80.8592 54.5226C80.2247 54.8774 79.7607 55.4573 79.5629 56.1601C79.3787 56.8219 79.44 57.5178 79.7471 58.1251L78.1232 58.5959C77.4341 58.7937 77.0111 58.9029 76.7791 58.9029C76.6222 58.9029 76.4447 58.8415 75.9467 58.6505C75.7215 58.5618 75.4417 58.4594 75.0938 58.3366L72.2213 57.3336C70.6316 56.781 69.9151 56.8083 68.878 56.9038L63.9791 57.3405C61.748 57.5383 60.322 58.0432 59.5374 58.9166L56.7468 58.1046C57.047 57.4974 57.1152 56.8083 56.9241 56.1533C56.7263 55.4505 56.2623 54.8637 55.6278 54.5157L52.6871 52.885C51.3702 52.155 49.6986 52.6258 48.9685 53.9221L40.4876 68.9191C40.1259 69.5604 40.0372 70.3041 40.2351 71.0137C40.433 71.7165 40.8969 72.3033 41.5315 72.6513L44.4722 74.2819C44.8952 74.5139 45.3523 74.6231 45.8027 74.6231C46.7579 74.6231 47.6926 74.125 48.1907 73.238L48.5046 72.6854C49.3506 73.0606 50.067 73.5996 50.5515 74.241C50.0739 74.7937 49.7805 75.4828 49.6918 76.2265C49.5826 77.209 49.8624 78.1779 50.4764 78.942C51.0837 79.7062 51.957 80.1838 52.9327 80.2998C52.8304 81.2755 53.1101 82.2307 53.7174 82.9949C54.3519 83.7864 55.2389 84.2435 56.1736 84.3527C56.0713 85.3284 56.351 86.2836 56.9583 87.0409C57.5655 87.8051 58.4389 88.2895 59.4145 88.3987C59.3122 89.3744 59.592 90.3296 60.1992 91.0938C60.9293 92.0013 62.0005 92.4789 63.0853 92.4789C63.8973 92.4789 64.7092 92.2128 65.3915 91.6738L67.6908 89.8316C67.8751 89.6883 68.0388 89.5245 68.1889 89.3539L69.5057 90.4047C70.188 90.9437 71 91.2098 71.8051 91.2098C72.8899 91.2098 73.968 90.7322 74.6981 89.8247C75.0802 89.3471 75.3258 88.7944 75.4349 88.2281C75.817 88.3578 76.2264 88.4329 76.6358 88.4329C76.7722 88.4329 76.9155 88.426 77.052 88.4124C78.0345 88.3032 78.9147 87.8188 79.5287 87.0546C80.1428 86.2904 80.4226 85.3352 80.3134 84.3595C81.2481 84.2503 82.1351 83.7932 82.7696 83.0017C83.3974 82.2103 83.6567 81.2414 83.5543 80.3066C84.53 80.1907 85.4033 79.7131 86.0106 78.9489C86.6246 78.1847 86.9044 77.2158 86.7952 76.2333C86.7134 75.4896 86.4131 74.8005 85.9355 74.2478C86.42 73.6065 87.1296 73.0606 87.9824 72.6854L88.2963 73.238C88.7944 74.125 89.7291 74.6231 90.6843 74.6231C91.1347 74.6231 91.5918 74.5139 92.0148 74.2819L94.9556 72.6513C95.5901 72.2965 96.054 71.7165 96.2519 71.0137C96.4429 70.3246 96.3611 69.5809 95.9994 68.9396ZM46.253 72.1805C46.1097 72.4329 45.7686 72.5216 45.5093 72.3783L42.5686 70.7476C42.4048 70.6589 42.3434 70.5157 42.323 70.4338C42.3025 70.3519 42.2752 70.1881 42.3707 70.0176L50.8517 55.0138C50.9472 54.8432 51.1314 54.7477 51.3225 54.7477C51.418 54.7477 51.5067 54.7682 51.5954 54.8159L54.5361 56.4466C54.6998 56.5353 54.7613 56.6786 54.7817 56.7605C54.8022 56.8424 54.8295 57.0061 54.734 57.1699L46.253 72.1805ZM54.27 77.8367C53.963 78.0824 53.5672 78.1984 53.1715 78.1506C52.7689 78.1028 52.4142 77.9118 52.1685 77.6048C51.9229 77.2977 51.8069 76.902 51.8547 76.5062C51.9024 76.1105 52.0935 75.7557 52.4073 75.5033L56.5216 72.2146C57.1698 71.696 58.1113 71.8052 58.6299 72.4465C58.8755 72.7536 58.9915 73.1493 58.9438 73.5451C58.896 73.9408 58.705 74.2956 58.3911 74.5412C58.3843 74.548 58.3774 74.5549 58.3706 74.5549L54.27 77.8367C54.27 77.8299 54.27 77.8367 54.27 77.8367ZM55.4095 81.6508C55.1638 81.3438 55.0478 80.9548 55.0956 80.5523C55.1365 80.1565 55.3344 79.7949 55.6482 79.5493L61.5706 74.8141C62.2188 74.2956 63.1604 74.4048 63.6789 75.0461C63.9245 75.3532 64.0406 75.7489 63.9928 76.1446C63.945 76.5404 63.754 76.902 63.4401 77.1476L57.5177 81.8759C56.8695 82.4013 55.928 82.2922 55.4095 81.6508ZM59.6602 86.2495C59.2576 86.2017 58.9028 86.0107 58.6572 85.6968C58.4116 85.3898 58.2956 84.9941 58.3433 84.5983C58.3911 84.2026 58.5821 83.841 58.896 83.5953L62.9966 80.3203C63.0034 80.3135 63.0035 80.3135 63.0103 80.3066C63.6516 79.7881 64.6 79.8973 65.1117 80.5386C65.3574 80.8457 65.4734 81.2414 65.4256 81.6371C65.3778 82.0329 65.1868 82.3876 64.8729 82.6401L60.7587 85.9288C60.4516 86.1812 60.0559 86.2973 59.6602 86.2495ZM66.8584 87.1433C66.8107 87.539 66.6196 87.9006 66.3058 88.1463L64.0064 89.9885C63.3582 90.507 62.4167 90.3979 61.8981 89.7565C61.6525 89.4495 61.5365 89.0605 61.5843 88.658C61.6252 88.2623 61.823 87.9007 62.1301 87.655L64.4294 85.8196C64.4294 85.8196 64.4294 85.8196 64.4363 85.8196C65.0844 85.3011 66.026 85.4102 66.5446 86.0516C66.7902 86.3586 66.8994 86.7476 66.8584 87.1433ZM84.2844 77.5979C84.0387 77.905 83.6771 78.1028 83.2814 78.1438C82.8788 78.1915 82.4899 78.0755 82.1829 77.8299L79.2422 75.4828C78.7714 75.1007 78.0754 75.1826 77.7002 75.6534C77.3249 76.1241 77.4 76.8201 77.8707 77.1954L80.8115 79.5425C81.4528 80.061 81.562 81.0026 81.0503 81.644C80.5317 82.2922 79.5901 82.3945 78.942 81.8759L75.7556 79.331C75.2848 78.9557 74.5889 79.0308 74.2136 79.5015C73.8384 79.9723 73.9134 80.6683 74.3842 81.0435L77.5705 83.5885C77.8844 83.8341 78.0754 84.1958 78.1232 84.5915C78.1641 84.9872 78.055 85.3761 77.8025 85.69C77.5569 85.997 77.2021 86.1949 76.7995 86.2427C76.397 86.2836 76.0081 86.1744 75.701 85.9288L74.1113 84.6597L74.1045 84.6529L72.7672 83.5817L72.5147 83.3838C72.0439 83.0017 71.348 83.0836 70.9727 83.5544C70.9249 83.6158 70.884 83.6772 70.8499 83.7386C70.693 84.0525 70.693 84.4141 70.8431 84.7211C70.9113 84.8644 71.0136 84.9941 71.1433 85.0964L72.7399 86.3723C73.3812 86.8909 73.4836 87.8324 72.9718 88.467C72.4533 89.1152 71.5117 89.2175 70.8636 88.7058L69.0554 87.2593C69.1305 86.3177 68.8507 85.4034 68.264 84.6665C67.8955 84.2094 67.4452 83.8614 66.9471 83.6294C67.3156 83.1245 67.5476 82.5241 67.6158 81.8828C67.725 80.9002 67.4452 79.9314 66.8311 79.1604C66.4627 78.7032 66.0124 78.3553 65.5143 78.1233C65.8827 77.6116 66.1147 77.018 66.1829 76.3766C66.2921 75.3941 66.0124 74.4321 65.3983 73.6611C64.3408 72.3374 62.5531 71.9349 61.0657 72.5694C60.9497 72.0236 60.7041 71.505 60.3425 71.0547C59.0734 69.4649 56.7399 69.2056 55.1502 70.4747L52.2095 72.8287C51.5476 71.9826 50.6402 71.273 49.569 70.7749L55.621 60.0697L58.8414 61.0044C58.855 61.175 58.8823 61.3592 58.9301 61.5502C59.7079 64.757 62.6623 66.2513 66.6333 65.453C69.9834 64.7775 71.3616 65.7805 74.1045 67.7796C74.391 67.9843 74.6844 68.2027 74.9915 68.421C76.9633 69.8402 79.0716 71.4982 80.4908 72.6308L84.0592 75.4828C84.3662 75.7284 84.5641 76.0832 84.605 76.4858C84.646 76.902 84.5368 77.2909 84.2844 77.5979ZM84.2503 72.8423L81.8554 70.9319C80.4226 69.7856 78.2801 68.1003 76.2674 66.6538C75.9603 66.4355 75.6737 66.224 75.3872 66.0193C72.542 63.9451 70.4814 62.4509 66.1898 63.3106C64.8729 63.5767 61.7412 63.8837 61.0521 61.0453C60.9566 60.6428 61.0521 60.5063 61.093 60.4449C61.2431 60.2402 61.8299 59.7421 64.1429 59.5374L69.0486 59.1008C69.8469 59.0257 70.2495 58.9916 71.4708 59.4146L74.3433 60.4176C74.6639 60.5268 74.9164 60.6291 75.1415 60.711C76.5266 61.2364 76.8951 61.2364 78.71 60.711L80.8319 60.0969L86.8771 70.7818C85.8195 71.2935 84.9189 71.9962 84.2503 72.8423Z" fill="#057449"/>
<path d="M87.8457 56.4601C87.6683 56.5829 87.2452 56.2759 87.1634 56.4601C87.0201 56.7945 86.8973 57.5314 87.1224 57.8589L92.5945 67.5339C92.9356 68.032 93.4883 67.0358 93.9864 66.6946C94.4844 66.3535 94.4708 66.8993 94.6755 66.7492L88.91 56.5557C88.5757 56.0644 88.3506 56.119 87.8457 56.4601Z" fill="#057449"/>
</svg>
