<svg width="112" height="49" viewBox="0 0 112 49" fill="none" xmlns="http://www.w3.org/2000/svg">
<path d="M13.585 20.3342C13.0126 20.1439 12.3448 18.8695 12.1159 18.3369C12.0205 18.1467 11.9632 17.9945 11.8869 17.7853C11.7343 17.8233 11.5816 17.8423 11.4099 17.8423C10.6276 17.8423 9.73086 17.5189 8.98674 16.9483C7.19321 15.5407 6.63989 14.3804 6.63989 12.8206C6.63989 12.0978 6.75437 11.2988 6.92609 10.3287C7.04057 9.64395 7.21229 9.13036 7.4031 8.4646C7.63206 7.64667 8.14722 5.44014 9.25386 5.44014C9.34926 5.45917 9.44466 5.47819 9.54006 5.51623C10.3796 5.80156 11.4671 6.48634 11.4671 7.49449C11.4671 7.64667 11.4481 7.81786 11.3908 7.98906C11.1809 8.67384 10.8947 9.13036 10.5895 9.81514C10.1125 10.8613 10.0171 11.7744 9.6927 12.8586C9.63546 13.0488 9.61638 13.22 9.61638 13.4103C9.61638 13.8478 9.74994 14.2662 9.86442 14.<svg width="112" height="49" viewBox="0 0 112 49" fill="none" xmlns="http://www.w3.org/2000/svg">
<path d="M13.585 20.3342C13.0126 20.1439 12.3448 18.8695 12.1159 18.3369C12.0205 18.1467 11.9632 17.9945 11.8869 17.7853C11.7343 17.8233 11.5816 17.8423 11.4099 17.8423C10.6276 17.8423 9.73086 17.5189 8.98674 16.9483C7.19321 15.5407 6.63989 14.3804 6.63989 12.8206C6.63989 12.0978 6.75437 11.2988 6.92609 10.3287C7.04057 9.64395 7.21229 9.13036 7.4031 8.4646C7.63206 7.64667 8.14722 5.44014 9.25386 5.44014C9.34926 5.45917 9.44466 5.47819 9.54006 5.51623C10.3796 5.80156 11.4671 6.48634 11.4671 7.49449C11.4671 7.64667 11.4481 7.81786 11.3908 7.98906C11.1809 8.67384 10.8947 9.13036 10.5895 9.81514C10.1125 10.8613 10.0171 11.7744 9.6927 12.8586C9.63546 13.0488 9.61638 13.22 9.61638 13.4103C9.61638 13.8478 9.74994 14.2662 9.86442 14.7228C9.90258 14.913 10.0361 14.97 10.2079 14.97C10.4177 14.97 10.6658 14.8559 10.8375 14.6847C10.8566 14.6657 10.8757 14.6276 10.8757 14.6086C10.8947 14.4945 10.8947 14.2472 10.8947 14.1141C10.8947 13.6385 10.8757 13.2391 10.8757 12.8396C10.8757 12.4782 10.8947 12.1738 10.9138 12.0978C10.952 11.8885 11.0092 11.8695 11.3908 11.8695C11.8297 11.8885 12.0205 12.0217 12.3448 12.2119C12.7074 11.451 12.8028 11.1467 13.089 10.2907C13.3179 9.56786 13.6423 9.14938 13.8522 8.36949C14.2528 6.82873 14.5009 6.25808 14.5772 4.58417C14.5963 4.43199 14.6154 4.22275 14.6154 4.01351C14.6154 3.76623 14.5772 3.49993 14.4627 3.32873C14.3482 3.23362 14.1956 3.19558 14.0048 3.19558C13.337 3.19558 12.383 3.74721 12.0014 3.99449C11.6007 4.2608 10.8184 4.90753 10.2079 4.90753C9.86442 4.90753 9.54006 4.67927 9.54006 4.27982C9.54006 3.84232 9.90258 3.27167 10.0934 2.96732C10.6276 2.18743 11.0283 1.92112 11.7724 1.4646C12.3448 1.16025 12.86 1.0271 13.3752 1.0271C13.9476 1.0271 14.5009 1.1983 15.1305 1.55971C16.1418 2.13036 17.5537 3.42384 17.8208 4.58417C17.8781 4.83145 17.8971 5.09775 17.8971 5.34503C17.8971 6.35319 17.6109 7.07601 17.4392 8.16025C17.2293 9.5108 16.7905 10.0624 16.4661 11.2228C16.0464 12.8206 14.997 14.7988 14.062 16.1304C13.9476 16.3016 13.8331 16.4537 13.6995 16.6249C13.7377 16.8912 13.7758 17.1766 13.8331 17.4048V17.4238C14.0811 18.5271 14.2719 19.7255 14.2719 20.1249L14.2528 20.22C14.2147 20.3532 14.1384 20.4293 13.9857 20.4293C13.9094 20.4103 13.7758 20.3912 13.585 20.3342Z" fill="#00E58D"/>
<path d="M21.8087 6.82867C22.0949 7.15204 22.1903 7.43736 22.1903 7.72269C22.1903 8.14117 21.9804 8.55965 21.8277 9.05421C21.7323 9.33954 21.656 9.58682 21.5225 9.85312C21.3126 10.2906 21.0836 11.2227 20.9119 11.7553C20.6257 12.6303 20.3586 13.6955 20.2441 14.6276V14.7227C20.2441 14.8368 20.2823 14.8939 20.3395 14.8939C20.4349 14.8939 20.5494 14.8178 20.6448 14.7798C20.7402 14.7037 20.8547 14.5705 20.9501 14.4754C21.1599 14.2471 21.3698 14.0189 21.5606 13.7716C22.3238 12.8205 23.3351 11.2798 23.9647 10.1004C24.2318 9.60584 24.5371 9.03519 24.6516 8.82595C24.9378 8.33138 25.701 6.7716 25.7201 6.65747C25.7582 6.48627 26.0063 6.02975 26.0826 5.83954C26.3688 5.11671 26.7122 3.7091 27.3037 3.29062C27.38 3.25258 27.4373 3.19551 27.5327 3.17649C27.5899 3.15747 27.6472 3.15747 27.7044 3.15747C28.4485 3.15747 29.8795 4.26073 29.9368 5.04062C29.9368 5.09769 29.9558 5.15475 29.9558 5.1928C29.9558 5.61128 29.8032 5.95367 29.7269 6.3341C29.4025 7.60856 28.5058 9.89117 28.2196 10.8423C27.4564 13.5624 27.2274 15.4265 26.9984 18.3368C26.9603 18.8124 26.8267 19.1357 26.5787 19.1357C26.426 19.1357 26.2162 19.0026 25.949 18.6982C25.1286 17.7662 25.2049 16.1493 24.9569 15.027C24.6897 15.027 23.087 17.3477 22.7817 17.6711C22.3238 18.1466 21.885 18.489 21.1981 18.489H21.1218C20.0533 18.3558 19.6335 17.8803 18.8322 17.0814C18.1262 16.2254 17.6492 15.2933 17.4393 14.2662C17.4012 14.095 17.3821 13.9048 17.3821 13.7145C17.3821 13.1058 17.5156 12.402 17.6301 11.9075L17.6683 11.6982C17.8209 11.1466 17.9163 10.6901 18.0308 10.1194C18.088 9.98628 18.1262 9.87214 18.1453 9.73899C18.3361 9.11128 18.5078 8.38845 18.7177 7.79878C18.9466 7.17106 19.0611 6.39117 19.4618 5.87758L19.519 5.80149C19.6717 5.6303 19.8243 5.55421 20.0151 5.55421C20.1487 5.55421 20.2823 5.59225 20.4349 5.66834C20.9501 5.93464 21.408 6.37214 21.8087 6.82867Z" fill="#00E58D"/>
<path d="M29.0017 11.7554C29.0017 11.6413 29.0589 11.5081 29.1734 11.3369C29.3261 11.1467 29.5932 10.9375 29.9939 10.6712C30.8716 10.0435 31.1768 9.28259 31.5012 8.3315C31.692 7.77987 32.0927 6.73367 32.0927 6.08694C32.0927 5.99183 32.0927 5.91574 32.0736 5.83965C32.0545 5.7065 32.0164 5.63041 31.94 5.53531C31.8256 5.38313 31.692 5.36411 31.5775 5.36411C31.4821 5.36411 31.4058 5.38313 31.3104 5.38313C31.1387 5.38313 30.967 5.32607 30.8143 5.0027C30.6617 4.67933 30.4518 4.14672 30.4518 3.65215C30.4518 3.30976 30.5472 2.98639 30.8525 2.79617L30.9479 2.72009C31.5966 2.4728 32.4552 2.26357 33.123 2.09237C34.6494 1.73096 36.214 1.38857 37.7213 1.08422C38.122 0.989109 38.7135 0.855957 39.2477 0.855957C39.6293 0.855957 39.9728 0.932044 40.2017 1.1603C40.4498 1.44563 41.213 2.52987 41.213 3.19563C41.213 3.40487 41.1366 3.57607 40.9268 3.67117C40.507 3.84237 39.0951 3.88041 38.5227 3.97552C37.4542 4.14672 36.4048 4.37498 35.3363 4.5652C34.9547 4.64128 34.5922 4.69835 34.2106 4.77444C33.4855 4.90759 33.1802 5.0027 33.1802 5.09781C33.1802 5.21194 33.6572 5.32607 34.325 5.4402C34.5349 5.47824 34.7448 5.51628 34.9547 5.59237C35.4126 5.80161 35.5843 6.06791 35.5843 6.37226C35.5843 6.86683 35.1837 7.43748 34.9547 8.00813C34.8593 8.21737 34.6685 8.65487 34.6685 8.95922C34.6685 9.07335 34.6876 9.16846 34.7639 9.2065C35.6034 9.18748 36.4811 8.78802 37.3779 8.78802C37.5114 8.78802 37.6641 8.80704 37.7976 8.82607C38.37 8.92118 38.2174 9.32063 38.7707 9.68204C38.847 9.72009 38.9043 9.75813 38.9806 9.79618C39.1905 9.91031 39.4576 10.0244 39.4576 10.2147C39.4576 10.2907 39.4003 10.3858 39.2477 10.481C38.9043 10.6902 37.5877 10.9565 37.1298 11.0897C36.7864 11.1848 36.4429 11.2608 36.0995 11.356C35.5462 11.5081 34.0961 11.8505 33.6763 12.1739C33.3329 12.4402 33.1421 12.8016 32.9894 13.182C32.9513 13.2391 32.9131 13.3152 32.894 13.3723L32.875 13.4103C32.7605 13.6386 32.7223 13.7717 32.7032 14C32.7032 14.038 32.6842 14.0951 32.6842 14.1331L32.6651 14.2092C32.646 14.3804 32.5697 14.3614 32.5506 14.5706C32.5315 14.7228 32.4743 14.856 32.4552 15.0272C32.4552 15.1032 32.4361 15.3315 32.4361 15.4647V15.5407C32.4743 15.6739 32.6078 15.731 32.7223 15.788C32.875 15.8261 33.0276 15.8261 33.1993 15.8261C34.8402 15.8261 37.0535 14.5326 38.4463 13.7717C38.6753 13.6576 39.6293 13.106 40.0872 13.106C40.2399 13.106 40.3162 13.163 40.3162 13.2962C40.3162 13.3723 40.2971 13.4483 40.259 13.5435C40.0109 14.1522 39.6293 13.9619 39.4576 14.875C39.3622 15.3125 39.0951 15.6549 38.8661 16.0924C38.4463 16.8532 36.5574 17.8614 35.737 18.1467C35.1073 18.375 34.6113 18.4701 34.0198 18.4701C33.8671 18.4701 33.6954 18.4511 33.5237 18.4511C33.2375 18.394 33.0085 18.3179 32.7605 18.2418C32.6651 18.2038 32.6078 18.1657 32.5315 18.1277C31.7492 17.6902 31.0624 16.9293 30.5281 16.2445C29.8985 15.3886 29.8222 14.4185 29.8031 13.3152C29.784 12.5543 29.0017 12.231 29.0017 11.7554Z" fill="#00E58D"/>
<path d="M41.6518 18.8315C41.213 18.6603 40.2017 17.9565 39.9155 17.6141C39.7247 17.3859 39.6675 17.1957 39.6675 16.9293C39.6866 16.3777 40.2017 15.0272 40.3544 14.4755C40.5261 13.7147 40.6406 13.125 40.9268 12.4212C41.0222 12.1549 41.0603 11.7364 41.1176 11.4321C41.213 11.0136 41.3274 10.6141 41.4228 10.1957C41.461 10.0625 41.5564 9.68207 41.5564 9.56793C41.6518 8.84511 42.0906 7.32337 42.3005 6.50543C42.3959 6.02989 42.7585 3.97554 43.1591 3.69022C43.3309 3.59511 43.5407 3.55707 43.7506 3.55707C44.3039 3.55707 44.9527 3.84239 45.3915 4.05163C46.3837 4.52717 46.3455 5.23098 46.3837 6.16304C46.4027 6.84783 46.4027 7.49456 46.4791 8.19837C46.5363 8.76902 47.0515 14.3804 47.891 14.3804C48.5779 14.3804 49.2838 10.9185 49.57 10.1957C50.0089 9.11141 50.2951 7.81793 50.505 6.65761C50.6194 5.9538 50.753 5.40217 50.8484 4.62228C50.8866 4.29891 50.8866 4.05163 50.9438 3.70924C51.1537 2.58696 51.1537 1.75 51.2109 0.627717C51.2682 0.171196 51.3445 0 51.4399 0C51.6498 0 51.936 0.703804 52.0695 1.02717C52.2222 1.44565 52.3748 2.28261 52.8136 2.51087C53.2143 2.75815 53.2525 2.96739 53.2525 3.29076L53.2334 3.69022L53.2143 4.6413C53.2143 5.09783 53.2334 5.5163 53.3288 6.125C53.3479 6.27717 53.367 6.42935 53.367 6.60054C53.367 7.62772 52.8709 8.75 52.6801 9.73913C52.6419 9.87228 52.6228 9.98641 52.6038 10.1196C52.184 11.9266 51.5162 14.4375 50.6004 16.0543C50.047 17.0054 48.5969 17.3288 47.662 17.3288C47.3758 17.3288 47.1278 17.2717 46.8034 17.1766C46.0975 16.8342 45.6777 16.1685 45.3915 15.5027C45.1435 14.9321 44.3039 12.6685 43.9223 12.3451C43.8269 12.3071 43.8842 12.3261 43.7888 12.3071C43.6361 12.3261 43.6361 12.6304 43.598 12.7446C43.3118 13.8478 43.1973 14.9321 42.9111 16.0734C42.7394 16.7772 42.6631 17.2717 42.5295 17.9755C42.4532 18.2989 42.3196 18.8696 41.8998 18.8696C41.7472 18.8696 41.8044 18.8505 41.6518 18.8315Z" fill="#00E58D"/>
<path d="M58.5185 2.68203C59.1481 2.60595 60.0639 2.47279 60.5791 2.37769C61.8002 2.18747 63.0977 2.18747 64.357 2.03529C64.4905 2.01627 65.2919 1.94019 65.9788 1.94019C66.5512 1.94019 67.0282 1.99725 67.0282 2.18747V2.22551C66.9328 2.45377 66.5321 2.68203 66.3413 2.87225C66.0742 3.13856 65.9788 3.30975 65.7498 3.59508C65.4064 3.99453 65.1583 3.76627 64.7386 4.45106C64.5668 4.73638 64.4524 4.66029 64.1471 4.73638C63.8227 4.81247 63.7655 4.83149 63.422 4.88856C63.0404 4.9266 62.7352 4.98366 62.3726 5.07877C62.0483 5.15486 61.7048 5.1929 61.4186 5.28801C61.2088 5.34508 60.9798 5.44019 60.8462 5.6304C60.7318 5.70649 60.6364 5.89671 60.56 6.0679C60.5219 6.16301 60.5028 6.2391 60.4646 6.31519C60.1403 7.51356 59.835 8.74997 59.4725 9.92932C59.2626 10.6712 58.8047 12.0978 58.6139 12.8396C58.4421 13.5244 58.2132 14.1712 58.0605 14.875C57.8507 15.6929 57.6217 16.5108 57.4309 17.3288C57.3927 17.4809 57.2783 17.9755 57.0875 17.9755H57.0684C56.9921 17.9565 56.7822 17.8804 56.6486 17.8614L56.5341 17.8424C55.9999 17.7853 55.9999 17.5951 55.6565 17.2146C55.313 16.8532 54.7978 16.2255 54.7978 15.7119C54.7978 15.2364 55.1222 14.8559 55.2176 14.3804C55.4466 13.182 55.6946 12.0598 55.9808 10.8424C56.2098 9.94834 56.4578 9.05432 56.7059 8.17932C56.7822 7.91301 57.0493 7.15214 57.0493 6.63856C57.0493 6.42932 57.0111 6.27714 56.8967 6.22008C56.7249 6.10595 56.3624 6.0679 55.9999 6.0679C55.3893 6.0679 54.6643 6.16301 54.3399 6.22008C53.9392 6.29616 53.4813 6.39127 53.1188 6.42932C53.0425 6.46736 52.9471 6.46736 52.8898 6.46736C52.5464 6.46736 52.4128 6.33421 52.4128 6.12497C52.4128 5.91573 52.5273 5.64942 52.6609 5.40214C52.8898 5.00269 52.9471 4.79345 52.9471 4.35595V4.24182C52.9471 3.76627 53.2714 3.74725 53.6721 3.55703C54.111 3.34779 54.4163 3.30975 54.8933 3.23366L54.9696 3.21464C55.1795 3.1766 55.3893 3.13856 55.5801 3.11953C56.3243 2.96736 57.0493 2.87225 57.7743 2.75812C58.0415 2.7391 58.2704 2.70106 58.5185 2.68203Z" fill="#00E58D"/>
<path d="M61.4569 17.7471C61.4188 17.6901 61.3806 17.5949 61.3806 17.4998V17.4428C61.3806 16.9102 61.7241 15.9971 61.7241 15.9971C61.9912 15.5786 62.3346 14.3613 62.3919 13.9238C62.4682 13.4292 62.4873 13.0107 62.6208 12.5161C62.6781 12.364 62.7162 12.1928 62.7735 12.0406C62.8879 11.7363 63.1169 11.5651 63.1932 11.2797C63.3649 10.652 63.4985 8.95908 63.8992 8.2743C63.9373 7.70364 64.2426 6.73354 64.3762 5.89658C64.5288 4.88843 64.4143 4.50799 64.8532 4.3368C65.292 4.1656 66.4941 3.69006 67.2764 3.59495C67.3908 3.57593 67.5053 3.57593 67.6007 3.57593C68.154 3.57593 68.383 3.82321 68.4212 4.43191V4.52701C68.4212 4.85038 68.383 5.26886 68.2685 5.76343C67.8488 5.80147 67.8297 6.39115 67.8297 6.90473C67.8297 7.34223 67.5435 7.96995 67.2382 8.35038C67.1237 8.48354 66.7039 9.87212 66.6658 10.0243C66.6276 10.1765 66.5704 10.1955 66.5704 10.2906V10.3286C66.5704 10.3667 66.5895 10.4238 66.5895 10.4808L66.6658 10.7852C66.6658 10.8803 66.6276 10.9944 66.5132 11.1466C65.7309 12.364 66.0743 13.0678 65.6545 14.2852C65.6736 14.3042 65.6736 14.3042 65.6736 14.3422V14.3613C65.6736 14.8939 64.7387 18.0134 64.5479 18.0134C64.1472 18.0515 63.5367 18.1276 62.9452 18.1276C62.3346 18.1466 61.7431 18.0515 61.4569 17.7471Z" fill="#00E58D"/>
<path d="M69.3942 18.8315C68.9554 18.6603 67.9441 17.9565 67.6579 17.6141C67.4671 17.3859 67.4099 17.1957 67.4099 16.9293C67.429 16.3777 67.9441 15.0272 68.0968 14.4755C68.2685 13.7147 68.383 13.125 68.6692 12.4212C68.7646 12.1549 68.8028 11.7364 68.86 11.4321C68.9554 11.0136 69.0699 10.6141 69.1653 10.1957C69.2034 10.0625 69.2988 9.68207 69.2988 9.56794C69.3942 8.84511 69.8331 7.32337 70.043 6.50543C70.1384 6.02989 70.5009 3.97554 70.9016 3.69022C71.0733 3.59511 71.2832 3.55707 71.493 3.55707C72.0464 3.55707 72.6951 3.84239 73.1339 4.05163C74.1261 4.52717 74.0879 5.23098 74.1261 6.16304C74.1452 6.84783 74.1452 7.49457 74.2215 8.19837C74.2787 8.76902 74.7939 14.3804 75.6334 14.3804C76.3203 14.3804 77.0263 10.9185 77.3125 10.1957C77.7513 9.11141 78.0375 7.81793 78.2474 6.65761C78.3619 5.9538 78.4954 5.40217 78.5908 4.62228C78.629 4.29891 78.629 4.05163 78.6862 3.70924C78.8961 2.58696 78.8961 1.75 78.9534 0.627717C78.9915 0.171196 79.0678 0 79.1632 0C79.3731 0 79.6593 0.703804 79.7929 1.02717C79.9455 1.44565 80.0982 2.28261 80.537 2.51087C80.9377 2.75815 80.9758 2.96739 80.9758 3.29076L80.9568 3.69022L80.9377 4.6413C80.9377 5.09783 80.9568 5.5163 81.0522 6.125C81.0712 6.27717 81.0903 6.42935 81.0903 6.60054C81.0903 7.62772 80.5942 8.75 80.4034 9.73913C80.3653 9.87228 80.3462 9.98641 80.3271 10.1196C79.8883 11.9457 79.2014 14.4375 78.2855 16.0734C77.7322 17.0245 76.2821 17.3478 75.3472 17.3478C75.061 17.3478 74.813 17.2908 74.4886 17.1957C73.7827 16.8533 73.3629 16.1875 73.0767 15.5217C72.8286 14.9511 71.9891 12.6875 71.6075 12.3641C71.5121 12.3261 71.5694 12.3451 71.474 12.3261C71.3213 12.3451 71.3213 12.6495 71.2832 12.7636C70.997 13.8668 70.8825 14.9511 70.5963 16.0924C70.4246 16.7962 70.3482 17.2908 70.2147 17.9946C70.1384 18.3179 70.0048 18.8886 69.585 18.8886C69.4706 18.8696 69.5278 18.8505 69.3942 18.8315Z" fill="#00E58D"/>
<path d="M88.646 19.4402C88.2262 19.212 87.5394 18.7554 87.3676 18.337C87.2913 18.1658 87.2722 17.9946 87.2722 17.8424C87.2722 17.4429 87.4249 17.0625 87.4821 16.625L87.5012 16.4728C87.5394 16.1114 87.7683 15.0272 88.0545 14.1141C88.169 13.7147 88.3026 13.3342 88.3026 12.9158C88.2835 12.6114 88.1308 12.3832 87.6729 12.3832C87.1768 12.3832 86.4327 12.6304 86.0893 12.7446C85.0017 13.0679 84.83 13.106 84.353 14.1522C83.876 15.2364 83.5898 16.4538 83.1128 17.481C83.0555 17.5951 82.922 17.6332 82.7693 17.6332C82.5595 17.6332 82.3305 17.5571 82.216 17.5C81.7199 17.2527 80.8613 16.5679 80.8613 15.9783C80.8613 15.6929 80.9758 15.2935 81.0521 15.0272C81.2238 14.3043 81.5482 13.3342 81.5482 12.6685C81.5482 12.4212 81.491 12.231 81.3765 11.9647C81.2239 11.6984 80.9949 11.4701 80.9949 11.1658C80.9949 11.0897 81.014 11.0136 81.033 10.9375C81.1094 10.8234 81.2048 10.7473 81.3383 10.6902C82.1969 10.2337 82.3305 10.1957 82.6739 9.22554C83.0937 7.875 83.4371 6.79076 83.7043 5.38315C83.8378 4.69837 84.2003 4.41304 84.6583 4.41304C85.6313 4.41304 86.738 5.59239 86.738 6.54348C86.738 7.30435 86.2419 8.00815 86.2419 8.71196C86.2419 9.14946 86.4327 9.41576 86.9288 9.43478C87.3676 9.43478 87.94 9.33967 88.4934 9.26359C88.7223 9.24456 89.2184 9.09239 89.3901 8.9212C89.8099 8.50272 89.8862 8.0462 90.0388 7.6087C90.1342 7.30435 90.2296 6.94293 90.3441 6.65761C90.4395 6.46739 90.7448 5.5163 91.0501 4.56522C91.3935 3.5 91.8133 2.39674 92.1377 1.35054C92.2712 0.913043 92.1758 0.665761 92.7101 0.475543C92.7673 0.456522 92.8245 0.4375 92.9009 0.4375C93.2634 0.4375 93.7595 0.722826 93.9884 0.932065C94.122 1.08424 94.2746 1.36957 94.3891 1.55978C94.6753 2.07337 95.0951 2.49185 95.0951 2.94837C95.0951 3.15761 95.0378 3.36685 94.9997 3.61413C94.9806 3.78533 94.9615 3.9375 94.9233 4.1087C94.9043 4.22283 94.8661 4.39402 94.8089 4.50815C94.7135 4.66033 94.2365 6.41033 94.1411 6.67663C93.893 7.36141 93.0726 9.37772 93.0726 10.4049C93.0726 10.5761 93.0917 10.7283 93.1489 10.8234C93.2825 11.0897 93.8549 11.6984 93.8549 12.0217C93.8549 12.4973 92.7482 12.1359 92.3094 12.4592C91.8324 12.8207 91.8896 13.3533 91.5271 13.9239C91.4317 14.1902 91.3172 14.6658 91.2218 14.9701C90.9738 15.788 90.7448 16.587 90.4586 17.4049C90.306 17.8234 89.9625 19.3261 89.6954 19.5734C89.6 19.6495 89.5046 19.6875 89.3901 19.6875C89.1039 19.6875 88.8368 19.5353 88.646 19.4402Z" fill="#00E58D"/>
<path d="M101.144 4.90775C100.419 4.90775 99.4454 5.38329 99.0448 5.59253C98.6441 5.82079 97.8618 6.39144 97.194 6.39144C96.9459 6.39144 96.717 6.31536 96.5262 6.10612C96.4308 6.01101 96.3735 5.87786 96.3735 5.7447C96.3735 5.34525 96.6979 4.88873 96.8696 4.66046C97.2703 4.12786 97.5756 3.89959 98.1862 3.53818C98.2625 3.50014 98.3388 3.44307 98.4151 3.42405L98.5678 3.34796C99.1402 3.10068 99.6935 2.96753 100.228 2.96753C100.857 2.96753 101.506 3.13873 102.25 3.48112C103.376 4.01373 105.036 5.19307 105.437 6.22025C105.551 6.58166 105.608 6.92405 105.608 7.28546C105.608 7.4947 105.589 7.70394 105.57 7.89416L105.551 8.17949C105.475 8.59796 105.398 8.9784 105.379 9.4159C105.284 10.6143 104.845 11.0898 104.616 12.136C104.273 13.5436 103.338 15.2936 102.441 16.492C102.231 16.7773 102.021 17.0246 101.754 17.2529C101.124 17.7474 100.457 17.9567 99.7889 17.9567C98.9684 17.9567 98.1289 17.6523 97.2321 17.1197C94.9998 15.7692 94.4846 14.6849 94.4846 13.1442C94.4846 12.5735 94.5609 11.9458 94.6373 11.2039C94.7136 10.5762 94.8281 10.1387 94.9807 9.54905C95.1333 8.8072 95.3814 6.88601 96.5643 6.88601C96.6788 6.88601 96.7933 6.90503 96.9078 6.92405C97.8809 7.20938 99.2165 7.87514 99.2165 8.82622C99.2165 8.94036 99.2165 9.05449 99.1783 9.16862C98.9875 9.77731 98.873 10.1958 98.6059 10.7855C98.1671 11.7175 98.1671 12.5545 97.919 13.5056C97.8427 13.7529 97.8236 14.0001 97.8236 14.2474C97.8236 14.5327 97.8809 14.8371 97.9954 15.1414C98.0717 15.3126 98.1671 15.3697 98.3006 15.3697C98.7586 15.3697 99.4264 14.3806 99.5408 14.1904C99.827 13.7148 100.056 13.2012 100.285 12.7067C100.533 12.1741 100.647 11.7746 100.819 11.223C100.991 10.5952 101.334 10.2148 101.487 9.51101C101.735 8.31264 101.964 7.78003 101.964 6.63873C101.964 6.48655 101.964 6.33438 101.945 6.16318C101.926 5.83981 101.964 5.3072 101.697 5.0409C101.544 4.96481 101.353 4.90775 101.144 4.90775Z" fill="#00E58D"/>
<path d="M1.98433 43.5598C1.54549 43.3886 0.534242 42.6848 0.248041 42.3424C0.0763203 42.0951 0 41.9239 0 41.6386C0.0190801 41.087 0.534242 39.7364 0.686882 39.1848C0.858603 38.4239 0.973083 37.8343 1.25928 37.1304C1.35468 36.8641 1.39284 36.4457 1.45009 36.1413C1.54549 35.7228 1.65997 35.3234 1.75537 34.9049C1.79353 34.7718 1.88893 34.3913 1.88893 34.2772C1.98433 33.5544 2.42317 32.0326 2.63305 31.2147C2.72845 30.7391 3.09097 28.6848 3.49165 28.3995C3.66337 28.3044 3.87325 28.2663 4.08313 28.2663C4.63646 28.2663 5.28518 28.5516 5.72402 28.7609C6.71618 29.2364 6.67802 29.9402 6.71618 30.8723C6.73526 31.5571 6.73526 32.2038 6.81158 32.9076C6.86882 33.4783 7.38399 39.0897 8.22351 39.0897C8.91039 39.0897 9.61635 35.6277 9.90256 34.9049C10.3414 33.8207 10.6276 32.5272 10.8375 31.3669C10.952 30.6631 11.0855 30.1114 11.1809 29.3315C11.2191 29.0082 11.2191 28.7609 11.2763 28.4185C11.4862 27.2962 11.4862 26.4592 11.5434 25.337C11.6007 24.8995 11.677 24.7283 11.7724 24.7283C11.9823 24.7283 12.2685 25.4321 12.402 25.7554C12.5547 26.1739 12.7073 27.0109 13.1462 27.2391C13.5468 27.4864 13.585 27.6957 13.585 28.019L13.5659 28.4185L13.5468 29.3696C13.5468 29.8261 13.5659 30.2446 13.6613 30.8533C13.6804 31.0054 13.6995 31.1576 13.6995 31.3288C13.6995 32.356 13.2034 33.4783 13.0126 34.4674C12.9744 34.6006 12.9554 34.7147 12.9363 34.8478C12.4974 36.6739 11.8106 39.1658 10.8947 40.8016C10.3414 41.7527 8.89131 42.0761 7.95639 42.0761C7.67019 42.0761 7.42215 42.019 7.09779 41.9239C6.39182 41.5815 5.97206 40.9158 5.68586 40.25C5.43782 39.6794 4.5983 37.4158 4.2167 37.0924C4.12129 37.0544 4.17853 37.0734 4.08313 37.0544C3.93049 37.0734 3.93049 37.3777 3.89233 37.4919C3.60613 38.5951 3.49165 39.6794 3.20545 40.8207C3.03373 41.5245 2.95741 42.019 2.82385 42.7228C2.74753 43.0462 2.61397 43.6169 2.19421 43.6169C2.06065 43.5978 2.11789 43.5788 1.98433 43.5598Z" fill="#00E58D"/>
<path d="M20.8545 29.636C20.1295 29.636 19.1564 30.1116 18.7557 30.3208C18.355 30.5491 17.5727 31.1197 16.9049 31.1197C16.6569 31.1197 16.4279 31.0436 16.2371 30.8344C16.1417 30.7393 16.0845 30.6061 16.0845 30.473C16.0845 30.0735 16.4088 29.617 16.5806 29.3887C16.9812 28.8561 17.2865 28.6279 17.8971 28.2665C17.9734 28.2284 18.0497 28.1713 18.1261 28.1523L18.2787 28.0762C18.8511 27.829 19.4044 27.6958 19.9387 27.6958C20.5683 27.6958 21.217 27.867 21.9611 28.2094C23.0869 28.742 24.7468 29.9213 25.1475 30.9485C25.262 31.3099 25.3192 31.6523 25.3192 32.0137C25.3192 32.223 25.3002 32.4322 25.2811 32.6224L25.2429 32.9078C25.1666 33.3262 25.0903 33.7067 25.0712 34.1442C24.9758 35.3425 24.537 35.8181 24.308 36.8643C23.9646 38.2719 23.0296 40.0219 22.1329 41.2203C21.923 41.5056 21.7131 41.7529 21.446 41.9811C20.8354 42.4757 20.1676 42.6849 19.4998 42.6849C18.6794 42.6849 17.8399 42.3806 16.9431 41.848C14.7107 40.4974 14.1956 39.4132 14.1956 37.8724C14.1956 37.3018 14.2719 36.6741 14.3482 35.9322C14.4245 35.3045 14.539 34.867 14.6916 34.2773C14.8443 33.5355 15.0923 31.6143 16.2753 31.6143C16.3898 31.6143 16.5042 31.6333 16.6187 31.6523C17.5918 31.9376 18.9274 32.6034 18.9274 33.5545C18.9274 33.6496 18.9083 33.7637 18.8893 33.8779C18.6985 34.4866 18.584 34.905 18.3169 35.4947C17.878 36.4268 17.878 37.2637 17.63 38.2148C17.5536 38.4621 17.5346 38.7094 17.5346 38.9567C17.5346 39.242 17.5918 39.5463 17.7063 39.8507C17.7826 40.0219 17.878 40.079 18.0116 40.079C18.4695 40.079 19.1373 39.0898 19.2518 38.8996C19.538 38.4241 19.7669 37.9105 19.9959 37.4159C20.2439 36.8833 20.3584 36.4838 20.5301 35.9322C20.7019 35.3045 21.0453 34.9241 21.1979 34.2203C21.446 33.0219 21.6749 32.4893 21.6749 31.348C21.6749 31.1958 21.6749 31.0436 21.6559 30.8724C21.6368 30.5491 21.6749 30.0165 21.4078 29.7501C21.2552 29.6931 21.0644 29.636 20.8545 29.636Z" fill="#00E58D"/>
<path d="M34.0962 40.4403C33.8481 40.0028 33.5619 39.6413 33.3139 39.1658C33.0468 38.6712 32.8751 38.2337 32.8369 37.7011C32.7033 36.1033 33.2185 33.9348 33.6764 32.6223C33.9054 31.9566 34.1725 31.3098 34.4396 30.6631C35.1837 28.9511 35.6226 28.2473 36.5194 27.3152C37.3016 26.5163 38.0839 26.0598 38.6182 26.0598C39.6103 26.231 40.6788 27.3913 41.4039 28.3234C42.4914 29.75 43.2165 30.625 42.4342 32.3941C42.2625 32.8125 41.6328 34.4294 41.1367 34.4484C40.717 34.4674 39.9538 34.0299 39.5722 33.8397C39.4958 33.7636 39.4195 33.6114 39.3432 33.5163C39.2669 33.4212 39.1715 33.2881 39.1715 33.1739C39.1715 33.0979 39.1906 33.0218 39.2096 32.9647C39.305 32.6033 39.5722 32.2229 39.7057 31.8234C39.782 31.5951 39.8202 31.4049 39.8393 31.1576C39.8584 30.9484 39.8584 30.7392 39.8202 30.5299L39.782 30.2256C39.6294 29.6739 39.0379 29.9783 38.8471 30.4348C38.5418 31.462 38.9044 30.9674 38.1793 31.8805C37.4161 32.8696 37.0727 34.0109 36.8628 35.2283C36.8437 35.3424 36.6338 35.5897 36.5575 35.6848C35.9851 36.693 36.0996 37.9294 35.8516 39.0136C35.7562 39.4321 35.6989 40.2881 36.2713 40.3642C37.9122 40.4402 38.6563 39.5843 39.8011 38.5761C40.1636 38.2528 40.8315 37.587 41.194 37.3587C41.6137 37.568 41.2321 38.8044 41.0795 39.1468C40.6597 40.0408 40.3354 40.3261 40.0682 41.3723C39.763 42.6468 39.4195 42.9131 38.2556 43.4457C37.4543 43.7881 36.9582 43.2745 36.2904 42.818C36.0614 42.6468 35.8325 42.4756 35.6035 42.2854C35.2601 41.962 34.9929 41.6576 34.7067 41.2962C34.4587 40.9729 34.3251 40.8207 34.0962 40.4403Z" fill="#00E58D"/>
<path d="M49.6655 29.636C48.9405 29.636 47.9674 30.1116 47.5667 30.3208C47.166 30.5491 46.3838 31.1197 45.716 31.1197C45.4679 31.1197 45.239 31.0436 45.0482 30.8344C44.9528 30.7393 44.8955 30.6061 44.8955 30.473C44.8955 30.0735 45.2199 29.617 45.3916 29.3887C45.7923 28.8561 46.0976 28.6279 46.7081 28.2665C46.7844 28.2284 46.8608 28.1713 46.9371 28.1523L47.0897 28.0762C47.6621 27.829 48.2154 27.6958 48.7497 27.6958C49.3793 27.6958 50.0281 27.867 50.7722 28.2094C51.8979 28.742 53.5579 29.9213 53.9585 30.9485C54.073 31.3099 54.1303 31.6523 54.1303 32.0137C54.1303 32.223 54.1112 32.4322 54.0921 32.6224L54.0539 32.9078C53.9776 33.3262 53.9013 33.7067 53.8822 34.1442C53.7868 35.3425 53.348 35.8181 53.119 36.8643C52.7756 38.2719 51.8407 40.0219 50.9439 41.2203C50.734 41.5056 50.5241 41.7529 50.257 41.9811C49.6465 42.4757 48.9786 42.6849 48.3108 42.6849C47.4904 42.6849 46.6509 42.3806 45.7541 41.848C43.5218 40.4974 43.0066 39.4132 43.0066 37.8724C43.0066 37.3018 43.0829 36.6741 43.1592 35.9322C43.2356 35.3045 43.35 34.867 43.5027 34.2773C43.6553 33.5355 43.9034 31.6143 45.0863 31.6143C45.2008 31.6143 45.3153 31.6333 45.4298 31.6523C46.4028 31.9376 47.7384 32.6034 47.7384 33.5545C47.7384 33.6496 47.7194 33.7637 47.7003 33.8779C47.5095 34.4866 47.395 34.905 47.1279 35.4947C46.689 36.4268 46.689 37.2637 46.441 38.2148C46.3647 38.4621 46.3456 38.7094 46.3456 38.9567C46.3456 39.242 46.4028 39.5463 46.5173 39.8507C46.5936 40.0219 46.689 40.079 46.8226 40.079C47.2805 40.079 47.9483 39.0898 48.0628 38.8996C48.349 38.4241 48.578 37.9105 48.8069 37.4159C49.055 36.8833 49.1695 36.4838 49.3412 35.9322C49.5129 35.3045 49.8563 34.9241 50.009 34.2203C50.257 33.0219 50.486 32.4893 50.486 31.348C50.486 31.1958 50.486 31.0436 50.4669 30.8724C50.4478 30.5491 50.486 30.0165 50.2189 29.7501C50.0662 29.6931 49.8754 29.636 49.6655 29.636Z" fill="#00E58D"/>
<path d="M56.6297 32.7555C56.687 32.5843 57.0304 31.5762 57.0304 31.3669V31.3289C56.2863 30.6441 55.3132 30.2446 55.3132 29.6169C55.3132 29.3126 55.5422 28.9321 56.1909 28.4376C56.8778 27.8859 57.7364 27.2202 58.5568 26.8778C59.6062 26.4403 60.6556 26.0979 61.8195 26.0979C61.9721 26.0979 62.1057 26.0979 62.2583 26.1169C64.319 26.6305 65.9599 27.8289 66.7231 29.9593C66.8566 30.3397 66.933 30.6631 66.933 30.9675C66.933 31.462 66.7612 31.8805 66.5132 32.4321C66.4369 32.5653 66.3796 32.6794 66.3033 32.8316C66.0744 33.193 65.8263 33.5354 65.5783 33.8588C65.2539 34.2963 64.8914 34.6767 64.5098 35.0762C63.5749 36.0463 62.8307 36.5408 61.8577 37.3778C61.4188 37.7772 61.2471 38.1006 61.2471 38.3669C61.2471 39.1088 62.6209 39.3751 63.5749 39.6414C64.1091 39.7745 65.8072 40.0028 65.9599 40.0789C66.0553 40.1359 66.0934 40.212 66.0934 40.3071C66.0934 40.7637 65.0822 41.4865 64.8151 41.6957C64.3381 42.0381 63.8801 42.1713 63.4413 42.1713C62.7926 42.1713 62.1629 41.8859 61.4379 41.5816L61.1899 41.4675C60.5793 41.1821 58.8239 40.2501 58.2515 40.2501H58.1943C57.5837 40.5544 57.4692 43.4077 57.0495 43.5789C57.0113 43.5979 56.9732 43.5979 56.9159 43.5979C56.2481 43.5979 54.779 42.0952 54.5691 41.6196C54.4927 41.4484 54.4546 41.2582 54.4546 41.087C54.4546 40.4403 54.8934 39.8126 54.9888 39.0897C55.0651 38.5381 55.3132 38.0055 55.4277 37.3968C55.5231 36.9593 55.6185 36.5218 55.733 36.0843L56.1718 34.5055C56.3626 33.9539 56.4962 33.3452 56.6297 32.7555ZM59.3582 29.693C59.2055 29.8071 59.072 29.8262 58.843 29.9974C58.7476 30.0925 58.4042 30.5109 58.4042 30.7582C58.4042 30.8153 58.4232 30.8533 58.4423 30.8914C58.5377 30.9865 58.6904 31.1767 58.8621 31.2718C59.2628 31.5571 59.8733 32.0137 59.8924 32.5463V32.6224C59.8924 32.8126 59.8161 33.0599 59.7779 33.2501C59.7016 33.5544 59.6253 33.8207 59.549 34.1251C59.4726 34.4294 59.3963 34.6957 59.32 35.0001C59.2628 35.2093 59.2437 35.3615 59.2437 35.4566C59.2437 35.5707 59.2818 35.6278 59.3391 35.6278C59.5108 35.6278 59.8924 35.2664 60.274 34.962L60.3503 34.8859H60.3694C61.934 33.6495 63.7466 31.7854 64.2999 29.7691C64.3381 29.6169 64.3762 29.4838 64.3762 29.3696C64.3762 29.2555 64.3571 29.1224 64.2999 28.9702C64.2236 28.799 63.9374 28.5327 63.7466 28.4756C63.5558 28.4186 63.3459 28.3995 63.1169 28.3995C62.4491 28.3995 61.6859 28.5897 61.1708 28.7609C60.9418 28.837 60.7319 28.9131 60.522 28.9892C60.026 29.1604 59.797 29.3696 59.3582 29.693Z" fill="#00E58D"/>
<path d="M67.5435 37.0735C67.6961 36.9023 67.6961 36.636 67.8297 36.4077C68.0395 36.0844 68.3639 35.9893 68.3639 35.5518V35.4566C68.3639 35.2855 68.4402 35.4376 68.5547 35.2094C68.7264 34.867 68.8218 34.6197 68.86 34.2012C68.9172 33.6876 69.2416 33.992 69.3179 33.4023C69.3561 33.0599 69.4133 32.9458 69.5278 32.6605C69.7186 32.242 69.9666 31.8615 70.1574 31.424C70.2719 31.1387 70.4818 30.8534 70.6535 30.5871C70.7489 30.3969 70.8825 30.2067 70.9779 30.0164C71.4358 29.1224 71.951 28.5708 72.6188 27.886C73.6109 26.8208 74.2406 26.3643 74.7748 26.3643C74.9274 26.3643 75.0419 26.4023 75.1755 26.4594C75.767 26.7066 76.3012 27.1251 76.8164 27.5817C76.9308 27.6768 77.0453 27.7528 77.1789 27.867C77.7513 28.2664 77.8085 28.8181 77.8848 29.3887L77.9039 29.4268C77.9612 29.9213 77.9802 30.4159 77.9802 30.8914C77.9802 31.348 77.9803 31.8425 77.9612 32.299C77.9612 32.7365 77.923 32.8317 77.8658 32.8317C77.8276 32.8317 77.7894 32.7746 77.7704 32.7746L77.7513 32.7936V32.8126C77.7513 32.8697 77.8085 33.0409 77.8085 33.136C77.7894 33.5355 77.7322 33.7447 77.7322 34.03C77.7322 34.1822 77.7513 34.3344 77.8085 34.5626C77.8085 34.5817 77.7131 34.6768 77.675 34.848C77.4269 35.8561 77.5033 36.9784 77.2552 38.0626C77.1789 38.367 77.1789 38.6333 77.1789 38.9186V39.5273C77.1789 39.7365 77.1789 39.9458 77.1407 40.155C77.1216 40.3643 77.1026 40.5164 77.0835 40.7257C77.0644 41.011 77.0453 41.1251 76.9499 41.3534C76.9118 41.4675 76.8736 41.6007 76.8736 41.7719C76.8736 42.0001 76.9118 42.2664 76.9118 42.5137C76.9118 42.6088 76.8927 42.723 76.8927 42.8181C76.7973 43.4268 76.8354 43.7501 76.4538 43.7501C76.3203 43.7501 76.1486 43.7121 75.8814 43.636C75.1182 43.3887 73.6491 42.3045 73.6491 41.2583C73.6491 41.011 73.6872 40.7637 73.7063 40.5355C73.7254 40.2501 73.7826 39.9648 73.7826 39.6795C73.7826 39.223 73.6491 38.8235 73.0576 38.6333C72.8477 38.5952 72.6569 38.5572 72.447 38.5572C71.7601 38.5572 71.0923 38.8235 70.7871 39.4893C70.5009 40.136 70.5581 39.8887 70.1765 40.3833C69.8521 40.9159 69.9285 41.5817 69.7186 42.2094C69.4705 42.9322 69.5469 43.598 69.3561 44.1115C69.2797 44.3018 69.1843 44.3588 69.0699 44.3588C68.8981 44.3588 68.6883 44.2067 68.4211 44.0735C67.6579 43.655 66.5895 42.8181 66.5895 41.8099C66.5895 41.6958 66.6085 41.5626 66.6276 41.4485C66.7421 41.03 66.7993 40.7827 66.7993 40.5925C66.7993 40.155 66.4368 40.2882 65.7118 39.5273C65.3492 39.1469 65.2348 38.8996 65.1584 38.405V38.386C65.1584 38.1007 65.6354 37.9865 65.8644 37.8724C66.0743 37.7773 66.2842 37.6632 66.494 37.5871C66.7993 37.473 67.3336 37.2827 67.5435 37.0735ZM74.3932 34.5436C74.5458 34.2012 74.6222 33.6496 74.6412 33.2311V32.9838C74.6222 32.8697 74.6222 32.7556 74.6222 32.6605C74.6222 32.5273 74.6222 32.3942 74.6412 32.242C74.6603 31.8425 74.6603 31.5001 74.6794 31.1197C74.6985 31.0817 74.6985 30.9105 74.6985 30.7773C74.6985 30.6442 74.6794 30.53 74.6222 30.511H74.6031C74.3169 30.511 73.8208 31.405 73.6872 31.6333C73.63 31.7284 73.5728 31.8045 73.5155 31.9186C73.3438 32.223 73.1339 32.5083 72.9622 32.8126C72.8096 33.098 72.6187 33.2882 72.4279 33.5545C72.2753 33.7637 71.8937 34.5056 71.8937 34.905C71.8937 34.9811 71.8937 35.0192 71.9128 35.0762C72.0273 35.3615 72.3135 35.4186 72.5806 35.4186C72.676 35.4186 72.7905 35.3996 72.8668 35.3996C73.2102 35.3996 73.6872 35.3615 73.9353 35.1903L73.9544 35.1713C74.0688 35.0572 74.355 34.6387 74.3932 34.5436Z" fill="#00E58D"/>
<path d="M81.8725 42.9891C81.7961 42.9321 81.7198 42.875 81.6435 42.8179C81.4145 42.6468 81.1856 42.4756 80.9566 42.2853C80.6323 41.981 80.327 41.6576 80.0599 41.2962C80.0026 41.2201 79.9645 41.1821 79.9263 41.125C79.8309 41.0109 79.7546 40.8968 79.6783 40.8016C79.6019 40.7065 79.5256 40.5734 79.4302 40.4212C79.3157 40.231 79.2013 40.0408 79.0868 39.8696C78.9341 39.6413 78.7815 39.394 78.6479 39.1468C78.3808 38.6712 78.2282 38.1957 78.1709 37.6821C78.1137 36.8451 78.19 35.9701 78.3808 35.0381C78.5525 34.106 78.7815 33.2881 79.0105 32.6033C79.2394 31.9375 79.5065 31.2908 79.7737 30.644C80.1362 29.8071 80.4605 29.1413 80.7658 28.6658C81.0711 28.1902 81.4336 27.7337 81.8534 27.2962C82.6738 26.4783 83.3798 26.0598 83.9522 26.0408C84.4483 26.1549 84.9634 26.4402 85.4595 26.8968C85.9556 27.3533 86.3754 27.8288 86.7379 28.3044L86.776 28.3804C87.3294 29.0462 87.73 29.6549 87.959 30.2446C88.188 30.8342 88.1307 31.5571 87.7491 32.394C87.73 32.4511 87.711 32.5082 87.6728 32.5842C87.5774 32.7935 87.4629 33.0408 87.3294 33.3261C87.1958 33.6114 87.0432 33.8777 86.8905 34.087C86.7379 34.3152 86.5852 34.4484 86.4517 34.4484C86.2418 34.4484 86.0128 34.3723 85.7266 34.2582C85.4404 34.144 85.1924 34.0109 84.9825 33.8967C84.9444 33.8777 84.9253 33.8587 84.8871 33.8397C84.8108 33.7636 84.7536 33.6685 84.6963 33.5734C84.6772 33.5544 84.6772 33.5353 84.6582 33.5163C84.6391 33.4973 84.6391 33.4783 84.62 33.4593C84.5818 33.4212 84.5437 33.3641 84.5246 33.3071C84.4864 33.269 84.4864 33.212 84.4864 33.1549C84.4864 33.0978 84.5055 33.0408 84.5246 32.9837V32.9457C84.5818 32.7364 84.6772 32.5462 84.7917 32.337C84.8871 32.1658 84.9634 31.9946 85.0207 31.8044C85.097 31.5951 85.1352 31.3669 85.1542 31.1386C85.1733 30.9294 85.1733 30.7201 85.1352 30.5109L85.097 30.2065C85.0398 30.0353 84.9444 29.9212 84.8299 29.9212C84.7154 29.9212 84.5818 29.9402 84.4674 30.0353C84.3529 30.1304 84.2384 30.2636 84.1812 30.4158C84.0858 30.7391 84.0285 30.9484 84.0285 31.0435C84.0094 31.1196 84.0094 31.1576 83.9904 31.2147C83.9713 31.2717 83.9331 31.3098 83.8759 31.3859C83.8186 31.462 83.7232 31.5951 83.5897 31.7663C83.5515 31.8044 83.5324 31.8424 83.5134 31.8614C83.1318 32.356 82.8455 32.8886 82.6547 33.4402C82.4449 34.0109 82.3113 34.6006 82.2159 35.2093C82.1968 35.2663 82.1777 35.3234 82.1205 35.3804C82.0633 35.4565 82.006 35.5326 81.9488 35.5897C81.9297 35.6277 81.9106 35.6468 81.8915 35.6658C81.7007 36.0082 81.5863 36.3506 81.5099 36.712C81.4336 37.0734 81.3955 37.4538 81.3573 37.8152C81.3191 38.2147 81.2619 38.6141 81.1856 38.9946C81.1474 39.1468 81.1474 39.2989 81.1283 39.5082C81.1093 39.7174 81.1474 39.8886 81.2237 40.0598C81.3001 40.231 81.4145 40.3261 81.6053 40.3641C82.3304 40.3832 82.9219 40.25 83.3798 39.9647C83.8377 39.6794 84.3147 39.337 84.7726 38.8804C84.8871 38.7853 85.0016 38.6712 85.1161 38.5761C85.2306 38.462 85.4023 38.3288 85.5549 38.1576C85.7266 38.0054 85.8984 37.8533 86.0701 37.7011C86.2418 37.5489 86.3754 37.4348 86.4898 37.3397C86.6234 37.4158 86.6997 37.587 86.6806 37.8152C86.6616 38.0435 86.6425 38.2908 86.5662 38.5571C86.4898 38.8044 86.4135 38.9946 86.3563 39.1277C86.2036 39.4321 86.0701 39.6794 85.9556 39.8886C85.8411 40.0978 85.7266 40.3071 85.6312 40.5163C85.5358 40.7446 85.4214 41.0109 85.345 41.3533C85.2115 41.962 85.0207 42.3995 84.7726 42.6658C84.5437 42.9131 84.1812 43.1413 83.7041 43.3506C83.7232 43.3886 83.7232 43.4457 83.7232 43.4837C83.7232 43.5408 83.7041 43.5978 83.7041 43.6739C83.6851 43.75 83.666 43.8261 83.666 43.9022C83.666 43.9783 83.6278 44.0353 83.6278 44.0544C83.6278 44.0734 83.6088 44.1114 83.6088 44.1875C83.6088 44.2636 83.6278 44.3016 83.6278 44.3016H83.6469C83.6851 44.2826 83.7423 44.2636 83.8186 44.2256C83.895 44.2065 83.9904 44.1875 84.0858 44.1875C84.1812 44.1875 84.2575 44.1685 84.3147 44.1685C84.4292 44.1875 84.5437 44.1875 84.6582 44.2256C84.7726 44.2636 84.868 44.2826 84.9062 44.2826C84.9825 44.3016 85.1352 44.3777 85.345 44.5489C85.7076 44.8152 85.8793 45.1006 85.8793 45.3859L85.8602 45.481C85.8602 45.6332 85.822 45.7663 85.7648 45.8614L85.7076 46.0326C85.6312 46.2419 85.4977 46.4511 85.3069 46.6603C85.2115 46.7745 85.097 46.8886 84.9825 47.0027C84.8299 47.1169 84.6963 47.25 84.5628 47.4212C84.3338 47.6875 84.0858 47.9348 83.8186 48.144C83.6851 48.2582 83.5515 48.3913 83.418 48.5245C83.2653 48.6576 83.1318 48.7718 82.9791 48.8859C82.9219 48.9239 82.9028 48.962 82.8837 48.962V48.981L82.8646 48.962H82.8074C82.7883 48.962 82.7692 48.962 82.7692 48.962C82.7502 48.981 82.7501 48.981 82.7311 48.981L82.712 49C82.6738 49 82.6357 48.981 82.5784 48.962C82.4258 48.9049 82.2731 48.7908 82.1396 48.6196L82.0823 48.5435C82.0633 48.5054 82.0442 48.4864 82.0251 48.4674C81.9869 48.4294 81.9488 48.3723 81.9106 48.2582C81.8915 48.2201 81.8725 48.144 81.8343 47.9919C82.0251 47.8207 82.2159 47.6875 82.4067 47.5353C82.6738 47.3261 82.96 47.0978 83.2462 46.8506C83.666 46.4891 83.9713 46.1658 84.143 45.8614C84.3338 45.5761 84.4292 45.4239 84.4292 45.3669C84.4101 45.3478 84.391 45.3478 84.3529 45.3478C84.2575 45.3478 84.0667 45.4429 83.8377 45.6141C83.5133 45.8614 83.2653 45.9756 83.0936 45.9756C83.0173 45.9756 82.9219 45.9565 82.8455 45.8995C82.8074 45.8614 82.7311 45.8044 82.6357 45.6902C82.5403 45.5951 82.4639 45.5 82.3876 45.4049C82.3113 45.3098 82.235 45.2337 82.2159 45.1766C82.1777 45.0815 82.1396 44.9674 82.1396 44.8533C82.1396 44.7201 82.1587 44.5489 82.2159 44.3587L82.235 44.2065C82.2731 44.0163 82.3304 43.731 82.4449 43.3696C82.2731 43.2935 82.0633 43.1603 81.8725 42.9891Z" fill="#00E58D"/>
<path d="M89.5617 37.0734C89.7144 36.9022 89.7144 36.6359 89.8479 36.4077C90.0578 36.0843 90.3822 35.9892 90.3822 35.5517V35.4566C90.3822 35.2854 90.4585 35.4376 90.573 35.2093C90.7447 34.8669 90.8401 34.6196 90.8783 34.2012C90.9355 33.6876 91.2599 33.9919 91.3362 33.4022C91.3743 33.0599 91.4316 32.9457 91.5461 32.6604C91.7369 32.2419 91.9849 31.8615 92.1757 31.424C92.2902 31.1387 92.5001 30.8533 92.6718 30.587C92.7672 30.3968 92.9007 30.2066 92.9961 30.0164C93.4541 29.1224 93.9692 28.5707 94.637 27.8859C95.6292 26.8207 96.2588 26.3642 96.7931 26.3642C96.9457 26.3642 97.0602 26.4022 97.1938 26.4593C97.7852 26.7066 98.3195 27.1251 98.8346 27.5816C98.9491 27.6767 99.0636 27.7528 99.1972 27.8669C99.7696 28.2664 99.8268 28.818 99.9031 29.3887L99.9222 29.4267C99.9794 29.9213 99.9985 30.4158 99.9985 30.8914C99.9985 31.3479 99.9985 31.8425 99.9794 32.299C99.9794 32.7365 99.9413 32.8316 99.884 32.8316C99.8459 32.8316 99.8077 32.7745 99.7886 32.7745L99.7696 32.7936V32.8126C99.7696 32.8696 99.8268 33.0408 99.8268 33.1359C99.8077 33.5354 99.7505 33.7446 99.7505 34.03C99.7505 34.1821 99.7696 34.3343 99.8268 34.5626C99.8268 34.5816 99.7314 34.6767 99.6932 34.8479C99.4452 35.8561 99.5215 36.9783 99.2735 38.0626C99.1972 38.3669 99.1972 38.6332 99.1972 38.9186V39.5273C99.1972 39.7365 99.1972 39.9457 99.159 40.155C99.1399 40.3642 99.1208 40.5164 99.1018 40.7256C99.0827 41.0109 99.0636 41.1251 98.9682 41.3533C98.93 41.4675 98.8919 41.6006 98.8919 41.7718C98.8919 42.0001 98.93 42.2664 98.93 42.5137C98.93 42.6088 98.911 42.7229 98.911 42.818C98.8156 43.4267 98.8537 43.7501 98.4912 43.7501C98.3576 43.7501 98.1859 43.712 97.9188 43.6359C97.1556 43.3887 95.6864 42.3044 95.6864 41.2582C95.6864 41.0109 95.7246 40.7637 95.7437 40.5354C95.7627 40.2501 95.82 39.9648 95.82 39.6794C95.82 39.2229 95.6864 38.8234 95.0949 38.6332C94.8851 38.5952 94.6943 38.5571 94.4844 38.5571C93.7975 38.5571 93.1297 38.8234 92.8244 39.4892C92.5382 40.1359 92.5955 39.8887 92.2139 40.3832C91.8895 40.9158 91.9658 41.5816 91.7559 42.2093C91.5079 42.9321 91.5842 43.5979 91.3934 44.1115C91.3171 44.3017 91.2217 44.3588 91.1072 44.3588C90.9355 44.3588 90.7256 44.2066 90.4585 44.0734C89.6953 43.655 88.6268 42.818 88.6268 41.8099C88.6268 41.6957 88.6459 41.5626 88.665 41.4484C88.7794 41.03 88.8367 40.7827 88.8367 40.5925C88.8367 40.155 88.4742 40.2881 87.7491 39.5273C87.3866 39.1468 87.2721 38.8995 87.1958 38.405V38.3859C87.1958 38.1006 87.6728 37.9865 87.9018 37.8724C88.1116 37.7772 88.3215 37.6631 88.5314 37.587C88.8176 37.4729 89.3518 37.2827 89.5617 37.0734ZM96.4306 34.5436C96.5832 34.2012 96.6595 33.6495 96.6786 33.2311V32.9838C96.6595 32.8696 96.6595 32.7555 96.6595 32.6604C96.6595 32.5272 96.6595 32.3941 96.6786 32.2419C96.6977 31.8425 96.6977 31.5001 96.7167 31.1196C96.7358 31.0816 96.7358 30.9104 96.7358 30.7772C96.7358 30.6441 96.7168 30.53 96.6595 30.5109H96.6404C96.3542 30.5109 95.8581 31.405 95.7246 31.6332C95.6673 31.7283 95.6101 31.8044 95.5529 31.9186C95.3812 32.2229 95.1713 32.5082 94.9995 32.8126C94.8469 33.0979 94.6561 33.2881 94.4653 33.5544C94.3127 33.7637 93.9311 34.5055 93.9311 34.905C93.9311 34.9811 93.9311 35.0191 93.9501 35.0762C94.0646 35.3615 94.3508 35.4186 94.6179 35.4186C94.7133 35.4186 94.8278 35.3995 94.9041 35.3995C95.2476 35.3995 95.7246 35.3615 95.9726 35.1903L95.9917 35.1713C96.0871 35.0571 96.3733 34.6387 96.4306 34.5436ZM97.8043 24.0436C97.976 24.1387 98.3386 24.3289 98.5484 24.3289H98.5866C99.2735 24.2147 99.5597 23.7582 99.8459 23.7012C99.865 23.7012 99.884 23.6821 99.9222 23.6821C100.037 23.6821 100.075 23.7582 100.075 23.8533C100.075 24.1387 99.7123 24.7283 99.5978 24.8425C99.3498 25.1849 98.9873 25.5463 98.5866 25.6984C98.4912 25.7365 98.3767 25.7745 98.2813 25.7936C98.2241 25.8126 98.1859 25.8126 98.1287 25.8126C97.8234 25.8126 97.5754 25.6984 97.3082 25.5843C97.0984 25.4892 96.9648 25.3751 96.7549 25.299C96.545 25.2039 96.3924 25.1278 96.1825 25.0707C96.0871 25.0517 96.0108 25.0327 95.9536 25.0327C95.7818 25.0327 95.6101 25.0897 95.3812 25.1278L95.3048 25.1468L95.0949 25.1849C94.9232 25.2229 94.6943 25.299 94.4844 25.299C94.3127 25.299 94.1791 25.2419 94.1791 25.0517V24.9946C94.2745 24.5952 94.8469 24.0626 95.1903 23.7963C95.3621 23.6821 95.7246 23.549 95.9154 23.4919C95.9917 23.4729 96.068 23.4729 96.1443 23.4729C96.545 23.4729 96.9076 23.6821 97.251 23.8153L97.3464 23.8533C97.5563 23.8724 97.6517 23.9294 97.8043 24.0436Z" fill="#00E58D"/>
<path d="M107.497 29.636C106.772 29.636 105.799 30.1116 105.398 30.3208C104.998 30.5491 104.215 31.1197 103.548 31.1197C103.299 31.1197 103.071 31.0436 102.88 30.8344C102.784 30.7393 102.727 30.6061 102.727 30.473C102.727 30.0735 103.051 29.617 103.223 29.3887C103.624 28.8561 103.929 28.6279 104.54 28.2665C104.616 28.2284 104.692 28.1713 104.769 28.1523L104.921 28.0762C105.494 27.829 106.047 27.6958 106.581 27.6958C107.211 27.6958 107.86 27.867 108.604 28.2094C109.729 28.742 111.389 29.9213 111.79 30.9485C111.905 31.3099 111.962 31.6523 111.962 32.0137C111.962 32.223 111.943 32.4322 111.924 32.6224L111.886 32.9078C111.809 33.3262 111.733 33.7067 111.714 34.1442C111.618 35.3425 111.18 35.8181 110.951 36.8643C110.607 38.2719 109.672 40.0219 108.775 41.2203C108.566 41.5056 108.356 41.7529 108.089 41.9811C107.478 42.4757 106.81 42.6849 106.142 42.6849C105.322 42.6849 104.482 42.3806 103.586 41.848C101.353 40.4974 100.838 39.4132 100.838 37.8724C100.838 37.3018 100.914 36.6741 100.991 35.9322C101.067 35.3045 101.182 34.867 101.334 34.2773C101.487 33.5355 101.735 31.6143 102.918 31.6143C103.032 31.6143 103.147 31.6333 103.261 31.6523C104.234 31.9376 105.57 32.6034 105.57 33.5545C105.57 33.6496 105.551 33.7637 105.532 33.8779C105.341 34.4866 105.227 34.905 104.959 35.4947C104.521 36.4268 104.521 37.2637 104.273 38.2148C104.196 38.4621 104.177 38.7094 104.177 38.9567C104.177 39.242 104.234 39.5463 104.349 39.8507C104.425 40.0219 104.521 40.079 104.654 40.079C105.112 40.079 105.78 39.0898 105.894 38.8996C106.181 38.4241 106.41 37.9105 106.638 37.4159C106.887 36.8833 107.001 36.4838 107.173 35.9322C107.344 35.3045 107.688 34.9241 107.841 34.2203C108.089 33.0219 108.318 32.4893 108.318 31.348C108.318 31.1958 108.318 31.0436 108.298 30.8724C108.279 30.5491 108.318 30.0165 108.05 29.7501C107.898 29.6931 107.726 29.636 107.497 29.636Z" fill="#00E58D"/>
</svg>
