<svg width="188" height="7" viewBox="0 0 188 7" fill="none" xmlns="http://www.w3.org/2000/svg">
<path d="M2.74421 5.26419C4.97934 5.44471 7.2881 5.44632 9.53984 5.49146C14.4579 5.59155 19.3842 5.65672 24.3024 5.70439C30.4074 5.76824 36.5044 5.81022 42.6095 5.84786C49.8039 5.88831 57.0066 5.91568 64.2011 5.93866C72.0297 5.95891 79.8583 5.97042 87.687 5.96883C95.5806 5.96741 103.474 5.95725 111.376 5.934C118.807 5.90953 126.237 5.87633 133.667 5.82129C140.098 5.77676 146.529 5.71476 152.959 5.63092C157.845 5.56492 162.723 5.4858 167.601 5.34988C171.016 5.25824 174.479 5.17982 177.853 4.88712C178.813 4.80223 179.772 4.70423 180.716 4.57125C182.326 4.33951 184.148 3.97726 185.499 3.43031C186.134 3.1742 187.322 2.6312 187.055 2.09317C186.788 1.55077 185.293 1.38527 184.464 1.3438C182.724 1.25193 180.935 1.37836 179.252 1.61865C178.097 1.78604 181.155 1.42262 180.675 1.46506C180.48 1.48203 180.277 1.50335 180.081 1.52032C179.585 1.56272 179.089 1.59202 178.585 1.62129C178.447 1.62967 178.301 1.63803 178.163 1.64641C177.504 1.68403 180.52 1.53019 179.325 1.58826C178.984 1.60485 178.634 1.62142 178.293 1.63364C177.488 1.66651 176.675 1.69499 175.87 1.72348C171.415 1.86923 166.943 1.9494 162.48 2.02086C156.366 2.11863 150.261 2.18147 144.147 2.23119C136.928 2.29115 129.709 2.32927 122.49 2.35865C114.727 2.39099 106.963 2.40585 99.1993 2.41198C91.3463 2.41788 83.4851 2.41502 75.624 2.39905C68.2343 2.38431 60.8447 2.36082 53.4552 2.32423C47.0899 2.28156 40.7165 2.24323 34.3432 2.18742C29.4575 2.1442 24.5718 2.09225 19.6863 2.00971C19.2148 1.99976 18.7433 1.99417 18.2718 1.98421C17.4833 1.96907 20.0683 2.01944 19.3692 2.00452C19.2717 2.00427 19.1741 1.99965 19.0766 1.9994C18.8571 1.99446 18.6295 1.9895 18.41 1.98457C17.6215 1.96942 16.833 1.94991 16.0526 1.93042C14.9308 1.9013 13.809 1.87219 12.6873 1.81686C12.3622 1.80292 12.037 1.7846 11.7119 1.75755C10.062 1.62659 8.07793 1.80931 6.50025 2.0324C4.93883 2.25116 3.00306 2.62185 1.71718 3.17334C1.00913 3.47731 -0.122061 3.94182 0.160999 4.51047C0.427822 5.07034 1.91518 5.19651 2.74421 5.26419Z" fill="#00E58D"/>
</svg>
