<svg width="50" height="50" viewBox="0 0 50 50" fill="none" xmlns="http://www.w3.org/2000/svg">
<path d="M14.1613 12.5483V17.6774L32.9032 36.4193L33.1936 36.1935L35.8387 38.2903V32.5161L17.4194 14.0967L16.742 14.6451L14.1613 12.5483Z" fill="#00E58D"/>
<path d="M25 0C11.1935 0 0 11.2903 0 25C0 38.8065 11.1935 50 25 50C38.7097 50 50 38.8065 50 25C50 11.2903 38.7097 0 25 0ZM40.8387 37.4839L38.8064 35.4839V40.7419C38.8064 42.3548 37.0968 43.3226 35.8387 42.3548L35.5484 42.129C29.0968 46.129 20.871 46.2258 14.3226 42.1613L14.0645 42.3548C12.8387 43.2903 11.1613 42.2903 11.1613 40.7419V39.7419C11 39.5806 10.8065 39.4839 10.6452 39.3226C3.29032 31.9677 2.87097 20.4839 9.03226 12.6129L11.1613 14.7419V10.129C11.1613 8.64516 12.5484 7.80645 13.7097 8.3871C20.4839 3.87097 29.3871 3.74194 36.1936 8.35484C37.3548 7.83871 38.7419 8.67742 38.7419 10.129V10.4516C38.871 10.5806 39.0323 10.6774 39.1613 10.7742C46.5806 18.129 46.9677 29.6452 40.8387 37.4839Z" fill="#00E48C"/>
<path d="M32.9032 36.4195L29.0645 39.4195L24.9355 36.1615L20.8709 39.4195L16.7419 36.1615L14.1613 38.2582V17.6776L11.1935 14.7098V39.7098C12.1935 40.6453 13.2258 41.4195 14.3548 42.1292L16.7419 40.1615L19.1613 42.0647C20.1935 42.8711 21.5806 42.8711 22.6129 42.0647L25.0322 40.1615L27.3871 42.0647C28.4193 42.8711 29.8064 42.8711 30.8387 42.0647L33.258 40.1615L35.6129 42.0969C36.2258 41.7098 36.8709 41.355 37.4516 40.9034L32.9032 36.4195Z" fill="#404040"/>
<path d="M36.258 8.35493C36.129 8.38718 35.9677 8.38718 35.8387 8.48396L33.1935 10.5807L30.8064 8.77428C29.7742 7.96783 28.3871 7.96783 27.3548 8.77428L25 10.5807L22.5806 8.77428C22.0968 8.35493 21.4839 8.16138 20.871 8.16138C20.1935 8.16138 19.6451 8.35493 19.1613 8.77428L16.7419 10.5807L14.0968 8.48396C14 8.41944 13.871 8.41944 13.7419 8.35493C13.3548 8.64525 12.9032 8.87105 12.5161 9.16138L17.4193 14.0969L20.871 11.3872L25 14.6452L29.0645 11.3872L33.1935 14.6452L35.8387 12.5485V32.5162L38.8064 35.484V10.4517C38 9.67751 37.1613 8.93557 36.258 8.35493Z" fill="#404040"/>
<path d="M14.1613 12.5483L16.7419 14.6451L17.4193 14.0967L12.5161 9.16123C12.9032 8.87091 13.3548 8.6451 13.7419 8.35478C12.5806 7.77414 11.1935 8.6451 11.1935 10.129V14.7419L14.1613 17.7096V12.5483Z" fill="#00E58D"/>
<path d="M11.1935 40.7418C11.1935 42.2902 12.8709 43.3225 14.0967 42.3547L14.3548 42.1612C13.258 41.4838 12.1935 40.6773 11.1935 39.7418V40.7418Z" fill="#404040"/>
<path d="M35.8386 38.2903L33.1935 36.1935L32.9031 36.4193L37.387 40.9032C36.8064 41.3548 36.1612 41.7097 35.5483 42.0968L35.8386 42.3226C37.0644 43.2581 38.8064 42.3226 38.8064 40.7097V35.4839L35.8386 32.5161V38.2903Z" fill="#00E58D"/>
<path d="M38.8064 10.1291C38.8064 8.67753 37.4193 7.83882 36.258 8.35495C37.1612 8.96785 37.9999 9.67753 38.8064 10.4517V10.1291Z" fill="#404040"/>
<path d="M43.6582 39.8717L10.1279 6.34143L6.31871 10.1506L39.8489 43.6809L43.6582 39.8717Z" fill="#00E58D"/>
<path d="M22.742 26.0322L26.3549 27.0322C26.6452 27.0967 26.8065 27.3225 26.8065 27.5806C26.8065 27.9354 26.5807 28.2258 26.2259 28.2258H23.8388C23.613 28.2258 23.3226 28.1612 23.1291 28C22.742 27.8709 22.3226 27.9354 22.0968 28.1612L20.8065 29.4516C20.4517 29.8064 20.5162 30.4516 20.9355 30.7419C21.5807 31.258 22.3871 31.4516 23.2581 31.6129V32.8387C23.2581 33.4838 23.7742 33.9677 24.4194 33.9677H25.5807C26.1613 33.9677 26.742 33.4516 26.742 32.8387V31.6129C28.9033 31.3225 30.5807 29.387 30.2904 27.0967C30.0646 25.4516 28.742 24.1612 27.1613 23.6451L23.5484 22.6451C23.2581 22.5806 23.0968 22.2903 23.0968 22.0967C23.0968 21.7419 23.3871 21.4516 23.6775 21.4516H26.0646C26.3549 21.4516 26.5807 21.5161 26.7742 21.6774C27.1291 21.8064 27.5807 21.7419 27.7742 21.5483L29.0646 20.258C29.4194 19.9032 29.4194 19.258 28.9355 18.9677C28.2904 18.4516 27.4839 18.258 26.6775 18.0967V16.8064C26.6775 16.2258 26.0968 15.6774 25.5162 15.6774H24.4194C23.7742 15.6774 23.2581 16.258 23.2581 16.8064V18.0967C21 18.3548 19.3549 20.2903 19.6452 22.5806C19.8388 24.2258 21.1613 25.5161 22.742 26.0322Z" fill="#404040"/>
</svg>
