<svg width="57" height="48" viewBox="0 0 57 48" fill="none" xmlns="http://www.w3.org/2000/svg">
<g clip-path="url(#clip0)">
<path d="M45.4102 8.34646L27.4276 0.998122C26.8881 0.821762 26.3186 0.733582 25.7492 0.733582C25.0898 0.733582 24.5204 0.821762 23.9809 0.998122L5.99828 8.34646C4.28993 9.0813 3.27092 10.6685 3.27092 12.4028C3.27092 30.6854 13.9406 43.2658 23.9809 47.4103C25.1198 47.8805 26.3186 47.8805 27.4575 47.4103C35.4898 44.0888 48.2274 32.8018 48.2274 12.4028C48.2274 10.6685 47.0885 9.0813 45.4102 8.34646ZM25.7492 43.354C16.5781 39.6798 7.76657 28.0988 7.76657 12.4909L25.7492 5.14259L43.7318 12.4909C43.7318 28.4515 34.4707 39.768 25.7492 43.354Z" fill="#404040"/>
<g clip-path="url(#clip1)">
<path d="M18.1088 21.4444C17.6818 21.0406 17.0147 21.0406 16.6945 21.4444L14.7733 23.1601C14.3464 23.5638 14.3464 24.1946 14.7733 24.4974L22.3514 31.7642C22.6717 32.1679 23.3654 32.1679 23.7657 31.7642L38.1214 18.2904C38.5484 17.8867 38.5484 17.2559 38.1214 16.9531L36.2803 15.1364C35.8533 14.7327 35.2663 14.7327 34.866 15.1364L23.0986 26.1627L18.1088 21.4444Z" fill="#00E58D"/>
</g>
</g>
<path d="M9.11982 43.1198L10.7862 42.5142C10.8491 42.4911 10.8904 42.4327 10.8904 42.367C10.8904 42.3012 10.8491 42.242 10.7862 42.2198L9.11982 41.6142C7.77096 41.1234 6.70672 40.0752 6.20982 38.7455L5.59551 37.1028C5.57203 37.0407 5.51285 37 5.44616 37C5.37947 37 5.31936 37.0407 5.29681 37.1028L4.6825 38.7455C4.18466 40.0752 3.12136 41.1243 1.77251 41.6142L0.104289 42.2188C0.0413545 42.242 2.47598e-05 42.3012 2.47626e-05 42.367C2.47655e-05 42.4327 0.0413545 42.492 0.104289 42.5142L1.77063 43.1198C3.11948 43.6106 4.18373 44.6588 4.68062 45.9885L5.29587 47.6321C5.31936 47.6942 5.37853 47.7349 5.44522 47.7349C5.51191 47.7349 5.57203 47.6942 5.59457 47.6321L6.20889 45.9894C6.70672 44.6588 7.77096 43.6106 9.11982 43.1198Z" fill="#00E58D"/>
<path d="M47.0467 4.6151L45.3804 5.2207C45.3174 5.24385 45.2761 5.30219 45.2761 5.36793C45.2761 5.43368 45.3174 5.49294 45.3804 5.51517L47.0467 6.12076C48.3956 6.61153 49.4598 7.65974 49.9567 8.98946L50.571 10.6322C50.5945 10.6942 50.6537 10.7349 50.7204 10.7349C50.7871 10.7349 50.8472 10.6942 50.8697 10.6322L51.484 8.98946C51.9819 7.65974 53.0452 6.6106 54.394 6.12076L56.0623 5.51609C56.1252 5.49294 56.1665 5.43368 56.1665 5.36793C56.1665 5.30219 56.1252 5.24292 56.0623 5.2207L54.3959 4.6151C53.0471 4.12433 51.9828 3.07611 51.4859 1.74639L50.8707 0.102762C50.8472 0.0407197 50.788 -1.74788e-05 50.7213 -1.74759e-05C50.6546 -1.7473e-05 50.5945 0.0407197 50.572 0.102762L49.9577 1.74547C49.4598 3.07611 48.3956 4.12433 47.0467 4.6151Z" fill="#00E58D"/>
<defs>
<clipPath id="clip0">
<rect width="44.9565" height="47" fill="white" transform="translate(3.27092 0.733582)"/>
</clipPath>
<clipPath id="clip1">
<rect width="23.9618" height="17.2333" fill="white" transform="translate(14.4531 14.8336)"/>
</clipPath>
</defs>
</svg>
