<svg width="50" height="50" viewBox="0 0 50 50" fill="none" xmlns="http://www.w3.org/2000/svg">
<path d="M25 0C11.1935 0 0 11.2903 0 25C0 38.8065 11.1935 50 25 50C38.7097 50 50 38.8065 50 25C50 11.2903 38.7097 0 25 0ZM39.2258 10.7742C46.5806 18.129 47 29.6129 40.8387 37.4839L12.5161 9.16129C20.3548 3.03226 31.871 3.41935 39.2258 10.7742ZM10.6774 39.3226C3.32258 31.9677 2.90323 20.4839 9.06452 12.6129L37.3871 40.9355C29.5484 47.0645 18.0323 46.6774 10.6774 39.3226Z" fill="#00E58D"/>
<path d="M28.0968 6.67731L25 13.9999C24.871 14.3547 24.7097 14.7741 24.7097 15.2902C24.7097 16.2902 25.2259 17.2257 25.9355 17.8063L28.8065 20.1612C26.742 23.9676 23.7097 26.9676 19.9355 29.0321L17.5484 26.1934C17 25.4515 16.0646 24.9676 15.0646 24.9676C14.5484 24.9676 14.1291 25.0967 13.7742 25.258L6.45166 28.3225C5.29037 28.8386 4.45166 30.0321 4.45166 31.4192C4.45166 31.6451 4.51618 31.8386 4.58069 32.1289L6.09682 38.8709C6.45166 40.2902 7.74198 41.387 9.32263 41.387C26.9355 41.387 41.2259 27.1289 41.1291 9.58053C41.1291 7.99989 40.0646 6.70957 38.613 6.35473L31.9033 4.8386C31.613 4.74182 31.3871 4.67731 31.1613 4.67731C29.8065 4.67731 28.5807 5.54827 28.0968 6.67731ZM37.7742 9.70957C37.7097 25.258 25.0323 37.8709 9.48392 37.9354L7.96779 31.4838L15 28.4838L19 33.3547C26.0968 29.9999 29.742 26.3225 33.1291 19.2257L28.2259 15.2257L31.2259 8.19344L37.7742 9.70957Z" fill="#404040"/>
<path d="M41.6547 38.3257L22.2893 18.9603L18.8679 22.3818L38.2333 41.7472L41.6547 38.3257Z" fill="#00E58D"/>
</svg>
