<svg width="57" height="45" viewBox="0 0 57 45" fill="none" xmlns="http://www.w3.org/2000/svg">
<g clip-path="url(#clip0)">
<path d="M54.8438 30.9375H50.625V5.625C50.625 2.54261 48.0824 0 45 0H11.25C8.08239 0 5.625 2.54261 5.625 5.625V30.9375H1.40625C0.610795 30.9375 0 31.6335 0 32.3438V36.5625C0 41.2216 3.77841 45 8.4375 45H47.8125C52.3864 45 56.25 41.2216 56.25 36.5625V32.3438C56.25 31.6335 55.5398 30.9375 54.8438 30.9375ZM9.84375 5.625C9.84375 4.92898 10.4545 4.21875 11.25 4.21875H45C45.696 4.21875 46.4062 4.91477 46.4062 5.625V30.9375H9.84375V5.625ZM52.0312 36.5625C52.0312 38.9347 50.0994 40.7812 47.8125 40.7812H8.4375C6.06534 40.7812 4.21875 38.9347 4.21875 36.5625V35.1562H20.0426C20.5682 36.0369 21.4489 36.5625 22.5 36.5625H33.75C34.7159 36.5625 35.5966 36.0369 36.1222 35.1562H52.0312V36.5625Z" fill="#404040"/>
<g clip-path="url(#clip1)">
<path d="M25.92 12.2154L24.9154 11.2132C24.3688 10.6679 23.4529 10.6679 22.9063 11.2132L17.5143 16.5041C16.9677 17.0494 16.9677 18.0516 17.5143 18.5969L22.9063 23.8879C23.4529 24.4332 24.3688 24.4332 24.9154 23.8879L25.92 22.8857C26.5552 22.3404 26.5552 21.3382 25.92 20.7929L22.7143 17.5063L25.92 14.3082C26.5552 13.7629 26.5552 12.7607 25.92 12.2154Z" fill="#00E58D"/>
<path d="M34.6944 11.2127C34.1478 10.6674 33.2319 10.6674 32.6853 11.2127L31.6808 12.2149C31.0455 12.7602 31.0455 13.7624 31.6808 14.3077L34.8864 17.5058L31.6808 20.7776C31.0455 21.3229 31.0455 22.3251 31.6808 22.8704L32.6853 23.8726C33.2319 24.4179 34.1478 24.4179 34.6944 23.8726L40.0864 18.5817C40.633 18.0364 40.633 17.0342 40.0864 16.4889L34.6944 11.2127Z" fill="#00E58D"/>
</g>
</g>
<defs>
<clipPath id="clip0">
<rect width="56.25" height="45" fill="white"/>
</clipPath>
<clipPath id="clip1">
<rect width="23.4" height="13.5" fill="white" transform="translate(17.1 10.8)"/>
</clipPath>
</defs>
</svg>
