<svg width="133" height="50" viewBox="0 0 133 50" fill="none" xmlns="http://www.w3.org/2000/svg">
<g clip-path="url(#clip0)">
<path d="M2.19103 20.9924C1.70648 20.8015 0.589894 20.017 0.273879 19.6141C0.0842705 19.3596 0 19.1688 0 18.8507C0.0210676 18.2358 0.589894 16.7303 0.758435 16.1154C0.948044 15.2672 1.07445 14.6098 1.39046 13.8253C1.4958 13.5284 1.53794 13.0619 1.60114 12.7226C1.70648 12.2561 1.83288 11.8109 1.93822 11.3444C1.98036 11.1959 2.0857 10.7718 2.0857 10.6446C2.19103 9.83885 2.67559 8.14249 2.90733 7.2307C3.01267 6.70059 3.41296 4.41052 3.85538 4.09245C4.04499 3.98643 4.27673 3.94402 4.50847 3.94402C5.11944 3.94402 5.83574 4.26209 6.32029 4.49533C7.41581 5.02544 7.37367 5.81001 7.41581 6.84902C7.43688 7.61238 7.43688 8.33333 7.52115 9.1179C7.58435 9.75403 8.15318 16.0093 9.08015 16.0093C9.83859 16.0093 10.6181 12.1501 10.9341 11.3444C11.4397 10.1569 11.7347 8.71501 11.9875 7.42154C12.1139 6.63698 12.2614 6.02205 12.3667 5.15267C12.4088 4.7922 12.4088 4.51654 12.472 4.13486C12.7038 2.8838 12.7038 1.95081 12.767 0.699746C12.8091 0.19084 12.8934 0 12.9987 0C13.2305 0 13.5465 0.784563 13.694 1.14504C13.8414 1.61154 14.031 2.54453 14.4945 2.79898C14.937 3.07464 14.9791 3.30789 14.9791 3.66836V4.09245L14.958 5.15267C14.958 5.66158 14.9791 6.12807 15.0844 6.80662C15.1266 6.99746 15.1476 7.16709 15.1476 7.33673C15.1476 8.48176 14.5999 9.73282 14.3892 10.8355C14.3471 11.0051 14.326 11.1323 14.3049 11.2595C13.8204 13.2952 13.083 16.0941 12.0507 17.8965C11.4397 18.9567 9.83859 19.3172 8.80627 19.3172C8.49026 19.3172 8.21638 19.2536 7.85823 19.1476C7.09979 18.7659 6.63631 18.0237 6.29922 17.2816C6.02534 16.6455 5.09837 14.1221 4.67702 13.7617C4.59275 13.7193 4.63488 13.7405 4.55061 13.7193C4.38207 13.7405 4.38207 14.0797 4.33993 14.207C4.00285 15.458 3.89751 16.6667 3.56043 17.9389C3.37082 18.7235 3.28655 19.2748 3.13908 20.0594C3.07588 20.3986 2.9284 21.0348 2.44385 21.0348C2.2753 21.0348 2.33851 21.0136 2.19103 20.9924Z" fill="#00E58D"/>
<path d="M23.0269 5.47077C22.2263 5.47077 21.1519 6.00088 20.7094 6.23413C20.267 6.48858 19.4243 7.14592 18.6869 7.14592C18.4131 7.14592 18.1603 7.0611 17.9496 6.82785C17.8232 6.72183 17.781 6.5734 17.781 6.42497C17.781 5.97968 18.1392 5.47077 18.3288 5.21632C18.7712 4.6226 19.1083 4.36814 19.7825 3.96526C19.8667 3.92285 19.951 3.85924 20.0563 3.81683L20.2249 3.73201C20.8569 3.45635 21.4679 3.30792 22.0578 3.30792C22.753 3.30792 23.4693 3.49876 24.2909 3.88044C25.5339 4.47416 27.3668 5.78884 27.8092 6.93388C27.9356 7.33676 27.9988 7.71844 27.9988 8.12132C27.9988 8.35457 27.9778 8.58782 27.9567 8.79986L27.8935 9.11793C27.8092 9.58443 27.725 10.0085 27.7039 10.4962C27.5986 11.8321 27.114 12.3622 26.8612 13.5284C26.482 15.0976 25.4497 17.0484 24.4595 18.3843C24.2277 18.7023 23.996 18.978 23.701 19.2324C23.0269 19.7837 22.2895 20.017 21.5521 20.017C20.6252 20.017 19.6982 19.6777 18.708 19.084C16.2642 17.5785 15.6743 16.3698 15.6743 14.6523C15.6743 14.0161 15.7585 13.3164 15.8428 12.4894C15.9271 11.7897 16.0535 11.302 16.222 10.6446C16.3906 9.81768 16.6644 7.67603 17.9706 7.67603C18.097 7.67603 18.2235 7.69724 18.3499 7.71844C19.4243 8.03651 20.899 8.77866 20.899 9.83888C20.899 9.9449 20.878 10.0721 20.8569 10.1994C20.6462 10.8991 20.5198 11.3656 20.2249 12.0229C19.7403 13.0619 19.7193 13.9737 19.4454 15.0552C19.3822 15.3308 19.34 15.6065 19.34 15.8821C19.34 16.2002 19.4032 16.5395 19.5297 16.8787C19.6139 17.0696 19.7193 17.1332 19.8667 17.1332C20.3724 17.1332 21.1097 16.0306 21.2361 15.8185C21.5521 15.2884 21.805 14.7159 22.0578 14.1646C22.3316 13.5709 22.4581 13.1256 22.6477 12.5106C22.8373 11.8109 23.2165 11.3868 23.385 10.6022C23.6589 9.26636 23.9117 8.67264 23.9117 7.40037C23.9117 7.23074 23.9117 7.0611 23.8907 6.87026C23.8696 6.50979 23.9117 5.91606 23.6168 5.6192C23.4693 5.53439 23.2586 5.47077 23.0269 5.47077Z" fill="#00E58D"/>
<path d="M37.2897 12.1925C37.6268 12.6378 37.69 12.8287 37.8585 13.3164L37.9007 13.4436C38.0692 13.9525 38.1324 14.4402 38.1324 14.8855C38.1324 17.0272 36.5102 18.4266 34.6563 19.4021C34.0032 19.7413 33.2237 20.1018 32.5495 20.2926C31.7489 20.5259 31.0537 20.6955 30.4638 20.6955C29.5579 20.6955 28.9048 20.2926 28.5677 19.0416C28.5256 18.7871 28.4624 18.3842 28.4624 17.9814C28.4624 17.3876 28.5888 16.8363 29.0101 16.8363C29.1366 16.8363 29.3262 16.8999 29.5368 17.0272C29.7896 17.1968 30.0635 17.2604 30.3374 17.2604C30.527 17.2604 30.7377 17.2392 30.9694 17.1968C32.0439 17.0272 33.3079 16.6243 34.3192 15.8609C34.5931 15.6489 34.7195 15.458 34.7195 15.2672C34.7195 14.7371 33.7293 14.3978 33.4133 14.3766C31.2854 14.1858 29.1576 13.5496 28.5888 11.1747C28.5045 11.0051 28.4835 10.8143 28.4835 10.6022C28.4835 8.41816 31.0537 5.91604 32.5074 4.58017C34.1928 3.24429 35.8571 2.24768 37.3319 2.24768C38.5327 2.24768 39.6282 2.90502 40.5552 4.58017C40.7237 4.89823 40.808 5.13148 40.808 5.32232C40.808 5.78882 40.3024 5.87364 39.7125 5.87364C39.3965 5.87364 39.0805 5.85243 38.7645 5.85243C38.6591 5.85243 38.5538 5.85243 38.4484 5.87364C36.6998 6.04327 35.1408 7.1459 33.7504 8.33335C33.3079 8.71503 32.4652 9.39357 32.4652 10.0721C32.4652 10.1781 32.4863 10.2629 32.5284 10.369L32.697 10.4962C34.0032 11.1535 36.0467 10.6022 37.2897 12.1925Z" fill="#00E58D"/>
<path d="M48.0553 12.1925C48.3923 12.6378 48.4555 12.8287 48.6241 13.3164L48.6662 13.4436C48.8348 13.9525 48.898 14.4402 48.898 14.8855C48.898 17.0272 47.2758 18.4266 45.4218 19.4021C44.7687 19.7413 43.9892 20.1018 43.315 20.2926C42.5145 20.5259 41.8192 20.6955 41.2293 20.6955C40.3234 20.6955 39.6703 20.2926 39.3333 19.0416C39.2911 18.7871 39.2279 18.3842 39.2279 17.9814C39.2279 17.3876 39.3543 16.8363 39.7757 16.8363C39.9021 16.8363 40.0917 16.8999 40.3024 17.0272C40.5552 17.1968 40.8291 17.2604 41.1029 17.2604C41.2925 17.2604 41.5032 17.2392 41.735 17.1968C42.8094 17.0272 44.0735 16.6243 45.0847 15.8609C45.3586 15.6489 45.485 15.458 45.485 15.2672C45.485 14.7371 44.4948 14.3978 44.1788 14.3766C42.051 14.1858 39.9232 13.5496 39.3543 11.1747C39.2701 11.0051 39.249 10.8143 39.249 10.6022C39.249 8.41816 41.8192 5.91604 43.2729 4.58017C44.9583 3.24429 46.6227 2.24768 48.0974 2.24768C49.2983 2.24768 50.3938 2.90502 51.3207 4.58017C51.4893 4.89823 51.5736 5.13148 51.5736 5.32232C51.5736 5.78882 51.0679 5.87364 50.478 5.87364C50.162 5.87364 49.846 5.85243 49.53 5.85243C49.4247 5.85243 49.3193 5.85243 49.214 5.87364C47.4654 6.04327 45.9064 7.1459 44.5159 8.33335C44.0735 8.71503 43.2308 9.39357 43.2308 10.0721C43.2308 10.1781 43.2518 10.2629 43.294 10.369L43.4625 10.4962C44.7687 11.1535 46.8123 10.6022 48.0553 12.1925Z" fill="#00E58D"/>
<path d="M57.2408 5.47077C56.4402 5.47077 55.3657 6.00088 54.9233 6.23413C54.4809 6.48858 53.6171 7.12472 52.8798 7.12472C52.6059 7.12472 52.3531 7.0399 52.1424 6.80665C52.0371 6.70063 51.9739 6.5522 51.9739 6.40377C51.9739 5.95847 52.332 5.44957 52.5216 5.19511C52.964 4.60139 53.3011 4.34694 53.9753 3.94405C54.0595 3.90165 54.1438 3.83803 54.2281 3.81683L54.3966 3.73201C55.0287 3.45635 55.6396 3.30792 56.2295 3.30792C56.9247 3.30792 57.641 3.49876 58.4627 3.88044C59.7057 4.47416 61.5386 5.78884 61.981 6.93388C62.1074 7.33676 62.1706 7.71844 62.1706 8.12132C62.1706 8.35457 62.1495 8.58782 62.1285 8.79986L62.1074 9.11793C62.0231 9.58443 61.9388 10.0085 61.9178 10.4962C61.8124 11.8321 61.3279 12.3622 61.0751 13.5284C60.6959 15.0976 59.6635 17.0484 58.6734 18.3843C58.4416 18.7023 58.2099 18.978 57.9149 19.2324C57.2408 19.7837 56.5034 20.017 55.766 20.017C54.8601 20.017 53.9331 19.6777 52.943 19.084C50.478 17.5785 49.9092 16.3698 49.9092 14.6523C49.9092 14.0161 49.9935 13.3164 50.0778 12.4894C50.162 11.7897 50.2884 11.302 50.457 10.6446C50.6255 9.81768 50.8994 7.67603 52.2056 7.67603C52.332 7.67603 52.4584 7.69724 52.5848 7.71844C53.6593 8.03651 55.134 8.77866 55.134 9.83888C55.134 9.9449 55.1129 10.0721 55.0919 10.1994C54.8812 10.8779 54.7548 11.3444 54.4598 12.0017C53.9753 13.0407 53.9753 13.9737 53.7014 15.034C53.6171 15.3096 53.5961 15.5853 53.5961 15.8609C53.5961 16.179 53.6593 16.5183 53.7857 16.8575C53.8699 17.0484 53.9753 17.112 54.1228 17.112C54.6284 17.112 55.3657 16.0094 55.4921 15.7973C55.8082 15.2672 56.061 14.6947 56.3138 14.1434C56.5877 13.5497 56.7141 13.1044 56.9037 12.4894C57.0933 11.7897 57.4725 11.3656 57.641 10.581C57.9149 9.24516 58.1677 8.65143 58.1677 7.37917C58.1677 7.20953 58.1677 7.0399 58.1467 6.84906C58.1256 6.48858 58.1677 5.89486 57.8728 5.598C57.6832 5.53439 57.4725 5.47077 57.2408 5.47077Z" fill="#00E58D"/>
<path d="M77.1076 2.98981C77.8028 2.905 78.8141 2.75657 79.3829 2.65054C80.7312 2.4385 82.1638 2.4385 83.5543 2.26886C83.7018 2.24766 84.5866 2.16284 85.345 2.16284C85.9771 2.16284 86.5038 2.22646 86.5038 2.4385V2.48091C86.4195 2.71416 85.956 2.96861 85.7453 3.18065C85.4504 3.47752 85.345 3.66835 85.0922 3.98642C84.713 4.43171 84.4391 4.17726 83.9756 4.94062C83.786 5.25869 83.6596 5.17387 83.3225 5.25869C82.9644 5.3435 82.9012 5.36471 82.522 5.42832C82.1006 5.47073 81.7635 5.53434 81.3632 5.64036C81.0051 5.72518 80.6259 5.76759 80.3099 5.87361C80.0781 5.93723 79.8253 6.04325 79.6778 6.25529C79.5514 6.36131 79.4461 6.57336 79.3618 6.7642C79.3197 6.87022 79.2986 6.95504 79.2565 7.03986C78.8983 8.37573 78.5613 9.75402 78.161 11.0687C77.9503 11.9169 77.4447 13.5072 77.234 14.3342C77.0444 15.0975 76.7916 15.8185 76.623 16.603C76.3913 17.5148 76.1385 18.4266 75.9278 19.3384C75.8857 19.508 75.7593 20.0594 75.5486 20.0594H75.5275C75.4432 20.0382 75.2115 19.9533 75.064 19.9321L74.9376 19.9109C74.3477 19.8473 74.3477 19.6353 73.9685 19.2112C73.5893 18.8083 73.0205 18.1086 73.0205 17.536C73.0205 17.0059 73.3786 16.5818 73.484 16.0517C73.7368 14.7159 74.0106 13.4648 74.3267 12.1077C74.5795 11.1111 74.8534 10.1145 75.1272 9.13909C75.2115 8.84223 75.5064 7.99405 75.5064 7.42154C75.5064 7.18829 75.4643 7.01865 75.3379 6.95504C75.1483 6.82781 74.748 6.7854 74.3477 6.7854C73.6736 6.7854 72.873 6.89142 72.5148 6.95504C72.0724 7.03986 71.5668 7.14588 71.1665 7.18829C71.0612 7.20949 70.9558 7.20949 70.8716 7.20949C70.4924 7.20949 70.3449 7.06106 70.3449 6.82781C70.3449 6.59456 70.4713 6.2977 70.6188 6.02204C70.8716 5.57675 70.9348 5.3435 70.9348 4.8558V4.72858C70.9348 4.19846 71.2929 4.17726 71.7353 3.96522C72.2199 3.73197 72.557 3.68956 73.0837 3.60474L73.1679 3.58354C73.3997 3.54113 73.6314 3.49872 73.8421 3.47752C74.6637 3.30788 75.4643 3.20186 76.2649 3.07463C76.5809 3.05343 76.8337 3.01102 77.1076 2.98981Z" fill="#00E58D"/>
<path d="M89.5164 5.47077C88.7158 5.47077 87.6414 6.00088 87.199 6.23413C86.7565 6.48858 85.8928 7.12472 85.1554 7.12472C84.8815 7.12472 84.6287 7.0399 84.418 6.80665C84.3338 6.72183 84.2706 6.5734 84.2706 6.42497C84.2706 5.97968 84.6287 5.47077 84.8183 5.21632C85.2607 4.6226 85.5978 4.36814 86.272 3.96526C86.3773 3.92285 86.4616 3.85924 86.5459 3.81683L86.7144 3.73201C87.3464 3.45635 87.9574 3.30792 88.5473 3.30792C89.2425 3.30792 89.9588 3.49876 90.7804 3.88044C92.0234 4.47416 93.8563 5.78884 94.2987 6.93388C94.4251 7.33676 94.4883 7.71844 94.4883 8.12132C94.4883 8.35457 94.4673 8.58782 94.4462 8.79986L94.4041 9.11793C94.3198 9.58443 94.2355 10.0085 94.2145 10.4962C94.1091 11.8321 93.6246 12.3622 93.3718 13.5284C92.9926 15.0976 91.9602 17.0484 90.9701 18.3843C90.7383 18.7023 90.5066 18.978 90.2116 19.2324C89.5375 19.7837 88.8001 20.017 88.0627 20.017C87.1568 20.017 86.2298 19.6777 85.2397 19.084C82.7747 17.5785 82.2059 16.3698 82.2059 14.6523C82.2059 14.0161 82.2902 13.3164 82.3745 12.4894C82.4587 11.7897 82.5851 11.302 82.7537 10.6446C82.9222 9.81768 83.1961 7.67603 84.5023 7.67603C84.6287 7.67603 84.7551 7.69724 84.8815 7.71844C85.956 8.03651 87.4307 8.77866 87.4307 9.83888C87.4307 9.9449 87.4096 10.0721 87.3886 10.1994C87.1779 10.8779 87.0515 11.3444 86.7565 12.0017C86.272 13.0407 86.272 13.9737 85.9981 15.034C85.9138 15.3096 85.8928 15.5853 85.8928 15.8609C85.8928 16.179 85.956 16.5183 86.0824 16.8575C86.1666 17.0484 86.272 17.112 86.4195 17.112C86.9251 17.112 87.6624 16.0094 87.7888 15.7973C88.1049 15.2672 88.3577 14.6947 88.6105 14.1434C88.8844 13.5497 89.0108 13.1044 89.2004 12.4894C89.39 11.7897 89.7692 11.3656 89.9377 10.581C90.2116 9.24516 90.4644 8.65143 90.4644 7.37917C90.4644 7.20953 90.4644 7.0399 90.4434 6.84906C90.4223 6.48858 90.4644 5.89486 90.1695 5.598C89.9588 5.53439 89.7481 5.47077 89.5164 5.47077Z" fill="#00E58D"/>
<path d="M102.515 22.6675C101.883 22.4555 101.146 21.0348 100.893 20.4411C100.788 20.229 100.724 20.0382 100.64 19.8261C100.472 19.8685 100.303 19.8685 100.113 19.8685C99.2496 19.8685 98.2595 19.5081 97.4378 18.8719C95.4575 17.324 94.8254 16.0305 94.8254 14.2918C94.8254 13.486 94.9518 12.5954 95.1414 11.514C95.2679 10.7506 95.4575 10.1781 95.6681 9.43597C95.921 8.52418 96.4898 6.06447 97.7117 6.06447C97.817 6.06447 97.9434 6.08567 98.0488 6.12808C98.9758 6.44615 100.177 7.20951 100.177 8.33334C100.177 8.50297 100.156 8.67261 100.092 8.86345C99.8395 9.62681 99.5446 10.1569 99.2075 10.8991C98.6808 12.0653 98.5755 13.1043 98.2173 14.313C98.1541 14.525 98.1331 14.7159 98.1331 14.9279C98.1331 15.4156 98.2805 15.8821 98.4069 16.391C98.4491 16.6031 98.5965 16.6667 98.7861 16.6667C99.0179 16.6667 99.2918 16.5394 99.4814 16.3486C99.5024 16.3274 99.5024 16.285 99.5024 16.2638C99.5235 16.1366 99.5235 15.8609 99.5235 15.7125C99.5235 15.1824 99.5024 14.7371 99.5024 14.2918C99.5024 13.8889 99.5235 13.5496 99.5446 13.4648C99.5867 13.2316 99.6499 13.2104 100.071 13.2104C100.556 13.2316 100.767 13.38 101.125 13.592C101.525 12.7439 101.63 12.4046 101.946 11.4504C102.199 10.6446 102.557 10.1781 102.789 9.30874C103.231 7.59119 103.505 6.95505 103.59 5.08907C103.611 4.91943 103.632 4.68618 103.632 4.45293C103.632 4.17728 103.59 3.88041 103.463 3.68957C103.337 3.58355 103.147 3.51994 102.936 3.51994C102.199 3.51994 101.146 4.13487 100.724 4.41052C100.282 4.70739 99.4182 5.44954 98.744 5.44954C98.3648 5.44954 98.0066 5.19509 98.0066 4.74979C98.0066 4.26209 98.4069 3.62596 98.6176 3.28669C99.2075 2.41731 99.6499 2.12045 100.472 1.61154C101.104 1.27227 101.672 1.12384 102.241 1.12384C102.873 1.12384 103.484 1.31468 104.179 1.71756C105.254 2.3537 106.813 3.7956 107.108 5.08907C107.171 5.36472 107.192 5.66158 107.192 5.93724C107.192 7.06107 106.876 7.86684 106.687 9.07549C106.455 10.5598 105.97 11.1747 105.633 12.4894C105.149 14.2706 104.011 16.4758 102.979 17.9601C102.852 18.151 102.726 18.3206 102.578 18.4903C102.62 18.7871 102.663 19.1052 102.726 19.3596V19.3808C103 20.6107 103.21 21.9466 103.21 22.3919L103.189 22.4979C103.147 22.6463 103.063 22.7311 102.894 22.7311C102.852 22.7523 102.705 22.7311 102.515 22.6675Z" fill="#00E58D"/>
<path d="M111.574 7.6124C111.89 7.97287 111.996 8.29094 111.996 8.60901C111.996 9.0755 111.764 9.542 111.595 10.0933C111.49 10.4114 111.406 10.687 111.258 10.9839C111.026 11.4716 110.774 12.5106 110.584 13.1043C110.268 14.0797 109.973 15.2672 109.847 16.3062V16.4122C109.847 16.5395 109.889 16.6031 109.952 16.6031C110.057 16.6031 110.184 16.5183 110.289 16.4758C110.394 16.391 110.521 16.2426 110.626 16.1366C110.858 15.8821 111.09 15.6277 111.3 15.352C112.143 14.2918 113.26 12.5742 113.955 11.2596C114.25 10.7082 114.587 10.0721 114.713 9.83886C115.029 9.26634 115.872 7.50638 115.893 7.37915C115.935 7.18831 116.209 6.6794 116.293 6.46736C116.609 5.66159 116.989 4.09247 117.642 3.62597C117.726 3.58356 117.789 3.51995 117.895 3.49874C117.958 3.47754 118.021 3.47754 118.084 3.47754C118.906 3.47754 120.486 4.7074 120.549 5.57678C120.549 5.64039 120.57 5.704 120.57 5.74641C120.57 6.21291 120.402 6.59459 120.317 7.01868C119.959 8.43937 118.969 10.9839 118.653 12.0441C117.81 15.0764 117.557 17.1544 117.305 20.3987C117.262 20.9288 117.115 21.2892 116.841 21.2892C116.673 21.2892 116.441 21.1408 116.146 20.8015C115.24 19.7625 115.324 17.9602 115.05 16.7091C114.755 16.7091 112.986 19.296 112.649 19.6565C112.143 20.1442 111.658 20.5471 110.9 20.5471H110.816C109.636 20.3987 109.173 19.8685 108.288 18.978C107.487 18.1086 106.96 17.0696 106.729 15.9245C106.687 15.7337 106.687 15.5216 106.687 15.3096C106.687 14.6311 106.834 13.8465 106.96 13.2952L107.003 13.0619C107.171 12.447 107.276 11.9381 107.403 11.302C107.424 11.1535 107.466 11.0263 107.508 10.8567C107.698 10.1781 107.908 9.37237 108.119 8.71503C108.372 8.01528 108.498 7.1459 108.941 6.57338L109.004 6.48857C109.173 6.29773 109.341 6.21291 109.552 6.21291C109.699 6.21291 109.847 6.25532 110.015 6.34013C110.626 6.61579 111.153 7.10349 111.574 7.6124Z" fill="#00E58D"/>
<path d="M119.538 13.1043C119.538 12.9771 119.601 12.8287 119.727 12.6378C119.896 12.4258 120.191 12.1925 120.633 11.8957C121.602 11.1959 121.94 10.3477 122.298 9.28752C122.508 8.67259 122.951 7.50635 122.951 6.7854C122.951 6.67938 122.951 6.59456 122.93 6.50974C122.909 6.36131 122.866 6.27649 122.782 6.17047C122.656 6.00084 122.508 5.97963 122.382 5.97963C122.277 5.97963 122.192 6.00084 122.087 6.00084C121.897 6.00084 121.708 5.93722 121.539 5.57675C121.371 5.21627 121.139 4.60135 121.139 4.05003C121.139 3.66835 121.244 3.30788 121.581 3.09583L121.687 3.01102C122.403 2.73536 123.351 2.50211 124.088 2.31127C125.774 1.90839 127.501 1.52671 129.166 1.18744C129.608 1.08141 130.261 0.932983 130.851 0.932983C131.272 0.932983 131.652 1.0178 131.905 1.27225C132.178 1.59032 133.021 2.79897 133.021 3.54113C133.021 3.77437 132.937 3.96521 132.705 4.07124C132.242 4.26208 130.683 4.30448 130.051 4.41051C128.871 4.60135 127.712 4.8558 126.532 5.06784C126.111 5.15266 125.711 5.21627 125.289 5.30109C124.489 5.44952 124.152 5.55554 124.152 5.66157C124.152 5.78879 124.678 5.91602 125.416 6.04325C125.647 6.08565 125.879 6.12806 126.111 6.21288C126.617 6.44613 126.806 6.74299 126.806 7.08226C126.806 7.63358 126.364 8.26971 126.111 8.90584C126.006 9.13909 125.795 9.62679 125.795 9.96606C125.795 10.0933 125.816 10.1993 125.9 10.2417C126.827 10.2205 127.796 9.77522 128.786 9.77522C128.934 9.77522 129.103 9.79643 129.25 9.81763C129.882 9.92365 129.713 10.3689 130.324 10.7718C130.409 10.8142 130.472 10.8566 130.556 10.8991C130.788 11.0263 131.083 11.1535 131.083 11.3656C131.083 11.4504 131.02 11.5564 130.851 11.6624C130.472 11.8957 129.018 12.1925 128.513 12.341C128.133 12.447 127.754 12.5318 127.375 12.6378C126.764 12.8075 125.163 13.1891 124.699 13.5496C124.299 13.8465 124.088 14.2494 123.92 14.6522C123.878 14.7583 123.857 14.8431 123.815 14.9067L123.793 14.9491C123.667 15.2036 123.625 15.352 123.604 15.6064C123.604 15.6488 123.583 15.7125 123.583 15.7549L123.562 15.8397C123.541 16.0305 123.456 16.0093 123.435 16.2426C123.414 16.4122 123.351 16.5606 123.33 16.7515C123.33 16.8363 123.309 17.0907 123.309 17.2392V17.324C123.351 17.4724 123.499 17.536 123.625 17.5996C123.793 17.6421 123.962 17.6421 124.152 17.6421C125.963 17.6421 128.407 16.2002 129.945 15.352C130.198 15.2248 131.251 14.6098 131.757 14.6098C131.926 14.6098 132.01 14.6734 132.01 14.8219C132.01 14.9067 131.989 14.9915 131.947 15.0975C131.673 15.7761 131.251 15.564 131.062 16.5818C130.956 17.0695 130.662 17.4512 130.409 17.9389C129.945 18.7871 127.86 19.9109 126.954 20.229C126.258 20.4834 125.711 20.5895 125.058 20.5895C124.889 20.5895 124.699 20.5683 124.51 20.5683C124.194 20.5047 123.941 20.4198 123.667 20.335C123.562 20.2926 123.499 20.2502 123.414 20.2078C122.55 19.7201 121.792 18.8719 121.202 18.1086C120.507 17.1544 120.423 16.0729 120.402 14.8431C120.402 13.9949 119.538 13.6344 119.538 13.1043Z" fill="#00E58D"/>
<path d="M23.5747 40.67C23.5747 40.5428 23.6379 40.3944 23.7643 40.2035C23.9328 39.9915 24.2278 39.7582 24.6702 39.4614C25.6393 38.7616 25.9764 37.9135 26.3346 36.8532C26.5452 36.2383 26.9877 35.0721 26.9877 34.3511C26.9877 34.2451 26.9877 34.1603 26.9666 34.0755C26.9244 33.927 26.8823 33.8422 26.798 33.7362C26.6716 33.5665 26.5242 33.5453 26.3978 33.5453C26.2924 33.5453 26.2081 33.5665 26.1028 33.5665C25.9132 33.5665 25.7236 33.5029 25.5551 33.1425C25.3865 32.782 25.1548 32.1883 25.1548 31.6369C25.1548 31.2553 25.2601 30.8948 25.5972 30.6827L25.7025 30.5979C26.4188 30.3223 27.3669 30.089 28.1042 29.8982C29.7896 29.4953 31.5172 29.1136 33.1815 28.7744C33.624 28.6683 34.2771 28.5199 34.8669 28.5199C35.2883 28.5199 35.6675 28.6047 35.9203 28.8592C36.1942 29.1772 37.0369 30.3859 37.0369 31.128C37.0369 31.3613 36.9526 31.5521 36.7209 31.6582C36.2574 31.849 34.6984 31.8914 34.0664 31.9974C32.8866 32.1883 31.7279 32.4427 30.5481 32.6548C30.1267 32.7396 29.7264 32.8032 29.3051 32.888C28.5045 33.0364 28.1674 33.1425 28.1674 33.2485C28.1674 33.3757 28.6941 33.5029 29.4315 33.6302C29.6632 33.6726 29.895 33.715 30.1267 33.7998C30.6324 34.033 30.822 34.3299 30.822 34.6692C30.822 35.2205 30.3795 35.8566 30.1267 36.4928C30.0214 36.726 29.8107 37.2137 29.8107 37.553C29.8107 37.6802 29.8318 37.7862 29.9161 37.8286C30.843 37.8074 31.8121 37.3621 32.8023 37.3621C32.9498 37.3621 33.1183 37.3833 33.2658 37.4045C33.8978 37.5106 33.7293 37.9559 34.3403 38.3587C34.4245 38.4012 34.4877 38.4436 34.572 38.486C34.8037 38.6132 35.0987 38.7404 35.0987 38.9525C35.0987 39.0373 35.0355 39.1433 34.8669 39.2493C34.4877 39.4826 33.0341 39.7794 32.5284 39.9279C32.1492 40.0339 31.77 40.1187 31.3908 40.2247C30.7798 40.3944 29.1787 40.776 28.7152 41.1365C28.336 41.4334 28.1253 41.8363 27.9568 42.2604C27.9146 42.3452 27.8725 42.43 27.8514 42.5148L27.8304 42.5572C27.704 42.8117 27.6618 42.9601 27.6407 43.2146C27.6407 43.257 27.6197 43.3206 27.6197 43.363L27.5986 43.4478C27.5775 43.6386 27.4933 43.6174 27.4722 43.8507C27.4511 44.0203 27.3879 44.1688 27.3669 44.3596C27.3669 44.4444 27.3458 44.6989 27.3458 44.8473V44.9321C27.3879 45.0805 27.5354 45.1442 27.6618 45.2078C27.8304 45.2502 27.9989 45.2502 28.1885 45.2502C30.0003 45.2502 32.4442 43.8083 33.9821 42.9601C34.2349 42.8329 35.2883 42.2179 35.7939 42.2179C35.9625 42.2179 36.0467 42.2816 36.0467 42.43C36.0467 42.5148 36.0257 42.5996 35.9835 42.7056C35.7097 43.3842 35.2883 43.1721 35.0987 44.19C34.9934 44.6777 34.6984 45.0593 34.4456 45.547C33.9821 46.3952 31.8964 47.5191 30.9905 47.8371C30.2953 48.0916 29.7475 48.1976 29.0944 48.1976C28.9259 48.1976 28.7363 48.1764 28.5467 48.1764C28.2306 48.1128 27.9778 48.028 27.7039 47.9431C27.5986 47.9007 27.5354 47.8583 27.4511 47.8159C26.5874 47.3282 25.8289 46.48 25.239 45.7167C24.5017 44.7625 24.4385 43.6811 24.4174 42.4512C24.4385 41.5606 23.5747 41.2001 23.5747 40.67Z" fill="#00E58D"/>
<path d="M44.3684 39.7583C44.7055 40.2036 44.7687 40.3944 44.9372 40.8821L44.9794 41.0093C45.1479 41.5182 45.2111 42.006 45.2111 42.4512C45.2111 44.5929 43.5889 45.9924 41.735 46.9678C41.0819 47.3071 40.3024 47.6675 39.6282 47.8584C38.8276 48.0916 38.1324 48.2613 37.5425 48.2613C36.6366 48.2613 35.9835 47.8584 35.6464 46.6073C35.6043 46.3529 35.5411 45.95 35.5411 45.5471C35.5411 44.9534 35.6675 44.4021 36.0888 44.4021C36.2152 44.4021 36.4048 44.4657 36.6155 44.5929C36.8683 44.7625 37.1422 44.8261 37.4161 44.8261C37.6057 44.8261 37.8164 44.8049 38.0481 44.7625C39.1226 44.5929 40.3866 44.19 41.3979 43.4266C41.6718 43.2146 41.7982 43.0238 41.7982 42.8329C41.7982 42.3028 40.808 41.9635 40.492 41.9423C38.3641 41.7515 36.2363 41.1154 35.6675 38.7405C35.6253 38.5496 35.6043 38.3588 35.6043 38.168C35.6043 35.9839 38.1745 33.4818 39.6282 32.1459C41.3136 30.81 42.9779 29.8134 44.4527 29.8134C45.6535 29.8134 46.749 30.4708 47.676 32.1459C47.8446 32.464 47.9288 32.6972 47.9288 32.8881C47.9288 33.3546 47.4232 33.4394 46.8333 33.4394C46.5173 33.4394 46.2013 33.4182 45.8853 33.4182C45.7799 33.4182 45.6746 33.4182 45.5693 33.4394C43.8206 33.609 42.2616 34.7116 40.8712 35.8991C40.4288 36.2808 39.5861 36.9593 39.5861 37.6378C39.5861 37.7439 39.6071 37.8287 39.6493 37.9347L39.8178 38.0619C41.0819 38.7193 43.1044 38.168 44.3684 39.7583Z" fill="#00E58D"/>
<path d="M48.8348 48.6005C48.3292 48.6005 47.4443 47.7099 47.1704 47.4766C46.5805 46.9253 46.0749 46.3952 46.0749 45.6319C46.0749 45.5046 46.096 45.3562 46.1171 45.229C46.2435 44.6141 46.6016 43.9779 46.6648 43.3842C46.728 42.8541 46.7702 42.7481 46.9387 42.2392C47.0651 41.8363 47.1494 41.2638 47.2336 40.8397C47.3179 40.458 47.4022 40.0975 47.4865 39.7158L47.971 37.8498C48.1606 37.1713 48.3081 36.4504 48.4556 35.7506C48.5188 35.5598 48.898 34.3511 48.898 34.0967V34.0543C48.0763 33.2273 47.0019 32.782 47.0019 32.0398C47.0019 31.6582 47.2547 31.2341 47.971 30.6404C48.7294 30.0042 49.6775 29.1985 50.5834 28.7744C51.7421 28.2655 52.9008 27.8414 54.186 27.8414C54.3545 27.8414 54.523 27.8626 54.6705 27.8626C56.9458 28.4775 58.7576 29.8982 59.6003 32.4003C59.7478 32.8668 59.8321 33.2485 59.8321 33.609C59.8321 34.1815 59.6635 34.6904 59.3686 35.3265C59.2843 35.4962 59.2001 35.6446 59.1369 35.793C58.884 36.2171 58.6102 36.62 58.3363 37.0229C57.9781 37.553 57.5779 37.9983 57.1565 38.486C56.5245 39.2493 55.8082 39.8855 55.0708 40.5428C54.1438 41.3698 53.1536 42.0059 52.1003 42.6208C51.384 43.0449 50.5623 43.6811 50.2463 44.5292C50.141 44.7837 50.0778 45.0593 49.9724 45.335C49.7828 45.8863 49.6353 46.5649 49.4879 47.1586C49.4247 47.413 49.2351 48.2188 49.1087 48.4308C49.0455 48.5581 48.9401 48.6005 48.8348 48.6005ZM51.4893 32.1035C51.3208 32.2307 51.1733 32.2519 50.9415 32.4851C50.8151 32.5912 50.4359 33.0789 50.4359 33.3757C50.4359 33.4393 50.457 33.5029 50.4781 33.5454C50.5834 33.6514 50.7519 33.8634 50.9415 33.9906C51.384 34.3087 52.0581 34.8812 52.0792 35.4962V35.581C52.0792 35.8142 51.9949 36.1323 51.9528 36.3443C51.8685 36.6836 51.7843 37.0229 51.7 37.3833C51.6157 37.765 51.5314 38.0619 51.4472 38.4224L51.3629 38.7192C51.3418 38.7616 51.3208 38.8889 51.3208 38.9737C51.3208 39.0585 51.3418 39.1433 51.4261 39.1433C51.4472 39.1433 51.4682 39.1433 51.4893 39.1221C51.7421 39.0161 52.332 38.486 52.5848 38.2739L52.6059 38.2527C54.3334 36.7896 56.3559 34.5844 56.9458 32.1671C56.988 31.9762 57.0301 31.849 57.0301 31.7006C57.0301 31.5521 57.009 31.4037 56.9458 31.2129C56.8616 30.9796 56.5455 30.6828 56.3349 30.6191C56.1242 30.5555 55.8714 30.5343 55.6186 30.5343C54.8812 30.5343 54.0596 30.7464 53.4907 30.9372C53.259 31.022 53.0062 31.1068 52.7744 31.2129C52.2056 31.4673 51.9739 31.7218 51.4893 32.1035Z" fill="#00E58D"/>
<path d="M57.8096 40.67C57.8096 40.5428 57.8728 40.3944 57.9992 40.2035C58.1677 39.9915 58.4627 39.7582 58.9051 39.4614C59.8742 38.7616 60.2113 37.9135 60.5695 36.8532C60.7801 36.2383 61.2225 35.0721 61.2225 34.3511C61.2225 34.2451 61.2225 34.1603 61.2015 34.0755C61.1593 33.927 61.1172 33.8422 61.0329 33.7362C60.9065 33.5665 60.7591 33.5453 60.6327 33.5453C60.5273 33.5453 60.443 33.5665 60.3377 33.5665C60.1481 33.5665 59.9585 33.5029 59.7899 33.1425C59.6214 32.782 59.3897 32.1883 59.3897 31.6369C59.3897 31.2553 59.495 30.8948 59.8321 30.6827L59.9374 30.5979C60.6537 30.3223 61.6018 30.089 62.3391 29.8982C64.0245 29.4953 65.7521 29.1136 67.4164 28.7744C67.8589 28.6683 68.5119 28.5199 69.1018 28.5199C69.5232 28.5199 69.9024 28.6047 70.1552 28.8592C70.4291 29.1772 71.2718 30.3859 71.2718 31.128C71.2718 31.3613 71.1875 31.5521 70.9558 31.6582C70.4923 31.849 68.9333 31.8914 68.3013 31.9974C67.1215 32.1883 65.9628 32.4427 64.783 32.6548C64.3616 32.7396 63.9613 32.8032 63.54 32.888C62.7394 33.0364 62.4023 33.1425 62.4023 33.2485C62.4023 33.3757 62.929 33.5029 63.6664 33.6302C63.8981 33.6726 64.1299 33.715 64.3616 33.7998C64.8672 34.033 65.0569 34.3299 65.0569 34.6692C65.0569 35.2205 64.6144 35.8566 64.3616 36.4928C64.2563 36.726 64.0456 37.2137 64.0456 37.553C64.0456 37.6802 64.0667 37.7862 64.151 37.8286C65.0779 37.8074 66.047 37.3621 67.0372 37.3621C67.1847 37.3621 67.3532 37.3833 67.5007 37.4045C68.1327 37.5106 67.9642 37.9559 68.5752 38.3587C68.6594 38.4012 68.7226 38.4436 68.8069 38.486C69.0386 38.6132 69.3336 38.7404 69.3336 38.9525C69.3336 39.0373 69.2704 39.1433 69.1018 39.2493C68.7226 39.4826 67.269 39.7794 66.7633 39.9279C66.3841 40.0339 66.0049 40.1187 65.6257 40.2247C65.0147 40.3944 63.4136 40.776 62.9501 41.1365C62.5709 41.4334 62.3602 41.8363 62.1917 42.2604C62.1495 42.3452 62.1074 42.43 62.0863 42.5148L62.0653 42.5572C61.9388 42.8117 61.8967 42.9601 61.8756 43.2146C61.8756 43.257 61.8546 43.3206 61.8546 43.363L61.8335 43.4478C61.8124 43.6386 61.7282 43.6174 61.7071 43.8507C61.686 44.0203 61.6228 44.1688 61.6018 44.3596C61.6018 44.4444 61.5807 44.6989 61.5807 44.8473V44.9321C61.6228 45.0805 61.7703 45.1442 61.8967 45.2078C62.0653 45.2502 62.2338 45.2502 62.4234 45.2502C64.2352 45.2502 66.6791 43.8083 68.217 42.9601C68.4698 42.8329 69.5232 42.2179 70.0288 42.2179C70.1974 42.2179 70.2816 42.2816 70.2816 42.43C70.2816 42.5148 70.2606 42.5996 70.2184 42.7056C69.9446 43.3842 69.5232 43.1721 69.3336 44.19C69.2282 44.6777 68.9333 45.0593 68.6805 45.547C68.217 46.3952 66.1313 47.5191 65.2254 47.8371C64.5302 48.0916 63.9824 48.1976 63.3293 48.1976C63.1608 48.1976 62.9712 48.1764 62.7816 48.1764C62.4655 48.1128 62.2127 48.028 61.9388 47.9431C61.8335 47.9007 61.7703 47.8583 61.686 47.8159C60.8223 47.3282 60.0638 46.48 59.4739 45.7167C58.7366 44.7625 58.6734 43.6811 58.6523 42.4512C58.6734 41.5606 57.8096 41.2001 57.8096 40.67Z" fill="#00E58D"/>
<path d="M69.8182 45.0806C69.5443 44.5929 69.2283 44.19 68.9544 43.6599C68.6594 43.1086 68.4698 42.6209 68.4277 42.0271C68.2802 40.246 68.849 37.8287 69.3547 36.3656C69.6075 35.6234 69.9024 34.9025 70.1974 34.1815C71.019 32.2731 71.5036 31.4886 72.4938 30.4495C73.3575 29.559 74.2213 29.05 74.8112 29.05C75.9067 29.2409 77.0865 30.5344 77.8871 31.5734C79.0879 33.1637 79.8885 34.1391 79.0247 36.1111C78.8351 36.5776 78.1399 38.38 77.5921 38.4012C77.1286 38.4224 76.2859 37.9347 75.8646 37.7227C75.7803 37.6378 75.696 37.4682 75.6118 37.3622C75.5275 37.2562 75.4222 37.1077 75.4222 36.9805C75.4222 36.8957 75.4432 36.8109 75.4643 36.7473C75.5696 36.3444 75.8646 35.9203 76.0121 35.475C76.0963 35.2205 76.1385 35.0085 76.1595 34.7328C76.1806 34.4996 76.1806 34.2663 76.1385 34.0331L76.0963 33.6938C75.9278 33.0789 75.2747 33.4182 75.064 33.9271C74.7269 35.0721 75.1272 34.5208 74.3266 35.5386C73.4839 36.6412 73.1047 37.9135 72.873 39.2706C72.8519 39.3978 72.6202 39.6735 72.5359 39.7795C71.9039 40.9033 72.0303 42.2816 71.7564 43.4903C71.651 43.9568 71.5878 44.9109 72.2199 44.9958C74.0317 45.0806 74.8533 44.1264 76.1174 43.0026C76.5177 42.6421 77.255 41.8999 77.6553 41.6455C78.1188 41.8787 77.6975 43.257 77.5289 43.6387C77.0654 44.6353 76.7073 44.9534 76.4123 46.1196C76.0753 47.5403 75.696 47.8372 74.4109 48.4309C73.5261 48.8126 72.9783 48.24 72.2409 47.7311C71.9881 47.5403 71.7353 47.3495 71.4825 47.1374C71.1033 46.7769 70.8083 46.4377 70.4923 46.0348C70.2184 45.6743 70.071 45.5047 69.8182 45.0806Z" fill="#00E58D"/>
<path d="M78.8351 47.3494C78.793 47.2858 78.7508 47.1798 78.7508 47.0738V47.0314C78.7508 46.4377 79.13 45.4198 79.13 45.4198C79.425 44.9533 79.8042 43.5963 79.8674 43.1086C79.9517 42.5572 79.9727 42.0907 80.1202 41.5394C80.1834 41.3698 80.2256 41.179 80.2888 41.0093C80.4152 40.6701 80.668 40.4792 80.7523 40.1611C80.9419 39.4614 81.0893 37.5742 81.5318 36.8109C81.5739 36.1747 81.911 35.0933 82.0584 34.1603C82.227 33.0365 82.1006 32.6124 82.5851 32.4215C83.0697 32.2307 84.397 31.7006 85.2607 31.5946C85.3871 31.5734 85.5135 31.5734 85.6189 31.5734C86.2298 31.5734 86.4826 31.849 86.5248 32.5276V32.6336C86.5248 32.9941 86.4826 33.4606 86.3562 34.0119C85.8928 34.0543 85.8717 34.7116 85.8717 35.2841C85.8717 35.7718 85.5557 36.4716 85.2186 36.8957C85.0922 37.0441 84.6287 38.592 84.5866 38.7617C84.5444 38.9313 84.4812 38.9525 84.4812 39.0585V39.1009C84.4812 39.1433 84.5023 39.207 84.5023 39.2706L84.5866 39.6098C84.5866 39.7159 84.5444 39.8431 84.418 40.0127C83.5542 41.3698 83.9335 42.1544 83.47 43.5114C83.491 43.5326 83.491 43.5326 83.491 43.5751V43.5963C83.491 44.19 82.4587 47.6675 82.2481 47.6675C81.8056 47.7099 81.1315 47.7947 80.4784 47.7947C79.7831 47.7947 79.1511 47.6887 78.8351 47.3494Z" fill="#00E58D"/>
<path d="M87.0725 41.3274C87.2411 41.1365 87.2411 40.8397 87.3885 40.5852C87.6203 40.2247 87.9784 40.1187 87.9784 39.631V39.525C87.9784 39.3342 88.0627 39.5038 88.1891 39.2493C88.3787 38.8677 88.4841 38.592 88.5262 38.1255C88.5894 37.553 88.9475 37.8923 89.0318 37.2349C89.0739 36.8532 89.1371 36.726 89.2636 36.4079C89.4742 35.9414 89.7481 35.5174 89.9588 35.0297C90.0852 34.7116 90.3169 34.3935 90.5065 34.0967C90.6119 33.8846 90.7594 33.6726 90.8647 33.4605C91.3703 32.4639 91.9392 31.849 92.6765 31.0856C93.772 29.8982 94.4673 29.3893 95.0572 29.3893C95.2257 29.3893 95.3521 29.4317 95.4996 29.4953C96.1527 29.771 96.7426 30.2375 97.3114 30.7464C97.4378 30.8524 97.5642 30.9372 97.7117 31.0644C98.3437 31.5097 98.4069 32.1247 98.4912 32.7608L98.5122 32.8032C98.5754 33.3545 98.5965 33.9058 98.5965 34.4359C98.5965 34.9448 98.5965 35.4962 98.5755 36.0051C98.5755 36.4928 98.5333 36.5988 98.4701 36.5988C98.428 36.5988 98.3858 36.5352 98.3648 36.5352L98.3437 36.5564V36.5776C98.3437 36.6412 98.4069 36.832 98.4069 36.9381C98.3858 37.3833 98.3226 37.6166 98.3226 37.9347C98.3226 38.1043 98.3437 38.2739 98.4069 38.5284C98.4069 38.5496 98.3016 38.6556 98.2594 38.8465C97.9856 39.9703 98.0698 41.2213 97.7959 42.43C97.7117 42.7693 97.7117 43.0661 97.7117 43.3842V44.0627C97.7117 44.296 97.7117 44.5292 97.6695 44.7625C97.6485 44.9957 97.6274 45.1654 97.6063 45.3986C97.5853 45.7167 97.5642 45.8439 97.4589 46.0984C97.4167 46.2256 97.3746 46.374 97.3746 46.5649C97.3746 46.8193 97.4167 47.1162 97.4167 47.3918C97.4167 47.4979 97.3957 47.6251 97.3957 47.7311C97.2903 48.4096 97.3325 48.7701 96.9111 48.7701C96.7636 48.7701 96.574 48.7277 96.2791 48.6429C95.4364 48.3672 93.8142 47.1586 93.8142 45.9923C93.8142 45.7167 93.8563 45.441 93.8774 45.1866C93.8984 44.8685 93.9616 44.5504 93.9616 44.2324C93.9616 43.7235 93.8142 43.2782 93.1611 43.0661C92.9293 43.0237 92.7187 42.9813 92.4869 42.9813C91.7285 42.9813 90.9911 43.2782 90.654 44.0203C90.338 44.7413 90.4012 44.4656 89.9799 45.0169C89.6217 45.6107 89.706 46.3528 89.4742 47.0526C89.2004 47.8583 89.2846 48.6005 89.0739 49.173C88.9897 49.385 88.8843 49.4487 88.7579 49.4487C88.5683 49.4487 88.3366 49.279 88.0416 49.1306C87.1989 48.6641 86.0191 47.7311 86.0191 46.6073C86.0191 46.48 86.0402 46.3316 86.0613 46.2044C86.1877 45.7379 86.2509 45.4622 86.2509 45.2502C86.2509 44.7625 85.8506 44.9109 85.05 44.0627C84.6497 43.6387 84.5233 43.363 84.4391 42.8117V42.7905C84.4391 42.4724 84.9658 42.3452 85.2186 42.218C85.4503 42.1119 85.6821 41.9847 85.9138 41.8999C86.2509 41.7727 86.8408 41.5606 87.0725 41.3274ZM94.6569 38.5072C94.8254 38.1255 94.9097 37.5106 94.9308 37.0441V36.7684C94.9097 36.6412 94.9097 36.514 94.9097 36.4079C94.9097 36.2595 94.9097 36.1111 94.9308 35.9414C94.9518 35.4962 94.9518 35.1145 94.9729 34.6904C94.994 34.648 94.994 34.4571 94.994 34.3087C94.994 34.1603 94.9729 34.0331 94.9097 34.0118H94.8886C94.5726 34.0118 94.0248 35.0085 93.8774 35.2629C93.8142 35.3689 93.751 35.4537 93.6878 35.581C93.4982 35.9202 93.2664 36.2383 93.0768 36.5776C92.9083 36.8956 92.6976 37.1077 92.4869 37.4046C92.3184 37.6378 91.897 38.4648 91.897 38.9101C91.897 38.9949 91.897 39.0373 91.9181 39.1009C92.0445 39.419 92.3605 39.4826 92.6554 39.4826C92.7608 39.4826 92.8872 39.4614 92.9715 39.4614C93.3507 39.4614 93.8774 39.419 94.1512 39.2281L94.1723 39.2069C94.2777 39.0797 94.5937 38.6132 94.6569 38.5072Z" fill="#00E58D"/>
<path d="M103.421 42.0271C103.421 42.2391 103.463 42.3875 103.463 42.536C103.463 42.6208 103.442 42.6632 103.421 42.748L103.295 43.0237C103.189 43.2781 103.084 43.5114 103.021 43.787C102.936 44.1263 102.852 44.4444 102.789 44.7836C102.747 45.0169 102.726 45.2289 102.726 45.3774C102.726 45.8439 102.894 45.9923 103.252 45.9923C103.463 45.9923 103.737 45.9287 104.095 45.8651C104.706 45.7378 105.17 45.547 105.76 45.3986C106.097 45.2925 106.37 45.2501 106.581 45.2501C107.024 45.2501 107.319 45.4622 107.761 45.9923L108.161 46.48C108.477 46.8829 108.962 47.4342 108.962 47.8159C108.962 48.0703 108.73 48.2612 108.14 48.2824C107.34 48.3036 107.108 48.2612 106.307 48.4732C105.633 48.6428 105.465 48.7277 104.748 48.7489C104.285 48.7701 104.011 48.8337 103.59 48.9821C103.168 49.1093 102.831 49.2154 102.41 49.3214C101.757 49.491 101.462 49.7667 100.893 49.9575C100.83 49.9787 100.766 49.9999 100.703 49.9999C100.092 49.9999 99.5656 49.0033 99.3128 48.5368C99.1232 48.1339 98.9336 47.7947 98.9336 47.4978C98.9336 47.2009 99.1232 46.9677 99.7131 46.8405C99.987 46.7769 100.935 46.8617 100.935 46.5436C100.935 46.48 100.893 46.3952 100.766 46.2892C99.8816 45.547 99.4182 45.2925 99.4182 44.4656C99.4182 44.2323 99.4603 43.9355 99.5446 43.5538C99.9027 42.1967 100.429 40.9456 100.682 39.5249C100.703 39.4825 100.703 39.4401 100.703 39.3977C101.356 37.0228 101.63 35.3689 102.304 33.0364C102.515 32.2942 102.578 31.7005 102.768 30.9796C102.81 30.7675 102.873 30.5555 102.958 30.3646C103.147 29.8557 103.358 29.5801 103.695 29.5801C103.884 29.5801 104.095 29.6649 104.348 29.8345C105.149 30.3646 105.802 30.6403 106.244 31.5097C106.434 31.8702 106.497 32.1246 106.497 32.3367C106.497 32.6123 106.413 32.8668 106.392 33.2696C106.37 34.245 105.907 34.754 105.275 35.8354C104.833 36.5775 104.875 37.1925 104.601 37.8922C104.432 38.3587 104.495 38.4859 104.411 38.91C104.306 39.4401 104.053 39.4825 104.053 39.9066V40.0126C104.074 40.1611 104.095 40.2247 104.095 40.2883C104.095 40.3519 104.074 40.4155 104.053 40.564C104.011 40.7972 103.948 41.0093 103.884 41.2425C103.758 41.6242 103.484 41.7514 103.421 42.0271Z" fill="#00E58D"/>
</g>
<defs>
<clipPath id="clip0">
<rect width="133" height="50" fill="white"/>
</clipPath>
</defs>
</svg>
