<svg width="218" height="52" viewBox="0 0 218 52" fill="none" xmlns="http://www.w3.org/2000/svg">
<g clip-path="url(#clip0)">
<path d="M87.191 22.9924C86.7065 22.8015 85.5899 22.017 85.2739 21.6141C85.0843 21.3596 85 21.1688 85 20.8507C85.0211 20.2358 85.5899 18.7303 85.7584 18.1154C85.948 17.2672 86.0744 16.6098 86.3905 15.8253C86.4958 15.5284 86.5379 15.0619 86.6011 14.7226C86.7065 14.2561 86.8329 13.8109 86.9382 13.3444C86.9804 13.1959 87.0857 12.7718 87.0857 12.6446C87.191 11.8388 87.6756 10.1425 87.9073 9.2307C88.0127 8.70059 88.413 6.41052 88.8554 6.09245C89.045 5.98643 89.2767 5.94402 89.5085 5.94402C90.1194 5.94402 90.8357 6.26209 91.3203 6.49533C92.4158 7.02544 92.3737 7.81001 92.4158 8.84902C92.4369 9.61238 92.4369 10.3333 92.5211 11.1179C92.5843 11.754 93.1532 18.0093 94.0802 18.0093C94.8386 18.0093 95.6181 14.1501 95.9341 13.3444C96.4397 12.1569 96.7347 10.715 96.9875 9.42154C97.1139 8.63698 97.2614 8.02205 97.3667 7.15267C97.4088 6.7922 97.4088 6.51654 97.472 6.13486C97.7038 4.8838 97.7038 3.95081 97.767 2.69975C97.8091 2.19084 97.8934 2 97.9987 2C98.2305 2 98.5465 2.78456 98.694 3.14504C98.8414 3.61154 99.031 4.54453 99.4945 4.79898C99.937 5.07464 99.9791 5.30789 99.9791 5.66836V6.09245L99.958 7.15267C99.958 7.66158 99.9791 8.12807 100.084 8.80662C100.127 8.99746 100.148 9.16709 100.148 9.33673C100.148 10.4818 99.5999 11.7328 99.3892 12.8355C99.3471 13.0051 99.326 13.1323 99.3049 13.2595C98.8204 15.2952 98.083 18.0941 97.0507 19.8965C96.4397 20.9567 94.8386 21.3172 93.8063 21.3172C93.4903 21.3172 93.2164 21.2536 92.8582 21.1476C92.0998 20.7659 91.6363 20.0237 91.2992 19.2816C91.0253 18.6455 90.0984 16.1221 89.677 15.7617C89.5927 15.7193 89.6349 15.7405 89.5506 15.7193C89.3821 15.7405 89.3821 16.0797 89.3399 16.207C89.0029 17.458 88.8975 18.6667 88.5604 19.9389C88.3708 20.7235 88.2866 21.2748 88.1391 22.0594C88.0759 22.3986 87.9284 23.0348 87.4438 23.0348C87.2753 23.0348 87.3385 23.0136 87.191 22.9924Z" fill="#00E58D"/>
<path d="M108.027 7.47077C107.226 7.47077 106.152 8.00088 105.709 8.23413C105.267 8.48858 104.424 9.14592 103.687 9.14592C103.413 9.14592 103.16 9.0611 102.95 8.82785C102.823 8.72183 102.781 8.5734 102.781 8.42497C102.781 7.97968 103.139 7.47077 103.329 7.21632C103.771 6.6226 104.108 6.36814 104.782 5.96526C104.867 5.92285 104.951 5.85924 105.056 5.81683L105.225 5.73201C105.857 5.45635 106.468 5.30792 107.058 5.30792C107.753 5.30792 108.469 5.49876 109.291 5.88044C110.534 6.47416 112.367 7.78884 112.809 8.93388C112.936 9.33676 112.999 9.71844 112.999 10.1213C112.999 10.3546 112.978 10.5878 112.957 10.7999L112.894 11.1179C112.809 11.5844 112.725 12.0085 112.704 12.4962C112.599 13.8321 112.114 14.3622 111.861 15.5284C111.482 17.0976 110.45 19.0484 109.459 20.3843C109.228 20.7023 108.996 20.978 108.701 21.2324C108.027 21.7837 107.29 22.017 106.552 22.017C105.625 22.017 104.698 21.6777 103.708 21.084C101.264 19.5785 100.674 18.3698 100.674 16.6523C100.674 16.0161 100.759 15.3164 100.843 14.4894C100.927 13.7897 101.053 13.302 101.222 12.6446C101.391 11.8177 101.664 9.67603 102.971 9.67603C103.097 9.67603 103.223 9.69724 103.35 9.71844C104.424 10.0365 105.899 10.7787 105.899 11.8389C105.899 11.9449 105.878 12.0721 105.857 12.1994C105.646 12.8991 105.52 13.3656 105.225 14.0229C104.74 15.0619 104.719 15.9737 104.445 17.0552C104.382 17.3308 104.34 17.6065 104.34 17.8821C104.34 18.2002 104.403 18.5395 104.53 18.8787C104.614 19.0696 104.719 19.1332 104.867 19.1332C105.372 19.1332 106.11 18.0306 106.236 17.8185C106.552 17.2884 106.805 16.7159 107.058 16.1646C107.332 15.5709 107.458 15.1256 107.648 14.5106C107.837 13.8109 108.216 13.3868 108.385 12.6022C108.659 11.2664 108.912 10.6726 108.912 9.40037C108.912 9.23074 108.912 9.0611 108.891 8.87026C108.87 8.50979 108.912 7.91606 108.617 7.6192C108.469 7.53439 108.259 7.47077 108.027 7.47077Z" fill="#00E58D"/>
<path d="M122.29 14.1925C122.627 14.6378 122.69 14.8287 122.859 15.3164L122.901 15.4436C123.069 15.9525 123.132 16.4402 123.132 16.8855C123.132 19.0272 121.51 20.4266 119.656 21.4021C119.003 21.7413 118.224 22.1018 117.55 22.2926C116.749 22.5259 116.054 22.6955 115.464 22.6955C114.558 22.6955 113.905 22.2926 113.568 21.0416C113.526 20.7871 113.462 20.3842 113.462 19.9814C113.462 19.3876 113.589 18.8363 114.01 18.8363C114.137 18.8363 114.326 18.8999 114.537 19.0272C114.79 19.1968 115.064 19.2604 115.337 19.2604C115.527 19.2604 115.738 19.2392 115.969 19.1968C117.044 19.0272 118.308 18.6243 119.319 17.8609C119.593 17.6489 119.719 17.458 119.719 17.2672C119.719 16.7371 118.729 16.3978 118.413 16.3766C116.285 16.1858 114.158 15.5496 113.589 13.1747C113.505 13.0051 113.483 12.8143 113.483 12.6022C113.483 10.4182 116.054 7.91604 117.507 6.58017C119.193 5.24429 120.857 4.24768 122.332 4.24768C123.533 4.24768 124.628 4.90502 125.555 6.58017C125.724 6.89823 125.808 7.13148 125.808 7.32232C125.808 7.78882 125.302 7.87364 124.713 7.87364C124.396 7.87364 124.08 7.85243 123.764 7.85243C123.659 7.85243 123.554 7.85243 123.448 7.87364C121.7 8.04327 120.141 9.1459 118.75 10.3333C118.308 10.715 117.465 11.3936 117.465 12.0721C117.465 12.1781 117.486 12.2629 117.528 12.369L117.697 12.4962C119.003 13.1535 121.047 12.6022 122.29 14.1925Z" fill="#00E58D"/>
<path d="M133.055 14.1925C133.392 14.6378 133.456 14.8287 133.624 15.3164L133.666 15.4436C133.835 15.9525 133.898 16.4402 133.898 16.8855C133.898 19.0272 132.276 20.4266 130.422 21.4021C129.769 21.7413 128.989 22.1018 128.315 22.2926C127.514 22.5259 126.819 22.6955 126.229 22.6955C125.323 22.6955 124.67 22.2926 124.333 21.0416C124.291 20.7871 124.228 20.3842 124.228 19.9814C124.228 19.3876 124.354 18.8363 124.776 18.8363C124.902 18.8363 125.092 18.8999 125.302 19.0272C125.555 19.1968 125.829 19.2604 126.103 19.2604C126.293 19.2604 126.503 19.2392 126.735 19.1968C127.809 19.0272 129.073 18.6243 130.085 17.8609C130.359 17.6489 130.485 17.458 130.485 17.2672C130.485 16.7371 129.495 16.3978 129.179 16.3766C127.051 16.1858 124.923 15.5496 124.354 13.1747C124.27 13.0051 124.249 12.8143 124.249 12.6022C124.249 10.4182 126.819 7.91604 128.273 6.58017C129.958 5.24429 131.623 4.24768 133.097 4.24768C134.298 4.24768 135.394 4.90502 136.321 6.58017C136.489 6.89823 136.574 7.13148 136.574 7.32232C136.574 7.78882 136.068 7.87364 135.478 7.87364C135.162 7.87364 134.846 7.85243 134.53 7.85243C134.425 7.85243 134.319 7.85243 134.214 7.87364C132.465 8.04327 130.906 9.1459 129.516 10.3333C129.073 10.715 128.231 11.3936 128.231 12.0721C128.231 12.1781 128.252 12.2629 128.294 12.369L128.463 12.4962C129.769 13.1535 131.812 12.6022 133.055 14.1925Z" fill="#00E58D"/>
<path d="M142.241 7.47077C141.44 7.47077 140.366 8.00088 139.923 8.23413C139.481 8.48858 138.617 9.12472 137.88 9.12472C137.606 9.12472 137.353 9.0399 137.142 8.80665C137.037 8.70063 136.974 8.5522 136.974 8.40377C136.974 7.95847 137.332 7.44957 137.522 7.19511C137.964 6.60139 138.301 6.34694 138.975 5.94405C139.06 5.90165 139.144 5.83803 139.228 5.81683L139.397 5.73201C140.029 5.45635 140.64 5.30792 141.23 5.30792C141.925 5.30792 142.641 5.49876 143.463 5.88044C144.706 6.47416 146.539 7.78884 146.981 8.93388C147.107 9.33676 147.171 9.71844 147.171 10.1213C147.171 10.3546 147.15 10.5878 147.128 10.7999L147.107 11.1179C147.023 11.5844 146.939 12.0085 146.918 12.4962C146.812 13.8321 146.328 14.3622 146.075 15.5284C145.696 17.0976 144.664 19.0484 143.673 20.3843C143.442 20.7023 143.21 20.978 142.915 21.2324C142.241 21.7837 141.503 22.017 140.766 22.017C139.86 22.017 138.933 21.6777 137.943 21.084C135.478 19.5785 134.909 18.3698 134.909 16.6523C134.909 16.0161 134.993 15.3164 135.078 14.4894C135.162 13.7897 135.288 13.302 135.457 12.6446C135.626 11.8177 135.899 9.67603 137.206 9.67603C137.332 9.67603 137.458 9.69724 137.585 9.71844C138.659 10.0365 140.134 10.7787 140.134 11.8389C140.134 11.9449 140.113 12.0721 140.092 12.1994C139.881 12.8779 139.755 13.3444 139.46 14.0017C138.975 15.0407 138.975 15.9737 138.701 17.034C138.617 17.3096 138.596 17.5853 138.596 17.8609C138.596 18.179 138.659 18.5183 138.786 18.8575C138.87 19.0484 138.975 19.112 139.123 19.112C139.628 19.112 140.366 18.0094 140.492 17.7973C140.808 17.2672 141.061 16.6947 141.314 16.1434C141.588 15.5497 141.714 15.1044 141.904 14.4894C142.093 13.7897 142.473 13.3656 142.641 12.581C142.915 11.2452 143.168 10.6514 143.168 9.37917C143.168 9.20953 143.168 9.0399 143.147 8.84906C143.126 8.48858 143.168 7.89486 142.873 7.598C142.683 7.53439 142.473 7.47077 142.241 7.47077Z" fill="#00E58D"/>
<path d="M162.108 4.98981C162.803 4.905 163.814 4.75657 164.383 4.65054C165.731 4.4385 167.164 4.4385 168.554 4.26886C168.702 4.24766 169.587 4.16284 170.345 4.16284C170.977 4.16284 171.504 4.22646 171.504 4.4385V4.48091C171.419 4.71416 170.956 4.96861 170.745 5.18065C170.45 5.47752 170.345 5.66835 170.092 5.98642C169.713 6.43171 169.439 6.17726 168.976 6.94062C168.786 7.25869 168.66 7.17387 168.323 7.25869C167.964 7.3435 167.901 7.36471 167.522 7.42832C167.101 7.47073 166.764 7.53434 166.363 7.64036C166.005 7.72518 165.626 7.76759 165.31 7.87361C165.078 7.93723 164.825 8.04325 164.678 8.25529C164.551 8.36131 164.446 8.57336 164.362 8.7642C164.32 8.87022 164.299 8.95504 164.256 9.03986C163.898 10.3757 163.561 11.754 163.161 13.0687C162.95 13.9169 162.445 15.5072 162.234 16.3342C162.044 17.0975 161.792 17.8185 161.623 18.603C161.391 19.5148 161.138 20.4266 160.928 21.3384C160.886 21.508 160.759 22.0594 160.549 22.0594H160.528C160.443 22.0382 160.212 21.9533 160.064 21.9321L159.938 21.9109C159.348 21.8473 159.348 21.6353 158.969 21.2112C158.589 20.8083 158.02 20.1086 158.02 19.536C158.02 19.0059 158.379 18.5818 158.484 18.0517C158.737 16.7159 159.011 15.4648 159.327 14.1077C159.579 13.1111 159.853 12.1145 160.127 11.1391C160.212 10.8422 160.506 9.99405 160.506 9.42154C160.506 9.18829 160.464 9.01865 160.338 8.95504C160.148 8.82781 159.748 8.7854 159.348 8.7854C158.674 8.7854 157.873 8.89142 157.515 8.95504C157.072 9.03986 156.567 9.14588 156.167 9.18829C156.061 9.20949 155.956 9.20949 155.872 9.20949C155.492 9.20949 155.345 9.06106 155.345 8.82781C155.345 8.59456 155.471 8.2977 155.619 8.02204C155.872 7.57675 155.935 7.3435 155.935 6.8558V6.72858C155.935 6.19846 156.293 6.17726 156.735 5.96522C157.22 5.73197 157.557 5.68956 158.084 5.60474L158.168 5.58354C158.4 5.54113 158.631 5.49872 158.842 5.47752C159.664 5.30788 160.464 5.20186 161.265 5.07463C161.581 5.05343 161.834 5.01102 162.108 4.98981Z" fill="#00E58D"/>
<path d="M174.516 7.47077C173.716 7.47077 172.641 8.00088 172.199 8.23413C171.757 8.48858 170.893 9.12472 170.155 9.12472C169.882 9.12472 169.629 9.0399 169.418 8.80665C169.334 8.72183 169.271 8.5734 169.271 8.42497C169.271 7.97968 169.629 7.47077 169.818 7.21632C170.261 6.6226 170.598 6.36814 171.272 5.96526C171.377 5.92285 171.462 5.85924 171.546 5.81683L171.714 5.73201C172.346 5.45635 172.957 5.30792 173.547 5.30792C174.243 5.30792 174.959 5.49876 175.78 5.88044C177.023 6.47416 178.856 7.78884 179.299 8.93388C179.425 9.33676 179.488 9.71844 179.488 10.1213C179.488 10.3546 179.467 10.5878 179.446 10.7999L179.404 11.1179C179.32 11.5844 179.236 12.0085 179.214 12.4962C179.109 13.8321 178.625 14.3622 178.372 15.5284C177.993 17.0976 176.96 19.0484 175.97 20.3843C175.738 20.7023 175.507 20.978 175.212 21.2324C174.537 21.7837 173.8 22.017 173.063 22.017C172.157 22.017 171.23 21.6777 170.24 21.084C167.775 19.5785 167.206 18.3698 167.206 16.6523C167.206 16.0161 167.29 15.3164 167.374 14.4894C167.459 13.7897 167.585 13.302 167.754 12.6446C167.922 11.8177 168.196 9.67603 169.502 9.67603C169.629 9.67603 169.755 9.69724 169.882 9.71844C170.956 10.0365 172.431 10.7787 172.431 11.8389C172.431 11.9449 172.41 12.0721 172.389 12.1994C172.178 12.8779 172.051 13.3444 171.757 14.0017C171.272 15.0407 171.272 15.9737 170.998 17.034C170.914 17.3096 170.893 17.5853 170.893 17.8609C170.893 18.179 170.956 18.5183 171.082 18.8575C171.167 19.0484 171.272 19.112 171.419 19.112C171.925 19.112 172.662 18.0094 172.789 17.7973C173.105 17.2672 173.358 16.6947 173.61 16.1434C173.884 15.5497 174.011 15.1044 174.2 14.4894C174.39 13.7897 174.769 13.3656 174.938 12.581C175.212 11.2452 175.464 10.6514 175.464 9.37917C175.464 9.20953 175.464 9.0399 175.443 8.84906C175.422 8.48858 175.464 7.89486 175.169 7.598C174.959 7.53439 174.748 7.47077 174.516 7.47077Z" fill="#00E58D"/>
<path d="M187.515 24.6675C186.883 24.4555 186.146 23.0348 185.893 22.4411C185.788 22.229 185.724 22.0382 185.64 21.8261C185.472 21.8685 185.303 21.8685 185.113 21.8685C184.25 21.8685 183.259 21.5081 182.438 20.8719C180.457 19.324 179.825 18.0305 179.825 16.2918C179.825 15.486 179.952 14.5954 180.141 13.514C180.268 12.7506 180.457 12.1781 180.668 11.436C180.921 10.5242 181.49 8.06447 182.712 8.06447C182.817 8.06447 182.943 8.08567 183.049 8.12808C183.976 8.44615 185.177 9.20951 185.177 10.3333C185.177 10.503 185.156 10.6726 185.092 10.8634C184.84 11.6268 184.545 12.1569 184.208 12.8991C183.681 14.0653 183.575 15.1043 183.217 16.313C183.154 16.525 183.133 16.7159 183.133 16.9279C183.133 17.4156 183.281 17.8821 183.407 18.391C183.449 18.6031 183.597 18.6667 183.786 18.6667C184.018 18.6667 184.292 18.5394 184.481 18.3486C184.502 18.3274 184.502 18.285 184.502 18.2638C184.524 18.1366 184.524 17.8609 184.524 17.7125C184.524 17.1824 184.502 16.7371 184.502 16.2918C184.502 15.8889 184.524 15.5496 184.545 15.4648C184.587 15.2316 184.65 15.2104 185.071 15.2104C185.556 15.2316 185.767 15.38 186.125 15.592C186.525 14.7439 186.63 14.4046 186.946 13.4504C187.199 12.6446 187.557 12.1781 187.789 11.3087C188.231 9.59119 188.505 8.95505 188.59 7.08907C188.611 6.91943 188.632 6.68618 188.632 6.45293C188.632 6.17728 188.59 5.88041 188.463 5.68957C188.337 5.58355 188.147 5.51994 187.936 5.51994C187.199 5.51994 186.146 6.13487 185.724 6.41052C185.282 6.70739 184.418 7.44954 183.744 7.44954C183.365 7.44954 183.007 7.19509 183.007 6.74979C183.007 6.26209 183.407 5.62596 183.618 5.28669C184.208 4.41731 184.65 4.12045 185.472 3.61154C186.104 3.27227 186.672 3.12384 187.241 3.12384C187.873 3.12384 188.484 3.31468 189.179 3.71756C190.254 4.3537 191.813 5.7956 192.108 7.08907C192.171 7.36472 192.192 7.66158 192.192 7.93724C192.192 9.06107 191.876 9.86684 191.687 11.0755C191.455 12.5598 190.97 13.1747 190.633 14.4894C190.149 16.2706 189.011 18.4758 187.979 19.9601C187.852 20.151 187.726 20.3206 187.578 20.4903C187.62 20.7871 187.663 21.1052 187.726 21.3596V21.3808C188 22.6107 188.21 23.9466 188.21 24.3919L188.189 24.4979C188.147 24.6463 188.063 24.7311 187.894 24.7311C187.852 24.7523 187.705 24.7311 187.515 24.6675Z" fill="#00E58D"/>
<path d="M196.574 9.6124C196.89 9.97287 196.996 10.2909 196.996 10.609C196.996 11.0755 196.764 11.542 196.595 12.0933C196.49 12.4114 196.406 12.687 196.258 12.9839C196.026 13.4716 195.774 14.5106 195.584 15.1043C195.268 16.0797 194.973 17.2672 194.847 18.3062V18.4122C194.847 18.5395 194.889 18.6031 194.952 18.6031C195.057 18.6031 195.184 18.5183 195.289 18.4758C195.394 18.391 195.521 18.2426 195.626 18.1366C195.858 17.8821 196.09 17.6277 196.3 17.352C197.143 16.2918 198.26 14.5742 198.955 13.2596C199.25 12.7082 199.587 12.0721 199.713 11.8389C200.029 11.2663 200.872 9.50638 200.893 9.37915C200.935 9.18831 201.209 8.6794 201.293 8.46736C201.609 7.66159 201.989 6.09247 202.642 5.62597C202.726 5.58356 202.789 5.51995 202.895 5.49874C202.958 5.47754 203.021 5.47754 203.084 5.47754C203.906 5.47754 205.486 6.7074 205.549 7.57678C205.549 7.64039 205.57 7.704 205.57 7.74641C205.57 8.21291 205.402 8.59459 205.317 9.01868C204.959 10.4394 203.969 12.9839 203.653 14.0441C202.81 17.0764 202.557 19.1544 202.305 22.3987C202.262 22.9288 202.115 23.2892 201.841 23.2892C201.673 23.2892 201.441 23.1408 201.146 22.8015C200.24 21.7625 200.324 19.9602 200.05 18.7091C199.755 18.7091 197.986 21.296 197.649 21.6565C197.143 22.1442 196.658 22.5471 195.9 22.5471H195.816C194.636 22.3987 194.173 21.8685 193.288 20.978C192.487 20.1086 191.96 19.0696 191.729 17.9245C191.687 17.7337 191.687 17.5216 191.687 17.3096C191.687 16.6311 191.834 15.8465 191.96 15.2952L192.003 15.0619C192.171 14.447 192.276 13.9381 192.403 13.302C192.424 13.1535 192.466 13.0263 192.508 12.8567C192.698 12.1781 192.908 11.3724 193.119 10.715C193.372 10.0153 193.498 9.1459 193.941 8.57338L194.004 8.48857C194.173 8.29773 194.341 8.21291 194.552 8.21291C194.699 8.21291 194.847 8.25532 195.015 8.34013C195.626 8.61579 196.153 9.10349 196.574 9.6124Z" fill="#00E58D"/>
<path d="M204.538 15.1043C204.538 14.9771 204.601 14.8287 204.727 14.6378C204.896 14.4258 205.191 14.1925 205.633 13.8957C206.602 13.1959 206.94 12.3477 207.298 11.2875C207.508 10.6726 207.951 9.50635 207.951 8.7854C207.951 8.67938 207.951 8.59456 207.93 8.50974C207.909 8.36131 207.866 8.27649 207.782 8.17047C207.656 8.00084 207.508 7.97963 207.382 7.97963C207.277 7.97963 207.192 8.00084 207.087 8.00084C206.897 8.00084 206.708 7.93722 206.539 7.57675C206.371 7.21627 206.139 6.60135 206.139 6.05003C206.139 5.66835 206.244 5.30788 206.581 5.09583L206.687 5.01102C207.403 4.73536 208.351 4.50211 209.088 4.31127C210.774 3.90839 212.501 3.52671 214.166 3.18744C214.608 3.08141 215.261 2.93298 215.851 2.93298C216.272 2.93298 216.652 3.0178 216.905 3.27225C217.178 3.59032 218.021 4.79897 218.021 5.54113C218.021 5.77437 217.937 5.96521 217.705 6.07124C217.242 6.26208 215.683 6.30448 215.051 6.41051C213.871 6.60135 212.712 6.8558 211.532 7.06784C211.111 7.15266 210.711 7.21627 210.289 7.30109C209.489 7.44952 209.152 7.55554 209.152 7.66157C209.152 7.78879 209.678 7.91602 210.416 8.04325C210.647 8.08565 210.879 8.12806 211.111 8.21288C211.617 8.44613 211.806 8.74299 211.806 9.08226C211.806 9.63358 211.364 10.2697 211.111 10.9058C211.006 11.1391 210.795 11.6268 210.795 11.9661C210.795 12.0933 210.816 12.1993 210.9 12.2417C211.827 12.2205 212.796 11.7752 213.786 11.7752C213.934 11.7752 214.103 11.7964 214.25 11.8176C214.882 11.9237 214.713 12.3689 215.324 12.7718C215.409 12.8142 215.472 12.8566 215.556 12.8991C215.788 13.0263 216.083 13.1535 216.083 13.3656C216.083 13.4504 216.02 13.5564 215.851 13.6624C215.472 13.8957 214.018 14.1925 213.513 14.341C213.133 14.447 212.754 14.5318 212.375 14.6378C211.764 14.8075 210.163 15.1891 209.699 15.5496C209.299 15.8465 209.088 16.2494 208.92 16.6522C208.878 16.7583 208.857 16.8431 208.815 16.9067L208.793 16.9491C208.667 17.2036 208.625 17.352 208.604 17.6064C208.604 17.6488 208.583 17.7125 208.583 17.7549L208.562 17.8397C208.541 18.0305 208.456 18.0093 208.435 18.2426C208.414 18.4122 208.351 18.5606 208.33 18.7515C208.33 18.8363 208.309 19.0907 208.309 19.2392V19.324C208.351 19.4724 208.499 19.536 208.625 19.5996C208.793 19.6421 208.962 19.6421 209.152 19.6421C210.963 19.6421 213.407 18.2002 214.945 17.352C215.198 17.2248 216.251 16.6098 216.757 16.6098C216.926 16.6098 217.01 16.6734 217.01 16.8219C217.01 16.9067 216.989 16.9915 216.947 17.0975C216.673 17.7761 216.251 17.564 216.062 18.5818C215.956 19.0695 215.662 19.4512 215.409 19.9389C214.945 20.7871 212.86 21.9109 211.954 22.229C211.258 22.4834 210.711 22.5895 210.058 22.5895C209.889 22.5895 209.699 22.5683 209.51 22.5683C209.194 22.5047 208.941 22.4198 208.667 22.335C208.562 22.2926 208.499 22.2502 208.414 22.2078C207.55 21.7201 206.792 20.8719 206.202 20.1086C205.507 19.1544 205.423 18.0729 205.402 16.8431C205.402 15.9949 204.538 15.6344 204.538 15.1043Z" fill="#00E58D"/>
<path d="M108.575 42.67C108.575 42.5428 108.638 42.3944 108.764 42.2035C108.933 41.9915 109.228 41.7582 109.67 41.4614C110.639 40.7616 110.976 39.9135 111.335 38.8532C111.545 38.2383 111.988 37.0721 111.988 36.3511C111.988 36.2451 111.988 36.1603 111.967 36.0755C111.924 35.927 111.882 35.8422 111.798 35.7362C111.672 35.5665 111.524 35.5453 111.398 35.5453C111.292 35.5453 111.208 35.5665 111.103 35.5665C110.913 35.5665 110.724 35.5029 110.555 35.1425C110.387 34.782 110.155 34.1883 110.155 33.6369C110.155 33.2553 110.26 32.8948 110.597 32.6827L110.703 32.5979C111.419 32.3223 112.367 32.089 113.104 31.8982C114.79 31.4953 116.517 31.1136 118.182 30.7744C118.624 30.6683 119.277 30.5199 119.867 30.5199C120.288 30.5199 120.668 30.6047 120.92 30.8592C121.194 31.1772 122.037 32.3859 122.037 33.128C122.037 33.3613 121.953 33.5521 121.721 33.6582C121.257 33.849 119.698 33.8914 119.066 33.9974C117.887 34.1883 116.728 34.4427 115.548 34.6548C115.127 34.7396 114.726 34.8032 114.305 34.888C113.505 35.0364 113.167 35.1425 113.167 35.2485C113.167 35.3757 113.694 35.5029 114.431 35.6302C114.663 35.6726 114.895 35.715 115.127 35.7998C115.632 36.033 115.822 36.3299 115.822 36.6692C115.822 37.2205 115.38 37.8566 115.127 38.4928C115.021 38.726 114.811 39.2137 114.811 39.553C114.811 39.6802 114.832 39.7862 114.916 39.8286C115.843 39.8074 116.812 39.3621 117.802 39.3621C117.95 39.3621 118.118 39.3833 118.266 39.4045C118.898 39.5106 118.729 39.9559 119.34 40.3587C119.425 40.4012 119.488 40.4436 119.572 40.486C119.804 40.6132 120.099 40.7404 120.099 40.9525C120.099 41.0373 120.035 41.1433 119.867 41.2493C119.488 41.4826 118.034 41.7794 117.528 41.9279C117.149 42.0339 116.77 42.1187 116.391 42.2247C115.78 42.3944 114.179 42.776 113.715 43.1365C113.336 43.4334 113.125 43.8363 112.957 44.2604C112.915 44.3452 112.872 44.43 112.851 44.5148L112.83 44.5572C112.704 44.8117 112.662 44.9601 112.641 45.2146C112.641 45.257 112.62 45.3206 112.62 45.363L112.599 45.4478C112.578 45.6386 112.493 45.6174 112.472 45.8507C112.451 46.0203 112.388 46.1688 112.367 46.3596C112.367 46.4444 112.346 46.6989 112.346 46.8473V46.9321C112.388 47.0805 112.535 47.1442 112.662 47.2078C112.83 47.2502 112.999 47.2502 113.189 47.2502C115 47.2502 117.444 45.8083 118.982 44.9601C119.235 44.8329 120.288 44.2179 120.794 44.2179C120.962 44.2179 121.047 44.2816 121.047 44.43C121.047 44.5148 121.026 44.5996 120.984 44.7056C120.71 45.3842 120.288 45.1721 120.099 46.19C119.993 46.6777 119.698 47.0593 119.446 47.547C118.982 48.3952 116.896 49.5191 115.991 49.8371C115.295 50.0916 114.748 50.1976 114.094 50.1976C113.926 50.1976 113.736 50.1764 113.547 50.1764C113.231 50.1128 112.978 50.028 112.704 49.9431C112.599 49.9007 112.535 49.8583 112.451 49.8159C111.587 49.3282 110.829 48.48 110.239 47.7167C109.502 46.7625 109.438 45.6811 109.417 44.4512C109.438 43.5606 108.575 43.2001 108.575 42.67Z" fill="#00E58D"/>
<path d="M129.368 41.7583C129.705 42.2036 129.769 42.3944 129.937 42.8821L129.979 43.0093C130.148 43.5182 130.211 44.006 130.211 44.4512C130.211 46.5929 128.589 47.9924 126.735 48.9678C126.082 49.3071 125.302 49.6675 124.628 49.8584C123.828 50.0916 123.132 50.2613 122.542 50.2613C121.637 50.2613 120.983 49.8584 120.646 48.6073C120.604 48.3529 120.541 47.95 120.541 47.5471C120.541 46.9534 120.667 46.4021 121.089 46.4021C121.215 46.4021 121.405 46.4657 121.616 46.5929C121.868 46.7625 122.142 46.8261 122.416 46.8261C122.606 46.8261 122.816 46.8049 123.048 46.7625C124.123 46.5929 125.387 46.19 126.398 45.4266C126.672 45.2146 126.798 45.0238 126.798 44.8329C126.798 44.3028 125.808 43.9635 125.492 43.9423C123.364 43.7515 121.236 43.1154 120.667 40.7405C120.625 40.5496 120.604 40.3588 120.604 40.168C120.604 37.9839 123.175 35.4818 124.628 34.1459C126.314 32.81 127.978 31.8134 129.453 31.8134C130.654 31.8134 131.749 32.4708 132.676 34.1459C132.845 34.464 132.929 34.6972 132.929 34.8881C132.929 35.3546 132.423 35.4394 131.833 35.4394C131.517 35.4394 131.201 35.4182 130.885 35.4182C130.78 35.4182 130.675 35.4182 130.569 35.4394C128.821 35.609 127.262 36.7116 125.871 37.8991C125.429 38.2808 124.586 38.9593 124.586 39.6378C124.586 39.7439 124.607 39.8287 124.649 39.9347L124.818 40.0619C126.082 40.7193 128.104 40.168 129.368 41.7583Z" fill="#00E58D"/>
<path d="M133.835 50.6005C133.329 50.6005 132.444 49.7099 132.17 49.4766C131.581 48.9253 131.075 48.3952 131.075 47.6319C131.075 47.5046 131.096 47.3562 131.117 47.229C131.243 46.6141 131.602 45.9779 131.665 45.3842C131.728 44.8541 131.77 44.7481 131.939 44.2392C132.065 43.8363 132.149 43.2638 132.234 42.8397C132.318 42.458 132.402 42.0975 132.486 41.7158L132.971 39.8498C133.161 39.1713 133.308 38.4504 133.456 37.7506C133.519 37.5598 133.898 36.3511 133.898 36.0967V36.0543C133.076 35.2273 132.002 34.782 132.002 34.0398C132.002 33.6582 132.255 33.2341 132.971 32.6404C133.729 32.0042 134.677 31.1985 135.583 30.7744C136.742 30.2655 137.901 29.8414 139.186 29.8414C139.355 29.8414 139.523 29.8626 139.671 29.8626C141.946 30.4775 143.758 31.8982 144.6 34.4003C144.748 34.8668 144.832 35.2485 144.832 35.609C144.832 36.1815 144.664 36.6904 144.369 37.3265C144.284 37.4962 144.2 37.6446 144.137 37.793C143.884 38.2171 143.61 38.62 143.336 39.0229C142.978 39.553 142.578 39.9983 142.156 40.486C141.524 41.2493 140.808 41.8855 140.071 42.5428C139.144 43.3698 138.154 44.0059 137.1 44.6208C136.384 45.0449 135.562 45.6811 135.246 46.5292C135.141 46.7837 135.078 47.0593 134.972 47.335C134.783 47.8863 134.635 48.5649 134.488 49.1586C134.425 49.413 134.235 50.2188 134.109 50.4308C134.045 50.5581 133.94 50.6005 133.835 50.6005ZM136.489 34.1035C136.321 34.2307 136.173 34.2519 135.942 34.4851C135.815 34.5912 135.436 35.0789 135.436 35.3757C135.436 35.4393 135.457 35.5029 135.478 35.5454C135.583 35.6514 135.752 35.8634 135.942 35.9906C136.384 36.3087 137.058 36.8812 137.079 37.4962V37.581C137.079 37.8142 136.995 38.1323 136.953 38.3443C136.869 38.6836 136.784 39.0229 136.7 39.3833C136.616 39.765 136.531 40.0619 136.447 40.4224L136.363 40.7192C136.342 40.7616 136.321 40.8889 136.321 40.9737C136.321 41.0585 136.342 41.1433 136.426 41.1433C136.447 41.1433 136.468 41.1433 136.489 41.1221C136.742 41.0161 137.332 40.486 137.585 40.2739L137.606 40.2527C139.333 38.7896 141.356 36.5844 141.946 34.1671C141.988 33.9762 142.03 33.849 142.03 33.7006C142.03 33.5521 142.009 33.4037 141.946 33.2129C141.862 32.9796 141.546 32.6828 141.335 32.6191C141.124 32.5555 140.871 32.5343 140.619 32.5343C139.881 32.5343 139.06 32.7464 138.491 32.9372C138.259 33.022 138.006 33.1068 137.774 33.2129C137.206 33.4673 136.974 33.7218 136.489 34.1035Z" fill="#00E58D"/>
<path d="M142.81 42.67C142.81 42.5428 142.873 42.3944 142.999 42.2035C143.168 41.9915 143.463 41.7582 143.905 41.4614C144.874 40.7616 145.211 39.9135 145.569 38.8532C145.78 38.2383 146.223 37.0721 146.223 36.3511C146.223 36.2451 146.223 36.1603 146.201 36.0755C146.159 35.927 146.117 35.8422 146.033 35.7362C145.907 35.5665 145.759 35.5453 145.633 35.5453C145.527 35.5453 145.443 35.5665 145.338 35.5665C145.148 35.5665 144.958 35.5029 144.79 35.1425C144.621 34.782 144.39 34.1883 144.39 33.6369C144.39 33.2553 144.495 32.8948 144.832 32.6827L144.937 32.5979C145.654 32.3223 146.602 32.089 147.339 31.8982C149.025 31.4953 150.752 31.1136 152.416 30.7744C152.859 30.6683 153.512 30.5199 154.102 30.5199C154.523 30.5199 154.902 30.6047 155.155 30.8592C155.429 31.1772 156.272 32.3859 156.272 33.128C156.272 33.3613 156.188 33.5521 155.956 33.6582C155.492 33.849 153.933 33.8914 153.301 33.9974C152.121 34.1883 150.963 34.4427 149.783 34.6548C149.362 34.7396 148.961 34.8032 148.54 34.888C147.739 35.0364 147.402 35.1425 147.402 35.2485C147.402 35.3757 147.929 35.5029 148.666 35.6302C148.898 35.6726 149.13 35.715 149.362 35.7998C149.867 36.033 150.057 36.3299 150.057 36.6692C150.057 37.2205 149.614 37.8566 149.362 38.4928C149.256 38.726 149.046 39.2137 149.046 39.553C149.046 39.6802 149.067 39.7862 149.151 39.8286C150.078 39.8074 151.047 39.3621 152.037 39.3621C152.185 39.3621 152.353 39.3833 152.501 39.4045C153.133 39.5106 152.964 39.9559 153.575 40.3587C153.659 40.4012 153.723 40.4436 153.807 40.486C154.039 40.6132 154.334 40.7404 154.334 40.9525C154.334 41.0373 154.27 41.1433 154.102 41.2493C153.723 41.4826 152.269 41.7794 151.763 41.9279C151.384 42.0339 151.005 42.1187 150.626 42.2247C150.015 42.3944 148.414 42.776 147.95 43.1365C147.571 43.4334 147.36 43.8363 147.192 44.2604C147.15 44.3452 147.107 44.43 147.086 44.5148L147.065 44.5572C146.939 44.8117 146.897 44.9601 146.876 45.2146C146.876 45.257 146.855 45.3206 146.855 45.363L146.834 45.4478C146.812 45.6386 146.728 45.6174 146.707 45.8507C146.686 46.0203 146.623 46.1688 146.602 46.3596C146.602 46.4444 146.581 46.6989 146.581 46.8473V46.9321C146.623 47.0805 146.77 47.1442 146.897 47.2078C147.065 47.2502 147.234 47.2502 147.423 47.2502C149.235 47.2502 151.679 45.8083 153.217 44.9601C153.47 44.8329 154.523 44.2179 155.029 44.2179C155.197 44.2179 155.282 44.2816 155.282 44.43C155.282 44.5148 155.261 44.5996 155.218 44.7056C154.945 45.3842 154.523 45.1721 154.334 46.19C154.228 46.6777 153.933 47.0593 153.68 47.547C153.217 48.3952 151.131 49.5191 150.225 49.8371C149.53 50.0916 148.982 50.1976 148.329 50.1976C148.161 50.1976 147.971 50.1764 147.782 50.1764C147.466 50.1128 147.213 50.028 146.939 49.9431C146.834 49.9007 146.77 49.8583 146.686 49.8159C145.822 49.3282 145.064 48.48 144.474 47.7167C143.737 46.7625 143.673 45.6811 143.652 44.4512C143.673 43.5606 142.81 43.2001 142.81 42.67Z" fill="#00E58D"/>
<path d="M154.818 47.0806C154.544 46.5929 154.228 46.19 153.954 45.6599C153.659 45.1086 153.47 44.6209 153.428 44.0271C153.28 42.246 153.849 39.8287 154.355 38.3656C154.607 37.6234 154.902 36.9025 155.197 36.1815C156.019 34.2731 156.504 33.4886 157.494 32.4495C158.358 31.559 159.221 31.05 159.811 31.05C160.907 31.2409 162.087 32.5344 162.887 33.5734C164.088 35.1637 164.888 36.1391 164.025 38.1111C163.835 38.5776 163.14 40.38 162.592 40.4012C162.129 40.4224 161.286 39.9347 160.865 39.7227C160.78 39.6378 160.696 39.4682 160.612 39.3622C160.527 39.2562 160.422 39.1077 160.422 38.9805C160.422 38.8957 160.443 38.8109 160.464 38.7473C160.57 38.3444 160.865 37.9203 161.012 37.475C161.096 37.2205 161.138 37.0085 161.16 36.7328C161.181 36.4996 161.181 36.2663 161.138 36.0331L161.096 35.6938C160.928 35.0789 160.275 35.4182 160.064 35.9271C159.727 37.0721 160.127 36.5208 159.327 37.5386C158.484 38.6412 158.105 39.9135 157.873 41.2706C157.852 41.3978 157.62 41.6735 157.536 41.7795C156.904 42.9033 157.03 44.2816 156.756 45.4903C156.651 45.9568 156.588 46.9109 157.22 46.9958C159.032 47.0806 159.853 46.1264 161.117 45.0026C161.518 44.6421 162.255 43.8999 162.655 43.6455C163.119 43.8787 162.697 45.257 162.529 45.6387C162.065 46.6353 161.707 46.9534 161.412 48.1196C161.075 49.5403 160.696 49.8372 159.411 50.4309C158.526 50.8126 157.978 50.24 157.241 49.7311C156.988 49.5403 156.735 49.3495 156.483 49.1374C156.103 48.7769 155.808 48.4377 155.492 48.0348C155.218 47.6743 155.071 47.5047 154.818 47.0806Z" fill="#00E58D"/>
<path d="M163.835 49.3494C163.793 49.2858 163.751 49.1798 163.751 49.0738V49.0314C163.751 48.4377 164.13 47.4198 164.13 47.4198C164.425 46.9533 164.804 45.5963 164.867 45.1086C164.952 44.5572 164.973 44.0907 165.12 43.5394C165.183 43.3698 165.226 43.179 165.289 43.0093C165.415 42.6701 165.668 42.4792 165.752 42.1611C165.942 41.4614 166.089 39.5742 166.532 38.8109C166.574 38.1747 166.911 37.0933 167.058 36.1603C167.227 35.0365 167.101 34.6124 167.585 34.4215C168.07 34.2307 169.397 33.7006 170.261 33.5946C170.387 33.5734 170.514 33.5734 170.619 33.5734C171.23 33.5734 171.483 33.849 171.525 34.5276V34.6336C171.525 34.9941 171.483 35.4606 171.356 36.0119C170.893 36.0543 170.872 36.7116 170.872 37.2841C170.872 37.7718 170.556 38.4716 170.219 38.8957C170.092 39.0441 169.629 40.592 169.587 40.7617C169.544 40.9313 169.481 40.9525 169.481 41.0585V41.1009C169.481 41.1433 169.502 41.207 169.502 41.2706L169.587 41.6098C169.587 41.7159 169.544 41.8431 169.418 42.0127C168.554 43.3698 168.933 44.1544 168.47 45.5114C168.491 45.5326 168.491 45.5326 168.491 45.5751V45.5963C168.491 46.19 167.459 49.6675 167.248 49.6675C166.806 49.7099 166.131 49.7947 165.478 49.7947C164.783 49.7947 164.151 49.6887 163.835 49.3494Z" fill="#00E58D"/>
<path d="M172.073 43.3274C172.241 43.1365 172.241 42.8397 172.389 42.5852C172.62 42.2247 172.978 42.1187 172.978 41.631V41.525C172.978 41.3342 173.063 41.5038 173.189 41.2493C173.379 40.8677 173.484 40.592 173.526 40.1255C173.589 39.553 173.948 39.8923 174.032 39.2349C174.074 38.8532 174.137 38.726 174.264 38.4079C174.474 37.9414 174.748 37.5174 174.959 37.0297C175.085 36.7116 175.317 36.3935 175.507 36.0967C175.612 35.8846 175.759 35.6726 175.865 35.4605C176.37 34.4639 176.939 33.849 177.677 33.0856C178.772 31.8982 179.467 31.3893 180.057 31.3893C180.226 31.3893 180.352 31.4317 180.5 31.4953C181.153 31.771 181.743 32.2375 182.311 32.7464C182.438 32.8524 182.564 32.9372 182.712 33.0644C183.344 33.5097 183.407 34.1247 183.491 34.7608L183.512 34.8032C183.575 35.3545 183.597 35.9058 183.597 36.4359C183.597 36.9448 183.597 37.4962 183.575 38.0051C183.575 38.4928 183.533 38.5988 183.47 38.5988C183.428 38.5988 183.386 38.5352 183.365 38.5352L183.344 38.5564V38.5776C183.344 38.6412 183.407 38.832 183.407 38.9381C183.386 39.3833 183.323 39.6166 183.323 39.9347C183.323 40.1043 183.344 40.2739 183.407 40.5284C183.407 40.5496 183.302 40.6556 183.259 40.8465C182.986 41.9703 183.07 43.2213 182.796 44.43C182.712 44.7693 182.712 45.0661 182.712 45.3842V46.0627C182.712 46.296 182.712 46.5292 182.67 46.7625C182.648 46.9957 182.627 47.1654 182.606 47.3986C182.585 47.7167 182.564 47.8439 182.459 48.0984C182.417 48.2256 182.375 48.374 182.375 48.5649C182.375 48.8193 182.417 49.1162 182.417 49.3918C182.417 49.4979 182.396 49.6251 182.396 49.7311C182.29 50.4096 182.332 50.7701 181.911 50.7701C181.764 50.7701 181.574 50.7277 181.279 50.6429C180.436 50.3672 178.814 49.1586 178.814 47.9923C178.814 47.7167 178.856 47.441 178.877 47.1866C178.898 46.8685 178.962 46.5504 178.962 46.2324C178.962 45.7235 178.814 45.2782 178.161 45.0661C177.929 45.0237 177.719 44.9813 177.487 44.9813C176.728 44.9813 175.991 45.2782 175.654 46.0203C175.338 46.7413 175.401 46.4656 174.98 47.0169C174.622 47.6107 174.706 48.3528 174.474 49.0526C174.2 49.8583 174.285 50.6005 174.074 51.173C173.99 51.385 173.884 51.4487 173.758 51.4487C173.568 51.4487 173.337 51.279 173.042 51.1306C172.199 50.6641 171.019 49.7311 171.019 48.6073C171.019 48.48 171.04 48.3316 171.061 48.2044C171.188 47.7379 171.251 47.4622 171.251 47.2502C171.251 46.7625 170.851 46.9109 170.05 46.0627C169.65 45.6387 169.523 45.363 169.439 44.8117V44.7905C169.439 44.4724 169.966 44.3452 170.219 44.218C170.45 44.1119 170.682 43.9847 170.914 43.8999C171.251 43.7727 171.841 43.5606 172.073 43.3274ZM179.657 40.5072C179.825 40.1255 179.91 39.5106 179.931 39.0441V38.7684C179.91 38.6412 179.91 38.514 179.91 38.4079C179.91 38.2595 179.91 38.1111 179.931 37.9414C179.952 37.4962 179.952 37.1145 179.973 36.6904C179.994 36.648 179.994 36.4571 179.994 36.3087C179.994 36.1603 179.973 36.0331 179.91 36.0118H179.889C179.573 36.0118 179.025 37.0085 178.877 37.2629C178.814 37.3689 178.751 37.4537 178.688 37.581C178.498 37.9202 178.266 38.2383 178.077 38.5776C177.908 38.8956 177.698 39.1077 177.487 39.4046C177.318 39.6378 176.897 40.4648 176.897 40.9101C176.897 40.9949 176.897 41.0373 176.918 41.1009C177.044 41.419 177.36 41.4826 177.655 41.4826C177.761 41.4826 177.887 41.4614 177.971 41.4614C178.351 41.4614 178.877 41.419 179.151 41.2281L179.172 41.2069C179.278 41.0797 179.594 40.6132 179.657 40.5072Z" fill="#00E58D"/>
<path d="M188.421 44.0271C188.421 44.2391 188.463 44.3875 188.463 44.536C188.463 44.6208 188.442 44.6632 188.421 44.748L188.295 45.0237C188.189 45.2781 188.084 45.5114 188.021 45.787C187.936 46.1263 187.852 46.4444 187.789 46.7836C187.747 47.0169 187.726 47.2289 187.726 47.3774C187.726 47.8439 187.894 47.9923 188.252 47.9923C188.463 47.9923 188.737 47.9287 189.095 47.8651C189.706 47.7378 190.17 47.547 190.76 47.3986C191.097 47.2925 191.37 47.2501 191.581 47.2501C192.024 47.2501 192.319 47.4622 192.761 47.9923L193.161 48.48C193.477 48.8829 193.962 49.4342 193.962 49.8159C193.962 50.0703 193.73 50.2612 193.14 50.2824C192.34 50.3036 192.108 50.2612 191.307 50.4732C190.633 50.6428 190.465 50.7277 189.748 50.7489C189.285 50.7701 189.011 50.8337 188.59 50.9821C188.168 51.1093 187.831 51.2154 187.41 51.3214C186.757 51.491 186.462 51.7667 185.893 51.9575C185.83 51.9787 185.766 51.9999 185.703 51.9999C185.092 51.9999 184.566 51.0033 184.313 50.5368C184.123 50.1339 183.934 49.7947 183.934 49.4978C183.934 49.2009 184.123 48.9677 184.713 48.8405C184.987 48.7769 185.935 48.8617 185.935 48.5436C185.935 48.48 185.893 48.3952 185.766 48.2892C184.882 47.547 184.418 47.2925 184.418 46.4656C184.418 46.2323 184.46 45.9355 184.545 45.5538C184.903 44.1967 185.429 42.9456 185.682 41.5249C185.703 41.4825 185.703 41.4401 185.703 41.3977C186.356 39.0228 186.63 37.3689 187.304 35.0364C187.515 34.2942 187.578 33.7005 187.768 32.9796C187.81 32.7675 187.873 32.5555 187.958 32.3646C188.147 31.8557 188.358 31.5801 188.695 31.5801C188.884 31.5801 189.095 31.6649 189.348 31.8345C190.149 32.3646 190.802 32.6403 191.244 33.5097C191.434 33.8702 191.497 34.1246 191.497 34.3367C191.497 34.6123 191.413 34.8668 191.392 35.2696C191.37 36.245 190.907 36.754 190.275 37.8354C189.833 38.5775 189.875 39.1925 189.601 39.8922C189.432 40.3587 189.495 40.4859 189.411 40.91C189.306 41.4401 189.053 41.4825 189.053 41.9066V42.0126C189.074 42.1611 189.095 42.2247 189.095 42.2883C189.095 42.3519 189.074 42.4155 189.053 42.564C189.011 42.7972 188.948 43.0093 188.884 43.2425C188.758 43.6242 188.484 43.7514 188.421 44.0271Z" fill="#00E58D"/>
</g>
<path d="M76.4248 12.3389C67.3424 8.42736 58.0374 5.75293 48.6807 5.3436C38.7447 4.91815 28.9257 7.09352 19.6609 11.8131C13.6038 14.901 7.84182 19.0133 2.35239 23.8099C1.84502 24.2532 1.57864 25.6565 1.49819 26.4719C1.44878 27.0008 1.41479 28.0347 1.93629 27.58C11.1674 19.51 21.2854 13.5679 31.992 10.9382C41.2856 8.64626 50.849 8.92871 60.2752 11.204C65.3767 12.4293 70.4235 14.2275 75.4125 16.3681C76.1524 16.6982 77.0296 12.5961 76.4248 12.3389Z" fill="#00E58D"/>
<path d="M76.7153 12.429C75.6692 10.6683 74.5876 8.93067 73.6736 7.01232C72.6873 4.95323 71.8404 2.73625 70.9453 0.5866C70.6581 -0.0973116 70.1172 1.39086 70.034 1.657C69.8807 2.15594 69.7508 2.68716 69.6877 3.23841C69.6508 3.55814 69.599 4.03215 69.7298 4.33602C70.6318 6.47448 71.4714 8.69168 72.4581 10.7617C73.3721 12.6801 74.4611 14.4175 75.4999 16.1784C75.8489 16.7726 76.3026 15.4628 76.4112 15.108C76.5645 14.6091 76.6943 14.0778 76.7574 13.5266C76.7811 13.2402 76.8578 12.6666 76.7153 12.429Z" fill="#00E58D"/>
<path d="M75.4362 15.9035C75.4367 15.9145 75.4445 15.9252 75.4377 15.9364C75.4473 15.6614 75.4496 15.3867 75.4591 15.1117C76.2405 12.9462 76.4483 12.193 76.083 12.8629C76.2204 12.6611 76.2545 12.6052 76.1994 12.6837C76.1775 12.6843 76.1166 12.796 76.0956 12.8186C76.0118 12.9089 75.9353 12.9991 75.851 13.0784C75.6268 13.3047 75.331 13.5661 75.1477 13.7252C74.3859 14.3737 73.5997 14.968 72.8129 15.5513C71.0767 16.8435 69.3234 18.0812 67.5534 19.2755C67.0202 19.6317 66.757 20.7821 66.6166 21.5664C66.5821 21.7761 66.3584 23.6397 66.8205 23.3296C68.8819 21.94 70.9341 20.5067 72.9374 18.965C73.7514 18.337 74.5727 17.7087 75.3374 16.9613C75.583 16.7234 75.813 16.4639 76.003 16.1288C76.2407 15.7153 76.4145 15.1828 76.5454 14.6735C76.6689 14.1645 76.8781 13.2793 76.7568 12.7005C76.5778 11.8156 76.1374 12.6086 75.9519 13.0425C75.6812 13.6987 75.2582 15.0406 75.4362 15.9035Z" fill="#00E58D"/>
<defs>
<clipPath id="clip0">
<rect width="133" height="50" fill="white" transform="translate(85 2)"/>
</clipPath>
</defs>
</svg>
